G04 #@! TF.FileFunction,Soldermask,Bot*
%FSLAX46Y46*%
G04 Gerber Fmt 4.6, Leading zero omitted, Abs format (unit mm)*
G04 Created by KiCad (PCBNEW 4.0.2-stable) date 12/22/2016 4:19:51 PM*
%MOMM*%
G01*
G04 APERTURE LIST*
%ADD10C,0.100000*%
%ADD11C,0.762000*%
%ADD12C,2.000000*%
%ADD13R,1.200000X0.750000*%
%ADD14C,3.810000*%
%ADD15R,1.524000X1.524000*%
%ADD16C,1.524000*%
%ADD17R,1.727200X1.727200*%
%ADD18O,1.727200X1.727200*%
%ADD19C,3.500000*%
%ADD20R,1.600000X1.000000*%
%ADD21C,2.750000*%
%ADD22C,3.300000*%
%ADD23C,2.790000*%
%ADD24C,1.501140*%
%ADD25C,3.500120*%
%ADD26C,3.000000*%
%ADD27C,1.500000*%
%ADD28R,0.750000X1.200000*%
%ADD29R,2.500000X2.000000*%
%ADD30R,1.500000X1.250000*%
%ADD31R,1.450000X0.450000*%
G04 APERTURE END LIST*
D10*
D11*
X76024803Y-58674000D02*
G75*
G03X76024803Y-58674000I-1983803J0D01*
G01*
X217883803Y-58420000D02*
G75*
G03X217883803Y-58420000I-1983803J0D01*
G01*
X217883803Y-137160000D02*
G75*
G03X217883803Y-137160000I-1983803J0D01*
G01*
X76024803Y-137414000D02*
G75*
G03X76024803Y-137414000I-1983803J0D01*
G01*
D12*
X144272000Y-120543000D03*
X139192000Y-120543000D03*
X144272000Y-105263000D03*
X139192000Y-105263000D03*
X123952000Y-105263000D03*
X121412000Y-105263000D03*
X123952000Y-120543000D03*
X121412000Y-120543000D03*
D13*
X195646000Y-120904000D03*
X197546000Y-120904000D03*
X199451000Y-112141000D03*
X197551000Y-112141000D03*
D14*
X216789000Y-66040000D03*
X216789000Y-129540000D03*
D15*
X218186000Y-122682000D03*
D16*
X218186000Y-119888000D03*
X218186000Y-117221000D03*
X218186000Y-114427000D03*
X218186000Y-111633000D03*
X218186000Y-108839000D03*
X218186000Y-106045000D03*
X218186000Y-103378000D03*
X218186000Y-100584000D03*
X218186000Y-97790000D03*
X218186000Y-94996000D03*
X218186000Y-92202000D03*
X218186000Y-89535000D03*
X218186000Y-86741000D03*
X218186000Y-83947000D03*
X218186000Y-81153000D03*
X218186000Y-78359000D03*
X218186000Y-75692000D03*
X218186000Y-72898000D03*
X215392000Y-121285000D03*
X215392000Y-118491000D03*
X215392000Y-115697000D03*
X215392000Y-113030000D03*
X215392000Y-110236000D03*
X215392000Y-107442000D03*
X215392000Y-104648000D03*
X215392000Y-101854000D03*
X215392000Y-99187000D03*
X215392000Y-96393000D03*
X215392000Y-93599000D03*
X215392000Y-90805000D03*
X215392000Y-87884000D03*
X215392000Y-85344000D03*
X215392000Y-82550000D03*
X215392000Y-79756000D03*
X215392000Y-76962000D03*
X215392000Y-74168000D03*
D17*
X162306000Y-117475000D03*
D18*
X164846000Y-117475000D03*
X162306000Y-120015000D03*
X164846000Y-120015000D03*
X162306000Y-122555000D03*
X164846000Y-122555000D03*
X162306000Y-125095000D03*
X164846000Y-125095000D03*
X162306000Y-127635000D03*
X164846000Y-127635000D03*
X162306000Y-130175000D03*
X164846000Y-130175000D03*
X162306000Y-132715000D03*
X164846000Y-132715000D03*
X162306000Y-135255000D03*
X164846000Y-135255000D03*
D19*
X73776000Y-131189000D03*
X73776000Y-115699000D03*
X73776000Y-110869000D03*
X73776000Y-105539000D03*
D20*
X116903500Y-72822000D03*
X116903500Y-76022000D03*
D21*
X94101000Y-62484000D03*
X96641000Y-62484000D03*
X130181000Y-62484000D03*
X127641000Y-62484000D03*
X105281000Y-62484000D03*
X107821000Y-62484000D03*
X119001000Y-62484000D03*
X116461000Y-62484000D03*
D22*
X81151000Y-62484000D03*
X143131000Y-62484000D03*
D23*
X81151000Y-66934000D03*
D24*
X170027600Y-63550800D03*
X167538400Y-63550800D03*
X167538400Y-65557400D03*
X170027600Y-65557400D03*
D25*
X174802800Y-60833000D03*
X162763200Y-60833000D03*
D19*
X73776000Y-100836000D03*
X73776000Y-95506000D03*
D26*
X123888500Y-72961500D03*
X126428500Y-90741500D03*
D12*
X139128500Y-86931500D03*
X139128500Y-76771500D03*
X194179000Y-78136000D03*
X192179000Y-72136000D03*
X194179000Y-66136000D03*
X206379000Y-78136000D03*
D27*
X94297500Y-99918000D03*
D19*
X116584000Y-99250500D03*
D22*
X111504000Y-99250500D03*
X107444000Y-99250500D03*
D19*
X102364000Y-99250500D03*
D28*
X214884000Y-147894000D03*
X214884000Y-149794000D03*
D29*
X167513000Y-106839000D03*
X167513000Y-110839000D03*
D30*
X173970000Y-123952000D03*
X171470000Y-123952000D03*
X173970000Y-121158000D03*
X171470000Y-121158000D03*
X173970000Y-118491000D03*
X171470000Y-118491000D03*
X173970000Y-115697000D03*
X171470000Y-115697000D03*
D28*
X211328000Y-135951000D03*
X211328000Y-134051000D03*
D30*
X173843000Y-129540000D03*
X171343000Y-129540000D03*
X173970000Y-126746000D03*
X171470000Y-126746000D03*
D13*
X204409000Y-133858000D03*
X206309000Y-133858000D03*
D31*
X205359000Y-136017000D03*
X205359000Y-136667000D03*
X205359000Y-137317000D03*
X205359000Y-137967000D03*
X209759000Y-136017000D03*
X209759000Y-136667000D03*
X209759000Y-137317000D03*
X209759000Y-137967000D03*
M02*
