G04 #@! TF.FileFunction,Copper,L4,Bot,Signal*
%FSLAX46Y46*%
G04 Gerber Fmt 4.6, Leading zero omitted, Abs format (unit mm)*
G04 Created by KiCad (PCBNEW 4.0.2-stable) date 12/22/2016 4:19:51 PM*
%MOMM*%
G01*
G04 APERTURE LIST*
%ADD10C,0.100000*%
%ADD11C,2.000000*%
%ADD12C,5.715000*%
%ADD13R,1.200000X0.750000*%
%ADD14C,3.810000*%
%ADD15R,1.524000X1.524000*%
%ADD16C,1.524000*%
%ADD17R,1.727200X1.727200*%
%ADD18O,1.727200X1.727200*%
%ADD19C,3.500000*%
%ADD20R,1.600000X1.000000*%
%ADD21C,2.750000*%
%ADD22C,3.300000*%
%ADD23C,2.790000*%
%ADD24C,1.501140*%
%ADD25C,3.500120*%
%ADD26C,3.000000*%
%ADD27C,1.500000*%
%ADD28R,0.750000X1.200000*%
%ADD29R,2.500000X2.000000*%
%ADD30R,1.500000X1.250000*%
%ADD31R,1.450000X0.450000*%
%ADD32C,0.700000*%
%ADD33C,0.250000*%
%ADD34C,0.500000*%
%ADD35C,0.254000*%
G04 APERTURE END LIST*
D10*
D11*
X144272000Y-120543000D03*
X139192000Y-120543000D03*
X144272000Y-105263000D03*
X139192000Y-105263000D03*
X123952000Y-105263000D03*
X121412000Y-105263000D03*
X123952000Y-120543000D03*
X121412000Y-120543000D03*
D12*
X74041000Y-137414000D03*
X74041000Y-58674000D03*
D13*
X195646000Y-120904000D03*
X197546000Y-120904000D03*
X199451000Y-112141000D03*
X197551000Y-112141000D03*
D14*
X216789000Y-66040000D03*
X216789000Y-129540000D03*
D15*
X218186000Y-122682000D03*
D16*
X218186000Y-119888000D03*
X218186000Y-117221000D03*
X218186000Y-114427000D03*
X218186000Y-111633000D03*
X218186000Y-108839000D03*
X218186000Y-106045000D03*
X218186000Y-103378000D03*
X218186000Y-100584000D03*
X218186000Y-97790000D03*
X218186000Y-94996000D03*
X218186000Y-92202000D03*
X218186000Y-89535000D03*
X218186000Y-86741000D03*
X218186000Y-83947000D03*
X218186000Y-81153000D03*
X218186000Y-78359000D03*
X218186000Y-75692000D03*
X218186000Y-72898000D03*
X215392000Y-121285000D03*
X215392000Y-118491000D03*
X215392000Y-115697000D03*
X215392000Y-113030000D03*
X215392000Y-110236000D03*
X215392000Y-107442000D03*
X215392000Y-104648000D03*
X215392000Y-101854000D03*
X215392000Y-99187000D03*
X215392000Y-96393000D03*
X215392000Y-93599000D03*
X215392000Y-90805000D03*
X215392000Y-87884000D03*
X215392000Y-85344000D03*
X215392000Y-82550000D03*
X215392000Y-79756000D03*
X215392000Y-76962000D03*
X215392000Y-74168000D03*
D17*
X162306000Y-117475000D03*
D18*
X164846000Y-117475000D03*
X162306000Y-120015000D03*
X164846000Y-120015000D03*
X162306000Y-122555000D03*
X164846000Y-122555000D03*
X162306000Y-125095000D03*
X164846000Y-125095000D03*
X162306000Y-127635000D03*
X164846000Y-127635000D03*
X162306000Y-130175000D03*
X164846000Y-130175000D03*
X162306000Y-132715000D03*
X164846000Y-132715000D03*
X162306000Y-135255000D03*
X164846000Y-135255000D03*
D19*
X73776000Y-131189000D03*
X73776000Y-115699000D03*
X73776000Y-110869000D03*
X73776000Y-105539000D03*
D20*
X116903500Y-72822000D03*
X116903500Y-76022000D03*
D21*
X94101000Y-62484000D03*
X96641000Y-62484000D03*
X130181000Y-62484000D03*
X127641000Y-62484000D03*
X105281000Y-62484000D03*
X107821000Y-62484000D03*
X119001000Y-62484000D03*
X116461000Y-62484000D03*
D22*
X81151000Y-62484000D03*
X143131000Y-62484000D03*
D23*
X81151000Y-66934000D03*
D12*
X215900000Y-137160000D03*
X215900000Y-58420000D03*
D24*
X170027600Y-63550800D03*
X167538400Y-63550800D03*
X167538400Y-65557400D03*
X170027600Y-65557400D03*
D25*
X174802800Y-60833000D03*
X162763200Y-60833000D03*
D19*
X73776000Y-100836000D03*
X73776000Y-95506000D03*
D26*
X123888500Y-72961500D03*
X126428500Y-90741500D03*
D11*
X139128500Y-86931500D03*
X139128500Y-76771500D03*
X194179000Y-78136000D03*
X192179000Y-72136000D03*
X194179000Y-66136000D03*
X206379000Y-78136000D03*
D27*
X94297500Y-99918000D03*
D19*
X116584000Y-99250500D03*
D22*
X111504000Y-99250500D03*
X107444000Y-99250500D03*
D19*
X102364000Y-99250500D03*
D28*
X214884000Y-147894000D03*
X214884000Y-149794000D03*
D29*
X167513000Y-106839000D03*
X167513000Y-110839000D03*
D30*
X173970000Y-123952000D03*
X171470000Y-123952000D03*
X173970000Y-121158000D03*
X171470000Y-121158000D03*
X173970000Y-118491000D03*
X171470000Y-118491000D03*
X173970000Y-115697000D03*
X171470000Y-115697000D03*
D28*
X211328000Y-135951000D03*
X211328000Y-134051000D03*
D30*
X173843000Y-129540000D03*
X171343000Y-129540000D03*
X173970000Y-126746000D03*
X171470000Y-126746000D03*
D13*
X204409000Y-133858000D03*
X206309000Y-133858000D03*
D31*
X205359000Y-136017000D03*
X205359000Y-136667000D03*
X205359000Y-137317000D03*
X205359000Y-137967000D03*
X209759000Y-136017000D03*
X209759000Y-136667000D03*
X209759000Y-137317000D03*
X209759000Y-137967000D03*
D32*
X197739000Y-128905000D03*
X197739000Y-125476000D03*
X158496000Y-129286000D03*
X152146000Y-134493000D03*
X142113000Y-132588000D03*
X201041000Y-109982000D03*
X212217000Y-107315000D03*
X180848000Y-136144000D03*
X155575000Y-112522000D03*
X151130000Y-118364000D03*
X175006000Y-81661000D03*
X148590000Y-97790000D03*
X211455000Y-132715000D03*
X209804000Y-138684000D03*
X171450000Y-113919000D03*
X169799000Y-129667000D03*
X192151000Y-103251000D03*
X193294000Y-110490000D03*
X196850000Y-122428000D03*
X176403000Y-107950000D03*
X169545000Y-110490000D03*
X206756000Y-135255000D03*
X157353000Y-82042000D03*
X192278000Y-143002000D03*
X198882000Y-98552000D03*
X204089000Y-98552000D03*
X213614000Y-91694000D03*
X202057000Y-84963000D03*
X171196000Y-94869000D03*
X164973000Y-86360000D03*
X140335000Y-131191000D03*
X206629000Y-148209000D03*
X212344000Y-129286000D03*
X212090000Y-122682000D03*
X212598000Y-114681000D03*
X160020000Y-77470000D03*
X149352000Y-74803000D03*
X159893000Y-72644000D03*
X205232000Y-131699000D03*
X188341000Y-130683000D03*
X211836000Y-148971000D03*
X167132000Y-145796000D03*
X150368000Y-145923000D03*
X187452000Y-146050000D03*
X196723000Y-125603000D03*
X196850000Y-128778000D03*
X94440500Y-75676000D03*
X91567000Y-97409000D03*
X103505000Y-124968000D03*
X106680000Y-130429000D03*
X106172000Y-109347000D03*
X85598000Y-132207000D03*
X95123000Y-121031000D03*
X110109000Y-127635000D03*
X126111000Y-123825000D03*
X123571000Y-123825000D03*
X128397000Y-127635000D03*
X92075000Y-133223000D03*
X134239000Y-133858000D03*
X133477000Y-125984000D03*
X88138000Y-124777500D03*
X104013000Y-117348000D03*
X124841000Y-127762000D03*
X87757000Y-105410000D03*
X129286000Y-131572000D03*
X133096000Y-132080000D03*
X99695000Y-126619000D03*
X106299000Y-134493000D03*
X93345000Y-139319000D03*
X93345000Y-130429000D03*
X96901000Y-125730000D03*
X98425000Y-118364000D03*
X94154000Y-117348000D03*
X92964000Y-104013000D03*
X91313000Y-92456000D03*
X88011000Y-94615000D03*
X97790000Y-76581000D03*
X80645000Y-81661000D03*
X80899000Y-122110500D03*
X84328000Y-131445000D03*
X90995500Y-72644000D03*
X95758000Y-72199500D03*
X90297000Y-99441000D03*
X97980500Y-99504500D03*
X170307000Y-81661000D03*
X169672000Y-102870000D03*
X184658000Y-137541000D03*
X184658000Y-139192000D03*
X148971000Y-101473000D03*
X168402000Y-80137000D03*
X160401000Y-137541000D03*
X169481500Y-83629500D03*
X160083500Y-109537500D03*
X160401000Y-131953000D03*
X156464000Y-77978000D03*
X156464000Y-74422000D03*
X147955000Y-85344000D03*
X147828000Y-72390000D03*
X197485000Y-94742000D03*
X197993000Y-85217000D03*
X201168000Y-94742000D03*
X194945000Y-144780000D03*
X194564000Y-125476000D03*
X160147000Y-76200000D03*
X190500000Y-79248000D03*
X190246000Y-68199000D03*
X174879000Y-89408000D03*
X177292000Y-82677000D03*
X117538500Y-77470000D03*
X115125500Y-76136500D03*
X115316000Y-77216000D03*
X116268500Y-77470000D03*
X118554500Y-77152500D03*
X118808500Y-76136500D03*
X106108500Y-74930000D03*
X161036000Y-79248000D03*
X160909000Y-78105000D03*
X219329000Y-139446000D03*
X200025000Y-149098000D03*
X205613000Y-141097000D03*
X198628000Y-122809000D03*
X205105000Y-125984000D03*
X208407000Y-129413000D03*
X186563000Y-126111000D03*
X184404000Y-140589000D03*
X143129000Y-140970000D03*
X143383000Y-130810000D03*
X208407000Y-89789000D03*
X179832000Y-91440000D03*
X176276000Y-99949000D03*
X168148000Y-100457000D03*
X165735000Y-96139000D03*
X154305000Y-97028000D03*
X153797000Y-122301000D03*
X212725000Y-89535000D03*
X208788000Y-146558000D03*
X199009000Y-148590000D03*
X195453000Y-148463000D03*
X190881000Y-148590000D03*
X208788000Y-132715000D03*
X204089000Y-132588000D03*
X204343000Y-127127000D03*
X149225000Y-126111000D03*
X150368000Y-142240000D03*
X187579000Y-126619000D03*
X184404000Y-141732000D03*
X157734000Y-122936000D03*
X157226000Y-129794000D03*
X99568000Y-124269500D03*
X106108500Y-137160000D03*
X101092000Y-124523500D03*
X106108500Y-135890000D03*
X105918000Y-133159500D03*
X105918000Y-125031500D03*
X118681500Y-72834500D03*
X118618000Y-71882000D03*
X117856000Y-71310500D03*
X116840000Y-71120000D03*
X115760500Y-71310500D03*
X115062000Y-71882000D03*
X115062000Y-72771000D03*
X107823000Y-74104500D03*
X96901000Y-138049000D03*
X85217000Y-134874000D03*
X88646000Y-127254000D03*
X130937000Y-128397000D03*
X86360000Y-77216000D03*
X92583000Y-118618000D03*
X101473000Y-131699000D03*
X130937000Y-132080000D03*
X100647500Y-134810500D03*
X130873500Y-129794000D03*
X88392000Y-117538500D03*
X88709500Y-76771500D03*
X87884000Y-119761000D03*
X91567000Y-119761000D03*
X94234000Y-127127000D03*
X94234000Y-119761000D03*
X162306000Y-150368000D03*
X209677000Y-149987000D03*
X161417000Y-114046000D03*
X169672000Y-113665000D03*
X172339000Y-111887000D03*
X187706000Y-112141000D03*
X192024000Y-111887000D03*
X165989000Y-126238000D03*
X169799000Y-112014000D03*
X179451000Y-110998000D03*
X182499000Y-113665000D03*
X188849000Y-113919000D03*
X192151000Y-113792000D03*
X195453000Y-113411000D03*
X195453000Y-111506000D03*
X204089000Y-102489000D03*
X200660000Y-107188000D03*
X201422000Y-102489000D03*
X198755000Y-106934000D03*
X199644000Y-107061000D03*
X199517000Y-104140000D03*
X197866000Y-107061000D03*
X199009000Y-102489000D03*
X171958000Y-91821000D03*
X171831000Y-88646000D03*
X192278000Y-112903000D03*
X173990000Y-94996000D03*
X164063500Y-99652000D03*
X154813000Y-100711000D03*
X96964500Y-136779000D03*
X99631500Y-136842500D03*
X102425500Y-133985000D03*
X102362000Y-128651000D03*
X206756000Y-125730000D03*
X204470000Y-121031000D03*
X88773000Y-103187500D03*
X88836500Y-106870500D03*
X90805000Y-131572000D03*
X89535000Y-129159000D03*
X208661000Y-109728000D03*
X206629000Y-94234000D03*
X188976000Y-110744000D03*
X189357000Y-100838000D03*
X189611000Y-97409000D03*
X189103000Y-69977000D03*
X148717000Y-73533000D03*
X160147000Y-70866000D03*
X188722000Y-70993000D03*
X188722000Y-96139000D03*
X188214000Y-100076000D03*
X187960000Y-110998000D03*
X202438000Y-125476000D03*
X201422000Y-131953000D03*
X193675000Y-131826000D03*
X193548000Y-139446000D03*
X203327000Y-127762000D03*
X203454000Y-125476000D03*
X187960000Y-141097000D03*
X189103000Y-127762000D03*
X207645000Y-112141000D03*
X206121000Y-93218000D03*
X205105000Y-106934000D03*
X205613000Y-86360000D03*
X207518000Y-151384000D03*
X203454000Y-110871000D03*
X83058000Y-115189000D03*
X93218000Y-137922000D03*
X175387000Y-125349000D03*
X175260000Y-122555000D03*
X175641000Y-119888000D03*
X175768000Y-117094000D03*
X188087000Y-121539000D03*
X186055000Y-129032000D03*
X175768000Y-128016000D03*
X186944000Y-121158000D03*
X184531000Y-125349000D03*
X167513000Y-99441000D03*
X166878000Y-95504000D03*
X153035000Y-97282000D03*
X151765000Y-129921000D03*
X176149000Y-98552000D03*
X180594000Y-82931000D03*
X165100000Y-112903000D03*
X196088000Y-139192000D03*
X203708000Y-136652000D03*
X195707000Y-136652000D03*
X195707000Y-132842000D03*
X202565000Y-139573000D03*
X203454000Y-137922000D03*
X165862000Y-138430000D03*
X171069000Y-92456000D03*
X169418000Y-107061000D03*
X147193000Y-132588000D03*
X191262000Y-106807000D03*
X202184000Y-110236000D03*
X207264000Y-103886000D03*
X211455000Y-141478000D03*
X195453000Y-122555000D03*
X205486000Y-135128000D03*
X140462000Y-126873000D03*
X200279000Y-143129000D03*
X146431000Y-127635000D03*
X200279000Y-98552000D03*
X177165000Y-93980000D03*
X201803000Y-87376000D03*
X214122000Y-147828000D03*
X205359000Y-138811000D03*
D33*
X197739000Y-125476000D02*
X197739000Y-128905000D01*
X201041000Y-109982000D02*
X200218000Y-110236000D01*
X200218000Y-110236000D02*
X197551000Y-112141000D01*
X211328000Y-134051000D02*
X211389000Y-132781000D01*
X211389000Y-132781000D02*
X211455000Y-132715000D01*
X209759000Y-137967000D02*
X209759000Y-138639000D01*
X209759000Y-138639000D02*
X209804000Y-138684000D01*
X171470000Y-115697000D02*
X171470000Y-113939000D01*
X171470000Y-113939000D02*
X171450000Y-113919000D01*
X171470000Y-115697000D02*
X171470000Y-118491000D01*
X171470000Y-118491000D02*
X171470000Y-121158000D01*
X171470000Y-121158000D02*
X171470000Y-123952000D01*
X171470000Y-123952000D02*
X171470000Y-126746000D01*
X171470000Y-126746000D02*
X171343000Y-126873000D01*
X171343000Y-126873000D02*
X171343000Y-129540000D01*
X171343000Y-129540000D02*
X169926000Y-129540000D01*
X169926000Y-129540000D02*
X169799000Y-129667000D01*
X193294000Y-110490000D02*
X193294000Y-107188000D01*
X193294000Y-107188000D02*
X192151000Y-106045000D01*
X192151000Y-106045000D02*
X192151000Y-103251000D01*
X196850000Y-122428000D02*
X196850000Y-121600000D01*
X196850000Y-121600000D02*
X197546000Y-120904000D01*
X167513000Y-110839000D02*
X169196000Y-110839000D01*
X169196000Y-110839000D02*
X169545000Y-110490000D01*
X206309000Y-133858000D02*
X206309000Y-134808000D01*
X206309000Y-134808000D02*
X206756000Y-135255000D01*
X215392000Y-90805000D02*
X214503000Y-90805000D01*
X214503000Y-90805000D02*
X213614000Y-91694000D01*
X210357000Y-137967000D02*
X209378000Y-137967000D01*
X214884000Y-149794000D02*
X212659000Y-149794000D01*
X212659000Y-149794000D02*
X211836000Y-148971000D01*
X209775000Y-137983000D02*
X209804000Y-138012000D01*
X206309000Y-133858000D02*
X206248000Y-133858000D01*
X209804000Y-137922000D02*
X209759000Y-137967000D01*
X196723000Y-128651000D02*
X196723000Y-125603000D01*
X196850000Y-128778000D02*
X196723000Y-128651000D01*
X94488000Y-75692000D02*
X94456500Y-75692000D01*
X94456500Y-75692000D02*
X94440500Y-75676000D01*
D34*
X106172000Y-109347000D02*
X106045000Y-109347000D01*
D33*
X88138000Y-124777500D02*
X88201500Y-124714000D01*
D34*
X94154000Y-117348000D02*
X94107000Y-117348000D01*
X97980500Y-99504500D02*
X97980500Y-100520500D01*
X102723000Y-105263000D02*
X121412000Y-105263000D01*
X97980500Y-100520500D02*
X102723000Y-105263000D01*
D33*
X91313000Y-98425000D02*
X90297000Y-99441000D01*
X96901000Y-98425000D02*
X91313000Y-98425000D01*
X97980500Y-99504500D02*
X96901000Y-98425000D01*
D34*
X169481500Y-82486500D02*
X170307000Y-81661000D01*
X169481500Y-82486500D02*
X169481500Y-83629500D01*
X168910000Y-98044000D02*
X168910000Y-98171000D01*
X168910000Y-98044000D02*
X168529000Y-96647000D01*
X168529000Y-96647000D02*
X168529000Y-88646000D01*
X168529000Y-88646000D02*
X169481500Y-87693500D01*
X169481500Y-83629500D02*
X169481500Y-87693500D01*
X169418000Y-102616000D02*
X169672000Y-102870000D01*
X169418000Y-98679000D02*
X169418000Y-102616000D01*
X168910000Y-98171000D02*
X169418000Y-98679000D01*
D33*
X184658000Y-139192000D02*
X184658000Y-137541000D01*
X148082000Y-100457000D02*
X148971000Y-101473000D01*
X168402000Y-80137000D02*
X148082000Y-100457000D01*
X160401000Y-137541000D02*
X160401000Y-131953000D01*
X160401000Y-131953000D02*
X160401000Y-109855000D01*
X160401000Y-109855000D02*
X160083500Y-109537500D01*
X156464000Y-74422000D02*
X156464000Y-77978000D01*
X147955000Y-72517000D02*
X147955000Y-85344000D01*
X147828000Y-72390000D02*
X147955000Y-72517000D01*
X194564000Y-125476000D02*
X194564000Y-111252000D01*
X196088000Y-95377000D02*
X197485000Y-94742000D01*
X196088000Y-109728000D02*
X196088000Y-95377000D01*
X194564000Y-111252000D02*
X196088000Y-109728000D01*
X197993000Y-85217000D02*
X199263000Y-86487000D01*
X199263000Y-86487000D02*
X199263000Y-91694000D01*
X199263000Y-91694000D02*
X201168000Y-94742000D01*
X194564000Y-142748000D02*
X194564000Y-125476000D01*
X194945000Y-144780000D02*
X194564000Y-142748000D01*
X167538400Y-65557400D02*
X167538400Y-68808600D01*
X167538400Y-68808600D02*
X160147000Y-76200000D01*
X190500000Y-79248000D02*
X190246000Y-79121000D01*
X190246000Y-79121000D02*
X190246000Y-68199000D01*
X174879000Y-85090000D02*
X174879000Y-89408000D01*
X177292000Y-82677000D02*
X174879000Y-85090000D01*
X116268500Y-77470000D02*
X117475000Y-77406500D01*
X117475000Y-77406500D02*
X117538500Y-77470000D01*
X116903500Y-76022000D02*
X118694000Y-76022000D01*
X115240000Y-76022000D02*
X116903500Y-76022000D01*
X115125500Y-76136500D02*
X115240000Y-76022000D01*
X116268500Y-77470000D02*
X115316000Y-77216000D01*
X118491000Y-77470000D02*
X117792500Y-77724000D01*
X118554500Y-77152500D02*
X118491000Y-77470000D01*
X118694000Y-76022000D02*
X118808500Y-76136500D01*
X116903500Y-75057000D02*
X116903500Y-76022000D01*
X116840000Y-74993500D02*
X116903500Y-75057000D01*
X106172000Y-74993500D02*
X116840000Y-74993500D01*
X106108500Y-74930000D02*
X106172000Y-74993500D01*
X171958000Y-65481200D02*
X170027600Y-63550800D01*
X171958000Y-67945000D02*
X171958000Y-65481200D01*
X161036000Y-79248000D02*
X171958000Y-67945000D01*
X170218100Y-68795900D02*
X170027600Y-65557400D01*
X160909000Y-78105000D02*
X170218100Y-68795900D01*
X200025000Y-149098000D02*
X205613000Y-143510000D01*
X205613000Y-143510000D02*
X205613000Y-141097000D01*
X219583000Y-121285000D02*
X218186000Y-119888000D01*
X219583000Y-139192000D02*
X219583000Y-121285000D01*
X219329000Y-139446000D02*
X219583000Y-139192000D01*
X209759000Y-136667000D02*
X208676000Y-136667000D01*
X204089000Y-122809000D02*
X198628000Y-122809000D01*
X204851000Y-123571000D02*
X204089000Y-122809000D01*
X204851000Y-125730000D02*
X204851000Y-123571000D01*
X205105000Y-125984000D02*
X204851000Y-125730000D01*
X208407000Y-131826000D02*
X208407000Y-129413000D01*
X209296000Y-131826000D02*
X208407000Y-131826000D01*
X209677000Y-132207000D02*
X209296000Y-131826000D01*
X209677000Y-133096000D02*
X209677000Y-132207000D01*
X208593002Y-134179998D02*
X209677000Y-133096000D01*
X208593002Y-136584002D02*
X208593002Y-134179998D01*
X208676000Y-136667000D02*
X208593002Y-136584002D01*
X186563000Y-126111000D02*
X186817000Y-126365000D01*
X186817000Y-126365000D02*
X186817000Y-138176000D01*
X186817000Y-138176000D02*
X184404000Y-140589000D01*
X143129000Y-140970000D02*
X143383000Y-140716000D01*
X143383000Y-140716000D02*
X143383000Y-130810000D01*
X209804000Y-136652000D02*
X209759000Y-136667000D01*
X208661000Y-89535000D02*
X212725000Y-89535000D01*
X208407000Y-89789000D02*
X208661000Y-89535000D01*
X179451000Y-91821000D02*
X179832000Y-91440000D01*
X179451000Y-96774000D02*
X179451000Y-91821000D01*
X176276000Y-99949000D02*
X179451000Y-96774000D01*
X167259000Y-100457000D02*
X168148000Y-100457000D01*
X166243000Y-99441000D02*
X167259000Y-100457000D01*
X166243000Y-96647000D02*
X166243000Y-99441000D01*
X165735000Y-96139000D02*
X166243000Y-96647000D01*
X153924000Y-97409000D02*
X154305000Y-97028000D01*
X153924000Y-122174000D02*
X153924000Y-97409000D01*
X153797000Y-122301000D02*
X153924000Y-122174000D01*
X218186000Y-81153000D02*
X218186000Y-80391000D01*
X218186000Y-80391000D02*
X219456000Y-79121000D01*
X219456000Y-76962000D02*
X218186000Y-75692000D01*
X219456000Y-79121000D02*
X219456000Y-76962000D01*
X219583000Y-82169000D02*
X218567000Y-81153000D01*
X212725000Y-89535000D02*
X213995000Y-88265000D01*
X213995000Y-88265000D02*
X213995000Y-86995000D01*
X213995000Y-86995000D02*
X214376000Y-86614000D01*
X214376000Y-86614000D02*
X216281000Y-86614000D01*
X216281000Y-86614000D02*
X217678000Y-85217000D01*
X217678000Y-85217000D02*
X219583000Y-85217000D01*
X219583000Y-85217000D02*
X219583000Y-82169000D01*
X218567000Y-81153000D02*
X218186000Y-81153000D01*
X195453000Y-148463000D02*
X198882000Y-148463000D01*
X220218000Y-119634000D02*
X220218000Y-140462000D01*
X220218000Y-140462000D02*
X219456000Y-141605000D01*
X219456000Y-141605000D02*
X214376000Y-141605000D01*
X214376000Y-141605000D02*
X210947000Y-145034000D01*
X220218000Y-119634000D02*
X218186000Y-117221000D01*
X210312000Y-145034000D02*
X210947000Y-145034000D01*
X208788000Y-146558000D02*
X210312000Y-145034000D01*
X198882000Y-148463000D02*
X199009000Y-148590000D01*
X191008000Y-148463000D02*
X195453000Y-148463000D01*
X190881000Y-148590000D02*
X191008000Y-148463000D01*
X208504000Y-137317000D02*
X209759000Y-137317000D01*
X208153000Y-137668000D02*
X208504000Y-137317000D01*
X208153000Y-133350000D02*
X208153000Y-137668000D01*
X208788000Y-132715000D02*
X208153000Y-133350000D01*
X204089000Y-127381000D02*
X204089000Y-132588000D01*
X204343000Y-127127000D02*
X204089000Y-127381000D01*
X149225000Y-126111000D02*
X150368000Y-127254000D01*
X150368000Y-127254000D02*
X150368000Y-142240000D01*
X187579000Y-138557000D02*
X187579000Y-126619000D01*
X184404000Y-141732000D02*
X187579000Y-138557000D01*
X209804000Y-137287000D02*
X209759000Y-137317000D01*
X157226000Y-129794000D02*
X157226000Y-123444000D01*
X157226000Y-123444000D02*
X157734000Y-122936000D01*
X215392000Y-79756000D02*
X215392000Y-79248000D01*
X215392000Y-79248000D02*
X213995000Y-77851000D01*
X213995000Y-77851000D02*
X213995000Y-75565000D01*
X213995000Y-75565000D02*
X215392000Y-74168000D01*
X103632000Y-128333500D02*
X99568000Y-124269500D01*
X103632000Y-134683500D02*
X103632000Y-128333500D01*
X106108500Y-137160000D02*
X103632000Y-134683500D01*
X104584500Y-128016000D02*
X101092000Y-124523500D01*
X104584500Y-134366000D02*
X104584500Y-128016000D01*
X106108500Y-135890000D02*
X104584500Y-134366000D01*
X105918000Y-125031500D02*
X105918000Y-133159500D01*
X130181000Y-62484000D02*
X127641000Y-62484000D01*
X123888500Y-72961500D02*
X128143000Y-72961500D01*
X130181000Y-70923500D02*
X130181000Y-62484000D01*
X128143000Y-72961500D02*
X130181000Y-70923500D01*
X116903500Y-72822000D02*
X115113000Y-72822000D01*
X118427500Y-72072500D02*
X118681500Y-72834500D01*
X118618000Y-71882000D02*
X118427500Y-72072500D01*
X116903500Y-71056500D02*
X117856000Y-71310500D01*
X116840000Y-71120000D02*
X116903500Y-71056500D01*
X115506500Y-71183500D02*
X115760500Y-71310500D01*
X115062000Y-71882000D02*
X115506500Y-71183500D01*
X115113000Y-72822000D02*
X115062000Y-72771000D01*
X116903500Y-72822000D02*
X116903500Y-74104500D01*
X116903500Y-74104500D02*
X107823000Y-74104500D01*
X96901000Y-138049000D02*
X96901000Y-138176000D01*
X96901000Y-138176000D02*
X92710000Y-142367000D01*
X92710000Y-142367000D02*
X85217000Y-134874000D01*
X85217000Y-134874000D02*
X92710000Y-142367000D01*
X101473000Y-131699000D02*
X100076000Y-131699000D01*
X93218000Y-128143000D02*
X92329000Y-127254000D01*
X96520000Y-128143000D02*
X93218000Y-128143000D01*
X100076000Y-131699000D02*
X96520000Y-128143000D01*
X92583000Y-118618000D02*
X92583000Y-127000000D01*
X92583000Y-127000000D02*
X92329000Y-127254000D01*
X92329000Y-127254000D02*
X88646000Y-127254000D01*
X92583000Y-118618000D02*
X86360000Y-118618000D01*
X84963000Y-78613000D02*
X86360000Y-77216000D01*
X84963000Y-117221000D02*
X84963000Y-78613000D01*
X86360000Y-118618000D02*
X84963000Y-117221000D01*
X101473000Y-134302500D02*
X101473000Y-131699000D01*
X106172000Y-139001500D02*
X101473000Y-134302500D01*
X106489500Y-139001500D02*
X106172000Y-139001500D01*
X116840000Y-128651000D02*
X106489500Y-139001500D01*
X130683000Y-128651000D02*
X116840000Y-128651000D01*
X130937000Y-128397000D02*
X130683000Y-128651000D01*
X130873500Y-132016500D02*
X130873500Y-129794000D01*
X130937000Y-132080000D02*
X130873500Y-132016500D01*
X105854500Y-140017500D02*
X100647500Y-134810500D01*
X106362500Y-140017500D02*
X105854500Y-140017500D01*
X116903500Y-129476500D02*
X106362500Y-140017500D01*
X130556000Y-129476500D02*
X116903500Y-129476500D01*
X130873500Y-129794000D02*
X130556000Y-129476500D01*
X86360000Y-114808000D02*
X88392000Y-117538500D01*
X86042500Y-79438500D02*
X86360000Y-114808000D01*
X88709500Y-76771500D02*
X86042500Y-79438500D01*
X91567000Y-119761000D02*
X87884000Y-119761000D01*
X94234000Y-127127000D02*
X94234000Y-119761000D01*
X162306000Y-135255000D02*
X162306000Y-150368000D01*
X162306000Y-130175000D02*
X162052000Y-130175000D01*
X162052000Y-130175000D02*
X161036000Y-129159000D01*
X161036000Y-129159000D02*
X161036000Y-114427000D01*
X161036000Y-114427000D02*
X161417000Y-114046000D01*
X169672000Y-113665000D02*
X171450000Y-111887000D01*
X171450000Y-111887000D02*
X172339000Y-111887000D01*
X187706000Y-112141000D02*
X187960000Y-111887000D01*
X187960000Y-111887000D02*
X192024000Y-111887000D01*
X166878000Y-125349000D02*
X165989000Y-126238000D01*
X166878000Y-114935000D02*
X166878000Y-125349000D01*
X169799000Y-112014000D02*
X166878000Y-114935000D01*
X179832000Y-110998000D02*
X179451000Y-110998000D01*
X182499000Y-113665000D02*
X179832000Y-110998000D01*
X192024000Y-113919000D02*
X188849000Y-113919000D01*
X192151000Y-113792000D02*
X192024000Y-113919000D01*
X195453000Y-111506000D02*
X195453000Y-113411000D01*
X203073000Y-102489000D02*
X204089000Y-102489000D01*
X201803000Y-103759000D02*
X203073000Y-102489000D01*
X200914000Y-103759000D02*
X201803000Y-103759000D01*
X200660000Y-104013000D02*
X200914000Y-103759000D01*
X200660000Y-107188000D02*
X200660000Y-104013000D01*
X201422000Y-103124000D02*
X201422000Y-102489000D01*
X201549000Y-103251000D02*
X201422000Y-103124000D01*
X199263000Y-103251000D02*
X201549000Y-103251000D01*
X198755000Y-103759000D02*
X199263000Y-103251000D01*
X198755000Y-106934000D02*
X198755000Y-103759000D01*
X199644000Y-104267000D02*
X199644000Y-107061000D01*
X199517000Y-104140000D02*
X199644000Y-104267000D01*
X197866000Y-103632000D02*
X197866000Y-107061000D01*
X199009000Y-102489000D02*
X197866000Y-103632000D01*
X171958000Y-88773000D02*
X171958000Y-91821000D01*
X171831000Y-88646000D02*
X171958000Y-88773000D01*
X182626000Y-112903000D02*
X192278000Y-112903000D01*
X174752000Y-105029000D02*
X182626000Y-112903000D01*
X174752000Y-95758000D02*
X174752000Y-105029000D01*
X173990000Y-94996000D02*
X174752000Y-95758000D01*
X163004500Y-100711000D02*
X154813000Y-100711000D01*
X164063500Y-99652000D02*
X163004500Y-100711000D01*
X99568000Y-136779000D02*
X96964500Y-136779000D01*
X99631500Y-136842500D02*
X99568000Y-136779000D01*
X102425500Y-128714500D02*
X102425500Y-133985000D01*
X102362000Y-128651000D02*
X102425500Y-128714500D01*
X206756000Y-123317000D02*
X206756000Y-125730000D01*
X204470000Y-121031000D02*
X206756000Y-123317000D01*
X88773000Y-103187500D02*
X88836500Y-103251000D01*
X88836500Y-103251000D02*
X88836500Y-106870500D01*
X89535000Y-129159000D02*
X90805000Y-131572000D01*
X206502000Y-94615000D02*
X206502000Y-108204000D01*
X207645000Y-108712000D02*
X208661000Y-109728000D01*
X207010000Y-108712000D02*
X207645000Y-108712000D01*
X206502000Y-108204000D02*
X207010000Y-108712000D01*
X206629000Y-94234000D02*
X206502000Y-94615000D01*
X188976000Y-101219000D02*
X188976000Y-110744000D01*
X189357000Y-100838000D02*
X188976000Y-101219000D01*
X189611000Y-70485000D02*
X189611000Y-97409000D01*
X189103000Y-69977000D02*
X189611000Y-70485000D01*
X157480000Y-73533000D02*
X148717000Y-73533000D01*
X160147000Y-70866000D02*
X157480000Y-73533000D01*
X188722000Y-96139000D02*
X188722000Y-70993000D01*
X188214000Y-110744000D02*
X188214000Y-100076000D01*
X187960000Y-110998000D02*
X188214000Y-110744000D01*
X201803000Y-126365000D02*
X202438000Y-125476000D01*
X201803000Y-131572000D02*
X201803000Y-126365000D01*
X201422000Y-131953000D02*
X201803000Y-131572000D01*
X193675000Y-139319000D02*
X193675000Y-131826000D01*
X193548000Y-139446000D02*
X193675000Y-139319000D01*
X203454000Y-127635000D02*
X203327000Y-127762000D01*
X203454000Y-125476000D02*
X203454000Y-127635000D01*
X189230000Y-139827000D02*
X187960000Y-141097000D01*
X189230000Y-127889000D02*
X189230000Y-139827000D01*
X189103000Y-127762000D02*
X189230000Y-127889000D01*
X207645000Y-109855000D02*
X207645000Y-112141000D01*
X205867000Y-108712000D02*
X207645000Y-109855000D01*
X205867000Y-93599000D02*
X205867000Y-108712000D01*
X206121000Y-93218000D02*
X205867000Y-93599000D01*
X205105000Y-86868000D02*
X205105000Y-106934000D01*
X205613000Y-86360000D02*
X205105000Y-86868000D01*
X207518000Y-151003000D02*
X207518000Y-114935000D01*
X207518000Y-151384000D02*
X207518000Y-151003000D01*
X203454000Y-110871000D02*
X207518000Y-114935000D01*
X83058000Y-115189000D02*
X82994500Y-115252500D01*
X82994500Y-115252500D02*
X83312000Y-127952500D01*
X83312000Y-127952500D02*
X92710000Y-137350500D01*
X92710000Y-137350500D02*
X93218000Y-137922000D01*
X173970000Y-123952000D02*
X173970000Y-124821000D01*
X174498000Y-125349000D02*
X175387000Y-125349000D01*
X173970000Y-124821000D02*
X174498000Y-125349000D01*
X173970000Y-121158000D02*
X173970000Y-121265000D01*
X173970000Y-121265000D02*
X175260000Y-122555000D01*
X173970000Y-118491000D02*
X174244000Y-118491000D01*
X174244000Y-118491000D02*
X175641000Y-119888000D01*
X173970000Y-115697000D02*
X173970000Y-116185000D01*
X173970000Y-116185000D02*
X174879000Y-117094000D01*
X174879000Y-117094000D02*
X175768000Y-117094000D01*
X173843000Y-129540000D02*
X173843000Y-130282000D01*
X184277000Y-130810000D02*
X186055000Y-129032000D01*
X174371000Y-130810000D02*
X184277000Y-130810000D01*
X173843000Y-130282000D02*
X174371000Y-130810000D01*
X187325000Y-122301000D02*
X188087000Y-121539000D01*
X187325000Y-122936000D02*
X187325000Y-122301000D01*
X186944000Y-123317000D02*
X187325000Y-122936000D01*
X186563000Y-123317000D02*
X186944000Y-123317000D01*
X185801000Y-124079000D02*
X186563000Y-123317000D01*
X185801000Y-128778000D02*
X185801000Y-124079000D01*
X186055000Y-129032000D02*
X185801000Y-128778000D01*
X173970000Y-126746000D02*
X174498000Y-126746000D01*
X174498000Y-126746000D02*
X175768000Y-128016000D01*
X174097000Y-126746000D02*
X174498000Y-126746000D01*
X174498000Y-126746000D02*
X175768000Y-128016000D01*
X186563000Y-121539000D02*
X186944000Y-121158000D01*
X186563000Y-122301000D02*
X186563000Y-121539000D01*
X186436000Y-122428000D02*
X186563000Y-122301000D01*
X185039000Y-122428000D02*
X186436000Y-122428000D01*
X184785000Y-122682000D02*
X185039000Y-122428000D01*
X184785000Y-125095000D02*
X184785000Y-122682000D01*
X184531000Y-125349000D02*
X184785000Y-125095000D01*
D34*
X218186000Y-122682000D02*
X218186000Y-123190000D01*
D33*
X167513000Y-96139000D02*
X167513000Y-99441000D01*
X166878000Y-95504000D02*
X167513000Y-96139000D01*
X153035000Y-128651000D02*
X153035000Y-97282000D01*
X151765000Y-129921000D02*
X153035000Y-128651000D01*
X178435000Y-96266000D02*
X176149000Y-98552000D01*
X178435000Y-85090000D02*
X178435000Y-96266000D01*
X180594000Y-82931000D02*
X178435000Y-85090000D01*
X215392000Y-82550000D02*
X217043000Y-82550000D01*
X217043000Y-82550000D02*
X217043000Y-77216000D01*
X217043000Y-77216000D02*
X217297000Y-76962000D01*
X217297000Y-76962000D02*
X215392000Y-76962000D01*
X164846000Y-117475000D02*
X164846000Y-113157000D01*
X164846000Y-113157000D02*
X165100000Y-112903000D01*
X195707000Y-138811000D02*
X195707000Y-136652000D01*
X196088000Y-139192000D02*
X195707000Y-138811000D01*
X203723000Y-136667000D02*
X205359000Y-136667000D01*
X203708000Y-136652000D02*
X203723000Y-136667000D01*
X195707000Y-132842000D02*
X195707000Y-136652000D01*
X203454000Y-137922000D02*
X203454000Y-138684000D01*
X203454000Y-138684000D02*
X202565000Y-139573000D01*
X205359000Y-137317000D02*
X204186000Y-137317000D01*
X204186000Y-137317000D02*
X203581000Y-137922000D01*
X203581000Y-137922000D02*
X203454000Y-137922000D01*
X165862000Y-138430000D02*
X164846000Y-137414000D01*
X164846000Y-137414000D02*
X164846000Y-135255000D01*
X204978000Y-137287000D02*
X204978000Y-137317000D01*
X164846000Y-135255000D02*
X165354000Y-134747000D01*
X169196000Y-106839000D02*
X167513000Y-106839000D01*
X169418000Y-107061000D02*
X169196000Y-106839000D01*
X202184000Y-110236000D02*
X202118000Y-110236000D01*
X202118000Y-110236000D02*
X199451000Y-112141000D01*
X211328000Y-135951000D02*
X211328000Y-141351000D01*
X211328000Y-141351000D02*
X211455000Y-141478000D01*
X209759000Y-136017000D02*
X209992000Y-136017000D01*
X209992000Y-136017000D02*
X211328000Y-135951000D01*
X195646000Y-120904000D02*
X195646000Y-122362000D01*
X195646000Y-122362000D02*
X195453000Y-122555000D01*
X205486000Y-135128000D02*
X205486000Y-134935000D01*
X205359000Y-135255000D02*
X205486000Y-135128000D01*
X205359000Y-136017000D02*
X205359000Y-135255000D01*
X205486000Y-134935000D02*
X204409000Y-133858000D01*
X214188000Y-147894000D02*
X214884000Y-147894000D01*
X214122000Y-147828000D02*
X214188000Y-147894000D01*
X205359000Y-137967000D02*
X205359000Y-138811000D01*
X205359000Y-137922000D02*
X205359000Y-137967000D01*
D35*
G36*
X110744000Y-65151000D02*
X91186000Y-65151000D01*
X91186000Y-62129993D01*
X92082429Y-62129993D01*
X92100611Y-62929414D01*
X92371556Y-63583533D01*
X92677341Y-63728054D01*
X93921395Y-62484000D01*
X92677341Y-61239946D01*
X92371556Y-61384467D01*
X92082429Y-62129993D01*
X91186000Y-62129993D01*
X91186000Y-61060341D01*
X92856946Y-61060341D01*
X94101000Y-62304395D01*
X94115143Y-62290253D01*
X94294748Y-62469858D01*
X94280605Y-62484000D01*
X94294748Y-62498143D01*
X94115143Y-62677748D01*
X94101000Y-62663605D01*
X92856946Y-63907659D01*
X93001467Y-64213444D01*
X93746993Y-64502571D01*
X94546414Y-64484389D01*
X95200533Y-64213444D01*
X95298547Y-64006061D01*
X95371000Y-63933608D01*
X95443453Y-64006061D01*
X95541467Y-64213444D01*
X96286993Y-64502571D01*
X97086414Y-64484389D01*
X97740533Y-64213444D01*
X97885054Y-63907659D01*
X96641000Y-62663605D01*
X96626858Y-62677748D01*
X96447253Y-62498143D01*
X96461395Y-62484000D01*
X96820605Y-62484000D01*
X98064659Y-63728054D01*
X98370444Y-63583533D01*
X98659571Y-62838007D01*
X98643468Y-62129993D01*
X103262429Y-62129993D01*
X103280611Y-62929414D01*
X103551556Y-63583533D01*
X103857341Y-63728054D01*
X105101395Y-62484000D01*
X103857341Y-61239946D01*
X103551556Y-61384467D01*
X103262429Y-62129993D01*
X98643468Y-62129993D01*
X98641389Y-62038586D01*
X98370444Y-61384467D01*
X98064659Y-61239946D01*
X96820605Y-62484000D01*
X96461395Y-62484000D01*
X96447253Y-62469858D01*
X96626858Y-62290253D01*
X96641000Y-62304395D01*
X97885054Y-61060341D01*
X104036946Y-61060341D01*
X105281000Y-62304395D01*
X105295143Y-62290253D01*
X105474748Y-62469858D01*
X105460605Y-62484000D01*
X105474748Y-62498143D01*
X105295143Y-62677748D01*
X105281000Y-62663605D01*
X104036946Y-63907659D01*
X104181467Y-64213444D01*
X104926993Y-64502571D01*
X105726414Y-64484389D01*
X106380533Y-64213444D01*
X106478547Y-64006061D01*
X106551000Y-63933608D01*
X106623453Y-64006061D01*
X106721467Y-64213444D01*
X107466993Y-64502571D01*
X108266414Y-64484389D01*
X108920533Y-64213444D01*
X109065054Y-63907659D01*
X107821000Y-62663605D01*
X107806858Y-62677748D01*
X107627253Y-62498143D01*
X107641395Y-62484000D01*
X108000605Y-62484000D01*
X109244659Y-63728054D01*
X109550444Y-63583533D01*
X109839571Y-62838007D01*
X109821389Y-62038586D01*
X109550444Y-61384467D01*
X109244659Y-61239946D01*
X108000605Y-62484000D01*
X107641395Y-62484000D01*
X107627253Y-62469858D01*
X107806858Y-62290253D01*
X107821000Y-62304395D01*
X109065054Y-61060341D01*
X108920533Y-60754556D01*
X108175007Y-60465429D01*
X107375586Y-60483611D01*
X106721467Y-60754556D01*
X106623453Y-60961939D01*
X106551000Y-61034392D01*
X106478547Y-60961939D01*
X106380533Y-60754556D01*
X105635007Y-60465429D01*
X104835586Y-60483611D01*
X104181467Y-60754556D01*
X104036946Y-61060341D01*
X97885054Y-61060341D01*
X97740533Y-60754556D01*
X96995007Y-60465429D01*
X96195586Y-60483611D01*
X95541467Y-60754556D01*
X95443453Y-60961939D01*
X95371000Y-61034392D01*
X95298547Y-60961939D01*
X95200533Y-60754556D01*
X94455007Y-60465429D01*
X93655586Y-60483611D01*
X93001467Y-60754556D01*
X92856946Y-61060341D01*
X91186000Y-61060341D01*
X91186000Y-59309000D01*
X110744000Y-59309000D01*
X110744000Y-65151000D01*
X110744000Y-65151000D01*
G37*
X110744000Y-65151000D02*
X91186000Y-65151000D01*
X91186000Y-62129993D01*
X92082429Y-62129993D01*
X92100611Y-62929414D01*
X92371556Y-63583533D01*
X92677341Y-63728054D01*
X93921395Y-62484000D01*
X92677341Y-61239946D01*
X92371556Y-61384467D01*
X92082429Y-62129993D01*
X91186000Y-62129993D01*
X91186000Y-61060341D01*
X92856946Y-61060341D01*
X94101000Y-62304395D01*
X94115143Y-62290253D01*
X94294748Y-62469858D01*
X94280605Y-62484000D01*
X94294748Y-62498143D01*
X94115143Y-62677748D01*
X94101000Y-62663605D01*
X92856946Y-63907659D01*
X93001467Y-64213444D01*
X93746993Y-64502571D01*
X94546414Y-64484389D01*
X95200533Y-64213444D01*
X95298547Y-64006061D01*
X95371000Y-63933608D01*
X95443453Y-64006061D01*
X95541467Y-64213444D01*
X96286993Y-64502571D01*
X97086414Y-64484389D01*
X97740533Y-64213444D01*
X97885054Y-63907659D01*
X96641000Y-62663605D01*
X96626858Y-62677748D01*
X96447253Y-62498143D01*
X96461395Y-62484000D01*
X96820605Y-62484000D01*
X98064659Y-63728054D01*
X98370444Y-63583533D01*
X98659571Y-62838007D01*
X98643468Y-62129993D01*
X103262429Y-62129993D01*
X103280611Y-62929414D01*
X103551556Y-63583533D01*
X103857341Y-63728054D01*
X105101395Y-62484000D01*
X103857341Y-61239946D01*
X103551556Y-61384467D01*
X103262429Y-62129993D01*
X98643468Y-62129993D01*
X98641389Y-62038586D01*
X98370444Y-61384467D01*
X98064659Y-61239946D01*
X96820605Y-62484000D01*
X96461395Y-62484000D01*
X96447253Y-62469858D01*
X96626858Y-62290253D01*
X96641000Y-62304395D01*
X97885054Y-61060341D01*
X104036946Y-61060341D01*
X105281000Y-62304395D01*
X105295143Y-62290253D01*
X105474748Y-62469858D01*
X105460605Y-62484000D01*
X105474748Y-62498143D01*
X105295143Y-62677748D01*
X105281000Y-62663605D01*
X104036946Y-63907659D01*
X104181467Y-64213444D01*
X104926993Y-64502571D01*
X105726414Y-64484389D01*
X106380533Y-64213444D01*
X106478547Y-64006061D01*
X106551000Y-63933608D01*
X106623453Y-64006061D01*
X106721467Y-64213444D01*
X107466993Y-64502571D01*
X108266414Y-64484389D01*
X108920533Y-64213444D01*
X109065054Y-63907659D01*
X107821000Y-62663605D01*
X107806858Y-62677748D01*
X107627253Y-62498143D01*
X107641395Y-62484000D01*
X108000605Y-62484000D01*
X109244659Y-63728054D01*
X109550444Y-63583533D01*
X109839571Y-62838007D01*
X109821389Y-62038586D01*
X109550444Y-61384467D01*
X109244659Y-61239946D01*
X108000605Y-62484000D01*
X107641395Y-62484000D01*
X107627253Y-62469858D01*
X107806858Y-62290253D01*
X107821000Y-62304395D01*
X109065054Y-61060341D01*
X108920533Y-60754556D01*
X108175007Y-60465429D01*
X107375586Y-60483611D01*
X106721467Y-60754556D01*
X106623453Y-60961939D01*
X106551000Y-61034392D01*
X106478547Y-60961939D01*
X106380533Y-60754556D01*
X105635007Y-60465429D01*
X104835586Y-60483611D01*
X104181467Y-60754556D01*
X104036946Y-61060341D01*
X97885054Y-61060341D01*
X97740533Y-60754556D01*
X96995007Y-60465429D01*
X96195586Y-60483611D01*
X95541467Y-60754556D01*
X95443453Y-60961939D01*
X95371000Y-61034392D01*
X95298547Y-60961939D01*
X95200533Y-60754556D01*
X94455007Y-60465429D01*
X93655586Y-60483611D01*
X93001467Y-60754556D01*
X92856946Y-61060341D01*
X91186000Y-61060341D01*
X91186000Y-59309000D01*
X110744000Y-59309000D01*
X110744000Y-65151000D01*
G36*
X132461000Y-75946000D02*
X121666000Y-75946000D01*
X121666000Y-74475470D01*
X122554135Y-74475470D01*
X122713918Y-74794239D01*
X123504687Y-75104223D01*
X124353887Y-75087997D01*
X125063082Y-74794239D01*
X125222865Y-74475470D01*
X123888500Y-73141105D01*
X122554135Y-74475470D01*
X121666000Y-74475470D01*
X121666000Y-72577687D01*
X121745777Y-72577687D01*
X121762003Y-73426887D01*
X122055761Y-74136082D01*
X122374530Y-74295865D01*
X123708895Y-72961500D01*
X124068105Y-72961500D01*
X125402470Y-74295865D01*
X125721239Y-74136082D01*
X126031223Y-73345313D01*
X126014997Y-72496113D01*
X125721239Y-71786918D01*
X125402470Y-71627135D01*
X124068105Y-72961500D01*
X123708895Y-72961500D01*
X122374530Y-71627135D01*
X122055761Y-71786918D01*
X121745777Y-72577687D01*
X121666000Y-72577687D01*
X121666000Y-71447530D01*
X122554135Y-71447530D01*
X123888500Y-72781895D01*
X125222865Y-71447530D01*
X125063082Y-71128761D01*
X124272313Y-70818777D01*
X123423113Y-70835003D01*
X122713918Y-71128761D01*
X122554135Y-71447530D01*
X121666000Y-71447530D01*
X121666000Y-70548500D01*
X125285500Y-70548500D01*
X125334910Y-70538494D01*
X125376535Y-70510053D01*
X125403815Y-70467659D01*
X125412500Y-70421500D01*
X125412500Y-62129993D01*
X125622429Y-62129993D01*
X125640611Y-62929414D01*
X125911556Y-63583533D01*
X126217341Y-63728054D01*
X127461395Y-62484000D01*
X126217341Y-61239946D01*
X125911556Y-61384467D01*
X125622429Y-62129993D01*
X125412500Y-62129993D01*
X125412500Y-61060341D01*
X126396946Y-61060341D01*
X127641000Y-62304395D01*
X127655143Y-62290253D01*
X127834748Y-62469858D01*
X127820605Y-62484000D01*
X127834748Y-62498143D01*
X127655143Y-62677748D01*
X127641000Y-62663605D01*
X126396946Y-63907659D01*
X126541467Y-64213444D01*
X127286993Y-64502571D01*
X128086414Y-64484389D01*
X128740533Y-64213444D01*
X128838547Y-64006061D01*
X128911000Y-63933608D01*
X128983453Y-64006061D01*
X129081467Y-64213444D01*
X129826993Y-64502571D01*
X130626414Y-64484389D01*
X131280533Y-64213444D01*
X131425054Y-63907659D01*
X130181000Y-62663605D01*
X130166858Y-62677748D01*
X129987253Y-62498143D01*
X130001395Y-62484000D01*
X130360605Y-62484000D01*
X131604659Y-63728054D01*
X131910444Y-63583533D01*
X132199571Y-62838007D01*
X132181389Y-62038586D01*
X131910444Y-61384467D01*
X131604659Y-61239946D01*
X130360605Y-62484000D01*
X130001395Y-62484000D01*
X129987253Y-62469858D01*
X130166858Y-62290253D01*
X130181000Y-62304395D01*
X131425054Y-61060341D01*
X131280533Y-60754556D01*
X130535007Y-60465429D01*
X129735586Y-60483611D01*
X129081467Y-60754556D01*
X128983453Y-60961939D01*
X128911000Y-61034392D01*
X128838547Y-60961939D01*
X128740533Y-60754556D01*
X127995007Y-60465429D01*
X127195586Y-60483611D01*
X126541467Y-60754556D01*
X126396946Y-61060341D01*
X125412500Y-61060341D01*
X125412500Y-59118500D01*
X132461000Y-59118500D01*
X132461000Y-75946000D01*
X132461000Y-75946000D01*
G37*
X132461000Y-75946000D02*
X121666000Y-75946000D01*
X121666000Y-74475470D01*
X122554135Y-74475470D01*
X122713918Y-74794239D01*
X123504687Y-75104223D01*
X124353887Y-75087997D01*
X125063082Y-74794239D01*
X125222865Y-74475470D01*
X123888500Y-73141105D01*
X122554135Y-74475470D01*
X121666000Y-74475470D01*
X121666000Y-72577687D01*
X121745777Y-72577687D01*
X121762003Y-73426887D01*
X122055761Y-74136082D01*
X122374530Y-74295865D01*
X123708895Y-72961500D01*
X124068105Y-72961500D01*
X125402470Y-74295865D01*
X125721239Y-74136082D01*
X126031223Y-73345313D01*
X126014997Y-72496113D01*
X125721239Y-71786918D01*
X125402470Y-71627135D01*
X124068105Y-72961500D01*
X123708895Y-72961500D01*
X122374530Y-71627135D01*
X122055761Y-71786918D01*
X121745777Y-72577687D01*
X121666000Y-72577687D01*
X121666000Y-71447530D01*
X122554135Y-71447530D01*
X123888500Y-72781895D01*
X125222865Y-71447530D01*
X125063082Y-71128761D01*
X124272313Y-70818777D01*
X123423113Y-70835003D01*
X122713918Y-71128761D01*
X122554135Y-71447530D01*
X121666000Y-71447530D01*
X121666000Y-70548500D01*
X125285500Y-70548500D01*
X125334910Y-70538494D01*
X125376535Y-70510053D01*
X125403815Y-70467659D01*
X125412500Y-70421500D01*
X125412500Y-62129993D01*
X125622429Y-62129993D01*
X125640611Y-62929414D01*
X125911556Y-63583533D01*
X126217341Y-63728054D01*
X127461395Y-62484000D01*
X126217341Y-61239946D01*
X125911556Y-61384467D01*
X125622429Y-62129993D01*
X125412500Y-62129993D01*
X125412500Y-61060341D01*
X126396946Y-61060341D01*
X127641000Y-62304395D01*
X127655143Y-62290253D01*
X127834748Y-62469858D01*
X127820605Y-62484000D01*
X127834748Y-62498143D01*
X127655143Y-62677748D01*
X127641000Y-62663605D01*
X126396946Y-63907659D01*
X126541467Y-64213444D01*
X127286993Y-64502571D01*
X128086414Y-64484389D01*
X128740533Y-64213444D01*
X128838547Y-64006061D01*
X128911000Y-63933608D01*
X128983453Y-64006061D01*
X129081467Y-64213444D01*
X129826993Y-64502571D01*
X130626414Y-64484389D01*
X131280533Y-64213444D01*
X131425054Y-63907659D01*
X130181000Y-62663605D01*
X130166858Y-62677748D01*
X129987253Y-62498143D01*
X130001395Y-62484000D01*
X130360605Y-62484000D01*
X131604659Y-63728054D01*
X131910444Y-63583533D01*
X132199571Y-62838007D01*
X132181389Y-62038586D01*
X131910444Y-61384467D01*
X131604659Y-61239946D01*
X130360605Y-62484000D01*
X130001395Y-62484000D01*
X129987253Y-62469858D01*
X130166858Y-62290253D01*
X130181000Y-62304395D01*
X131425054Y-61060341D01*
X131280533Y-60754556D01*
X130535007Y-60465429D01*
X129735586Y-60483611D01*
X129081467Y-60754556D01*
X128983453Y-60961939D01*
X128911000Y-61034392D01*
X128838547Y-60961939D01*
X128740533Y-60754556D01*
X127995007Y-60465429D01*
X127195586Y-60483611D01*
X126541467Y-60754556D01*
X126396946Y-61060341D01*
X125412500Y-61060341D01*
X125412500Y-59118500D01*
X132461000Y-59118500D01*
X132461000Y-75946000D01*
G36*
X119443500Y-87566500D02*
X119453506Y-87615910D01*
X119481947Y-87657535D01*
X119524341Y-87684815D01*
X119569648Y-87693497D01*
X128905000Y-87756150D01*
X128905000Y-93345551D01*
X114554000Y-93407946D01*
X114554000Y-75692000D01*
X119443500Y-75692000D01*
X119443500Y-87566500D01*
X119443500Y-87566500D01*
G37*
X119443500Y-87566500D02*
X119453506Y-87615910D01*
X119481947Y-87657535D01*
X119524341Y-87684815D01*
X119569648Y-87693497D01*
X128905000Y-87756150D01*
X128905000Y-93345551D01*
X114554000Y-93407946D01*
X114554000Y-75692000D01*
X119443500Y-75692000D01*
X119443500Y-87566500D01*
G36*
X122111639Y-65849500D02*
X119570500Y-65849500D01*
X119521090Y-65859506D01*
X119479465Y-65887947D01*
X119452185Y-65930341D01*
X119443500Y-65976500D01*
X119443500Y-73215500D01*
X118338500Y-73215500D01*
X118338500Y-73107750D01*
X118179750Y-72949000D01*
X117030500Y-72949000D01*
X117030500Y-72969000D01*
X116776500Y-72969000D01*
X116776500Y-72949000D01*
X115627250Y-72949000D01*
X115468500Y-73107750D01*
X115468500Y-73215500D01*
X114363500Y-73215500D01*
X114363500Y-72195691D01*
X115468500Y-72195691D01*
X115468500Y-72536250D01*
X115627250Y-72695000D01*
X116776500Y-72695000D01*
X116776500Y-71845750D01*
X117030500Y-71845750D01*
X117030500Y-72695000D01*
X118179750Y-72695000D01*
X118338500Y-72536250D01*
X118338500Y-72195691D01*
X118241827Y-71962302D01*
X118063199Y-71783673D01*
X117829810Y-71687000D01*
X117189250Y-71687000D01*
X117030500Y-71845750D01*
X116776500Y-71845750D01*
X116617750Y-71687000D01*
X115977190Y-71687000D01*
X115743801Y-71783673D01*
X115565173Y-71962302D01*
X115468500Y-72195691D01*
X114363500Y-72195691D01*
X114363500Y-65722500D01*
X114353494Y-65673090D01*
X114325053Y-65631465D01*
X114282659Y-65604185D01*
X114236500Y-65595500D01*
X113792000Y-65595500D01*
X113792000Y-62129993D01*
X114442429Y-62129993D01*
X114460611Y-62929414D01*
X114731556Y-63583533D01*
X115037341Y-63728054D01*
X116281395Y-62484000D01*
X115037341Y-61239946D01*
X114731556Y-61384467D01*
X114442429Y-62129993D01*
X113792000Y-62129993D01*
X113792000Y-61060341D01*
X115216946Y-61060341D01*
X116461000Y-62304395D01*
X116475143Y-62290253D01*
X116654748Y-62469858D01*
X116640605Y-62484000D01*
X116654748Y-62498143D01*
X116475143Y-62677748D01*
X116461000Y-62663605D01*
X115216946Y-63907659D01*
X115361467Y-64213444D01*
X116106993Y-64502571D01*
X116906414Y-64484389D01*
X117560533Y-64213444D01*
X117658547Y-64006061D01*
X117731000Y-63933608D01*
X117803453Y-64006061D01*
X117901467Y-64213444D01*
X118646993Y-64502571D01*
X119446414Y-64484389D01*
X120100533Y-64213444D01*
X120245054Y-63907659D01*
X119001000Y-62663605D01*
X118986858Y-62677748D01*
X118807253Y-62498143D01*
X118821395Y-62484000D01*
X119180605Y-62484000D01*
X120424659Y-63728054D01*
X120730444Y-63583533D01*
X121019571Y-62838007D01*
X121001389Y-62038586D01*
X120730444Y-61384467D01*
X120424659Y-61239946D01*
X119180605Y-62484000D01*
X118821395Y-62484000D01*
X118807253Y-62469858D01*
X118986858Y-62290253D01*
X119001000Y-62304395D01*
X120245054Y-61060341D01*
X120100533Y-60754556D01*
X119355007Y-60465429D01*
X118555586Y-60483611D01*
X117901467Y-60754556D01*
X117803453Y-60961939D01*
X117731000Y-61034392D01*
X117658547Y-60961939D01*
X117560533Y-60754556D01*
X116815007Y-60465429D01*
X116015586Y-60483611D01*
X115361467Y-60754556D01*
X115216946Y-61060341D01*
X113792000Y-61060341D01*
X113792000Y-59055000D01*
X122172851Y-59055000D01*
X122111639Y-65849500D01*
X122111639Y-65849500D01*
G37*
X122111639Y-65849500D02*
X119570500Y-65849500D01*
X119521090Y-65859506D01*
X119479465Y-65887947D01*
X119452185Y-65930341D01*
X119443500Y-65976500D01*
X119443500Y-73215500D01*
X118338500Y-73215500D01*
X118338500Y-73107750D01*
X118179750Y-72949000D01*
X117030500Y-72949000D01*
X117030500Y-72969000D01*
X116776500Y-72969000D01*
X116776500Y-72949000D01*
X115627250Y-72949000D01*
X115468500Y-73107750D01*
X115468500Y-73215500D01*
X114363500Y-73215500D01*
X114363500Y-72195691D01*
X115468500Y-72195691D01*
X115468500Y-72536250D01*
X115627250Y-72695000D01*
X116776500Y-72695000D01*
X116776500Y-71845750D01*
X117030500Y-71845750D01*
X117030500Y-72695000D01*
X118179750Y-72695000D01*
X118338500Y-72536250D01*
X118338500Y-72195691D01*
X118241827Y-71962302D01*
X118063199Y-71783673D01*
X117829810Y-71687000D01*
X117189250Y-71687000D01*
X117030500Y-71845750D01*
X116776500Y-71845750D01*
X116617750Y-71687000D01*
X115977190Y-71687000D01*
X115743801Y-71783673D01*
X115565173Y-71962302D01*
X115468500Y-72195691D01*
X114363500Y-72195691D01*
X114363500Y-65722500D01*
X114353494Y-65673090D01*
X114325053Y-65631465D01*
X114282659Y-65604185D01*
X114236500Y-65595500D01*
X113792000Y-65595500D01*
X113792000Y-62129993D01*
X114442429Y-62129993D01*
X114460611Y-62929414D01*
X114731556Y-63583533D01*
X115037341Y-63728054D01*
X116281395Y-62484000D01*
X115037341Y-61239946D01*
X114731556Y-61384467D01*
X114442429Y-62129993D01*
X113792000Y-62129993D01*
X113792000Y-61060341D01*
X115216946Y-61060341D01*
X116461000Y-62304395D01*
X116475143Y-62290253D01*
X116654748Y-62469858D01*
X116640605Y-62484000D01*
X116654748Y-62498143D01*
X116475143Y-62677748D01*
X116461000Y-62663605D01*
X115216946Y-63907659D01*
X115361467Y-64213444D01*
X116106993Y-64502571D01*
X116906414Y-64484389D01*
X117560533Y-64213444D01*
X117658547Y-64006061D01*
X117731000Y-63933608D01*
X117803453Y-64006061D01*
X117901467Y-64213444D01*
X118646993Y-64502571D01*
X119446414Y-64484389D01*
X120100533Y-64213444D01*
X120245054Y-63907659D01*
X119001000Y-62663605D01*
X118986858Y-62677748D01*
X118807253Y-62498143D01*
X118821395Y-62484000D01*
X119180605Y-62484000D01*
X120424659Y-63728054D01*
X120730444Y-63583533D01*
X121019571Y-62838007D01*
X121001389Y-62038586D01*
X120730444Y-61384467D01*
X120424659Y-61239946D01*
X119180605Y-62484000D01*
X118821395Y-62484000D01*
X118807253Y-62469858D01*
X118986858Y-62290253D01*
X119001000Y-62304395D01*
X120245054Y-61060341D01*
X120100533Y-60754556D01*
X119355007Y-60465429D01*
X118555586Y-60483611D01*
X117901467Y-60754556D01*
X117803453Y-60961939D01*
X117731000Y-61034392D01*
X117658547Y-60961939D01*
X117560533Y-60754556D01*
X116815007Y-60465429D01*
X116015586Y-60483611D01*
X115361467Y-60754556D01*
X115216946Y-61060341D01*
X113792000Y-61060341D01*
X113792000Y-59055000D01*
X122172851Y-59055000D01*
X122111639Y-65849500D01*
M02*
