G04 #@! TF.FileFunction,Legend,Bot*
%FSLAX46Y46*%
G04 Gerber Fmt 4.6, Leading zero omitted, Abs format (unit mm)*
G04 Created by KiCad (PCBNEW 4.0.2-stable) date 12/22/2016 4:19:51 PM*
%MOMM*%
G01*
G04 APERTURE LIST*
%ADD10C,0.100000*%
%ADD11C,0.300000*%
%ADD12C,0.250000*%
%ADD13C,0.150000*%
%ADD14C,0.381000*%
G04 APERTURE END LIST*
D10*
X219964000Y-131699000D02*
X201930000Y-131699000D01*
X201930000Y-63627000D02*
X219964000Y-63627000D01*
X219964000Y-131699000D02*
X219964000Y-63627000D01*
X201930000Y-63627000D02*
X201930000Y-131699000D01*
X220980000Y-63246000D02*
X220980000Y-131699000D01*
D11*
X132338071Y-70858286D02*
X132338071Y-71715429D01*
X133838071Y-71286858D02*
X132338071Y-71286858D01*
X133766643Y-72144000D02*
X133838071Y-72358286D01*
X133838071Y-72715429D01*
X133766643Y-72858286D01*
X133695214Y-72929715D01*
X133552357Y-73001143D01*
X133409500Y-73001143D01*
X133266643Y-72929715D01*
X133195214Y-72858286D01*
X133123786Y-72715429D01*
X133052357Y-72429715D01*
X132980929Y-72286857D01*
X132909500Y-72215429D01*
X132766643Y-72144000D01*
X132623786Y-72144000D01*
X132480929Y-72215429D01*
X132409500Y-72286857D01*
X132338071Y-72429715D01*
X132338071Y-72786857D01*
X132409500Y-73001143D01*
X132338071Y-73429714D02*
X133838071Y-73929714D01*
X132338071Y-74429714D01*
X139077000Y-71596357D02*
X139005571Y-71453500D01*
X139005571Y-71239214D01*
X139077000Y-71024929D01*
X139219857Y-70882071D01*
X139362714Y-70810643D01*
X139648429Y-70739214D01*
X139862714Y-70739214D01*
X140148429Y-70810643D01*
X140291286Y-70882071D01*
X140434143Y-71024929D01*
X140505571Y-71239214D01*
X140505571Y-71382071D01*
X140434143Y-71596357D01*
X140362714Y-71667786D01*
X139862714Y-71667786D01*
X139862714Y-71382071D01*
X140505571Y-73024929D02*
X140505571Y-72310643D01*
X139005571Y-72310643D01*
X139005571Y-73310643D02*
X140505571Y-73810643D01*
X139005571Y-74310643D01*
D12*
X84152904Y-71473071D02*
X83914809Y-72973071D01*
X83724332Y-71901643D01*
X83533856Y-72973071D01*
X83295761Y-71473071D01*
X82962428Y-72544500D02*
X82486237Y-72544500D01*
X83057666Y-72973071D02*
X82724333Y-71473071D01*
X82390999Y-72973071D01*
X81486237Y-72973071D02*
X81819571Y-72258786D01*
X82057666Y-72973071D02*
X82057666Y-71473071D01*
X81676713Y-71473071D01*
X81581475Y-71544500D01*
X81533856Y-71615929D01*
X81486237Y-71758786D01*
X81486237Y-71973071D01*
X81533856Y-72115929D01*
X81581475Y-72187357D01*
X81676713Y-72258786D01*
X82057666Y-72258786D01*
X81057666Y-72973071D02*
X81057666Y-71473071D01*
X80486237Y-72973071D01*
X80486237Y-71473071D01*
X80010047Y-72973071D02*
X80010047Y-71473071D01*
X79533857Y-72973071D02*
X79533857Y-71473071D01*
X78962428Y-72973071D01*
X78962428Y-71473071D01*
X77962428Y-71544500D02*
X78057666Y-71473071D01*
X78200523Y-71473071D01*
X78343381Y-71544500D01*
X78438619Y-71687357D01*
X78486238Y-71830214D01*
X78533857Y-72115929D01*
X78533857Y-72330214D01*
X78486238Y-72615929D01*
X78438619Y-72758786D01*
X78343381Y-72901643D01*
X78200523Y-72973071D01*
X78105285Y-72973071D01*
X77962428Y-72901643D01*
X77914809Y-72830214D01*
X77914809Y-72330214D01*
X78105285Y-72330214D01*
X77486238Y-72830214D02*
X77438619Y-72901643D01*
X77486238Y-72973071D01*
X77533857Y-72901643D01*
X77486238Y-72830214D01*
X77486238Y-72973071D01*
X77486238Y-72401643D02*
X77533857Y-71544500D01*
X77486238Y-71473071D01*
X77438619Y-71544500D01*
X77486238Y-72401643D01*
X77486238Y-71473071D01*
X90510048Y-73823071D02*
X89938619Y-73823071D01*
X90224334Y-75323071D02*
X90224334Y-73823071D01*
X89033857Y-75323071D02*
X89367191Y-74608786D01*
X89605286Y-75323071D02*
X89605286Y-73823071D01*
X89224333Y-73823071D01*
X89129095Y-73894500D01*
X89081476Y-73965929D01*
X89033857Y-74108786D01*
X89033857Y-74323071D01*
X89081476Y-74465929D01*
X89129095Y-74537357D01*
X89224333Y-74608786D01*
X89605286Y-74608786D01*
X88652905Y-74894500D02*
X88176714Y-74894500D01*
X88748143Y-75323071D02*
X88414810Y-73823071D01*
X88081476Y-75323071D01*
X87176714Y-75180214D02*
X87224333Y-75251643D01*
X87367190Y-75323071D01*
X87462428Y-75323071D01*
X87605286Y-75251643D01*
X87700524Y-75108786D01*
X87748143Y-74965929D01*
X87795762Y-74680214D01*
X87795762Y-74465929D01*
X87748143Y-74180214D01*
X87700524Y-74037357D01*
X87605286Y-73894500D01*
X87462428Y-73823071D01*
X87367190Y-73823071D01*
X87224333Y-73894500D01*
X87176714Y-73965929D01*
X86891000Y-73823071D02*
X86319571Y-73823071D01*
X86605286Y-75323071D02*
X86605286Y-73823071D01*
X85986238Y-75323071D02*
X85986238Y-73823071D01*
X85652905Y-73823071D02*
X85319572Y-75323071D01*
X84986238Y-73823071D01*
X84652905Y-74537357D02*
X84319571Y-74537357D01*
X84176714Y-75323071D02*
X84652905Y-75323071D01*
X84652905Y-73823071D01*
X84176714Y-73823071D01*
X83033857Y-75251643D02*
X82891000Y-75323071D01*
X82652904Y-75323071D01*
X82557666Y-75251643D01*
X82510047Y-75180214D01*
X82462428Y-75037357D01*
X82462428Y-74894500D01*
X82510047Y-74751643D01*
X82557666Y-74680214D01*
X82652904Y-74608786D01*
X82843381Y-74537357D01*
X82938619Y-74465929D01*
X82986238Y-74394500D01*
X83033857Y-74251643D01*
X83033857Y-74108786D01*
X82986238Y-73965929D01*
X82938619Y-73894500D01*
X82843381Y-73823071D01*
X82605285Y-73823071D01*
X82462428Y-73894500D01*
X81843381Y-74608786D02*
X81843381Y-75323071D01*
X82176714Y-73823071D02*
X81843381Y-74608786D01*
X81510047Y-73823071D01*
X81224333Y-75251643D02*
X81081476Y-75323071D01*
X80843380Y-75323071D01*
X80748142Y-75251643D01*
X80700523Y-75180214D01*
X80652904Y-75037357D01*
X80652904Y-74894500D01*
X80700523Y-74751643D01*
X80748142Y-74680214D01*
X80843380Y-74608786D01*
X81033857Y-74537357D01*
X81129095Y-74465929D01*
X81176714Y-74394500D01*
X81224333Y-74251643D01*
X81224333Y-74108786D01*
X81176714Y-73965929D01*
X81129095Y-73894500D01*
X81033857Y-73823071D01*
X80795761Y-73823071D01*
X80652904Y-73894500D01*
X80367190Y-73823071D02*
X79795761Y-73823071D01*
X80081476Y-75323071D02*
X80081476Y-73823071D01*
X79462428Y-74537357D02*
X79129094Y-74537357D01*
X78986237Y-75323071D02*
X79462428Y-75323071D01*
X79462428Y-73823071D01*
X78986237Y-73823071D01*
X78557666Y-75323071D02*
X78557666Y-73823071D01*
X78224332Y-74894500D01*
X77890999Y-73823071D01*
X77890999Y-75323071D01*
X76795761Y-73823071D02*
X76462428Y-75323071D01*
X76129094Y-73823071D01*
X75605285Y-73823071D02*
X75414808Y-73823071D01*
X75319570Y-73894500D01*
X75224332Y-74037357D01*
X75176713Y-74323071D01*
X75176713Y-74823071D01*
X75224332Y-75108786D01*
X75319570Y-75251643D01*
X75414808Y-75323071D01*
X75605285Y-75323071D01*
X75700523Y-75251643D01*
X75795761Y-75108786D01*
X75843380Y-74823071D01*
X75843380Y-74323071D01*
X75795761Y-74037357D01*
X75700523Y-73894500D01*
X75605285Y-73823071D01*
X74271951Y-75323071D02*
X74748142Y-75323071D01*
X74748142Y-73823071D01*
X74081475Y-73823071D02*
X73510046Y-73823071D01*
X73795761Y-75323071D02*
X73795761Y-73823071D01*
X73224332Y-74894500D02*
X72748141Y-74894500D01*
X73319570Y-75323071D02*
X72986237Y-73823071D01*
X72652903Y-75323071D01*
X71795760Y-73894500D02*
X71890998Y-73823071D01*
X72033855Y-73823071D01*
X72176713Y-73894500D01*
X72271951Y-74037357D01*
X72319570Y-74180214D01*
X72367189Y-74465929D01*
X72367189Y-74680214D01*
X72319570Y-74965929D01*
X72271951Y-75108786D01*
X72176713Y-75251643D01*
X72033855Y-75323071D01*
X71938617Y-75323071D01*
X71795760Y-75251643D01*
X71748141Y-75180214D01*
X71748141Y-74680214D01*
X71938617Y-74680214D01*
X71319570Y-74537357D02*
X70986236Y-74537357D01*
X70843379Y-75323071D02*
X71319570Y-75323071D01*
X71319570Y-73823071D01*
X70843379Y-73823071D01*
X70414808Y-75180214D02*
X70367189Y-75251643D01*
X70414808Y-75323071D01*
X70462427Y-75251643D01*
X70414808Y-75180214D01*
X70414808Y-75323071D01*
X70414808Y-74751643D02*
X70462427Y-73894500D01*
X70414808Y-73823071D01*
X70367189Y-73894500D01*
X70414808Y-74751643D01*
X70414808Y-73823071D01*
D13*
X196246000Y-121504000D02*
X196946000Y-121504000D01*
X196946000Y-120304000D02*
X196246000Y-120304000D01*
X198851000Y-111541000D02*
X198151000Y-111541000D01*
X198151000Y-112741000D02*
X198851000Y-112741000D01*
X110575000Y-109718000D02*
X110975000Y-110668000D01*
X110975000Y-110668000D02*
X110925000Y-110768000D01*
D14*
X110323960Y-109668840D02*
X110774060Y-109468000D01*
X111172840Y-114467640D02*
X109973960Y-111368840D01*
X109973960Y-111368840D02*
X110573400Y-111767620D01*
X111574160Y-112468660D02*
X110273680Y-109667040D01*
X111172840Y-114467640D02*
X110573400Y-113769140D01*
X110774060Y-109468920D02*
X111574160Y-112468660D01*
X111574160Y-112468660D02*
X110375280Y-111668560D01*
X110375280Y-111668560D02*
X111172840Y-114467640D01*
X111172840Y-114467640D02*
X111274440Y-113568480D01*
X110675000Y-108077000D02*
X105976000Y-115062000D01*
X105976000Y-115062000D02*
X115374000Y-115062000D01*
X115374000Y-115062000D02*
X110675000Y-108077000D01*
D13*
X214284000Y-148494000D02*
X214284000Y-149194000D01*
X215484000Y-149194000D02*
X215484000Y-148494000D01*
X166038000Y-109839000D02*
X166038000Y-107839000D01*
X168988000Y-107839000D02*
X168988000Y-109839000D01*
X172220000Y-123102000D02*
X173220000Y-123102000D01*
X173220000Y-124802000D02*
X172220000Y-124802000D01*
X172220000Y-120308000D02*
X173220000Y-120308000D01*
X173220000Y-122008000D02*
X172220000Y-122008000D01*
X172220000Y-117641000D02*
X173220000Y-117641000D01*
X173220000Y-119341000D02*
X172220000Y-119341000D01*
X172220000Y-114847000D02*
X173220000Y-114847000D01*
X173220000Y-116547000D02*
X172220000Y-116547000D01*
X211928000Y-135351000D02*
X211928000Y-134651000D01*
X210728000Y-134651000D02*
X210728000Y-135351000D01*
X172093000Y-128690000D02*
X173093000Y-128690000D01*
X173093000Y-130390000D02*
X172093000Y-130390000D01*
X172220000Y-125896000D02*
X173220000Y-125896000D01*
X173220000Y-127596000D02*
X172220000Y-127596000D01*
X205009000Y-134458000D02*
X205709000Y-134458000D01*
X205709000Y-133258000D02*
X205009000Y-133258000D01*
X208407000Y-136271000D02*
G75*
G03X208407000Y-136271000I-254000J0D01*
G01*
X206375000Y-138303000D02*
X206375000Y-135763000D01*
X206375000Y-135763000D02*
X208661000Y-135763000D01*
X208661000Y-135763000D02*
X208661000Y-138303000D01*
X208661000Y-138303000D02*
X206375000Y-138303000D01*
X196762666Y-119737143D02*
X196810285Y-119784762D01*
X196953142Y-119832381D01*
X197048380Y-119832381D01*
X197191238Y-119784762D01*
X197286476Y-119689524D01*
X197334095Y-119594286D01*
X197381714Y-119403810D01*
X197381714Y-119260952D01*
X197334095Y-119070476D01*
X197286476Y-118975238D01*
X197191238Y-118880000D01*
X197048380Y-118832381D01*
X196953142Y-118832381D01*
X196810285Y-118880000D01*
X196762666Y-118927619D01*
X196429333Y-118832381D02*
X195810285Y-118832381D01*
X196143619Y-119213333D01*
X196000761Y-119213333D01*
X195905523Y-119260952D01*
X195857904Y-119308571D01*
X195810285Y-119403810D01*
X195810285Y-119641905D01*
X195857904Y-119737143D01*
X195905523Y-119784762D01*
X196000761Y-119832381D01*
X196286476Y-119832381D01*
X196381714Y-119784762D01*
X196429333Y-119737143D01*
X198667666Y-113895143D02*
X198715285Y-113942762D01*
X198858142Y-113990381D01*
X198953380Y-113990381D01*
X199096238Y-113942762D01*
X199191476Y-113847524D01*
X199239095Y-113752286D01*
X199286714Y-113561810D01*
X199286714Y-113418952D01*
X199239095Y-113228476D01*
X199191476Y-113133238D01*
X199096238Y-113038000D01*
X198953380Y-112990381D01*
X198858142Y-112990381D01*
X198715285Y-113038000D01*
X198667666Y-113085619D01*
X197762904Y-112990381D02*
X198239095Y-112990381D01*
X198286714Y-113466571D01*
X198239095Y-113418952D01*
X198143857Y-113371333D01*
X197905761Y-113371333D01*
X197810523Y-113418952D01*
X197762904Y-113466571D01*
X197715285Y-113561810D01*
X197715285Y-113799905D01*
X197762904Y-113895143D01*
X197810523Y-113942762D01*
X197905761Y-113990381D01*
X198143857Y-113990381D01*
X198239095Y-113942762D01*
X198286714Y-113895143D01*
X115038166Y-74874381D02*
X115371500Y-74398190D01*
X115609595Y-74874381D02*
X115609595Y-73874381D01*
X115228642Y-73874381D01*
X115133404Y-73922000D01*
X115085785Y-73969619D01*
X115038166Y-74064857D01*
X115038166Y-74207714D01*
X115085785Y-74302952D01*
X115133404Y-74350571D01*
X115228642Y-74398190D01*
X115609595Y-74398190D01*
X114704833Y-73874381D02*
X114085785Y-73874381D01*
X114419119Y-74255333D01*
X114276261Y-74255333D01*
X114181023Y-74302952D01*
X114133404Y-74350571D01*
X114085785Y-74445810D01*
X114085785Y-74683905D01*
X114133404Y-74779143D01*
X114181023Y-74826762D01*
X114276261Y-74874381D01*
X114561976Y-74874381D01*
X114657214Y-74826762D01*
X114704833Y-74779143D01*
X215653857Y-146788143D02*
X215701476Y-146835762D01*
X215844333Y-146883381D01*
X215939571Y-146883381D01*
X216082429Y-146835762D01*
X216177667Y-146740524D01*
X216225286Y-146645286D01*
X216272905Y-146454810D01*
X216272905Y-146311952D01*
X216225286Y-146121476D01*
X216177667Y-146026238D01*
X216082429Y-145931000D01*
X215939571Y-145883381D01*
X215844333Y-145883381D01*
X215701476Y-145931000D01*
X215653857Y-145978619D01*
X215272905Y-145978619D02*
X215225286Y-145931000D01*
X215130048Y-145883381D01*
X214891952Y-145883381D01*
X214796714Y-145931000D01*
X214749095Y-145978619D01*
X214701476Y-146073857D01*
X214701476Y-146169095D01*
X214749095Y-146311952D01*
X215320524Y-146883381D01*
X214701476Y-146883381D01*
X213844333Y-145883381D02*
X214034810Y-145883381D01*
X214130048Y-145931000D01*
X214177667Y-145978619D01*
X214272905Y-146121476D01*
X214320524Y-146311952D01*
X214320524Y-146692905D01*
X214272905Y-146788143D01*
X214225286Y-146835762D01*
X214130048Y-146883381D01*
X213939571Y-146883381D01*
X213844333Y-146835762D01*
X213796714Y-146788143D01*
X213749095Y-146692905D01*
X213749095Y-146454810D01*
X213796714Y-146359571D01*
X213844333Y-146311952D01*
X213939571Y-146264333D01*
X214130048Y-146264333D01*
X214225286Y-146311952D01*
X214272905Y-146359571D01*
X214320524Y-146454810D01*
X168028857Y-105005143D02*
X168076476Y-105052762D01*
X168219333Y-105100381D01*
X168314571Y-105100381D01*
X168457429Y-105052762D01*
X168552667Y-104957524D01*
X168600286Y-104862286D01*
X168647905Y-104671810D01*
X168647905Y-104528952D01*
X168600286Y-104338476D01*
X168552667Y-104243238D01*
X168457429Y-104148000D01*
X168314571Y-104100381D01*
X168219333Y-104100381D01*
X168076476Y-104148000D01*
X168028857Y-104195619D01*
X167647905Y-104195619D02*
X167600286Y-104148000D01*
X167505048Y-104100381D01*
X167266952Y-104100381D01*
X167171714Y-104148000D01*
X167124095Y-104195619D01*
X167076476Y-104290857D01*
X167076476Y-104386095D01*
X167124095Y-104528952D01*
X167695524Y-105100381D01*
X167076476Y-105100381D01*
X166743143Y-104100381D02*
X166076476Y-104100381D01*
X166505048Y-105100381D01*
X177172857Y-124309143D02*
X177220476Y-124356762D01*
X177363333Y-124404381D01*
X177458571Y-124404381D01*
X177601429Y-124356762D01*
X177696667Y-124261524D01*
X177744286Y-124166286D01*
X177791905Y-123975810D01*
X177791905Y-123832952D01*
X177744286Y-123642476D01*
X177696667Y-123547238D01*
X177601429Y-123452000D01*
X177458571Y-123404381D01*
X177363333Y-123404381D01*
X177220476Y-123452000D01*
X177172857Y-123499619D01*
X176839524Y-123404381D02*
X176220476Y-123404381D01*
X176553810Y-123785333D01*
X176410952Y-123785333D01*
X176315714Y-123832952D01*
X176268095Y-123880571D01*
X176220476Y-123975810D01*
X176220476Y-124213905D01*
X176268095Y-124309143D01*
X176315714Y-124356762D01*
X176410952Y-124404381D01*
X176696667Y-124404381D01*
X176791905Y-124356762D01*
X176839524Y-124309143D01*
X175601429Y-123404381D02*
X175506190Y-123404381D01*
X175410952Y-123452000D01*
X175363333Y-123499619D01*
X175315714Y-123594857D01*
X175268095Y-123785333D01*
X175268095Y-124023429D01*
X175315714Y-124213905D01*
X175363333Y-124309143D01*
X175410952Y-124356762D01*
X175506190Y-124404381D01*
X175601429Y-124404381D01*
X175696667Y-124356762D01*
X175744286Y-124309143D01*
X175791905Y-124213905D01*
X175839524Y-124023429D01*
X175839524Y-123785333D01*
X175791905Y-123594857D01*
X175744286Y-123499619D01*
X175696667Y-123452000D01*
X175601429Y-123404381D01*
X177172857Y-121515143D02*
X177220476Y-121562762D01*
X177363333Y-121610381D01*
X177458571Y-121610381D01*
X177601429Y-121562762D01*
X177696667Y-121467524D01*
X177744286Y-121372286D01*
X177791905Y-121181810D01*
X177791905Y-121038952D01*
X177744286Y-120848476D01*
X177696667Y-120753238D01*
X177601429Y-120658000D01*
X177458571Y-120610381D01*
X177363333Y-120610381D01*
X177220476Y-120658000D01*
X177172857Y-120705619D01*
X176839524Y-120610381D02*
X176220476Y-120610381D01*
X176553810Y-120991333D01*
X176410952Y-120991333D01*
X176315714Y-121038952D01*
X176268095Y-121086571D01*
X176220476Y-121181810D01*
X176220476Y-121419905D01*
X176268095Y-121515143D01*
X176315714Y-121562762D01*
X176410952Y-121610381D01*
X176696667Y-121610381D01*
X176791905Y-121562762D01*
X176839524Y-121515143D01*
X175268095Y-121610381D02*
X175839524Y-121610381D01*
X175553810Y-121610381D02*
X175553810Y-120610381D01*
X175649048Y-120753238D01*
X175744286Y-120848476D01*
X175839524Y-120896095D01*
X177426857Y-118848143D02*
X177474476Y-118895762D01*
X177617333Y-118943381D01*
X177712571Y-118943381D01*
X177855429Y-118895762D01*
X177950667Y-118800524D01*
X177998286Y-118705286D01*
X178045905Y-118514810D01*
X178045905Y-118371952D01*
X177998286Y-118181476D01*
X177950667Y-118086238D01*
X177855429Y-117991000D01*
X177712571Y-117943381D01*
X177617333Y-117943381D01*
X177474476Y-117991000D01*
X177426857Y-118038619D01*
X177093524Y-117943381D02*
X176474476Y-117943381D01*
X176807810Y-118324333D01*
X176664952Y-118324333D01*
X176569714Y-118371952D01*
X176522095Y-118419571D01*
X176474476Y-118514810D01*
X176474476Y-118752905D01*
X176522095Y-118848143D01*
X176569714Y-118895762D01*
X176664952Y-118943381D01*
X176950667Y-118943381D01*
X177045905Y-118895762D01*
X177093524Y-118848143D01*
X176093524Y-118038619D02*
X176045905Y-117991000D01*
X175950667Y-117943381D01*
X175712571Y-117943381D01*
X175617333Y-117991000D01*
X175569714Y-118038619D01*
X175522095Y-118133857D01*
X175522095Y-118229095D01*
X175569714Y-118371952D01*
X176141143Y-118943381D01*
X175522095Y-118943381D01*
X177426857Y-116054143D02*
X177474476Y-116101762D01*
X177617333Y-116149381D01*
X177712571Y-116149381D01*
X177855429Y-116101762D01*
X177950667Y-116006524D01*
X177998286Y-115911286D01*
X178045905Y-115720810D01*
X178045905Y-115577952D01*
X177998286Y-115387476D01*
X177950667Y-115292238D01*
X177855429Y-115197000D01*
X177712571Y-115149381D01*
X177617333Y-115149381D01*
X177474476Y-115197000D01*
X177426857Y-115244619D01*
X177093524Y-115149381D02*
X176474476Y-115149381D01*
X176807810Y-115530333D01*
X176664952Y-115530333D01*
X176569714Y-115577952D01*
X176522095Y-115625571D01*
X176474476Y-115720810D01*
X176474476Y-115958905D01*
X176522095Y-116054143D01*
X176569714Y-116101762D01*
X176664952Y-116149381D01*
X176950667Y-116149381D01*
X177045905Y-116101762D01*
X177093524Y-116054143D01*
X176141143Y-115149381D02*
X175522095Y-115149381D01*
X175855429Y-115530333D01*
X175712571Y-115530333D01*
X175617333Y-115577952D01*
X175569714Y-115625571D01*
X175522095Y-115720810D01*
X175522095Y-115958905D01*
X175569714Y-116054143D01*
X175617333Y-116101762D01*
X175712571Y-116149381D01*
X175998286Y-116149381D01*
X176093524Y-116101762D01*
X176141143Y-116054143D01*
X215018857Y-134596143D02*
X215066476Y-134643762D01*
X215209333Y-134691381D01*
X215304571Y-134691381D01*
X215447429Y-134643762D01*
X215542667Y-134548524D01*
X215590286Y-134453286D01*
X215637905Y-134262810D01*
X215637905Y-134119952D01*
X215590286Y-133929476D01*
X215542667Y-133834238D01*
X215447429Y-133739000D01*
X215304571Y-133691381D01*
X215209333Y-133691381D01*
X215066476Y-133739000D01*
X215018857Y-133786619D01*
X214685524Y-133691381D02*
X214066476Y-133691381D01*
X214399810Y-134072333D01*
X214256952Y-134072333D01*
X214161714Y-134119952D01*
X214114095Y-134167571D01*
X214066476Y-134262810D01*
X214066476Y-134500905D01*
X214114095Y-134596143D01*
X214161714Y-134643762D01*
X214256952Y-134691381D01*
X214542667Y-134691381D01*
X214637905Y-134643762D01*
X214685524Y-134596143D01*
X213209333Y-134024714D02*
X213209333Y-134691381D01*
X213447429Y-133643762D02*
X213685524Y-134358048D01*
X213066476Y-134358048D01*
X177553857Y-129897143D02*
X177601476Y-129944762D01*
X177744333Y-129992381D01*
X177839571Y-129992381D01*
X177982429Y-129944762D01*
X178077667Y-129849524D01*
X178125286Y-129754286D01*
X178172905Y-129563810D01*
X178172905Y-129420952D01*
X178125286Y-129230476D01*
X178077667Y-129135238D01*
X177982429Y-129040000D01*
X177839571Y-128992381D01*
X177744333Y-128992381D01*
X177601476Y-129040000D01*
X177553857Y-129087619D01*
X177220524Y-128992381D02*
X176601476Y-128992381D01*
X176934810Y-129373333D01*
X176791952Y-129373333D01*
X176696714Y-129420952D01*
X176649095Y-129468571D01*
X176601476Y-129563810D01*
X176601476Y-129801905D01*
X176649095Y-129897143D01*
X176696714Y-129944762D01*
X176791952Y-129992381D01*
X177077667Y-129992381D01*
X177172905Y-129944762D01*
X177220524Y-129897143D01*
X175696714Y-128992381D02*
X176172905Y-128992381D01*
X176220524Y-129468571D01*
X176172905Y-129420952D01*
X176077667Y-129373333D01*
X175839571Y-129373333D01*
X175744333Y-129420952D01*
X175696714Y-129468571D01*
X175649095Y-129563810D01*
X175649095Y-129801905D01*
X175696714Y-129897143D01*
X175744333Y-129944762D01*
X175839571Y-129992381D01*
X176077667Y-129992381D01*
X176172905Y-129944762D01*
X176220524Y-129897143D01*
X177426857Y-127103143D02*
X177474476Y-127150762D01*
X177617333Y-127198381D01*
X177712571Y-127198381D01*
X177855429Y-127150762D01*
X177950667Y-127055524D01*
X177998286Y-126960286D01*
X178045905Y-126769810D01*
X178045905Y-126626952D01*
X177998286Y-126436476D01*
X177950667Y-126341238D01*
X177855429Y-126246000D01*
X177712571Y-126198381D01*
X177617333Y-126198381D01*
X177474476Y-126246000D01*
X177426857Y-126293619D01*
X177093524Y-126198381D02*
X176474476Y-126198381D01*
X176807810Y-126579333D01*
X176664952Y-126579333D01*
X176569714Y-126626952D01*
X176522095Y-126674571D01*
X176474476Y-126769810D01*
X176474476Y-127007905D01*
X176522095Y-127103143D01*
X176569714Y-127150762D01*
X176664952Y-127198381D01*
X176950667Y-127198381D01*
X177045905Y-127150762D01*
X177093524Y-127103143D01*
X175617333Y-126198381D02*
X175807810Y-126198381D01*
X175903048Y-126246000D01*
X175950667Y-126293619D01*
X176045905Y-126436476D01*
X176093524Y-126626952D01*
X176093524Y-127007905D01*
X176045905Y-127103143D01*
X175998286Y-127150762D01*
X175903048Y-127198381D01*
X175712571Y-127198381D01*
X175617333Y-127150762D01*
X175569714Y-127103143D01*
X175522095Y-127007905D01*
X175522095Y-126769810D01*
X175569714Y-126674571D01*
X175617333Y-126626952D01*
X175712571Y-126579333D01*
X175903048Y-126579333D01*
X175998286Y-126626952D01*
X176045905Y-126674571D01*
X176093524Y-126769810D01*
X209303857Y-134215143D02*
X209351476Y-134262762D01*
X209494333Y-134310381D01*
X209589571Y-134310381D01*
X209732429Y-134262762D01*
X209827667Y-134167524D01*
X209875286Y-134072286D01*
X209922905Y-133881810D01*
X209922905Y-133738952D01*
X209875286Y-133548476D01*
X209827667Y-133453238D01*
X209732429Y-133358000D01*
X209589571Y-133310381D01*
X209494333Y-133310381D01*
X209351476Y-133358000D01*
X209303857Y-133405619D01*
X208970524Y-133310381D02*
X208351476Y-133310381D01*
X208684810Y-133691333D01*
X208541952Y-133691333D01*
X208446714Y-133738952D01*
X208399095Y-133786571D01*
X208351476Y-133881810D01*
X208351476Y-134119905D01*
X208399095Y-134215143D01*
X208446714Y-134262762D01*
X208541952Y-134310381D01*
X208827667Y-134310381D01*
X208922905Y-134262762D01*
X208970524Y-134215143D01*
X208018143Y-133310381D02*
X207351476Y-133310381D01*
X207780048Y-134310381D01*
X208375095Y-139279381D02*
X208375095Y-140088905D01*
X208327476Y-140184143D01*
X208279857Y-140231762D01*
X208184619Y-140279381D01*
X207994142Y-140279381D01*
X207898904Y-140231762D01*
X207851285Y-140184143D01*
X207803666Y-140088905D01*
X207803666Y-139279381D01*
X206803666Y-140279381D02*
X207375095Y-140279381D01*
X207089381Y-140279381D02*
X207089381Y-139279381D01*
X207184619Y-139422238D01*
X207279857Y-139517476D01*
X207375095Y-139565095D01*
X205946523Y-139612714D02*
X205946523Y-140279381D01*
X206184619Y-139231762D02*
X206422714Y-139946048D01*
X205803666Y-139946048D01*
M02*
