*
*
G04 PADS 9.4.1 Build Number: 494907 generated Gerber (RS-274-X) file*
G04 PC Version=2.1*
*
%IN "bms2015.pcb"*%
*
%MOIN*%
*
%FSLAX35Y35*%
*
*
*
*
G04 PC Standard Apertures*
*
*
G04 Thermal Relief Aperture macro.*
%AMTER*
1,1,$1,0,0*
1,0,$1-$2,0,0*
21,0,$3,$4,0,0,45*
21,0,$3,$4,0,0,135*
%
*
*
G04 Annular Aperture macro.*
%AMANN*
1,1,$1,0,0*
1,0,$2,0,0*
%
*
*
G04 Odd Aperture macro.*
%AMODD*
1,1,$1,0,0*
1,0,$1-0.005,0,0*
%
*
*
G04 PC Custom Aperture Macros*
*
*
*
*
*
*
G04 PC Aperture Table*
*
%ADD010C,0.001*%
%ADD011C,0.01*%
%ADD014C,0.012*%
%ADD031R,0.07X0.07*%
%ADD032C,0.07*%
%ADD034C,0.08*%
%ADD036R,0.06X0.05*%
%ADD037C,0.37402*%
%ADD038C,0.2*%
%ADD040R,0.065X0.065*%
%ADD041C,0.065*%
%ADD047R,0.06X0.06*%
%ADD048C,0.06*%
%ADD049C,0.04*%
%ADD050R,0.03937X0.02756*%
%ADD051C,0.1*%
*
*
*
*
G04 PC Circuitry*
G04 Layer Name bms2015.pcb - circuitry*
%LPD*%
*
*
G04 PC Custom Flashes*
G04 Layer Name bms2015.pcb - flashes*
%LPD*%
*
*
G04 PC Circuitry*
G04 Layer Name bms2015.pcb - circuitry*
%LPD*%
*
G54D10*
G54D11*
G01X129013Y113138D02*
X127650Y108763D01*
X126286Y113138D02*
X127650Y108763D01*
X124241Y114075D02*
X123786Y114388D01*
X123104Y115325*
Y108763*
X120832Y109388D02*
X121059Y109075D01*
X120832Y108763*
X120604Y109075*
X120832Y109388*
X118559Y114075D02*
X118104Y114388D01*
X117423Y115325*
Y108763*
X127731Y127491D02*
Y173992D01*
X140696Y119672D02*
Y238552D01*
X307105Y123276D02*
Y208164D01*
X315054Y127233D02*
Y228832D01*
X524000Y122500D02*
Y220251D01*
X514000Y122500D02*
Y317500D01*
X544000Y122500D02*
Y210251D01*
X543910*
X534000Y122500D02*
Y217455D01*
X534386Y217840*
X564000Y122500D02*
Y317500D01*
X554000Y122500D02*
Y215251D01*
X160862Y163418D02*
Y200407D01*
X164815Y204360*
Y257315*
X185500Y285000*
Y152500D02*
X188350Y156650D01*
X231058*
X185500Y152500D02*
X190000Y157000D01*
Y177500*
X167931Y178666D02*
Y256000D01*
X180000*
X190000Y177500D02*
X176384D01*
Y198326*
X190000Y177500D02*
X190023Y177523D01*
Y183282*
X193804Y187063*
Y207026*
X180000Y181500D02*
X184804D01*
Y207026*
X180000Y173500D02*
X167931D01*
Y178666*
X300539Y183004D02*
Y273369D01*
X288285Y285624*
X184807Y217390D02*
Y207014D01*
X184804Y207026*
X193804D02*
X215345D01*
Y223494*
X193804Y207026D02*
Y235775D01*
X190000Y239578*
Y260000*
X262300Y202852D02*
Y228769D01*
X543910Y210251D02*
Y217316D01*
X543386Y217840*
X160574Y218573D02*
Y308008D01*
X160594*
X184807Y217390D02*
Y259193D01*
X180000Y264000*
X184628Y217390D02*
X184807D01*
X242024Y228769D02*
X262300D01*
X255697Y219656D02*
X219182D01*
X215345Y223494*
X262300Y228769D02*
X294449D01*
Y257834*
X479111Y215251D02*
Y251322D01*
X463299*
X484759Y220251D02*
Y229863D01*
X524000Y317500D02*
Y220251D01*
X523992*
X533998Y225251D02*
Y317498D01*
X534000Y317500*
X543386Y217840D02*
X544000Y218455D01*
Y317500*
X534386Y217840D02*
X533998Y218228D01*
Y225251*
X554000Y317500D02*
Y215251D01*
X553906*
X201768Y244636D02*
X275738D01*
X232497Y233494D02*
X270759D01*
X260759Y240744D02*
X284881D01*
X270965Y262040D02*
X255730D01*
X255711Y262058*
X229214*
X255673Y271040D02*
X271080D01*
X489492Y284999D02*
X489493Y285000D01*
X489500*
X229214Y294251D02*
Y312866D01*
X109579Y114641D02*
X112079Y117141D01*
X130500*
X133000Y114641*
Y109310*
X130500Y106810*
X112079*
X109579Y109310*
Y114641*
G54D14*
X201411Y259948D02*
X190052D01*
X190000Y260000*
G54D31*
X514000Y317500D03*
Y122500D03*
G54D32*
X524000Y317500D03*
X534000D03*
X544000D03*
X554000D03*
X564000D03*
X524000Y122500D03*
X534000D03*
X544000D03*
X554000D03*
X564000D03*
G54D34*
X338716Y190466D02*
X357000Y208750D01*
X387048Y208800D02*
X377098Y218750D01*
X357000*
G54D36*
X534386Y217840D03*
X543386D03*
X193804Y207026D03*
X184804D03*
G54D37*
X185500Y285000D03*
Y152500D03*
X489500Y285000D03*
Y152500D03*
G54D38*
X371870Y168750D03*
X371986Y268750D03*
G54D40*
X357000Y228750D03*
G54D41*
Y218750D03*
Y208750D03*
X387048Y208800D03*
Y228800D03*
G54D47*
X209214Y312866D03*
G54D48*
X219214D03*
X229214D03*
X239214D03*
X249214D03*
X259214D03*
G54D49*
X127731Y127491D03*
X140696Y119672D03*
X307105Y123276D03*
X315054Y127233D03*
X160862Y163418D03*
X231058Y156650D03*
X127731Y173992D03*
X167931Y178666D03*
X300539Y183004D03*
X176384Y198326D03*
X262300Y202852D03*
X307105Y208164D03*
X543910Y210251D03*
X160574Y218573D03*
X184628Y217390D03*
X215345Y223494D03*
X242024Y228769D03*
X255697Y219656D03*
X262300Y228769D03*
X315054Y228832D03*
X479111Y215251D03*
X484759Y220251D03*
Y229863D03*
X523992Y220251D03*
X533998Y225251D03*
X553906Y215251D03*
X140696Y238552D03*
X201768Y244636D03*
X232497Y233494D03*
X260759Y240744D03*
X270759Y233494D03*
X284881Y240744D03*
X275738Y244636D03*
X201411Y259948D03*
X229214Y262058D03*
X255730Y262040D03*
X270965D03*
X294449Y257834D03*
X463299Y251322D03*
X255673Y271040D03*
X271080D03*
X160594Y308008D03*
X229214Y294251D03*
G54D50*
X180000Y173500D03*
Y181500D03*
X190000Y177500D03*
X180000Y256000D03*
Y264000D03*
X190000Y260000D03*
G54D51*
X338716Y115054D02*
X185500D01*
Y152500*
X338716Y115054D02*
X489500D01*
Y152500*
X338716Y115054D02*
Y190466D01*
X387048Y228800D02*
X402077Y243829D01*
Y321648*
X185500Y285000D02*
X287661D01*
X288285Y285624*
X324309Y321648*
X402077*
X489492Y284999D02*
Y321648D01*
X402077*
X0Y0D02*
M02*
