*
*
G04 PADS 9.4.1 Build Number: 494907 generated Gerber (RS-274-X) file*
G04 PC Version=2.1*
*
%IN "bms2015.pcb"*%
*
%MOIN*%
*
%FSLAX35Y35*%
*
*
*
*
G04 PC Standard Apertures*
*
*
G04 Thermal Relief Aperture macro.*
%AMTER*
1,1,$1,0,0*
1,0,$1-$2,0,0*
21,0,$3,$4,0,0,45*
21,0,$3,$4,0,0,135*
%
*
*
G04 Annular Aperture macro.*
%AMANN*
1,1,$1,0,0*
1,0,$2,0,0*
%
*
*
G04 Odd Aperture macro.*
%AMODD*
1,1,$1,0,0*
1,0,$1-0.005,0,0*
%
*
*
G04 PC Custom Aperture Macros*
*
*
*
*
*
*
G04 PC Aperture Table*
*
%ADD010C,0.001*%
%ADD011C,0.01*%
*
*
*
*
G04 PC Circuitry*
G04 Layer Name bms2015.pcb - circuitry*
%LPD*%
*
*
G04 PC Custom Flashes*
G04 Layer Name bms2015.pcb - flashes*
%LPD*%
*
*
G04 PC Circuitry*
G04 Layer Name bms2015.pcb - circuitry*
%LPD*%
*
G54D10*
G01X540516Y261648D02*
X541816D01*
X529816Y261748D02*
X531216D01*
X540216D02*
X542216D01*
X529516Y261848D02*
X531616D01*
X535416D02*
X536416D01*
X540016D02*
X542416D01*
X529316Y261948D02*
X531916D01*
X535216D02*
X536716D01*
X539816D02*
X542716D01*
X529216Y262048D02*
X532116D01*
X535016D02*
X536816D01*
X539716D02*
X542916D01*
X529016Y262148D02*
X532316D01*
X534916D02*
X537016D01*
X539616D02*
X543016D01*
X528916Y262248D02*
X532416D01*
X534816D02*
X537216D01*
X539416D02*
X543216D01*
X528816Y262348D02*
X532716D01*
X534716D02*
X537316D01*
X539316D02*
X543316D01*
X528816Y262448D02*
X532916D01*
X534616D02*
X537516D01*
X539116D02*
X543416D01*
X528716Y262548D02*
X533216D01*
X534416D02*
X537816D01*
X538816D02*
X543516D01*
X528716Y262648D02*
X533616D01*
X534016D02*
X543616D01*
X528616Y262748D02*
X543716D01*
X528616Y262848D02*
X543816D01*
X528516Y262948D02*
X543916D01*
X528516Y263048D02*
X544016D01*
X528516Y263148D02*
X544116D01*
X528516Y263248D02*
X544116D01*
X528416Y263348D02*
X544216D01*
X528416Y263448D02*
X544316D01*
X528416Y263548D02*
X544316D01*
X528416Y263648D02*
X544416D01*
X528416Y263748D02*
X544416D01*
X528416Y263848D02*
X544516D01*
X528416Y263948D02*
X544516D01*
X528416Y264048D02*
X544516D01*
X528516Y264148D02*
X544616D01*
X528516Y264248D02*
X544616D01*
X528516Y264348D02*
X544616D01*
X528516Y264448D02*
X544616D01*
X528616Y264548D02*
X544716D01*
X528616Y264648D02*
X544716D01*
X528616Y264748D02*
X544716D01*
X528716Y264848D02*
X544716D01*
X528716Y264948D02*
X544716D01*
X528716Y265048D02*
X544816D01*
X528816Y265148D02*
X544816D01*
X528816Y265248D02*
X544816D01*
X528916Y265348D02*
X544816D01*
X528916Y265448D02*
X544816D01*
X529016Y265548D02*
X544816D01*
X529116Y265648D02*
X544816D01*
X529116Y265748D02*
X544816D01*
X529216Y265848D02*
X544716D01*
X529316Y265948D02*
X544716D01*
X529316Y266048D02*
X544716D01*
X529416Y266148D02*
X544716D01*
X529516Y266248D02*
X544716D01*
X529616Y266348D02*
X544616D01*
X529716Y266448D02*
X544616D01*
X529816Y266548D02*
X544516D01*
X529916Y266648D02*
X544516D01*
X530016Y266748D02*
X544516D01*
X530116Y266848D02*
X544416D01*
X530216Y266948D02*
X544416D01*
X530316Y267048D02*
X544316D01*
X530416Y267148D02*
X544316D01*
X530516Y267248D02*
X544216D01*
X530616Y267348D02*
X544116D01*
X530716Y267448D02*
X544116D01*
X530816Y267548D02*
X544016D01*
X531016Y267648D02*
X543916D01*
X531116Y267748D02*
X543916D01*
X531316Y267848D02*
X543816D01*
X531416Y267948D02*
X543716D01*
X531516Y268048D02*
X543716D01*
X531616Y268148D02*
X543616D01*
X531816Y268248D02*
X543516D01*
X531916Y268348D02*
X543516D01*
X532016Y268448D02*
X543416D01*
X532116Y268548D02*
X543416D01*
X532216Y268648D02*
X543316D01*
X532316Y268748D02*
X543316D01*
X532416Y268848D02*
X543216D01*
X532516Y268948D02*
X543216D01*
X532616Y269048D02*
X543116D01*
X532716Y269148D02*
X543116D01*
X532816Y269248D02*
X543116D01*
X532916Y269348D02*
X543016D01*
X533016Y269448D02*
X543016D01*
X533116Y269548D02*
X543016D01*
X546116D02*
X547016D01*
X529616Y269648D02*
X529716D01*
X533216D02*
X543016D01*
X545816D02*
X547416D01*
X528916Y269748D02*
X530316D01*
X533216D02*
X542916D01*
X545616D02*
X547716D01*
X528616Y269848D02*
X530616D01*
X533316D02*
X542916D01*
X545416D02*
X547916D01*
X528416Y269948D02*
X530816D01*
X533416D02*
X542916D01*
X545316D02*
X548116D01*
X528216Y270048D02*
X531016D01*
X533416D02*
X542916D01*
X545216D02*
X548316D01*
X528116Y270148D02*
X531116D01*
X533516D02*
X542916D01*
X545216D02*
X548516D01*
X528016Y270248D02*
X531316D01*
X533516D02*
X542916D01*
X545116D02*
X548716D01*
X527916Y270348D02*
X531416D01*
X533616D02*
X542916D01*
X545116D02*
X548816D01*
X527816Y270448D02*
X531516D01*
X533616D02*
X542916D01*
X545016D02*
X549016D01*
X527716Y270548D02*
X531616D01*
X533716D02*
X542916D01*
X545016D02*
X549116D01*
X527616Y270648D02*
X531716D01*
X533716D02*
X543016D01*
X545016D02*
X549216D01*
X527516Y270748D02*
X531816D01*
X533816D02*
X543016D01*
X544916D02*
X549416D01*
X527416Y270848D02*
X531816D01*
X533816D02*
X543016D01*
X544916D02*
X549516D01*
X527416Y270948D02*
X531916D01*
X533916D02*
X543016D01*
X544916D02*
X549616D01*
X527316Y271048D02*
X532016D01*
X533916D02*
X543016D01*
X544916D02*
X549716D01*
X527316Y271148D02*
X532116D01*
X533916D02*
X543116D01*
X544916D02*
X549816D01*
X527216Y271248D02*
X532116D01*
X533916D02*
X543116D01*
X544916D02*
X549916D01*
X527216Y271348D02*
X532216D01*
X534016D02*
X543116D01*
X544916D02*
X550016D01*
X527116Y271448D02*
X532216D01*
X534016D02*
X543116D01*
X544916D02*
X550116D01*
X527116Y271548D02*
X532316D01*
X534116D02*
X543116D01*
X544916D02*
X550216D01*
X527016Y271648D02*
X532316D01*
X534116D02*
X543216D01*
X544916D02*
X550316D01*
X527016Y271748D02*
X532416D01*
X534116D02*
X543216D01*
X544916D02*
X550416D01*
X527016Y271848D02*
X532416D01*
X534216D02*
X543216D01*
X545016D02*
X550516D01*
X526916Y271948D02*
X532416D01*
X534216D02*
X543216D01*
X545016D02*
X550616D01*
X526916Y272048D02*
X532516D01*
X534316D02*
X543216D01*
X545016D02*
X550616D01*
X526916Y272148D02*
X532516D01*
X534416D02*
X543216D01*
X545016D02*
X550716D01*
X526916Y272248D02*
X532516D01*
X534416D02*
X543116D01*
X545116D02*
X550816D01*
X526816Y272348D02*
X532516D01*
X534516D02*
X543116D01*
X545116D02*
X550916D01*
X526816Y272448D02*
X532616D01*
X534616D02*
X543116D01*
X545116D02*
X550916D01*
X526816Y272548D02*
X532616D01*
X534716D02*
X543016D01*
X545216D02*
X551016D01*
X526816Y272648D02*
X532616D01*
X534816D02*
X543016D01*
X545216D02*
X551116D01*
X526816Y272748D02*
X532616D01*
X534916D02*
X543016D01*
X545316D02*
X551116D01*
X526816Y272848D02*
X532716D01*
X535016D02*
X538716D01*
X539316D02*
X542916D01*
X545316D02*
X551216D01*
X526816Y272948D02*
X532716D01*
X535116D02*
X538416D01*
X539616D02*
X542916D01*
X545316D02*
X551216D01*
X526816Y273048D02*
X532716D01*
X535216D02*
X538216D01*
X539816D02*
X542816D01*
X545416D02*
X551316D01*
X526816Y273148D02*
X532716D01*
X535416D02*
X538116D01*
X540116D02*
X542716D01*
X545516D02*
X551316D01*
X526816Y273248D02*
X532716D01*
X535516D02*
X538016D01*
X540216D02*
X542616D01*
X545516D02*
X551416D01*
X526816Y273348D02*
X532716D01*
X535716D02*
X537816D01*
X540416D02*
X542516D01*
X545616D02*
X551416D01*
X526816Y273448D02*
X532716D01*
X535916D02*
X537716D01*
X540716D02*
X542216D01*
X545616D02*
X551516D01*
X526816Y273548D02*
X532716D01*
X536216D02*
X537516D01*
X541016D02*
X542116D01*
X545716D02*
X551516D01*
X526816Y273648D02*
X532716D01*
X536516D02*
X537016D01*
X545716D02*
X551516D01*
X526916Y273748D02*
X532716D01*
X545816D02*
X551616D01*
X526916Y273848D02*
X532716D01*
X545916D02*
X551616D01*
X526916Y273948D02*
X532616D01*
X545916D02*
X551616D01*
X526916Y274048D02*
X532616D01*
X546016D02*
X551716D01*
X526916Y274148D02*
X532616D01*
X546116D02*
X551716D01*
X526916Y274248D02*
X532616D01*
X546116D02*
X551716D01*
X527016Y274348D02*
X532616D01*
X546216D02*
X551816D01*
X527016Y274448D02*
X532616D01*
X546316D02*
X551816D01*
X527016Y274548D02*
X532516D01*
X546416D02*
X551816D01*
X527116Y274648D02*
X532516D01*
X546516D02*
X551816D01*
X527116Y274748D02*
X532516D01*
X546616D02*
X551816D01*
X527216Y274848D02*
X532516D01*
X546716D02*
X551816D01*
X527216Y274948D02*
X532416D01*
X546816D02*
X551816D01*
X527216Y275048D02*
X532416D01*
X546916D02*
X551816D01*
X527316Y275148D02*
X532316D01*
X547016D02*
X551816D01*
X527316Y275248D02*
X532316D01*
X547116D02*
X551816D01*
X527416Y275348D02*
X532216D01*
X547216D02*
X551816D01*
X527516Y275448D02*
X532216D01*
X547316D02*
X551816D01*
X527516Y275548D02*
X532116D01*
X547416D02*
X551816D01*
X527616Y275648D02*
X532016D01*
X547616D02*
X551816D01*
X527716Y275748D02*
X532016D01*
X547716D02*
X551716D01*
X527816Y275848D02*
X531916D01*
X547816D02*
X551716D01*
X527916Y275948D02*
X531816D01*
X548016D02*
X551616D01*
X528016Y276048D02*
X531716D01*
X548216D02*
X551616D01*
X528116Y276148D02*
X531616D01*
X548316D02*
X551516D01*
X528216Y276248D02*
X531516D01*
X548516D02*
X551416D01*
X528316Y276348D02*
X531416D01*
X548716D02*
X551316D01*
X528516Y276448D02*
X531216D01*
X548916D02*
X551216D01*
X528616Y276548D02*
X531116D01*
X549216D02*
X551016D01*
X528816Y276648D02*
X530916D01*
X549616D02*
X550816D01*
X529116Y276748D02*
X530716D01*
X543616D02*
X544116D01*
X529616Y276848D02*
X529716D01*
X529816D02*
X530116D01*
X535716D02*
X536916D01*
X543216D02*
X544616D01*
X535416Y276948D02*
X537216D01*
X542916D02*
X544916D01*
X535316Y277048D02*
X537416D01*
X542816D02*
X545116D01*
X535116Y277148D02*
X537616D01*
X542716D02*
X545316D01*
X535016Y277248D02*
X537816D01*
X542616D02*
X545416D01*
X534916Y277348D02*
X538016D01*
X542516D02*
X545616D01*
X534916Y277448D02*
X538116D01*
X542416D02*
X545716D01*
X534816Y277548D02*
X538216D01*
X542416D02*
X545816D01*
X534716Y277648D02*
X538316D01*
X542316D02*
X545916D01*
X549616D02*
X550516D01*
X550816D02*
X551116D01*
X530616Y277748D02*
X531016D01*
X534716D02*
X538416D01*
X542316D02*
X546016D01*
X549616D02*
X551116D01*
X529616Y277848D02*
X531016D01*
X534616D02*
X538516D01*
X542216D02*
X546116D01*
X549616D02*
X551216D01*
X529616Y277948D02*
X531116D01*
X534616D02*
X538616D01*
X542216D02*
X546216D01*
X549616D02*
X551216D01*
X529616Y278048D02*
X531116D01*
X534616D02*
X538716D01*
X542116D02*
X546316D01*
X549716D02*
X551216D01*
X529616Y278148D02*
X531216D01*
X534516D02*
X538816D01*
X542116D02*
X546416D01*
X549716D02*
X551216D01*
X529716Y278248D02*
X531216D01*
X534516D02*
X538916D01*
X542116D02*
X546516D01*
X549716D02*
X551316D01*
X529716Y278348D02*
X531216D01*
X534516D02*
X539016D01*
X542116D02*
X546516D01*
X549716D02*
X551316D01*
X529716Y278448D02*
X531316D01*
X534516D02*
X539016D01*
X542016D02*
X546616D01*
X549816D02*
X551316D01*
X529816Y278548D02*
X531316D01*
X534416D02*
X539116D01*
X542016D02*
X546716D01*
X549816D02*
X551316D01*
X529816Y278648D02*
X531316D01*
X534416D02*
X539216D01*
X542016D02*
X546816D01*
X549816D02*
X551316D01*
X529816Y278748D02*
X531416D01*
X534416D02*
X539216D01*
X542016D02*
X546816D01*
X549816D02*
X551416D01*
X529916Y278848D02*
X531416D01*
X534416D02*
X539316D01*
X542016D02*
X546916D01*
X549916D02*
X551416D01*
X529916Y278948D02*
X531416D01*
X534416D02*
X539416D01*
X542016D02*
X547016D01*
X549916D02*
X551416D01*
X530016Y279048D02*
X531416D01*
X534416D02*
X539416D01*
X542016D02*
X547016D01*
X549916D02*
X551416D01*
X530016Y279148D02*
X531516D01*
X534416D02*
X539516D01*
X542016D02*
X547116D01*
X550016D02*
X551416D01*
X530116Y279248D02*
X531516D01*
X534416D02*
X539516D01*
X542016D02*
X547116D01*
X550016D02*
X551416D01*
X530116Y279348D02*
X531516D01*
X534416D02*
X539616D01*
X542016D02*
X547216D01*
X550016D02*
X551416D01*
X530216Y279448D02*
X531516D01*
X534416D02*
X539616D01*
X542016D02*
X547216D01*
X550116D02*
X551416D01*
X530216Y279548D02*
X531616D01*
X534416D02*
X539716D01*
X542016D02*
X547316D01*
X550116D02*
X551416D01*
X530316Y279648D02*
X531616D01*
X534416D02*
X539716D01*
X542016D02*
X547316D01*
X550216D02*
X551416D01*
X530316Y279748D02*
X531616D01*
X534416D02*
X539816D01*
X542016D02*
X547416D01*
X550216D02*
X551416D01*
X530416Y279848D02*
X531616D01*
X534416D02*
X539816D01*
X542016D02*
X547416D01*
X550216D02*
X551416D01*
X530416Y279948D02*
X531616D01*
X534416D02*
X539916D01*
X542016D02*
X547516D01*
X550316D02*
X551416D01*
X530516Y280048D02*
X531616D01*
X534416D02*
X539916D01*
X542016D02*
X547516D01*
X550316D02*
X551416D01*
X530516Y280148D02*
X531616D01*
X534516D02*
X540016D01*
X542016D02*
X547616D01*
X550416D02*
X551416D01*
X530616Y280248D02*
X531616D01*
X534516D02*
X540016D01*
X542116D02*
X547616D01*
X550416D02*
X551416D01*
X530616Y280348D02*
X531616D01*
X534516D02*
X540016D01*
X542116D02*
X547616D01*
X550516D02*
X551416D01*
X530716Y280448D02*
X531716D01*
X534516D02*
X540116D01*
X542116D02*
X547616D01*
X550516D02*
X551416D01*
X530816Y280548D02*
X531716D01*
X534516D02*
X540116D01*
X542116D02*
X547716D01*
X550616D02*
X551416D01*
X530816Y280648D02*
X531716D01*
X534616D02*
X540116D01*
X542216D02*
X547716D01*
X550716D02*
X551416D01*
X530916Y280748D02*
X531716D01*
X534616D02*
X540216D01*
X542216D02*
X547716D01*
X550716D02*
X551316D01*
X531016Y280848D02*
X531716D01*
X534616D02*
X540216D01*
X542216D02*
X547816D01*
X550816D02*
X551316D01*
X531116Y280948D02*
X531716D01*
X534616D02*
X540216D01*
X542216D02*
X547816D01*
X550816D02*
X551316D01*
X531116Y281048D02*
X531716D01*
X534716D02*
X540316D01*
X542316D02*
X547816D01*
X550916D02*
X551316D01*
X531216Y281148D02*
X531716D01*
X534716D02*
X540316D01*
X542316D02*
X547816D01*
X550916D02*
X551316D01*
X531316Y281248D02*
X531616D01*
X534716D02*
X540316D01*
X542416D02*
X547916D01*
X551016D02*
X551316D01*
X531416Y281348D02*
X531616D01*
X534816D02*
X540316D01*
X542416D02*
X547916D01*
X551116D02*
X551216D01*
X531516Y281448D02*
X531616D01*
X534816D02*
X540316D01*
X542416D02*
X547916D01*
X534916Y281548D02*
X540316D01*
X542516D02*
X547916D01*
X534916Y281648D02*
X540316D01*
X542516D02*
X547916D01*
X535016Y281748D02*
X540316D01*
X542616D02*
X547916D01*
X535016Y281848D02*
X540316D01*
X542616D02*
X547916D01*
X535016Y281948D02*
X540316D01*
X542716D02*
X547916D01*
X535116Y282048D02*
X540316D01*
X542716D02*
X547916D01*
X535216Y282148D02*
X540316D01*
X542816D02*
X547916D01*
X535216Y282248D02*
X540316D01*
X542816D02*
X547916D01*
X535316Y282348D02*
X540316D01*
X542916D02*
X547916D01*
X535416Y282448D02*
X540316D01*
X543016D02*
X547916D01*
X535416Y282548D02*
X540316D01*
X543016D02*
X547916D01*
X535516Y282648D02*
X540316D01*
X543116D02*
X547916D01*
X535516Y282748D02*
X540316D01*
X543216D02*
X547816D01*
X535616Y282848D02*
X540316D01*
X543316D02*
X547816D01*
X535716Y282948D02*
X540316D01*
X543416D02*
X547816D01*
X535816Y283048D02*
X540216D01*
X543416D02*
X547816D01*
X535916Y283148D02*
X540216D01*
X543516D02*
X547716D01*
X536016Y283248D02*
X540216D01*
X543616D02*
X547716D01*
X536116Y283348D02*
X540116D01*
X543716D02*
X547716D01*
X536116Y283448D02*
X540116D01*
X543816D02*
X547616D01*
X536216Y283548D02*
X540116D01*
X543916D02*
X547616D01*
X536316Y283648D02*
X540016D01*
X544016D02*
X547516D01*
X536416Y283748D02*
X540016D01*
X544116D02*
X547516D01*
X536616Y283848D02*
X539916D01*
X544216D02*
X547416D01*
X536716Y283948D02*
X539816D01*
X544316D02*
X547416D01*
X536816Y284048D02*
X539816D01*
X544516D02*
X547316D01*
X536916Y284148D02*
X539716D01*
X544616D02*
X547216D01*
X537116Y284248D02*
X539616D01*
X544716D02*
X547116D01*
X537216Y284348D02*
X539516D01*
X544916D02*
X547116D01*
X537416Y284448D02*
X539416D01*
X545116D02*
X546916D01*
X537516Y284548D02*
X539316D01*
X545216D02*
X546816D01*
X537716Y284648D02*
X539216D01*
X545516D02*
X546716D01*
X538016Y284748D02*
X539016D01*
X545816D02*
X546416D01*
X538416Y284848D02*
X538616D01*
X539316Y285548D02*
X539416D01*
X545616D02*
X545816D01*
X546716D02*
X547016D01*
X538016Y285648D02*
X539516D01*
X545616D02*
X547116D01*
X538016Y285748D02*
X539516D01*
X545616D02*
X547116D01*
X538016Y285848D02*
X539616D01*
X545616D02*
X547216D01*
X538016Y285948D02*
X539616D01*
X545716D02*
X547216D01*
X538116Y286048D02*
X539616D01*
X545716D02*
X547216D01*
X538116Y286148D02*
X539616D01*
X545716D02*
X547216D01*
X538116Y286248D02*
X539716D01*
X545716D02*
X547216D01*
X538216Y286348D02*
X539716D01*
X545816D02*
X547316D01*
X538216Y286448D02*
X539716D01*
X545816D02*
X547316D01*
X538216Y286548D02*
X539716D01*
X545916D02*
X547316D01*
X538316Y286648D02*
X539716D01*
X545916D02*
X547316D01*
X538316Y286748D02*
X539816D01*
X545916D02*
X547416D01*
X538416Y286848D02*
X539816D01*
X546016D02*
X547416D01*
X538416Y286948D02*
X539816D01*
X546016D02*
X547416D01*
X538516Y287048D02*
X539816D01*
X546116D02*
X547416D01*
X538516Y287148D02*
X539816D01*
X546116D02*
X547416D01*
X538516Y287248D02*
X539816D01*
X546216D02*
X547416D01*
X538616Y287348D02*
X539816D01*
X546216D02*
X547416D01*
X538616Y287448D02*
X539816D01*
X546316D02*
X547416D01*
X538716Y287548D02*
X539816D01*
X546316D02*
X547416D01*
X538716Y287648D02*
X539816D01*
X546416D02*
X547416D01*
X538816Y287748D02*
X539816D01*
X546416D02*
X547416D01*
X538816Y287848D02*
X539816D01*
X546516D02*
X547416D01*
X538916Y287948D02*
X539816D01*
X546516D02*
X547416D01*
X539016Y288048D02*
X539816D01*
X546616D02*
X547416D01*
X539016Y288148D02*
X539816D01*
X546716D02*
X547416D01*
X539116Y288248D02*
X539816D01*
X546716D02*
X547416D01*
X539216Y288348D02*
X539816D01*
X546816D02*
X547416D01*
X539216Y288448D02*
X539816D01*
X546916D02*
X547416D01*
X539316Y288548D02*
X539816D01*
X546916D02*
X547416D01*
X539416Y288648D02*
X539816D01*
X547016D02*
X547416D01*
X539416Y288748D02*
X539816D01*
X547116D02*
X547316D01*
X539516Y288848D02*
X539816D01*
X547116D02*
X547316D01*
X539616Y288948D02*
X539716D01*
X100000Y337500D02*
X100003D01*
X575000D02*
X575003D01*
X100000Y100000D02*
X100003D01*
X100000Y337500D02*
X100003D01*
G54D11*
X517602Y159433D02*
X518739Y152870D01*
X519875Y159433D02*
X518739Y152870D01*
X519875Y159433D02*
X521011Y152870D01*
X522148Y159433D02*
X521011Y152870D01*
X524420Y153495D02*
X524193Y153183D01*
X524420Y152870*
X524648Y153183*
X524420Y153495*
X535102Y158495D02*
X534648Y159120D01*
X533966Y159433*
X533057*
X532375Y159120*
X531920Y158495*
Y157870*
X532148Y157245*
X532375Y156933*
X532830Y156620*
X534193Y155995*
X534648Y155683*
X534875Y155370*
X535102Y154745*
Y153808*
X534648Y153183*
X533966Y152870*
X533057*
X532375Y153183*
X531920Y153808*
X537830Y159433D02*
Y154120D01*
X538057Y153183*
X538511Y152870*
X538966*
X537148Y157245D02*
X538739D01*
X543739D02*
Y152870D01*
Y156308D02*
X543284Y156933D01*
X542830Y157245*
X542148*
X541693Y156933*
X541239Y156308*
X541011Y155370*
Y154745*
X541239Y153808*
X541693Y153183*
X542148Y152870*
X542830*
X543284Y153183*
X543739Y153808*
X546466Y159433D02*
Y154120D01*
X546693Y153183*
X547148Y152870*
X547602*
X545784Y157245D02*
X547375D01*
X549648Y159433D02*
Y152870D01*
Y155995D02*
X550330Y156933D01*
X550784Y157245*
X551466*
X551920Y156933*
X552148Y155995*
Y152870*
X554193Y159433D02*
X554420Y159120D01*
X554648Y159433*
X554420Y159745*
X554193Y159433*
X554420Y157245D02*
Y152870D01*
X559193Y156308D02*
X558966Y156933D01*
X558284Y157245*
X557602*
X556920Y156933*
X556693Y156308*
X556920Y155683*
X557375Y155370*
X558511Y155058*
X558966Y154745*
X559193Y154120*
Y153808*
X558966Y153183*
X558284Y152870*
X557602*
X556920Y153183*
X556693Y153808*
X181500Y285000D02*
X189500D01*
X185500Y281000D02*
Y289000D01*
X181500Y152500D02*
X189500D01*
X185500Y148500D02*
Y156500D01*
X485500Y285000D02*
X493500D01*
X489500Y281000D02*
Y289000D01*
X485500Y152500D02*
X493500D01*
X489500Y148500D02*
Y156500D01*
X367870Y164750D02*
X375870Y172750D01*
X367870D02*
X375870Y164750D01*
X367986Y264750D02*
X375986Y272750D01*
X367986D02*
X375986Y264750D01*
X205214Y308866D02*
X213214D01*
Y316866*
X205214*
Y308866*
X209214Y312866D02*
Y316866D01*
X215214Y308866D02*
X223214D01*
Y316866*
X215214*
Y308866*
X219214Y312866D02*
Y316866D01*
X225214Y308866D02*
X233214D01*
Y316866*
X225214*
Y308866*
X229214Y312866D02*
Y316866D01*
X235214Y308866D02*
X243214D01*
Y316866*
X235214*
Y308866*
X239214Y312866D02*
Y316866D01*
X245214Y308866D02*
X253214D01*
Y316866*
X245214*
Y308866*
X249214Y312866D02*
Y316866D01*
X255214Y308866D02*
X263214D01*
Y316866*
X255214*
Y308866*
X259214Y312866D02*
Y316866D01*
X514000Y313500D02*
X518000Y317500D01*
X514000Y321500*
X510000Y317500*
X514000Y313500*
Y317500D02*
Y321500D01*
X524000Y313500D02*
X528000Y317500D01*
X524000Y321500*
X520000Y317500*
X524000Y313500*
Y317500D02*
Y321500D01*
X534000Y313500D02*
X538000Y317500D01*
X534000Y321500*
X530000Y317500*
X534000Y313500*
Y317500D02*
Y321500D01*
X544000Y313500D02*
X548000Y317500D01*
X544000Y321500*
X540000Y317500*
X544000Y313500*
Y317500D02*
Y321500D01*
X554000Y313500D02*
X558000Y317500D01*
X554000Y321500*
X550000Y317500*
X554000Y313500*
Y317500D02*
Y321500D01*
X564000Y313500D02*
X568000Y317500D01*
X564000Y321500*
X560000Y317500*
X564000Y313500*
Y317500D02*
Y321500D01*
X514000Y118500D02*
X518000Y122500D01*
X514000Y126500*
X510000Y122500*
X514000Y118500*
Y122500D02*
Y126500D01*
X524000Y118500D02*
X528000Y122500D01*
X524000Y126500*
X520000Y122500*
X524000Y118500*
Y122500D02*
Y126500D01*
X534000Y118500D02*
X538000Y122500D01*
X534000Y126500*
X530000Y122500*
X534000Y118500*
Y122500D02*
Y126500D01*
X544000Y118500D02*
X548000Y122500D01*
X544000Y126500*
X540000Y122500*
X544000Y118500*
Y122500D02*
Y126500D01*
X554000Y118500D02*
X558000Y122500D01*
X554000Y126500*
X550000Y122500*
X554000Y118500*
Y122500D02*
Y126500D01*
X564000Y118500D02*
X568000Y122500D01*
X564000Y126500*
X560000Y122500*
X564000Y118500*
Y122500D02*
Y126500D01*
X353000Y224750D02*
X361000D01*
X353000Y232750*
X361000*
X353000Y224750*
Y214750D02*
X361000D01*
X353000Y222750*
X361000*
X353000Y214750*
Y204750D02*
X361000D01*
X353000Y212750*
X361000*
X353000Y204750*
X383048Y204800D02*
X391048D01*
X383048Y212800*
X391048*
X383048Y204800*
Y224800D02*
X391048D01*
X383048Y232800*
X391048*
X383048Y224800*
X123731Y123491D02*
X131731Y131491D01*
Y123491*
X123731Y131491*
Y123491*
X136696Y115672D02*
X144696Y123672D01*
Y115672*
X136696Y123672*
Y115672*
X303105Y119276D02*
X311105Y127276D01*
Y119276*
X303105Y127276*
Y119276*
X311054Y123233D02*
X319054Y131233D01*
Y123233*
X311054Y131233*
Y123233*
X156862Y159418D02*
X164862Y167418D01*
Y159418*
X156862Y167418*
Y159418*
X227058Y152650D02*
X235058Y160650D01*
Y152650*
X227058Y160650*
Y152650*
X123731Y169992D02*
X131731Y177992D01*
Y169992*
X123731Y177992*
Y169992*
X163931Y174666D02*
X171931Y182666D01*
Y174666*
X163931Y182666*
Y174666*
X296539Y179004D02*
X304539Y187004D01*
Y179004*
X296539Y187004*
Y179004*
X172384Y194326D02*
X180384Y202326D01*
Y194326*
X172384Y202326*
Y194326*
X258300Y198852D02*
X266300Y206852D01*
Y198852*
X258300Y206852*
Y198852*
X303105Y204164D02*
X311105Y212164D01*
Y204164*
X303105Y212164*
Y204164*
X539910Y206251D02*
X547910Y214251D01*
Y206251*
X539910Y214251*
Y206251*
X156574Y214573D02*
X164574Y222573D01*
Y214573*
X156574Y222573*
Y214573*
X180628Y213390D02*
X188628Y221390D01*
Y213390*
X180628Y221390*
Y213390*
X211345Y219494D02*
X219345Y227494D01*
Y219494*
X211345Y227494*
Y219494*
X238024Y224769D02*
X246024Y232769D01*
Y224769*
X238024Y232769*
Y224769*
X251697Y215656D02*
X259697Y223656D01*
Y215656*
X251697Y223656*
Y215656*
X258300Y224769D02*
X266300Y232769D01*
Y224769*
X258300Y232769*
Y224769*
X311054Y224832D02*
X319054Y232832D01*
Y224832*
X311054Y232832*
Y224832*
X475111Y211251D02*
X483111Y219251D01*
Y211251*
X475111Y219251*
Y211251*
X480759Y216251D02*
X488759Y224251D01*
Y216251*
X480759Y224251*
Y216251*
Y225863D02*
X488759Y233863D01*
Y225863*
X480759Y233863*
Y225863*
X519992Y216251D02*
X527992Y224251D01*
Y216251*
X519992Y224251*
Y216251*
X529998Y221251D02*
X537998Y229251D01*
Y221251*
X529998Y229251*
Y221251*
X549906Y211251D02*
X557906Y219251D01*
Y211251*
X549906Y219251*
Y211251*
X136696Y234552D02*
X144696Y242552D01*
Y234552*
X136696Y242552*
Y234552*
X197768Y240636D02*
X205768Y248636D01*
Y240636*
X197768Y248636*
Y240636*
X228497Y229494D02*
X236497Y237494D01*
Y229494*
X228497Y237494*
Y229494*
X256759Y236744D02*
X264759Y244744D01*
Y236744*
X256759Y244744*
Y236744*
X266759Y229494D02*
X274759Y237494D01*
Y229494*
X266759Y237494*
Y229494*
X280881Y236744D02*
X288881Y244744D01*
Y236744*
X280881Y244744*
Y236744*
X271738Y240636D02*
X279738Y248636D01*
Y240636*
X271738Y248636*
Y240636*
X197411Y255948D02*
X205411Y263948D01*
Y255948*
X197411Y263948*
Y255948*
X225214Y258058D02*
X233214Y266058D01*
Y258058*
X225214Y266058*
Y258058*
X251730Y258040D02*
X259730Y266040D01*
Y258040*
X251730Y266040*
Y258040*
X266965D02*
X274965Y266040D01*
Y258040*
X266965Y266040*
Y258040*
X290449Y253834D02*
X298449Y261834D01*
Y253834*
X290449Y261834*
Y253834*
X459299Y247322D02*
X467299Y255322D01*
Y247322*
X459299Y255322*
Y247322*
X251673Y267040D02*
X259673Y275040D01*
Y267040*
X251673Y275040*
Y267040*
X267080D02*
X275080Y275040D01*
Y267040*
X267080Y275040*
Y267040*
X156594Y304008D02*
X164594Y312008D01*
Y304008*
X156594Y312008*
Y304008*
X225214Y290251D02*
X233214Y298251D01*
Y290251*
X225214Y298251*
Y290251*
X100000Y337500D02*
X575000D01*
Y100000*
X100000*
Y337500*
Y372470D02*
X309500D01*
X100000D02*
X110000Y374970D01*
Y369970*
X100000Y372470*
X575000D02*
X365500D01*
X575000D02*
X565000Y369970D01*
Y374970*
X575000Y372470*
X100000Y342500D02*
Y377470D01*
X575000Y342500D02*
Y377470D01*
X314773Y375283D02*
X312500Y370908D01*
X315909*
X314773Y375283D02*
Y368720D01*
X321136Y375283D02*
X318864Y368720D01*
X317955Y375283D02*
X321136D01*
X326136D02*
X323864D01*
X323636Y372470*
X323864Y372783*
X324545Y373095*
X325227*
X325909Y372783*
X326364Y372158*
X326591Y371220*
X326364Y370595*
X326136Y369658*
X325682Y369033*
X325000Y368720*
X324318*
X323636Y369033*
X323409Y369345*
X323182Y369970*
X330000Y375283D02*
X329318Y374970D01*
X328864Y374033*
X328636Y372470*
Y371533*
X328864Y369970*
X329318Y369033*
X330000Y368720*
X330455*
X331136Y369033*
X331591Y369970*
X331818Y371533*
Y372470*
X331591Y374033*
X331136Y374970*
X330455Y375283*
X330000*
X334091Y369345D02*
X333864Y369033D01*
X334091Y368720*
X334318Y369033*
X334091Y369345*
X337727Y375283D02*
X337045Y374970D01*
X336591Y374033*
X336364Y372470*
Y371533*
X336591Y369970*
X337045Y369033*
X337727Y368720*
X338182*
X338864Y369033*
X339318Y369970*
X339545Y371533*
Y372470*
X339318Y374033*
X338864Y374970*
X338182Y375283*
X337727*
X342955D02*
X342273Y374970D01*
X341818Y374033*
X341591Y372470*
Y371533*
X341818Y369970*
X342273Y369033*
X342955Y368720*
X343409*
X344091Y369033*
X344545Y369970*
X344773Y371533*
Y372470*
X344545Y374033*
X344091Y374970*
X343409Y375283*
X342955*
X348182D02*
X347500Y374970D01*
X347045Y374033*
X346818Y372470*
Y371533*
X347045Y369970*
X347500Y369033*
X348182Y368720*
X348636*
X349318Y369033*
X349773Y369970*
X350000Y371533*
Y372470*
X349773Y374033*
X349318Y374970*
X348636Y375283*
X348182*
X352045Y373095D02*
Y368720D01*
Y371845D02*
X352727Y372783D01*
X353182Y373095*
X353864*
X354318Y372783*
X354545Y371845*
Y368720*
Y371845D02*
X355227Y372783D01*
X355682Y373095*
X356364*
X356818Y372783*
X357045Y371845*
Y368720*
X359091Y375283D02*
X359318Y374970D01*
X359545Y375283*
X359318Y375595*
X359091Y375283*
X359318Y373095D02*
Y368720D01*
X361591Y375283D02*
Y368720D01*
X61588Y100000D02*
Y212000D01*
Y100000D02*
X59088Y110000D01*
X64088*
X61588Y100000*
Y337500D02*
Y225500D01*
Y337500D02*
X64088Y327500D01*
X59088*
X61588Y337500*
X95000Y100000D02*
X56588D01*
X95000Y337500D02*
X56588D01*
X36929Y220000D02*
Y220313D01*
X36929D02*
X37157Y220938D01*
X37157D02*
X37384Y221250D01*
X37838Y221563*
X37838D02*
X38748D01*
X38748D02*
X39202Y221250D01*
X39429Y220938*
X39429D02*
X39657Y220313D01*
X39657D02*
Y219688D01*
X39657D02*
X39429Y219063D01*
X39429D02*
X38975Y218125D01*
X36702Y215000*
X39884*
X42384Y221563D02*
X44884D01*
X44884D02*
X43520Y219063D01*
X43520D02*
X44202D01*
X44202D02*
X44657Y218750D01*
X44884Y218438*
X44884D02*
X45111Y217500D01*
Y216875*
X44884Y215938*
X44884D02*
X44429Y215313D01*
X44429D02*
X43748Y215000D01*
X43066*
X42384Y215313*
X42384D02*
X42157Y215625D01*
X41929Y216250*
X50338Y221563D02*
X48066Y215000D01*
X47157Y221563D02*
X50338D01*
X55338D02*
X53066D01*
X53066D02*
X52838Y218750D01*
X53066Y219063*
X53066D02*
X53748Y219375D01*
X54429*
X55111Y219063*
X55111D02*
X55566Y218438D01*
X55566D02*
X55793Y217500D01*
X55566Y216875*
X55338Y215938*
X55338D02*
X54884Y215313D01*
X54884D02*
X54202Y215000D01*
X53520*
X52838Y215313*
X52838D02*
X52611Y215625D01*
X52384Y216250*
X58066Y215625D02*
X57838Y215313D01*
X57838D02*
X58066Y215000D01*
X58293Y215313*
X58293D02*
X58066Y215625D01*
X61702Y221563D02*
X61020Y221250D01*
X60566Y220313*
X60566D02*
X60338Y218750D01*
Y217813*
X60338D02*
X60566Y216250D01*
X61020Y215313*
X61020D02*
X61702Y215000D01*
X62157*
X62838Y215313*
X62838D02*
X63293Y216250D01*
X63520Y217813*
X63520D02*
Y218750D01*
X63293Y220313*
X63293D02*
X62838Y221250D01*
X62157Y221563*
X62157D02*
X61702D01*
X66929D02*
X66248Y221250D01*
X65793Y220313*
X65793D02*
X65566Y218750D01*
Y217813*
X65566D02*
X65793Y216250D01*
X66248Y215313*
X66248D02*
X66929Y215000D01*
X67384*
X68066Y215313*
X68066D02*
X68520Y216250D01*
X68748Y217813*
X68748D02*
Y218750D01*
X68520Y220313*
X68520D02*
X68066Y221250D01*
X67384Y221563*
X67384D02*
X66929D01*
X72157D02*
X71475Y221250D01*
X71020Y220313*
X71020D02*
X70793Y218750D01*
Y217813*
X70793D02*
X71020Y216250D01*
X71475Y215313*
X71475D02*
X72157Y215000D01*
X72611*
X73293Y215313*
X73293D02*
X73748Y216250D01*
X73975Y217813*
X73975D02*
Y218750D01*
X73748Y220313*
X73748D02*
X73293Y221250D01*
X72611Y221563*
X72611D02*
X72157D01*
X76020Y219375D02*
Y215000D01*
Y218125D02*
X76702Y219063D01*
X76702D02*
X77157Y219375D01*
X77838*
X78293Y219063*
X78293D02*
X78520Y218125D01*
Y215000*
Y218125D02*
X79202Y219063D01*
X79202D02*
X79657Y219375D01*
X80338*
X80793Y219063*
X80793D02*
X81020Y218125D01*
Y215000*
X83066Y221563D02*
X83293Y221250D01*
X83520Y221563*
X83520D02*
X83293Y221875D01*
X83066Y221563*
X83293Y219375D02*
Y215000D01*
X85566Y221563D02*
Y215000D01*
X300000Y568000D02*
X558000D01*
X300000Y544000D02*
X558000D01*
X300000Y520000D02*
X558000D01*
X300000Y496000D02*
X558000D01*
X300000Y472000D02*
X558000D01*
X300000Y448000D02*
X558000D01*
X300000Y424000D02*
X558000D01*
X300000Y400000D02*
X558000D01*
X300000Y568000D02*
Y400000D01*
X384000Y568000D02*
Y400000D01*
X420000Y568000D02*
Y400000D01*
X456000Y568000D02*
Y400000D01*
X510000Y568000D02*
Y400000D01*
X558000Y568000D02*
Y400000D01*
X335500Y556750D02*
X334955Y557500D01*
X334136Y557875*
X333045*
X332227Y557500*
X331682Y556750*
Y556000*
X331955Y555250*
X332227Y554875*
X332773Y554500*
X334409Y553750*
X334955Y553375*
X335227Y553000*
X335500Y552250*
Y551125*
X334955Y550375*
X334136Y550000*
X333045*
X332227Y550375*
X331682Y551125*
X337955Y557875D02*
Y550000D01*
X344227Y557875D02*
X340409Y550000D01*
Y557875D02*
X344227D01*
X340409Y550000D02*
X344227D01*
X346682Y557875D02*
Y550000D01*
Y557875D02*
X350227D01*
X346682Y554125D02*
X348864D01*
X346682Y550000D02*
X350227D01*
X393864Y557875D02*
X393318Y557500D01*
X392773Y556750*
X392500Y556000*
X392227Y554875*
Y553000*
X392500Y551875*
X392773Y551125*
X393318Y550375*
X393864Y550000*
X394955*
X395500Y550375*
X396045Y551125*
X396318Y551875*
X396591Y553000*
Y554875*
X396318Y556000*
X396045Y556750*
X395500Y557500*
X394955Y557875*
X393864*
X394682Y551500D02*
X396318Y549250D01*
X400955Y557875D02*
Y550000D01*
X399045Y557875D02*
X402864D01*
X405318D02*
X407500Y554125D01*
Y550000*
X409682Y557875D02*
X407500Y554125D01*
X432045Y556750D02*
X431500Y557500D01*
X430682Y557875*
X429591*
X428773Y557500*
X428227Y556750*
Y556000*
X428500Y555250*
X428773Y554875*
X429318Y554500*
X430955Y553750*
X431500Y553375*
X431773Y553000*
X432045Y552250*
Y551125*
X431500Y550375*
X430682Y550000*
X429591*
X428773Y550375*
X428227Y551125*
X434500Y557875D02*
X436682Y554125D01*
Y550000*
X438864Y557875D02*
X436682Y554125D01*
X441318Y557875D02*
Y550000D01*
Y557875D02*
X443500Y550000D01*
X445682Y557875D02*
X443500Y550000D01*
X445682Y557875D02*
Y550000D01*
X467500Y557875D02*
Y550000D01*
Y557875D02*
X469955D01*
X470773Y557500*
X471045Y557125*
X471318Y556375*
Y555250*
X471045Y554500*
X470773Y554125*
X469955Y553750*
X467500*
X473773Y557875D02*
Y550000D01*
X477045*
X481682Y557875D02*
X479500Y550000D01*
X481682Y557875D02*
X483864Y550000D01*
X480318Y552625D02*
X483045D01*
X488227Y557875D02*
Y550000D01*
X486318Y557875D02*
X490136D01*
X492591D02*
Y550000D01*
Y557875D02*
X496136D01*
X492591Y554125D02*
X494773D01*
X492591Y550000D02*
X496136D01*
X498591Y557875D02*
Y550000D01*
Y557875D02*
X500500D01*
X501318Y557500*
X501864Y556750*
X502136Y556000*
X502409Y554875*
Y553000*
X502136Y551875*
X501864Y551125*
X501318Y550375*
X500500Y550000*
X498591*
X526682Y557875D02*
Y550000D01*
X524773Y557875D02*
X528591D01*
X532682D02*
X532136Y557500D01*
X531591Y556750*
X531318Y556000*
X531045Y554875*
Y553000*
X531318Y551875*
X531591Y551125*
X532136Y550375*
X532682Y550000*
X533773*
X534318Y550375*
X534864Y551125*
X535136Y551875*
X535409Y553000*
Y554875*
X535136Y556000*
X534864Y556750*
X534318Y557500*
X533773Y557875*
X532682*
X537864D02*
Y550000D01*
X541136*
X306000Y532375D02*
X306545Y532750D01*
X307364Y533875*
Y526000*
X313364Y533875D02*
X310636D01*
X310364Y530500*
X310636Y530875*
X311455Y531250*
X312273*
X313091Y530875*
X313636Y530125*
X313909Y529000*
X313636Y528250*
X313364Y527125*
X312818Y526375*
X312000Y526000*
X311182*
X310364Y526375*
X310091Y526750*
X309818Y527500*
X320182Y533875D02*
X317455Y526000D01*
X316364Y533875D02*
X320182D01*
X322909Y526750D02*
X322636Y526375D01*
X322909Y526000*
X323182Y526375*
X322909Y526750*
X328364Y533875D02*
X325636Y528625D01*
X329727*
X328364Y533875D02*
Y526000D01*
X333545Y533875D02*
X332727Y533500D01*
X332455Y532750*
Y532000*
X332727Y531250*
X333273Y530875*
X334364Y530500*
X335182Y530125*
X335727Y529375*
X336000Y528625*
Y527500*
X335727Y526750*
X335455Y526375*
X334636Y526000*
X333545*
X332727Y526375*
X332455Y526750*
X332182Y527500*
Y528625*
X332455Y529375*
X333000Y530125*
X333818Y530500*
X334909Y530875*
X335455Y531250*
X335727Y532000*
Y532750*
X335455Y533500*
X334636Y533875*
X333545*
X401636D02*
X398909Y528625D01*
X403000*
X401636Y533875D02*
Y526000D01*
X432000Y532000D02*
X444000D01*
X438000Y526000D02*
Y538000D01*
X464636Y533875D02*
X466818Y530125D01*
Y526000*
X469000Y533875D02*
X466818Y530125D01*
X471455Y533875D02*
Y526000D01*
Y533875D02*
X475000D01*
X471455Y530125D02*
X473636D01*
X471455Y526000D02*
X475000D01*
X481273Y532750D02*
X480727Y533500D01*
X479909Y533875*
X478818*
X478000Y533500*
X477455Y532750*
Y532000*
X477727Y531250*
X478000Y530875*
X478545Y530500*
X480182Y529750*
X480727Y529375*
X481000Y529000*
X481273Y528250*
Y527125*
X480727Y526375*
X479909Y526000*
X478818*
X478000Y526375*
X477455Y527125*
X517818Y532750D02*
Y526000D01*
X515364Y529375D02*
X520273D01*
X527636Y535375D02*
X522727Y523375D01*
X530091Y529375D02*
X535000D01*
X539091Y533875D02*
X538273Y533500D01*
X537727Y532375*
X537455Y530500*
Y529375*
X537727Y527500*
X538273Y526375*
X539091Y526000*
X539636*
X540455Y526375*
X541000Y527500*
X541273Y529375*
Y530500*
X541000Y532375*
X540455Y533500*
X539636Y533875*
X539091*
X544000Y526750D02*
X543727Y526375D01*
X544000Y526000*
X544273Y526375*
X544000Y526750*
X548364Y533875D02*
X547545Y533500D01*
X547000Y532375*
X546727Y530500*
Y529375*
X547000Y527500*
X547545Y526375*
X548364Y526000*
X548909*
X549727Y526375*
X550273Y527500*
X550545Y529375*
Y530500*
X550273Y532375*
X549727Y533500*
X548909Y533875*
X548364*
X306000Y508375D02*
X306545Y508750D01*
X307364Y509875*
Y502000*
X311455Y509875D02*
X310636Y509500D01*
X310091Y508375*
X309818Y506500*
Y505375*
X310091Y503500*
X310636Y502375*
X311455Y502000*
X312000*
X312818Y502375*
X313364Y503500*
X313636Y505375*
Y506500*
X313364Y508375*
X312818Y509500*
X312000Y509875*
X311455*
X317727D02*
X316909Y509500D01*
X316364Y508375*
X316091Y506500*
Y505375*
X316364Y503500*
X316909Y502375*
X317727Y502000*
X318273*
X319091Y502375*
X319636Y503500*
X319909Y505375*
Y506500*
X319636Y508375*
X319091Y509500*
X318273Y509875*
X317727*
X399318Y508000D02*
Y508375D01*
X399591Y509125*
X399864Y509500*
X400409Y509875*
X401500*
X402045Y509500*
X402318Y509125*
X402591Y508375*
Y507625*
X402318Y506875*
X401773Y505750*
X399045Y502000*
X402864*
X432000D02*
X444000Y514000D01*
X432000D02*
X444000Y502000D01*
X464636Y509875D02*
X466818Y506125D01*
Y502000*
X469000Y509875D02*
X466818Y506125D01*
X471455Y509875D02*
Y502000D01*
Y509875D02*
X475000D01*
X471455Y506125D02*
X473636D01*
X471455Y502000D02*
X475000D01*
X481273Y508750D02*
X480727Y509500D01*
X479909Y509875*
X478818*
X478000Y509500*
X477455Y508750*
Y508000*
X477727Y507250*
X478000Y506875*
X478545Y506500*
X480182Y505750*
X480727Y505375*
X481000Y505000*
X481273Y504250*
Y503125*
X480727Y502375*
X479909Y502000*
X478818*
X478000Y502375*
X477455Y503125*
X517818Y508750D02*
Y502000D01*
X515364Y505375D02*
X520273D01*
X527636Y511375D02*
X522727Y499375D01*
X530091Y505375D02*
X535000D01*
X539091Y509875D02*
X538273Y509500D01*
X537727Y508375*
X537455Y506500*
Y505375*
X537727Y503500*
X538273Y502375*
X539091Y502000*
X539636*
X540455Y502375*
X541000Y503500*
X541273Y505375*
Y506500*
X541000Y508375*
X540455Y509500*
X539636Y509875*
X539091*
X544000Y502750D02*
X543727Y502375D01*
X544000Y502000*
X544273Y502375*
X544000Y502750*
X548364Y509875D02*
X547545Y509500D01*
X547000Y508375*
X546727Y506500*
Y505375*
X547000Y503500*
X547545Y502375*
X548364Y502000*
X548909*
X549727Y502375*
X550273Y503500*
X550545Y505375*
Y506500*
X550273Y508375*
X549727Y509500*
X548909Y509875*
X548364*
X306545Y485875D02*
X309545D01*
X307909Y482875*
X308727*
X309273Y482500*
X309545Y482125*
X309818Y481000*
Y480250*
X309545Y479125*
X309000Y478375*
X308182Y478000*
X307364*
X306545Y478375*
X306273Y478750*
X306000Y479500*
X315818Y485875D02*
X313091D01*
X312818Y482500*
X313091Y482875*
X313909Y483250*
X314727*
X315545Y482875*
X316091Y482125*
X316364Y481000*
X316091Y480250*
X315818Y479125*
X315273Y478375*
X314455Y478000*
X313636*
X312818Y478375*
X312545Y478750*
X312273Y479500*
X402455Y484750D02*
X402182Y485500D01*
X401364Y485875*
X400818*
X400000Y485500*
X399455Y484375*
X399182Y482500*
Y480625*
X399455Y479125*
X400000Y478375*
X400818Y478000*
X401091*
X401909Y478375*
X402455Y479125*
X402727Y480250*
Y480625*
X402455Y481750*
X401909Y482500*
X401091Y482875*
X400818*
X400000Y482500*
X399455Y481750*
X399182Y480625*
X432000Y478000D02*
X444000D01*
Y490000*
X432000*
Y478000*
X438000Y484000D02*
Y490000D01*
X464636Y485875D02*
X466818Y482125D01*
Y478000*
X469000Y485875D02*
X466818Y482125D01*
X471455Y485875D02*
Y478000D01*
Y485875D02*
X475000D01*
X471455Y482125D02*
X473636D01*
X471455Y478000D02*
X475000D01*
X481273Y484750D02*
X480727Y485500D01*
X479909Y485875*
X478818*
X478000Y485500*
X477455Y484750*
Y484000*
X477727Y483250*
X478000Y482875*
X478545Y482500*
X480182Y481750*
X480727Y481375*
X481000Y481000*
X481273Y480250*
Y479125*
X480727Y478375*
X479909Y478000*
X478818*
X478000Y478375*
X477455Y479125*
X517818Y484750D02*
Y478000D01*
X515364Y481375D02*
X520273D01*
X527636Y487375D02*
X522727Y475375D01*
X530091Y481375D02*
X535000D01*
X539091Y485875D02*
X538273Y485500D01*
X537727Y484375*
X537455Y482500*
Y481375*
X537727Y479500*
X538273Y478375*
X539091Y478000*
X539636*
X540455Y478375*
X541000Y479500*
X541273Y481375*
Y482500*
X541000Y484375*
X540455Y485500*
X539636Y485875*
X539091*
X544000Y478750D02*
X543727Y478375D01*
X544000Y478000*
X544273Y478375*
X544000Y478750*
X548364Y485875D02*
X547545Y485500D01*
X547000Y484375*
X546727Y482500*
Y481375*
X547000Y479500*
X547545Y478375*
X548364Y478000*
X548909*
X549727Y478375*
X550273Y479500*
X550545Y481375*
Y482500*
X550273Y484375*
X549727Y485500*
X548909Y485875*
X548364*
X308727Y461875D02*
X306000Y456625D01*
X310091*
X308727Y461875D02*
Y454000D01*
X312818Y460000D02*
Y460375D01*
X313091Y461125*
X313364Y461500*
X313909Y461875*
X315000*
X315545Y461500*
X315818Y461125*
X316091Y460375*
Y459625*
X315818Y458875*
X315273Y457750*
X312545Y454000*
X316364*
X397136Y460375D02*
X397682Y460750D01*
X398500Y461875*
Y454000*
X401227Y460000D02*
Y460375D01*
X401500Y461125*
X401773Y461500*
X402318Y461875*
X403409*
X403955Y461500*
X404227Y461125*
X404500Y460375*
Y459625*
X404227Y458875*
X403682Y457750*
X400955Y454000*
X404773*
X438000D02*
X444000Y460000D01*
X438000Y466000*
X432000Y460000*
X438000Y454000*
Y460000D02*
Y466000D01*
X464636Y461875D02*
X466818Y458125D01*
Y454000*
X469000Y461875D02*
X466818Y458125D01*
X471455Y461875D02*
Y454000D01*
Y461875D02*
X475000D01*
X471455Y458125D02*
X473636D01*
X471455Y454000D02*
X475000D01*
X481273Y460750D02*
X480727Y461500D01*
X479909Y461875*
X478818*
X478000Y461500*
X477455Y460750*
Y460000*
X477727Y459250*
X478000Y458875*
X478545Y458500*
X480182Y457750*
X480727Y457375*
X481000Y457000*
X481273Y456250*
Y455125*
X480727Y454375*
X479909Y454000*
X478818*
X478000Y454375*
X477455Y455125*
X517818Y460750D02*
Y454000D01*
X515364Y457375D02*
X520273D01*
X527636Y463375D02*
X522727Y451375D01*
X530091Y457375D02*
X535000D01*
X539091Y461875D02*
X538273Y461500D01*
X537727Y460375*
X537455Y458500*
Y457375*
X537727Y455500*
X538273Y454375*
X539091Y454000*
X539636*
X540455Y454375*
X541000Y455500*
X541273Y457375*
Y458500*
X541000Y460375*
X540455Y461500*
X539636Y461875*
X539091*
X544000Y454750D02*
X543727Y454375D01*
X544000Y454000*
X544273Y454375*
X544000Y454750*
X548364Y461875D02*
X547545Y461500D01*
X547000Y460375*
X546727Y458500*
Y457375*
X547000Y455500*
X547545Y454375*
X548364Y454000*
X548909*
X549727Y454375*
X550273Y455500*
X550545Y457375*
Y458500*
X550273Y460375*
X549727Y461500*
X548909Y461875*
X548364*
X308727Y437875D02*
X306000Y432625D01*
X310091*
X308727Y437875D02*
Y430000D01*
X312545Y436375D02*
X313091Y436750D01*
X313909Y437875*
Y430000*
X402455Y437875D02*
X399727D01*
X399455Y434500*
X399727Y434875*
X400545Y435250*
X401364*
X402182Y434875*
X402727Y434125*
X403000Y433000*
X402727Y432250*
X402455Y431125*
X401909Y430375*
X401091Y430000*
X400273*
X399455Y430375*
X399182Y430750*
X398909Y431500*
X432000Y430000D02*
X444000D01*
X432000Y442000*
X444000*
X432000Y430000*
X464636Y437875D02*
X466818Y434125D01*
Y430000*
X469000Y437875D02*
X466818Y434125D01*
X471455Y437875D02*
Y430000D01*
Y437875D02*
X475000D01*
X471455Y434125D02*
X473636D01*
X471455Y430000D02*
X475000D01*
X481273Y436750D02*
X480727Y437500D01*
X479909Y437875*
X478818*
X478000Y437500*
X477455Y436750*
Y436000*
X477727Y435250*
X478000Y434875*
X478545Y434500*
X480182Y433750*
X480727Y433375*
X481000Y433000*
X481273Y432250*
Y431125*
X480727Y430375*
X479909Y430000*
X478818*
X478000Y430375*
X477455Y431125*
X517818Y436750D02*
Y430000D01*
X515364Y433375D02*
X520273D01*
X527636Y439375D02*
X522727Y427375D01*
X530091Y433375D02*
X535000D01*
X539091Y437875D02*
X538273Y437500D01*
X537727Y436375*
X537455Y434500*
Y433375*
X537727Y431500*
X538273Y430375*
X539091Y430000*
X539636*
X540455Y430375*
X541000Y431500*
X541273Y433375*
Y434500*
X541000Y436375*
X540455Y437500*
X539636Y437875*
X539091*
X544000Y430750D02*
X543727Y430375D01*
X544000Y430000*
X544273Y430375*
X544000Y430750*
X548364Y437875D02*
X547545Y437500D01*
X547000Y436375*
X546727Y434500*
Y433375*
X547000Y431500*
X547545Y430375*
X548364Y430000*
X548909*
X549727Y430375*
X550273Y431500*
X550545Y433375*
Y434500*
X550273Y436375*
X549727Y437500*
X548909Y437875*
X548364*
X306273Y412000D02*
Y412375D01*
X306545Y413125*
X306818Y413500*
X307364Y413875*
X308455*
X309000Y413500*
X309273Y413125*
X309545Y412375*
Y411625*
X309273Y410875*
X308727Y409750*
X306000Y406000*
X309818*
X313909Y413875D02*
X313091Y413500D01*
X312545Y412375*
X312273Y410500*
Y409375*
X312545Y407500*
X313091Y406375*
X313909Y406000*
X314455*
X315273Y406375*
X315818Y407500*
X316091Y409375*
Y410500*
X315818Y412375*
X315273Y413500*
X314455Y413875*
X313909*
X398500D02*
X395773Y408625D01*
X399864*
X398500Y413875D02*
Y406000D01*
X402864Y413875D02*
X405864D01*
X404227Y410875*
X405045*
X405591Y410500*
X405864Y410125*
X406136Y409000*
Y408250*
X405864Y407125*
X405318Y406375*
X404500Y406000*
X403682*
X402864Y406375*
X402591Y406750*
X402318Y407500*
X432000Y406000D02*
X444000Y418000D01*
Y406000*
X432000Y418000*
Y406000*
X464636Y413875D02*
X466818Y410125D01*
Y406000*
X469000Y413875D02*
X466818Y410125D01*
X471455Y413875D02*
Y406000D01*
Y413875D02*
X475000D01*
X471455Y410125D02*
X473636D01*
X471455Y406000D02*
X475000D01*
X481273Y412750D02*
X480727Y413500D01*
X479909Y413875*
X478818*
X478000Y413500*
X477455Y412750*
Y412000*
X477727Y411250*
X478000Y410875*
X478545Y410500*
X480182Y409750*
X480727Y409375*
X481000Y409000*
X481273Y408250*
Y407125*
X480727Y406375*
X479909Y406000*
X478818*
X478000Y406375*
X477455Y407125*
X517818Y412750D02*
Y406000D01*
X515364Y409375D02*
X520273D01*
X527636Y415375D02*
X522727Y403375D01*
X530091Y409375D02*
X535000D01*
X539091Y413875D02*
X538273Y413500D01*
X537727Y412375*
X537455Y410500*
Y409375*
X537727Y407500*
X538273Y406375*
X539091Y406000*
X539636*
X540455Y406375*
X541000Y407500*
X541273Y409375*
Y410500*
X541000Y412375*
X540455Y413500*
X539636Y413875*
X539091*
X544000Y406750D02*
X543727Y406375D01*
X544000Y406000*
X544273Y406375*
X544000Y406750*
X548364Y413875D02*
X547545Y413500D01*
X547000Y412375*
X546727Y410500*
Y409375*
X547000Y407500*
X547545Y406375*
X548364Y406000*
X548909*
X549727Y406375*
X550273Y407500*
X550545Y409375*
Y410500*
X550273Y412375*
X549727Y413500*
X548909Y413875*
X548364*
X0Y0D02*
M02*
