%
T1C.02F197S55
X012773Y012749
X012773Y017399
X01407Y011967
X016086Y016342
X016793Y017867
X023106Y015665
X030054Y0183
X03071Y012328
X031505Y012723
X055391Y021525
X054391Y021025
X0534Y022525
X052399Y022025
X048476Y022025
X048476Y022986
X047911Y021525
X031505Y022883
X03071Y020816
X028488Y024074
X027574Y024464
X027076Y023349
X02623Y020285
X02623Y022877
X026076Y024074
X02557Y021966
X024202Y022877
X02325Y023349
X021534Y022349
X020177Y024464
X018463Y021739
X017638Y019833
X016057Y021857
X01407Y023855
X020141Y025995
X022921Y026206
X022921Y029425
X025567Y027104
X025573Y026204
X027097Y026204
X027108Y027104
X029445Y025783
X04633Y025132
X016059Y030801
T2C.035F197S55
X020921Y031287
X021921Y031287
X022921Y031287
X023921Y031287
X024921Y031287
X025921Y031287
T3C.041F139S55
X0357Y021875
X0357Y020875
X0357Y022875
X038705Y02088
X038705Y02288
T4C.042F139S55
X0514Y01225
X0524Y01225
X0534Y01225
X0544Y01225
X0554Y01225
X0564Y01225
X0564Y03175
X0554Y03175
X0544Y03175
X0534Y03175
X0524Y03175
X0514Y03175
T5C.1F069S658
X037187Y016875
X037199Y026875
T6C.15748F035S9
X01855Y01525
X01855Y0285
X04895Y0285
X04895Y01525
M30
