*
%LPD*%
%LNdd001024*%
%FSLAX25Y25*%
%MOIN*%
%AD*%
%AMDimension1*
20,1,0.005,-0.285804,0.096137,-0.323304,0.096137,0*
1,1,0.005,-0.285804,0.096137*
1,1,0.005,-0.323304,0.096137*
20,1,0.005,-0.323304,0.096137,-0.335804,0.108637,0*
1,1,0.005,-0.323304,0.096137*
1,1,0.005,-0.335804,0.108637*
20,1,0.005,-0.335804,0.108637,-0.335804,0.121137,0*
1,1,0.005,-0.335804,0.108637*
1,1,0.005,-0.335804,0.121137*
20,1,0.005,-0.335804,0.121137,-0.323304,0.133637,0*
1,1,0.005,-0.335804,0.121137*
1,1,0.005,-0.323304,0.133637*
20,1,0.005,-0.323304,0.133637,-0.285804,0.133637,0*
1,1,0.005,-0.323304,0.133637*
1,1,0.005,-0.285804,0.133637*
20,1,0.005,-0.285804,0.133637,-0.273304,0.121137,0*
1,1,0.005,-0.285804,0.133637*
1,1,0.005,-0.273304,0.121137*
20,1,0.005,-0.273304,0.121137,-0.273304,0.083637,0*
1,1,0.005,-0.273304,0.121137*
1,1,0.005,-0.273304,0.083637*
20,1,0.005,-0.273304,0.083637,-0.298304,0.058637,0*
1,1,0.005,-0.273304,0.083637*
1,1,0.005,-0.298304,0.058637*
20,1,0.005,-0.298304,0.058637,-0.323304,0.058637,0*
1,1,0.005,-0.298304,0.058637*
1,1,0.005,-0.323304,0.058637*
20,1,0.005,-0.285804,0.096137,-0.273304,0.108637,0*
1,1,0.005,-0.285804,0.096137*
1,1,0.005,-0.273304,0.108637*
20,1,0.005,-0.210804,0.071137,-0.198304,0.071137,0*
1,1,0.005,-0.210804,0.071137*
1,1,0.005,-0.198304,0.071137*
20,1,0.005,-0.198304,0.071137,-0.198304,0.058637,0*
1,1,0.005,-0.198304,0.071137*
1,1,0.005,-0.198304,0.058637*
20,1,0.005,-0.198304,0.058637,-0.210804,0.058637,0*
1,1,0.005,-0.198304,0.058637*
1,1,0.005,-0.210804,0.058637*
20,1,0.005,-0.210804,0.058637,-0.210804,0.071137,0*
1,1,0.005,-0.210804,0.058637*
1,1,0.005,-0.210804,0.071137*
20,1,0.005,-0.085804,0.133637,-0.110804,0.133637,0*
1,1,0.005,-0.085804,0.133637*
1,1,0.005,-0.110804,0.133637*
20,1,0.005,-0.110804,0.133637,-0.135804,0.108637,0*
1,1,0.005,-0.110804,0.133637*
1,1,0.005,-0.135804,0.108637*
20,1,0.005,-0.135804,0.108637,-0.135804,0.071137,0*
1,1,0.005,-0.135804,0.108637*
1,1,0.005,-0.135804,0.071137*
20,1,0.005,-0.135804,0.071137,-0.123304,0.058637,0*
1,1,0.005,-0.135804,0.071137*
1,1,0.005,-0.123304,0.058637*
20,1,0.005,-0.123304,0.058637,-0.085804,0.058637,0*
1,1,0.005,-0.123304,0.058637*
1,1,0.005,-0.085804,0.058637*
20,1,0.005,-0.085804,0.058637,-0.073304,0.071137,0*
1,1,0.005,-0.085804,0.058637*
1,1,0.005,-0.073304,0.071137*
20,1,0.005,-0.073304,0.071137,-0.073304,0.083637,0*
1,1,0.005,-0.073304,0.071137*
1,1,0.005,-0.073304,0.083637*
20,1,0.005,-0.073304,0.083637,-0.085804,0.096137,0*
1,1,0.005,-0.073304,0.083637*
1,1,0.005,-0.085804,0.096137*
20,1,0.005,-0.085804,0.096137,-0.123304,0.096137,0*
1,1,0.005,-0.085804,0.096137*
1,1,0.005,-0.123304,0.096137*
20,1,0.005,-0.123304,0.096137,-0.135804,0.083637,0*
1,1,0.005,-0.123304,0.096137*
1,1,0.005,-0.135804,0.083637*
20,1,0.005,-0.035804,0.133637,0.026696,0.133637,0*
1,1,0.005,-0.035804,0.133637*
1,1,0.005,0.026696,0.133637*
20,1,0.005,-0.035804,0.133637,-0.035804,0.108637,0*
1,1,0.005,-0.035804,0.133637*
1,1,0.005,-0.035804,0.108637*
20,1,0.005,-0.035804,0.108637,0.014196,0.108637,0*
1,1,0.005,-0.035804,0.108637*
1,1,0.005,0.014196,0.108637*
20,1,0.005,0.014196,0.108637,0.026696,0.096137,0*
1,1,0.005,0.014196,0.108637*
1,1,0.005,0.026696,0.096137*
20,1,0.005,0.026696,0.096137,0.026696,0.071137,0*
1,1,0.005,0.026696,0.096137*
1,1,0.005,0.026696,0.071137*
20,1,0.005,0.026696,0.071137,0.014196,0.058637,0*
1,1,0.005,0.026696,0.071137*
1,1,0.005,0.014196,0.058637*
20,1,0.005,0.014196,0.058637,-0.023304,0.058637,0*
1,1,0.005,0.014196,0.058637*
1,1,0.005,-0.023304,0.058637*
20,1,0.005,-0.023304,0.058637,-0.035804,0.071137,0*
1,1,0.005,-0.023304,0.058637*
1,1,0.005,-0.035804,0.071137*
20,1,0.005,0.076696,0.133637,0.126696,0.133637,0*
1,1,0.005,0.076696,0.133637*
1,1,0.005,0.126696,0.133637*
20,1,0.005,0.126696,0.133637,0.139196,0.121137,0*
1,1,0.005,0.126696,0.133637*
1,1,0.005,0.139196,0.121137*
20,1,0.005,0.139196,0.121137,0.139196,0.071137,0*
1,1,0.005,0.139196,0.121137*
1,1,0.005,0.139196,0.071137*
20,1,0.005,0.139196,0.071137,0.126696,0.058637,0*
1,1,0.005,0.139196,0.071137*
1,1,0.005,0.126696,0.058637*
20,1,0.005,0.126696,0.058637,0.076696,0.058637,0*
1,1,0.005,0.126696,0.058637*
1,1,0.005,0.076696,0.058637*
20,1,0.005,0.076696,0.058637,0.064196,0.071137,0*
1,1,0.005,0.076696,0.058637*
1,1,0.005,0.064196,0.071137*
20,1,0.005,0.064196,0.071137,0.064196,0.121137,0*
1,1,0.005,0.064196,0.071137*
1,1,0.005,0.064196,0.121137*
20,1,0.005,0.064196,0.121137,0.076696,0.133637,0*
1,1,0.005,0.064196,0.121137*
1,1,0.005,0.076696,0.133637*
20,1,0.005,0.126696,0.133637,0.076696,0.058637,0*
1,1,0.005,0.126696,0.133637*
1,1,0.005,0.076696,0.058637*
20,1,0.005,0.176696,0.133637,0.226696,0.133637,0*
1,1,0.005,0.176696,0.133637*
1,1,0.005,0.226696,0.133637*
20,1,0.005,0.226696,0.133637,0.239196,0.121137,0*
1,1,0.005,0.226696,0.133637*
1,1,0.005,0.239196,0.121137*
20,1,0.005,0.239196,0.121137,0.239196,0.071137,0*
1,1,0.005,0.239196,0.121137*
1,1,0.005,0.239196,0.071137*
20,1,0.005,0.239196,0.071137,0.226696,0.058637,0*
1,1,0.005,0.239196,0.071137*
1,1,0.005,0.226696,0.058637*
20,1,0.005,0.226696,0.058637,0.176696,0.058637,0*
1,1,0.005,0.226696,0.058637*
1,1,0.005,0.176696,0.058637*
20,1,0.005,0.176696,0.058637,0.164196,0.071137,0*
1,1,0.005,0.176696,0.058637*
1,1,0.005,0.164196,0.071137*
20,1,0.005,0.164196,0.071137,0.164196,0.121137,0*
1,1,0.005,0.164196,0.071137*
1,1,0.005,0.164196,0.121137*
20,1,0.005,0.164196,0.121137,0.176696,0.133637,0*
1,1,0.005,0.164196,0.121137*
1,1,0.005,0.176696,0.133637*
20,1,0.005,0.226696,0.133637,0.176696,0.058637,0*
1,1,0.005,0.226696,0.133637*
1,1,0.005,0.176696,0.058637*
20,1,0.005,0.276696,0.108637,0.276696,0.133637,0*
1,1,0.005,0.276696,0.108637*
1,1,0.005,0.276696,0.133637*
20,1,0.005,0.314196,0.108637,0.314196,0.133637,0*
1,1,0.005,0.314196,0.108637*
1,1,0.005,0.314196,0.133637*
20,1,0.005,-4.825,0.1625,-4.825,-0.1625,0*
1,1,0.005,-4.825,0.1625*
1,1,0.005,-4.825,-0.1625*
20,1,0.005,4.825,0.1625,4.825,-0.1625,0*
1,1,0.005,4.825,0.1625*
1,1,0.005,4.825,-0.1625*
20,1,0.005,-4.72636,0.108936,-4.825,0.0925,0*
1,1,0.005,-4.72636,0.108936*
1,1,0.005,-4.825,0.0925*
20,1,0.005,-4.72636,0.076064,-4.72636,0.108936,0*
1,1,0.005,-4.72636,0.076064*
1,1,0.005,-4.72636,0.108936*
20,1,0.005,-4.825,0.0925,-4.72636,0.076064,0*
1,1,0.005,-4.825,0.0925*
1,1,0.005,-4.72636,0.076064*
20,1,0.005,-4.675,0.0925,-4.72636,0.0925,0*
1,1,0.005,-4.675,0.0925*
1,1,0.005,-4.72636,0.0925*
20,1,0.005,4.72636,0.076064,4.825,0.0925,0*
1,1,0.005,4.72636,0.076064*
1,1,0.005,4.825,0.0925*
20,1,0.005,4.72636,0.108936,4.72636,0.076064,0*
1,1,0.005,4.72636,0.108936*
1,1,0.005,4.72636,0.076064*
20,1,0.005,4.825,0.0925,4.72636,0.108936,0*
1,1,0.005,4.825,0.0925*
1,1,0.005,4.72636,0.108936*
20,1,0.005,4.675,0.0925,4.72636,0.0925,0*
1,1,0.005,4.675,0.0925*
1,1,0.005,4.72636,0.0925*
20,1,0.005,-0.400804,0.0925,-4.675,0.0925,0*
1,1,0.005,-0.400804,0.0925*
1,1,0.005,-4.675,0.0925*
20,1,0.005,0.400804,0.0925,4.675,0.0925,0*
1,1,0.005,0.400804,0.0925*
1,1,0.005,4.675,0.0925*
%
%AMDimension2*
20,1,0.005,-0.190262,0.041282,-0.165262,0.041282,0*
1,1,0.005,-0.190262,0.041282*
1,1,0.005,-0.165262,0.041282*
20,1,0.005,-0.165262,0.041282,-0.165262,-0.033718,0*
1,1,0.005,-0.165262,0.041282*
1,1,0.005,-0.165262,-0.033718*
20,1,0.005,-0.190262,0.041282,-0.227762,0.003782,0*
1,1,0.005,-0.190262,0.041282*
1,1,0.005,-0.227762,0.003782*
20,1,0.005,-0.227762,0.003782,-0.227762,-0.008718,0*
1,1,0.005,-0.227762,0.003782*
1,1,0.005,-0.227762,-0.008718*
20,1,0.005,-0.227762,-0.008718,-0.152762,-0.008718,0*
1,1,0.005,-0.227762,-0.008718*
1,1,0.005,-0.152762,-0.008718*
20,1,0.005,-0.102762,-0.021218,-0.090262,-0.021218,0*
1,1,0.005,-0.102762,-0.021218*
1,1,0.005,-0.090262,-0.021218*
20,1,0.005,-0.090262,-0.021218,-0.090262,-0.033718,0*
1,1,0.005,-0.090262,-0.021218*
1,1,0.005,-0.090262,-0.033718*
20,1,0.005,-0.090262,-0.033718,-0.102762,-0.033718,0*
1,1,0.005,-0.090262,-0.033718*
1,1,0.005,-0.102762,-0.033718*
20,1,0.005,-0.102762,-0.033718,-0.102762,-0.021218,0*
1,1,0.005,-0.102762,-0.033718*
1,1,0.005,-0.102762,-0.021218*
20,1,0.005,-0.015262,0.041282,0.022238,0.041282,0*
1,1,0.005,-0.015262,0.041282*
1,1,0.005,0.022238,0.041282*
20,1,0.005,0.022238,0.041282,0.034738,0.028782,0*
1,1,0.005,0.022238,0.041282*
1,1,0.005,0.034738,0.028782*
20,1,0.005,0.034738,0.028782,0.034738,0.016282,0*
1,1,0.005,0.034738,0.028782*
1,1,0.005,0.034738,0.016282*
20,1,0.005,0.034738,0.016282,0.022238,0.003782,0*
1,1,0.005,0.034738,0.016282*
1,1,0.005,0.022238,0.003782*
20,1,0.005,0.022238,0.003782,0.034738,-0.008718,0*
1,1,0.005,0.022238,0.003782*
1,1,0.005,0.034738,-0.008718*
20,1,0.005,0.034738,-0.008718,0.034738,-0.021218,0*
1,1,0.005,0.034738,-0.008718*
1,1,0.005,0.034738,-0.021218*
20,1,0.005,0.034738,-0.021218,0.022238,-0.033718,0*
1,1,0.005,0.034738,-0.021218*
1,1,0.005,0.022238,-0.033718*
20,1,0.005,0.022238,-0.033718,-0.015262,-0.033718,0*
1,1,0.005,0.022238,-0.033718*
1,1,0.005,-0.015262,-0.033718*
20,1,0.005,-0.015262,-0.033718,-0.027762,-0.021218,0*
1,1,0.005,-0.015262,-0.033718*
1,1,0.005,-0.027762,-0.021218*
20,1,0.005,-0.027762,-0.021218,-0.027762,-0.008718,0*
1,1,0.005,-0.027762,-0.021218*
1,1,0.005,-0.027762,-0.008718*
20,1,0.005,-0.027762,-0.008718,-0.015262,0.003782,0*
1,1,0.005,-0.027762,-0.008718*
1,1,0.005,-0.015262,0.003782*
20,1,0.005,-0.015262,0.003782,-0.027762,0.016282,0*
1,1,0.005,-0.015262,0.003782*
1,1,0.005,-0.027762,0.016282*
20,1,0.005,-0.027762,0.016282,-0.027762,0.028782,0*
1,1,0.005,-0.027762,0.016282*
1,1,0.005,-0.027762,0.028782*
20,1,0.005,-0.027762,0.028782,-0.015262,0.041282,0*
1,1,0.005,-0.027762,0.028782*
1,1,0.005,-0.015262,0.041282*
20,1,0.005,-0.015262,0.003782,0.022238,0.003782,0*
1,1,0.005,-0.015262,0.003782*
1,1,0.005,0.022238,0.003782*
20,1,0.005,0.072238,0.041282,0.134738,0.041282,0*
1,1,0.005,0.072238,0.041282*
1,1,0.005,0.134738,0.041282*
20,1,0.005,0.134738,0.041282,0.134738,0.016282,0*
1,1,0.005,0.134738,0.041282*
1,1,0.005,0.134738,0.016282*
20,1,0.005,0.134738,0.016282,0.109738,-0.008718,0*
1,1,0.005,0.134738,0.016282*
1,1,0.005,0.109738,-0.008718*
20,1,0.005,0.109738,-0.008718,0.109738,-0.033718,0*
1,1,0.005,0.109738,-0.008718*
1,1,0.005,0.109738,-0.033718*
20,1,0.005,0.172238,0.041282,0.234738,0.041282,0*
1,1,0.005,0.172238,0.041282*
1,1,0.005,0.234738,0.041282*
20,1,0.005,0.172238,0.041282,0.172238,0.016282,0*
1,1,0.005,0.172238,0.041282*
1,1,0.005,0.172238,0.016282*
20,1,0.005,0.172238,0.016282,0.222238,0.016282,0*
1,1,0.005,0.172238,0.016282*
1,1,0.005,0.222238,0.016282*
20,1,0.005,0.222238,0.016282,0.234738,0.003782,0*
1,1,0.005,0.222238,0.016282*
1,1,0.005,0.234738,0.003782*
20,1,0.005,0.234738,0.003782,0.234738,-0.021218,0*
1,1,0.005,0.234738,0.003782*
1,1,0.005,0.234738,-0.021218*
20,1,0.005,0.234738,-0.021218,0.222238,-0.033718,0*
1,1,0.005,0.234738,-0.021218*
1,1,0.005,0.222238,-0.033718*
20,1,0.005,0.222238,-0.033718,0.184738,-0.033718,0*
1,1,0.005,0.222238,-0.033718*
1,1,0.005,0.184738,-0.033718*
20,1,0.005,0.184738,-0.033718,0.172238,-0.021218,0*
1,1,0.005,0.184738,-0.033718*
1,1,0.005,0.172238,-0.021218*
20,1,0.005,0.284738,0.041282,0.334738,0.041282,0*
1,1,0.005,0.284738,0.041282*
1,1,0.005,0.334738,0.041282*
20,1,0.005,0.334738,0.041282,0.347238,0.028782,0*
1,1,0.005,0.334738,0.041282*
1,1,0.005,0.347238,0.028782*
20,1,0.005,0.347238,0.028782,0.347238,-0.021218,0*
1,1,0.005,0.347238,0.028782*
1,1,0.005,0.347238,-0.021218*
20,1,0.005,0.347238,-0.021218,0.334738,-0.033718,0*
1,1,0.005,0.347238,-0.021218*
1,1,0.005,0.334738,-0.033718*
20,1,0.005,0.334738,-0.033718,0.284738,-0.033718,0*
1,1,0.005,0.334738,-0.033718*
1,1,0.005,0.284738,-0.033718*
20,1,0.005,0.284738,-0.033718,0.272238,-0.021218,0*
1,1,0.005,0.284738,-0.033718*
1,1,0.005,0.272238,-0.021218*
20,1,0.005,0.272238,-0.021218,0.272238,0.028782,0*
1,1,0.005,0.272238,-0.021218*
1,1,0.005,0.272238,0.028782*
20,1,0.005,0.272238,0.028782,0.284738,0.041282,0*
1,1,0.005,0.272238,0.028782*
1,1,0.005,0.284738,0.041282*
20,1,0.005,0.334738,0.041282,0.284738,-0.033718,0*
1,1,0.005,0.334738,0.041282*
1,1,0.005,0.284738,-0.033718*
20,1,0.005,0.384738,0.016282,0.384738,0.041282,0*
1,1,0.005,0.384738,0.016282*
1,1,0.005,0.384738,0.041282*
20,1,0.005,0.422238,0.016282,0.422238,0.041282,0*
1,1,0.005,0.422238,0.016282*
1,1,0.005,0.422238,0.041282*
20,1,0.005,0.177763,-2.4375,-0.422237,-2.4375,0*
1,1,0.005,0.177763,-2.4375*
1,1,0.005,-0.422237,-2.4375*
20,1,0.005,0.177763,2.4375,-0.422237,2.4375,0*
1,1,0.005,0.177763,2.4375*
1,1,0.005,-0.422237,2.4375*
20,1,0.005,0.091327,-2.33886,0.107763,-2.4375,0*
1,1,0.005,0.091327,-2.33886*
1,1,0.005,0.107763,-2.4375*
20,1,0.005,0.124198,-2.33886,0.091327,-2.33886,0*
1,1,0.005,0.124198,-2.33886*
1,1,0.005,0.091327,-2.33886*
20,1,0.005,0.107763,-2.4375,0.124198,-2.33886,0*
1,1,0.005,0.107763,-2.4375*
1,1,0.005,0.124198,-2.33886*
20,1,0.005,0.107763,-2.2875,0.107763,-2.33886,0*
1,1,0.005,0.107763,-2.2875*
1,1,0.005,0.107763,-2.33886*
20,1,0.005,0.124198,2.33886,0.107763,2.4375,0*
1,1,0.005,0.124198,2.33886*
1,1,0.005,0.107763,2.4375*
20,1,0.005,0.091327,2.33886,0.124198,2.33886,0*
1,1,0.005,0.091327,2.33886*
1,1,0.005,0.124198,2.33886*
20,1,0.005,0.107763,2.4375,0.091327,2.33886,0*
1,1,0.005,0.107763,2.4375*
1,1,0.005,0.091327,2.33886*
20,1,0.005,0.107763,2.2875,0.107763,2.33886,0*
1,1,0.005,0.107763,2.2875*
1,1,0.005,0.107763,2.33886*
20,1,0.005,0.107763,-0.101282,0.107763,-2.2875,0*
1,1,0.005,0.107763,-0.101282*
1,1,0.005,0.107763,-2.2875*
20,1,0.005,0.107763,0.101282,0.107763,2.2875,0*
1,1,0.005,0.107763,0.101282*
1,1,0.005,0.107763,2.2875*
%
%AD*%
%ADD10C,0.001*%
%ADD11C,0.01*%
%ADD55Dimension1*%
%ADD56Dimension2*%
G54D10*
%SRX1Y1I0.0J0.0*%
G1X540516Y261648D2*
G1X541816Y261648D1*
G1X529816Y261748D2*
G1X531216Y261748D1*
G1X540216Y261748D2*
G1X542216Y261748D1*
G1X529516Y261848D2*
G1X531616Y261848D1*
G1X535416Y261848D2*
G1X536416Y261848D1*
G1X540016Y261848D2*
G1X542416Y261848D1*
G1X529316Y261948D2*
G1X531916Y261948D1*
G1X535216Y261948D2*
G1X536716Y261948D1*
G1X539816Y261948D2*
G1X542716Y261948D1*
G1X529216Y262048D2*
G1X532116Y262048D1*
G1X535016Y262048D2*
G1X536816Y262048D1*
G1X539716Y262048D2*
G1X542916Y262048D1*
G1X529016Y262148D2*
G1X532316Y262148D1*
G1X534916Y262148D2*
G1X537016Y262148D1*
G1X539616Y262148D2*
G1X543016Y262148D1*
G1X528916Y262248D2*
G1X532416Y262248D1*
G1X534816Y262248D2*
G1X537216Y262248D1*
G1X539416Y262248D2*
G1X543216Y262248D1*
G1X528816Y262348D2*
G1X532716Y262348D1*
G1X534716Y262348D2*
G1X537316Y262348D1*
G1X539316Y262348D2*
G1X543316Y262348D1*
G1X528816Y262448D2*
G1X532916Y262448D1*
G1X534616Y262448D2*
G1X537516Y262448D1*
G1X539116Y262448D2*
G1X543416Y262448D1*
G1X528716Y262548D2*
G1X533216Y262548D1*
G1X534416Y262548D2*
G1X537816Y262548D1*
G1X538816Y262548D2*
G1X543516Y262548D1*
G1X528716Y262648D2*
G1X533616Y262648D1*
G1X534016Y262648D2*
G1X543616Y262648D1*
G1X528616Y262748D2*
G1X543716Y262748D1*
G1X528616Y262848D2*
G1X543816Y262848D1*
G1X528516Y262948D2*
G1X543916Y262948D1*
G1X528516Y263048D2*
G1X544016Y263048D1*
G1X528516Y263148D2*
G1X544116Y263148D1*
G1X528516Y263248D2*
G1X544116Y263248D1*
G1X528416Y263348D2*
G1X544216Y263348D1*
G1X528416Y263448D2*
G1X544316Y263448D1*
G1X528416Y263548D2*
G1X544316Y263548D1*
G1X528416Y263648D2*
G1X544416Y263648D1*
G1X528416Y263748D2*
G1X544416Y263748D1*
G1X528416Y263848D2*
G1X544516Y263848D1*
G1X528416Y263948D2*
G1X544516Y263948D1*
G1X528416Y264048D2*
G1X544516Y264048D1*
G1X528516Y264148D2*
G1X544616Y264148D1*
G1X528516Y264248D2*
G1X544616Y264248D1*
G1X528516Y264348D2*
G1X544616Y264348D1*
G1X528516Y264448D2*
G1X544616Y264448D1*
G1X528616Y264548D2*
G1X544716Y264548D1*
G1X528616Y264648D2*
G1X544716Y264648D1*
G1X528616Y264748D2*
G1X544716Y264748D1*
G1X528716Y264848D2*
G1X544716Y264848D1*
G1X528716Y264948D2*
G1X544716Y264948D1*
G1X528716Y265048D2*
G1X544816Y265048D1*
G1X528816Y265148D2*
G1X544816Y265148D1*
G1X528816Y265248D2*
G1X544816Y265248D1*
G1X528916Y265348D2*
G1X544816Y265348D1*
G1X528916Y265448D2*
G1X544816Y265448D1*
G1X529016Y265548D2*
G1X544816Y265548D1*
G1X529116Y265648D2*
G1X544816Y265648D1*
G1X529116Y265748D2*
G1X544816Y265748D1*
G1X529216Y265848D2*
G1X544716Y265848D1*
G1X529316Y265948D2*
G1X544716Y265948D1*
G1X529316Y266048D2*
G1X544716Y266048D1*
G1X529416Y266148D2*
G1X544716Y266148D1*
G1X529516Y266248D2*
G1X544716Y266248D1*
G1X529616Y266348D2*
G1X544616Y266348D1*
G1X529716Y266448D2*
G1X544616Y266448D1*
G1X529816Y266548D2*
G1X544516Y266548D1*
G1X529916Y266648D2*
G1X544516Y266648D1*
G1X530016Y266748D2*
G1X544516Y266748D1*
G1X530116Y266848D2*
G1X544416Y266848D1*
G1X530216Y266948D2*
G1X544416Y266948D1*
G1X530316Y267048D2*
G1X544316Y267048D1*
G1X530416Y267148D2*
G1X544316Y267148D1*
G1X530516Y267248D2*
G1X544216Y267248D1*
G1X530616Y267348D2*
G1X544116Y267348D1*
G1X530716Y267448D2*
G1X544116Y267448D1*
G1X530816Y267548D2*
G1X544016Y267548D1*
G1X531016Y267648D2*
G1X543916Y267648D1*
G1X531116Y267748D2*
G1X543916Y267748D1*
G1X531316Y267848D2*
G1X543816Y267848D1*
G1X531416Y267948D2*
G1X543716Y267948D1*
G1X531516Y268048D2*
G1X543716Y268048D1*
G1X531616Y268148D2*
G1X543616Y268148D1*
G1X531816Y268248D2*
G1X543516Y268248D1*
G1X531916Y268348D2*
G1X543516Y268348D1*
G1X532016Y268448D2*
G1X543416Y268448D1*
G1X532116Y268548D2*
G1X543416Y268548D1*
G1X532216Y268648D2*
G1X543316Y268648D1*
G1X532316Y268748D2*
G1X543316Y268748D1*
G1X532416Y268848D2*
G1X543216Y268848D1*
G1X532516Y268948D2*
G1X543216Y268948D1*
G1X532616Y269048D2*
G1X543116Y269048D1*
G1X532716Y269148D2*
G1X543116Y269148D1*
G1X532816Y269248D2*
G1X543116Y269248D1*
G1X532916Y269348D2*
G1X543016Y269348D1*
G1X533016Y269448D2*
G1X543016Y269448D1*
G1X533116Y269548D2*
G1X543016Y269548D1*
G1X546116Y269548D2*
G1X547016Y269548D1*
G1X529616Y269648D2*
G1X529716Y269648D1*
G1X533216Y269648D2*
G1X543016Y269648D1*
G1X545816Y269648D2*
G1X547416Y269648D1*
G1X528916Y269748D2*
G1X530316Y269748D1*
G1X533216Y269748D2*
G1X542916Y269748D1*
G1X545616Y269748D2*
G1X547716Y269748D1*
G1X528616Y269848D2*
G1X530616Y269848D1*
G1X533316Y269848D2*
G1X542916Y269848D1*
G1X545416Y269848D2*
G1X547916Y269848D1*
G1X528416Y269948D2*
G1X530816Y269948D1*
G1X533416Y269948D2*
G1X542916Y269948D1*
G1X545316Y269948D2*
G1X548116Y269948D1*
G1X528216Y270048D2*
G1X531016Y270048D1*
G1X533416Y270048D2*
G1X542916Y270048D1*
G1X545216Y270048D2*
G1X548316Y270048D1*
G1X528116Y270148D2*
G1X531116Y270148D1*
G1X533516Y270148D2*
G1X542916Y270148D1*
G1X545216Y270148D2*
G1X548516Y270148D1*
G1X528016Y270248D2*
G1X531316Y270248D1*
G1X533516Y270248D2*
G1X542916Y270248D1*
G1X545116Y270248D2*
G1X548716Y270248D1*
G1X527916Y270348D2*
G1X531416Y270348D1*
G1X533616Y270348D2*
G1X542916Y270348D1*
G1X545116Y270348D2*
G1X548816Y270348D1*
G1X527816Y270448D2*
G1X531516Y270448D1*
G1X533616Y270448D2*
G1X542916Y270448D1*
G1X545016Y270448D2*
G1X549016Y270448D1*
G1X527716Y270548D2*
G1X531616Y270548D1*
G1X533716Y270548D2*
G1X542916Y270548D1*
G1X545016Y270548D2*
G1X549116Y270548D1*
G1X527616Y270648D2*
G1X531716Y270648D1*
G1X533716Y270648D2*
G1X543016Y270648D1*
G1X545016Y270648D2*
G1X549216Y270648D1*
G1X527516Y270748D2*
G1X531816Y270748D1*
G1X533816Y270748D2*
G1X543016Y270748D1*
G1X544916Y270748D2*
G1X549416Y270748D1*
G1X527416Y270848D2*
G1X531816Y270848D1*
G1X533816Y270848D2*
G1X543016Y270848D1*
G1X544916Y270848D2*
G1X549516Y270848D1*
G1X527416Y270948D2*
G1X531916Y270948D1*
G1X533916Y270948D2*
G1X543016Y270948D1*
G1X544916Y270948D2*
G1X549616Y270948D1*
G1X527316Y271048D2*
G1X532016Y271048D1*
G1X533916Y271048D2*
G1X543016Y271048D1*
G1X544916Y271048D2*
G1X549716Y271048D1*
G1X527316Y271148D2*
G1X532116Y271148D1*
G1X533916Y271148D2*
G1X543116Y271148D1*
G1X544916Y271148D2*
G1X549816Y271148D1*
G1X527216Y271248D2*
G1X532116Y271248D1*
G1X533916Y271248D2*
G1X543116Y271248D1*
G1X544916Y271248D2*
G1X549916Y271248D1*
G1X527216Y271348D2*
G1X532216Y271348D1*
G1X534016Y271348D2*
G1X543116Y271348D1*
G1X544916Y271348D2*
G1X550016Y271348D1*
G1X527116Y271448D2*
G1X532216Y271448D1*
G1X534016Y271448D2*
G1X543116Y271448D1*
G1X544916Y271448D2*
G1X550116Y271448D1*
G1X527116Y271548D2*
G1X532316Y271548D1*
G1X534116Y271548D2*
G1X543116Y271548D1*
G1X544916Y271548D2*
G1X550216Y271548D1*
G1X527016Y271648D2*
G1X532316Y271648D1*
G1X534116Y271648D2*
G1X543216Y271648D1*
G1X544916Y271648D2*
G1X550316Y271648D1*
G1X527016Y271748D2*
G1X532416Y271748D1*
G1X534116Y271748D2*
G1X543216Y271748D1*
G1X544916Y271748D2*
G1X550416Y271748D1*
G1X527016Y271848D2*
G1X532416Y271848D1*
G1X534216Y271848D2*
G1X543216Y271848D1*
G1X545016Y271848D2*
G1X550516Y271848D1*
G1X526916Y271948D2*
G1X532416Y271948D1*
G1X534216Y271948D2*
G1X543216Y271948D1*
G1X545016Y271948D2*
G1X550616Y271948D1*
G1X526916Y272048D2*
G1X532516Y272048D1*
G1X534316Y272048D2*
G1X543216Y272048D1*
G1X545016Y272048D2*
G1X550616Y272048D1*
G1X526916Y272148D2*
G1X532516Y272148D1*
G1X534416Y272148D2*
G1X543216Y272148D1*
G1X545016Y272148D2*
G1X550716Y272148D1*
G1X526916Y272248D2*
G1X532516Y272248D1*
G1X534416Y272248D2*
G1X543116Y272248D1*
G1X545116Y272248D2*
G1X550816Y272248D1*
G1X526816Y272348D2*
G1X532516Y272348D1*
G1X534516Y272348D2*
G1X543116Y272348D1*
G1X545116Y272348D2*
G1X550916Y272348D1*
G1X526816Y272448D2*
G1X532616Y272448D1*
G1X534616Y272448D2*
G1X543116Y272448D1*
G1X545116Y272448D2*
G1X550916Y272448D1*
G1X526816Y272548D2*
G1X532616Y272548D1*
G1X534716Y272548D2*
G1X543016Y272548D1*
G1X545216Y272548D2*
G1X551016Y272548D1*
G1X526816Y272648D2*
G1X532616Y272648D1*
G1X534816Y272648D2*
G1X543016Y272648D1*
G1X545216Y272648D2*
G1X551116Y272648D1*
G1X526816Y272748D2*
G1X532616Y272748D1*
G1X534916Y272748D2*
G1X543016Y272748D1*
G1X545316Y272748D2*
G1X551116Y272748D1*
G1X526816Y272848D2*
G1X532716Y272848D1*
G1X535016Y272848D2*
G1X538716Y272848D1*
G1X539316Y272848D2*
G1X542916Y272848D1*
G1X545316Y272848D2*
G1X551216Y272848D1*
G1X526816Y272948D2*
G1X532716Y272948D1*
G1X535116Y272948D2*
G1X538416Y272948D1*
G1X539616Y272948D2*
G1X542916Y272948D1*
G1X545316Y272948D2*
G1X551216Y272948D1*
G1X526816Y273048D2*
G1X532716Y273048D1*
G1X535216Y273048D2*
G1X538216Y273048D1*
G1X539816Y273048D2*
G1X542816Y273048D1*
G1X545416Y273048D2*
G1X551316Y273048D1*
G1X526816Y273148D2*
G1X532716Y273148D1*
G1X535416Y273148D2*
G1X538116Y273148D1*
G1X540116Y273148D2*
G1X542716Y273148D1*
G1X545516Y273148D2*
G1X551316Y273148D1*
G1X526816Y273248D2*
G1X532716Y273248D1*
G1X535516Y273248D2*
G1X538016Y273248D1*
G1X540216Y273248D2*
G1X542616Y273248D1*
G1X545516Y273248D2*
G1X551416Y273248D1*
G1X526816Y273348D2*
G1X532716Y273348D1*
G1X535716Y273348D2*
G1X537816Y273348D1*
G1X540416Y273348D2*
G1X542516Y273348D1*
G1X545616Y273348D2*
G1X551416Y273348D1*
G1X526816Y273448D2*
G1X532716Y273448D1*
G1X535916Y273448D2*
G1X537716Y273448D1*
G1X540716Y273448D2*
G1X542216Y273448D1*
G1X545616Y273448D2*
G1X551516Y273448D1*
G1X526816Y273548D2*
G1X532716Y273548D1*
G1X536216Y273548D2*
G1X537516Y273548D1*
G1X541016Y273548D2*
G1X542116Y273548D1*
G1X545716Y273548D2*
G1X551516Y273548D1*
G1X526816Y273648D2*
G1X532716Y273648D1*
G1X536516Y273648D2*
G1X537016Y273648D1*
G1X545716Y273648D2*
G1X551516Y273648D1*
G1X526916Y273748D2*
G1X532716Y273748D1*
G1X545816Y273748D2*
G1X551616Y273748D1*
G1X526916Y273848D2*
G1X532716Y273848D1*
G1X545916Y273848D2*
G1X551616Y273848D1*
G1X526916Y273948D2*
G1X532616Y273948D1*
G1X545916Y273948D2*
G1X551616Y273948D1*
G1X526916Y274048D2*
G1X532616Y274048D1*
G1X546016Y274048D2*
G1X551716Y274048D1*
G1X526916Y274148D2*
G1X532616Y274148D1*
G1X546116Y274148D2*
G1X551716Y274148D1*
G1X526916Y274248D2*
G1X532616Y274248D1*
G1X546116Y274248D2*
G1X551716Y274248D1*
G1X527016Y274348D2*
G1X532616Y274348D1*
G1X546216Y274348D2*
G1X551816Y274348D1*
G1X527016Y274448D2*
G1X532616Y274448D1*
G1X546316Y274448D2*
G1X551816Y274448D1*
G1X527016Y274548D2*
G1X532516Y274548D1*
G1X546416Y274548D2*
G1X551816Y274548D1*
G1X527116Y274648D2*
G1X532516Y274648D1*
G1X546516Y274648D2*
G1X551816Y274648D1*
G1X527116Y274748D2*
G1X532516Y274748D1*
G1X546616Y274748D2*
G1X551816Y274748D1*
G1X527216Y274848D2*
G1X532516Y274848D1*
G1X546716Y274848D2*
G1X551816Y274848D1*
G1X527216Y274948D2*
G1X532416Y274948D1*
G1X546816Y274948D2*
G1X551816Y274948D1*
G1X527216Y275048D2*
G1X532416Y275048D1*
G1X546916Y275048D2*
G1X551816Y275048D1*
G1X527316Y275148D2*
G1X532316Y275148D1*
G1X547016Y275148D2*
G1X551816Y275148D1*
G1X527316Y275248D2*
G1X532316Y275248D1*
G1X547116Y275248D2*
G1X551816Y275248D1*
G1X527416Y275348D2*
G1X532216Y275348D1*
G1X547216Y275348D2*
G1X551816Y275348D1*
G1X527516Y275448D2*
G1X532216Y275448D1*
G1X547316Y275448D2*
G1X551816Y275448D1*
G1X527516Y275548D2*
G1X532116Y275548D1*
G1X547416Y275548D2*
G1X551816Y275548D1*
G1X527616Y275648D2*
G1X532016Y275648D1*
G1X547616Y275648D2*
G1X551816Y275648D1*
G1X527716Y275748D2*
G1X532016Y275748D1*
G1X547716Y275748D2*
G1X551716Y275748D1*
G1X527816Y275848D2*
G1X531916Y275848D1*
G1X547816Y275848D2*
G1X551716Y275848D1*
G1X527916Y275948D2*
G1X531816Y275948D1*
G1X548016Y275948D2*
G1X551616Y275948D1*
G1X528016Y276048D2*
G1X531716Y276048D1*
G1X548216Y276048D2*
G1X551616Y276048D1*
G1X528116Y276148D2*
G1X531616Y276148D1*
G1X548316Y276148D2*
G1X551516Y276148D1*
G1X528216Y276248D2*
G1X531516Y276248D1*
G1X548516Y276248D2*
G1X551416Y276248D1*
G1X528316Y276348D2*
G1X531416Y276348D1*
G1X548716Y276348D2*
G1X551316Y276348D1*
G1X528516Y276448D2*
G1X531216Y276448D1*
G1X548916Y276448D2*
G1X551216Y276448D1*
G1X528616Y276548D2*
G1X531116Y276548D1*
G1X549216Y276548D2*
G1X551016Y276548D1*
G1X528816Y276648D2*
G1X530916Y276648D1*
G1X549616Y276648D2*
G1X550816Y276648D1*
G1X529116Y276748D2*
G1X530716Y276748D1*
G1X543616Y276748D2*
G1X544116Y276748D1*
G1X529616Y276848D2*
G1X529716Y276848D1*
G1X529816Y276848D2*
G1X530116Y276848D1*
G1X535716Y276848D2*
G1X536916Y276848D1*
G1X543216Y276848D2*
G1X544616Y276848D1*
G1X535416Y276948D2*
G1X537216Y276948D1*
G1X542916Y276948D2*
G1X544916Y276948D1*
G1X535316Y277048D2*
G1X537416Y277048D1*
G1X542816Y277048D2*
G1X545116Y277048D1*
G1X535116Y277148D2*
G1X537616Y277148D1*
G1X542716Y277148D2*
G1X545316Y277148D1*
G1X535016Y277248D2*
G1X537816Y277248D1*
G1X542616Y277248D2*
G1X545416Y277248D1*
G1X534916Y277348D2*
G1X538016Y277348D1*
G1X542516Y277348D2*
G1X545616Y277348D1*
G1X534916Y277448D2*
G1X538116Y277448D1*
G1X542416Y277448D2*
G1X545716Y277448D1*
G1X534816Y277548D2*
G1X538216Y277548D1*
G1X542416Y277548D2*
G1X545816Y277548D1*
G1X534716Y277648D2*
G1X538316Y277648D1*
G1X542316Y277648D2*
G1X545916Y277648D1*
G1X549616Y277648D2*
G1X550516Y277648D1*
G1X550816Y277648D2*
G1X551116Y277648D1*
G1X530616Y277748D2*
G1X531016Y277748D1*
G1X534716Y277748D2*
G1X538416Y277748D1*
G1X542316Y277748D2*
G1X546016Y277748D1*
G1X549616Y277748D2*
G1X551116Y277748D1*
G1X529616Y277848D2*
G1X531016Y277848D1*
G1X534616Y277848D2*
G1X538516Y277848D1*
G1X542216Y277848D2*
G1X546116Y277848D1*
G1X549616Y277848D2*
G1X551216Y277848D1*
G1X529616Y277948D2*
G1X531116Y277948D1*
G1X534616Y277948D2*
G1X538616Y277948D1*
G1X542216Y277948D2*
G1X546216Y277948D1*
G1X549616Y277948D2*
G1X551216Y277948D1*
G1X529616Y278048D2*
G1X531116Y278048D1*
G1X534616Y278048D2*
G1X538716Y278048D1*
G1X542116Y278048D2*
G1X546316Y278048D1*
G1X549716Y278048D2*
G1X551216Y278048D1*
G1X529616Y278148D2*
G1X531216Y278148D1*
G1X534516Y278148D2*
G1X538816Y278148D1*
G1X542116Y278148D2*
G1X546416Y278148D1*
G1X549716Y278148D2*
G1X551216Y278148D1*
G1X529716Y278248D2*
G1X531216Y278248D1*
G1X534516Y278248D2*
G1X538916Y278248D1*
G1X542116Y278248D2*
G1X546516Y278248D1*
G1X549716Y278248D2*
G1X551316Y278248D1*
G1X529716Y278348D2*
G1X531216Y278348D1*
G1X534516Y278348D2*
G1X539016Y278348D1*
G1X542116Y278348D2*
G1X546516Y278348D1*
G1X549716Y278348D2*
G1X551316Y278348D1*
G1X529716Y278448D2*
G1X531316Y278448D1*
G1X534516Y278448D2*
G1X539016Y278448D1*
G1X542016Y278448D2*
G1X546616Y278448D1*
G1X549816Y278448D2*
G1X551316Y278448D1*
G1X529816Y278548D2*
G1X531316Y278548D1*
G1X534416Y278548D2*
G1X539116Y278548D1*
G1X542016Y278548D2*
G1X546716Y278548D1*
G1X549816Y278548D2*
G1X551316Y278548D1*
G1X529816Y278648D2*
G1X531316Y278648D1*
G1X534416Y278648D2*
G1X539216Y278648D1*
G1X542016Y278648D2*
G1X546816Y278648D1*
G1X549816Y278648D2*
G1X551316Y278648D1*
G1X529816Y278748D2*
G1X531416Y278748D1*
G1X534416Y278748D2*
G1X539216Y278748D1*
G1X542016Y278748D2*
G1X546816Y278748D1*
G1X549816Y278748D2*
G1X551416Y278748D1*
G1X529916Y278848D2*
G1X531416Y278848D1*
G1X534416Y278848D2*
G1X539316Y278848D1*
G1X542016Y278848D2*
G1X546916Y278848D1*
G1X549916Y278848D2*
G1X551416Y278848D1*
G1X529916Y278948D2*
G1X531416Y278948D1*
G1X534416Y278948D2*
G1X539416Y278948D1*
G1X542016Y278948D2*
G1X547016Y278948D1*
G1X549916Y278948D2*
G1X551416Y278948D1*
G1X530016Y279048D2*
G1X531416Y279048D1*
G1X534416Y279048D2*
G1X539416Y279048D1*
G1X542016Y279048D2*
G1X547016Y279048D1*
G1X549916Y279048D2*
G1X551416Y279048D1*
G1X530016Y279148D2*
G1X531516Y279148D1*
G1X534416Y279148D2*
G1X539516Y279148D1*
G1X542016Y279148D2*
G1X547116Y279148D1*
G1X550016Y279148D2*
G1X551416Y279148D1*
G1X530116Y279248D2*
G1X531516Y279248D1*
G1X534416Y279248D2*
G1X539516Y279248D1*
G1X542016Y279248D2*
G1X547116Y279248D1*
G1X550016Y279248D2*
G1X551416Y279248D1*
G1X530116Y279348D2*
G1X531516Y279348D1*
G1X534416Y279348D2*
G1X539616Y279348D1*
G1X542016Y279348D2*
G1X547216Y279348D1*
G1X550016Y279348D2*
G1X551416Y279348D1*
G1X530216Y279448D2*
G1X531516Y279448D1*
G1X534416Y279448D2*
G1X539616Y279448D1*
G1X542016Y279448D2*
G1X547216Y279448D1*
G1X550116Y279448D2*
G1X551416Y279448D1*
G1X530216Y279548D2*
G1X531616Y279548D1*
G1X534416Y279548D2*
G1X539716Y279548D1*
G1X542016Y279548D2*
G1X547316Y279548D1*
G1X550116Y279548D2*
G1X551416Y279548D1*
G1X530316Y279648D2*
G1X531616Y279648D1*
G1X534416Y279648D2*
G1X539716Y279648D1*
G1X542016Y279648D2*
G1X547316Y279648D1*
G1X550216Y279648D2*
G1X551416Y279648D1*
G1X530316Y279748D2*
G1X531616Y279748D1*
G1X534416Y279748D2*
G1X539816Y279748D1*
G1X542016Y279748D2*
G1X547416Y279748D1*
G1X550216Y279748D2*
G1X551416Y279748D1*
G1X530416Y279848D2*
G1X531616Y279848D1*
G1X534416Y279848D2*
G1X539816Y279848D1*
G1X542016Y279848D2*
G1X547416Y279848D1*
G1X550216Y279848D2*
G1X551416Y279848D1*
G1X530416Y279948D2*
G1X531616Y279948D1*
G1X534416Y279948D2*
G1X539916Y279948D1*
G1X542016Y279948D2*
G1X547516Y279948D1*
G1X550316Y279948D2*
G1X551416Y279948D1*
G1X530516Y280048D2*
G1X531616Y280048D1*
G1X534416Y280048D2*
G1X539916Y280048D1*
G1X542016Y280048D2*
G1X547516Y280048D1*
G1X550316Y280048D2*
G1X551416Y280048D1*
G1X530516Y280148D2*
G1X531616Y280148D1*
G1X534516Y280148D2*
G1X540016Y280148D1*
G1X542016Y280148D2*
G1X547616Y280148D1*
G1X550416Y280148D2*
G1X551416Y280148D1*
G1X530616Y280248D2*
G1X531616Y280248D1*
G1X534516Y280248D2*
G1X540016Y280248D1*
G1X542116Y280248D2*
G1X547616Y280248D1*
G1X550416Y280248D2*
G1X551416Y280248D1*
G1X530616Y280348D2*
G1X531616Y280348D1*
G1X534516Y280348D2*
G1X540016Y280348D1*
G1X542116Y280348D2*
G1X547616Y280348D1*
G1X550516Y280348D2*
G1X551416Y280348D1*
G1X530716Y280448D2*
G1X531716Y280448D1*
G1X534516Y280448D2*
G1X540116Y280448D1*
G1X542116Y280448D2*
G1X547616Y280448D1*
G1X550516Y280448D2*
G1X551416Y280448D1*
G1X530816Y280548D2*
G1X531716Y280548D1*
G1X534516Y280548D2*
G1X540116Y280548D1*
G1X542116Y280548D2*
G1X547716Y280548D1*
G1X550616Y280548D2*
G1X551416Y280548D1*
G1X530816Y280648D2*
G1X531716Y280648D1*
G1X534616Y280648D2*
G1X540116Y280648D1*
G1X542216Y280648D2*
G1X547716Y280648D1*
G1X550716Y280648D2*
G1X551416Y280648D1*
G1X530916Y280748D2*
G1X531716Y280748D1*
G1X534616Y280748D2*
G1X540216Y280748D1*
G1X542216Y280748D2*
G1X547716Y280748D1*
G1X550716Y280748D2*
G1X551316Y280748D1*
G1X531016Y280848D2*
G1X531716Y280848D1*
G1X534616Y280848D2*
G1X540216Y280848D1*
G1X542216Y280848D2*
G1X547816Y280848D1*
G1X550816Y280848D2*
G1X551316Y280848D1*
G1X531116Y280948D2*
G1X531716Y280948D1*
G1X534616Y280948D2*
G1X540216Y280948D1*
G1X542216Y280948D2*
G1X547816Y280948D1*
G1X550816Y280948D2*
G1X551316Y280948D1*
G1X531116Y281048D2*
G1X531716Y281048D1*
G1X534716Y281048D2*
G1X540316Y281048D1*
G1X542316Y281048D2*
G1X547816Y281048D1*
G1X550916Y281048D2*
G1X551316Y281048D1*
G1X531216Y281148D2*
G1X531716Y281148D1*
G1X534716Y281148D2*
G1X540316Y281148D1*
G1X542316Y281148D2*
G1X547816Y281148D1*
G1X550916Y281148D2*
G1X551316Y281148D1*
G1X531316Y281248D2*
G1X531616Y281248D1*
G1X534716Y281248D2*
G1X540316Y281248D1*
G1X542416Y281248D2*
G1X547916Y281248D1*
G1X551016Y281248D2*
G1X551316Y281248D1*
G1X531416Y281348D2*
G1X531616Y281348D1*
G1X534816Y281348D2*
G1X540316Y281348D1*
G1X542416Y281348D2*
G1X547916Y281348D1*
G1X551116Y281348D2*
G1X551216Y281348D1*
G1X531516Y281448D2*
G1X531616Y281448D1*
G1X534816Y281448D2*
G1X540316Y281448D1*
G1X542416Y281448D2*
G1X547916Y281448D1*
G1X534916Y281548D2*
G1X540316Y281548D1*
G1X542516Y281548D2*
G1X547916Y281548D1*
G1X534916Y281648D2*
G1X540316Y281648D1*
G1X542516Y281648D2*
G1X547916Y281648D1*
G1X535016Y281748D2*
G1X540316Y281748D1*
G1X542616Y281748D2*
G1X547916Y281748D1*
G1X535016Y281848D2*
G1X540316Y281848D1*
G1X542616Y281848D2*
G1X547916Y281848D1*
G1X535016Y281948D2*
G1X540316Y281948D1*
G1X542716Y281948D2*
G1X547916Y281948D1*
G1X535116Y282048D2*
G1X540316Y282048D1*
G1X542716Y282048D2*
G1X547916Y282048D1*
G1X535216Y282148D2*
G1X540316Y282148D1*
G1X542816Y282148D2*
G1X547916Y282148D1*
G1X535216Y282248D2*
G1X540316Y282248D1*
G1X542816Y282248D2*
G1X547916Y282248D1*
G1X535316Y282348D2*
G1X540316Y282348D1*
G1X542916Y282348D2*
G1X547916Y282348D1*
G1X535416Y282448D2*
G1X540316Y282448D1*
G1X543016Y282448D2*
G1X547916Y282448D1*
G1X535416Y282548D2*
G1X540316Y282548D1*
G1X543016Y282548D2*
G1X547916Y282548D1*
G1X535516Y282648D2*
G1X540316Y282648D1*
G1X543116Y282648D2*
G1X547916Y282648D1*
G1X535516Y282748D2*
G1X540316Y282748D1*
G1X543216Y282748D2*
G1X547816Y282748D1*
G1X535616Y282848D2*
G1X540316Y282848D1*
G1X543316Y282848D2*
G1X547816Y282848D1*
G1X535716Y282948D2*
G1X540316Y282948D1*
G1X543416Y282948D2*
G1X547816Y282948D1*
G1X535816Y283048D2*
G1X540216Y283048D1*
G1X543416Y283048D2*
G1X547816Y283048D1*
G1X535916Y283148D2*
G1X540216Y283148D1*
G1X543516Y283148D2*
G1X547716Y283148D1*
G1X536016Y283248D2*
G1X540216Y283248D1*
G1X543616Y283248D2*
G1X547716Y283248D1*
G1X536116Y283348D2*
G1X540116Y283348D1*
G1X543716Y283348D2*
G1X547716Y283348D1*
G1X536116Y283448D2*
G1X540116Y283448D1*
G1X543816Y283448D2*
G1X547616Y283448D1*
G1X536216Y283548D2*
G1X540116Y283548D1*
G1X543916Y283548D2*
G1X547616Y283548D1*
G1X536316Y283648D2*
G1X540016Y283648D1*
G1X544016Y283648D2*
G1X547516Y283648D1*
G1X536416Y283748D2*
G1X540016Y283748D1*
G1X544116Y283748D2*
G1X547516Y283748D1*
G1X536616Y283848D2*
G1X539916Y283848D1*
G1X544216Y283848D2*
G1X547416Y283848D1*
G1X536716Y283948D2*
G1X539816Y283948D1*
G1X544316Y283948D2*
G1X547416Y283948D1*
G1X536816Y284048D2*
G1X539816Y284048D1*
G1X544516Y284048D2*
G1X547316Y284048D1*
G1X536916Y284148D2*
G1X539716Y284148D1*
G1X544616Y284148D2*
G1X547216Y284148D1*
G1X537116Y284248D2*
G1X539616Y284248D1*
G1X544716Y284248D2*
G1X547116Y284248D1*
G1X537216Y284348D2*
G1X539516Y284348D1*
G1X544916Y284348D2*
G1X547116Y284348D1*
G1X537416Y284448D2*
G1X539416Y284448D1*
G1X545116Y284448D2*
G1X546916Y284448D1*
G1X537516Y284548D2*
G1X539316Y284548D1*
G1X545216Y284548D2*
G1X546816Y284548D1*
G1X537716Y284648D2*
G1X539216Y284648D1*
G1X545516Y284648D2*
G1X546716Y284648D1*
G1X538016Y284748D2*
G1X539016Y284748D1*
G1X545816Y284748D2*
G1X546416Y284748D1*
G1X538416Y284848D2*
G1X538616Y284848D1*
G1X539316Y285548D2*
G1X539416Y285548D1*
G1X545616Y285548D2*
G1X545816Y285548D1*
G1X546716Y285548D2*
G1X547016Y285548D1*
G1X538016Y285648D2*
G1X539516Y285648D1*
G1X545616Y285648D2*
G1X547116Y285648D1*
G1X538016Y285748D2*
G1X539516Y285748D1*
G1X545616Y285748D2*
G1X547116Y285748D1*
G1X538016Y285848D2*
G1X539616Y285848D1*
G1X545616Y285848D2*
G1X547216Y285848D1*
G1X538016Y285948D2*
G1X539616Y285948D1*
G1X545716Y285948D2*
G1X547216Y285948D1*
G1X538116Y286048D2*
G1X539616Y286048D1*
G1X545716Y286048D2*
G1X547216Y286048D1*
G1X538116Y286148D2*
G1X539616Y286148D1*
G1X545716Y286148D2*
G1X547216Y286148D1*
G1X538116Y286248D2*
G1X539716Y286248D1*
G1X545716Y286248D2*
G1X547216Y286248D1*
G1X538216Y286348D2*
G1X539716Y286348D1*
G1X545816Y286348D2*
G1X547316Y286348D1*
G1X538216Y286448D2*
G1X539716Y286448D1*
G1X545816Y286448D2*
G1X547316Y286448D1*
G1X538216Y286548D2*
G1X539716Y286548D1*
G1X545916Y286548D2*
G1X547316Y286548D1*
G1X538316Y286648D2*
G1X539716Y286648D1*
G1X545916Y286648D2*
G1X547316Y286648D1*
G1X538316Y286748D2*
G1X539816Y286748D1*
G1X545916Y286748D2*
G1X547416Y286748D1*
G1X538416Y286848D2*
G1X539816Y286848D1*
G1X546016Y286848D2*
G1X547416Y286848D1*
G1X538416Y286948D2*
G1X539816Y286948D1*
G1X546016Y286948D2*
G1X547416Y286948D1*
G1X538516Y287048D2*
G1X539816Y287048D1*
G1X546116Y287048D2*
G1X547416Y287048D1*
G1X538516Y287148D2*
G1X539816Y287148D1*
G1X546116Y287148D2*
G1X547416Y287148D1*
G1X538516Y287248D2*
G1X539816Y287248D1*
G1X546216Y287248D2*
G1X547416Y287248D1*
G1X538616Y287348D2*
G1X539816Y287348D1*
G1X546216Y287348D2*
G1X547416Y287348D1*
G1X538616Y287448D2*
G1X539816Y287448D1*
G1X546316Y287448D2*
G1X547416Y287448D1*
G1X538716Y287548D2*
G1X539816Y287548D1*
G1X546316Y287548D2*
G1X547416Y287548D1*
G1X538716Y287648D2*
G1X539816Y287648D1*
G1X546416Y287648D2*
G1X547416Y287648D1*
G1X538816Y287748D2*
G1X539816Y287748D1*
G1X546416Y287748D2*
G1X547416Y287748D1*
G1X538816Y287848D2*
G1X539816Y287848D1*
G1X546516Y287848D2*
G1X547416Y287848D1*
G1X538916Y287948D2*
G1X539816Y287948D1*
G1X546516Y287948D2*
G1X547416Y287948D1*
G1X539016Y288048D2*
G1X539816Y288048D1*
G1X546616Y288048D2*
G1X547416Y288048D1*
G1X539016Y288148D2*
G1X539816Y288148D1*
G1X546716Y288148D2*
G1X547416Y288148D1*
G1X539116Y288248D2*
G1X539816Y288248D1*
G1X546716Y288248D2*
G1X547416Y288248D1*
G1X539216Y288348D2*
G1X539816Y288348D1*
G1X546816Y288348D2*
G1X547416Y288348D1*
G1X539216Y288448D2*
G1X539816Y288448D1*
G1X546916Y288448D2*
G1X547416Y288448D1*
G1X539316Y288548D2*
G1X539816Y288548D1*
G1X546916Y288548D2*
G1X547416Y288548D1*
G1X539416Y288648D2*
G1X539816Y288648D1*
G1X547016Y288648D2*
G1X547416Y288648D1*
G1X539416Y288748D2*
G1X539816Y288748D1*
G1X547116Y288748D2*
G1X547316Y288748D1*
G1X539516Y288848D2*
G1X539816Y288848D1*
G1X547116Y288848D2*
G1X547316Y288848D1*
G1X539616Y288948D2*
G1X539716Y288948D1*
G1X100000Y337500D2*
G1X100003Y337500D1*
G1X575000Y337500D2*
G1X575003Y337500D1*
G1X100000Y100000D2*
G1X100003Y100000D1*
G1X100000Y337500D2*
G1X100003Y337500D1*
G1X513049Y159313D2*
G54D11*
G1X513049Y152750D1*
G1X513049Y159313D2*
G1X515094Y159313D1*
G1X515776Y159000D1*
G1X516003Y158688D1*
G1X516231Y158063D1*
G1X516231Y157438D1*
G1X516003Y156813D1*
G1X515776Y156500D1*
G1X515094Y156188D1*
G1X513049Y156188D2*
G1X515094Y156188D1*
G1X515776Y155875D1*
G1X516003Y155563D1*
G1X516231Y154938D1*
G1X516231Y154000D1*
G1X516003Y153375D1*
G1X515776Y153063D1*
G1X515094Y152750D1*
G1X513049Y152750D1*
G1X518276Y155250D2*
G1X521003Y155250D1*
G1X521003Y155875D1*
G1X520776Y156500D1*
G1X520549Y156813D1*
G1X520094Y157125D1*
G1X519412Y157125D1*
G1X518958Y156813D1*
G1X518503Y156188D1*
G1X518276Y155250D1*
G1X518276Y154625D1*
G1X518503Y153688D1*
G1X518958Y153063D1*
G1X519412Y152750D1*
G1X520094Y152750D1*
G1X520549Y153063D1*
G1X521003Y153688D1*
G1X523049Y157125D2*
G1X523049Y152750D1*
G1X523049Y155875D2*
G1X523731Y156813D1*
G1X524185Y157125D1*
G1X524867Y157125D1*
G1X525321Y156813D1*
G1X525549Y155875D1*
G1X525549Y152750D1*
G1X532821Y159313D2*
G1X532821Y152750D1*
G1X532821Y159313D2*
G1X534867Y159313D1*
G1X535549Y159000D1*
G1X535776Y158688D1*
G1X536003Y158063D1*
G1X536003Y157438D1*
G1X535776Y156813D1*
G1X535549Y156500D1*
G1X534867Y156188D1*
G1X532821Y156188D1*
G1X534412Y156188D2*
G1X536003Y152750D1*
G1X538049Y159313D2*
G1X538276Y159000D1*
G1X538503Y159313D1*
G1X538276Y159625D1*
G1X538049Y159313D1*
G1X538276Y157125D2*
G1X538276Y152750D1*
G1X543276Y156188D2*
G1X542821Y156813D1*
G1X542367Y157125D1*
G1X541685Y157125D1*
G1X541231Y156813D1*
G1X540776Y156188D1*
G1X540549Y155250D1*
G1X540549Y154625D1*
G1X540776Y153688D1*
G1X541231Y153063D1*
G1X541685Y152750D1*
G1X542367Y152750D1*
G1X542821Y153063D1*
G1X543276Y153688D1*
G1X545321Y159313D2*
G1X545321Y152750D1*
G1X545321Y155875D2*
G1X546003Y156813D1*
G1X546458Y157125D1*
G1X547140Y157125D1*
G1X547594Y156813D1*
G1X547821Y155875D1*
G1X547821Y152750D1*
G1X552594Y157125D2*
G1X552594Y152750D1*
G1X552594Y156188D2*
G1X552140Y156813D1*
G1X551685Y157125D1*
G1X551003Y157125D1*
G1X550549Y156813D1*
G1X550094Y156188D1*
G1X549867Y155250D1*
G1X549867Y154625D1*
G1X550094Y153688D1*
G1X550549Y153063D1*
G1X551003Y152750D1*
G1X551685Y152750D1*
G1X552140Y153063D1*
G1X552594Y153688D1*
G1X554640Y157125D2*
G1X554640Y152750D1*
G1X554640Y155250D2*
G1X554867Y156188D1*
G1X555321Y156813D1*
G1X555776Y157125D1*
G1X556458Y157125D1*
G1X561231Y159313D2*
G1X561231Y152750D1*
G1X561231Y156188D2*
G1X560776Y156813D1*
G1X560321Y157125D1*
G1X559640Y157125D1*
G1X559185Y156813D1*
G1X558731Y156188D1*
G1X558503Y155250D1*
G1X558503Y154625D1*
G1X558731Y153688D1*
G1X559185Y153063D1*
G1X559640Y152750D1*
G1X560321Y152750D1*
G1X560776Y153063D1*
G1X561231Y153688D1*
G1X565776Y156188D2*
G1X565549Y156813D1*
G1X564867Y157125D1*
G1X564185Y157125D1*
G1X563503Y156813D1*
G1X563276Y156188D1*
G1X563503Y155563D1*
G1X563958Y155250D1*
G1X565094Y154938D1*
G1X565549Y154625D1*
G1X565776Y154000D1*
G1X565776Y153688D1*
G1X565549Y153063D1*
G1X564867Y152750D1*
G1X564185Y152750D1*
G1X563503Y153063D1*
G1X563276Y153688D1*
G1X181500Y285000D2*
G1X189500Y285000D1*
G1X185500Y281000D2*
G1X185500Y289000D1*
G1X181500Y152500D2*
G1X189500Y152500D1*
G1X185500Y148500D2*
G1X185500Y156500D1*
G1X485500Y285000D2*
G1X493500Y285000D1*
G1X489500Y281000D2*
G1X489500Y289000D1*
G1X485500Y152500D2*
G1X493500Y152500D1*
G1X489500Y148500D2*
G1X489500Y156500D1*
G1X367870Y164750D2*
G1X375870Y172750D1*
G1X367870Y172750D2*
G1X375870Y164750D1*
G1X367986Y264750D2*
G1X375986Y272750D1*
G1X367986Y272750D2*
G1X375986Y264750D1*
G1X205214Y308866D2*
G1X213214Y308866D1*
G1X213214Y316866D1*
G1X205214Y316866D1*
G1X205214Y308866D1*
G1X209214Y312866D2*
G1X209214Y316866D1*
G1X215214Y308866D2*
G1X223214Y308866D1*
G1X223214Y316866D1*
G1X215214Y316866D1*
G1X215214Y308866D1*
G1X219214Y312866D2*
G1X219214Y316866D1*
G1X225214Y308866D2*
G1X233214Y308866D1*
G1X233214Y316866D1*
G1X225214Y316866D1*
G1X225214Y308866D1*
G1X229214Y312866D2*
G1X229214Y316866D1*
G1X235214Y308866D2*
G1X243214Y308866D1*
G1X243214Y316866D1*
G1X235214Y316866D1*
G1X235214Y308866D1*
G1X239214Y312866D2*
G1X239214Y316866D1*
G1X245214Y308866D2*
G1X253214Y308866D1*
G1X253214Y316866D1*
G1X245214Y316866D1*
G1X245214Y308866D1*
G1X249214Y312866D2*
G1X249214Y316866D1*
G1X255214Y308866D2*
G1X263214Y308866D1*
G1X263214Y316866D1*
G1X255214Y316866D1*
G1X255214Y308866D1*
G1X259214Y312866D2*
G1X259214Y316866D1*
G1X510000Y313500D2*
G1X518000Y313500D1*
G1X518000Y321500D1*
G1X510000Y321500D1*
G1X510000Y313500D1*
G1X514000Y317500D2*
G1X514000Y321500D1*
G1X520000Y313500D2*
G1X528000Y313500D1*
G1X528000Y321500D1*
G1X520000Y321500D1*
G1X520000Y313500D1*
G1X524000Y317500D2*
G1X524000Y321500D1*
G1X530000Y313500D2*
G1X538000Y313500D1*
G1X538000Y321500D1*
G1X530000Y321500D1*
G1X530000Y313500D1*
G1X534000Y317500D2*
G1X534000Y321500D1*
G1X540000Y313500D2*
G1X548000Y313500D1*
G1X548000Y321500D1*
G1X540000Y321500D1*
G1X540000Y313500D1*
G1X544000Y317500D2*
G1X544000Y321500D1*
G1X550000Y313500D2*
G1X558000Y313500D1*
G1X558000Y321500D1*
G1X550000Y321500D1*
G1X550000Y313500D1*
G1X554000Y317500D2*
G1X554000Y321500D1*
G1X560000Y313500D2*
G1X568000Y313500D1*
G1X568000Y321500D1*
G1X560000Y321500D1*
G1X560000Y313500D1*
G1X564000Y317500D2*
G1X564000Y321500D1*
G1X510000Y118500D2*
G1X518000Y118500D1*
G1X518000Y126500D1*
G1X510000Y126500D1*
G1X510000Y118500D1*
G1X514000Y122500D2*
G1X514000Y126500D1*
G1X520000Y118500D2*
G1X528000Y118500D1*
G1X528000Y126500D1*
G1X520000Y126500D1*
G1X520000Y118500D1*
G1X524000Y122500D2*
G1X524000Y126500D1*
G1X530000Y118500D2*
G1X538000Y118500D1*
G1X538000Y126500D1*
G1X530000Y126500D1*
G1X530000Y118500D1*
G1X534000Y122500D2*
G1X534000Y126500D1*
G1X540000Y118500D2*
G1X548000Y118500D1*
G1X548000Y126500D1*
G1X540000Y126500D1*
G1X540000Y118500D1*
G1X544000Y122500D2*
G1X544000Y126500D1*
G1X550000Y118500D2*
G1X558000Y118500D1*
G1X558000Y126500D1*
G1X550000Y126500D1*
G1X550000Y118500D1*
G1X554000Y122500D2*
G1X554000Y126500D1*
G1X560000Y118500D2*
G1X568000Y118500D1*
G1X568000Y126500D1*
G1X560000Y126500D1*
G1X560000Y118500D1*
G1X564000Y122500D2*
G1X564000Y126500D1*
G1X357000Y224750D2*
G1X361000Y228750D1*
G1X357000Y232750D1*
G1X353000Y228750D1*
G1X357000Y224750D1*
G1X357000Y228750D2*
G1X357000Y232750D1*
G1X357000Y214750D2*
G1X361000Y218750D1*
G1X357000Y222750D1*
G1X353000Y218750D1*
G1X357000Y214750D1*
G1X357000Y218750D2*
G1X357000Y222750D1*
G1X357000Y204750D2*
G1X361000Y208750D1*
G1X357000Y212750D1*
G1X353000Y208750D1*
G1X357000Y204750D1*
G1X357000Y208750D2*
G1X357000Y212750D1*
G1X387048Y204800D2*
G1X391048Y208800D1*
G1X387048Y212800D1*
G1X383048Y208800D1*
G1X387048Y204800D1*
G1X387048Y208800D2*
G1X387048Y212800D1*
G1X387048Y224800D2*
G1X391048Y228800D1*
G1X387048Y232800D1*
G1X383048Y228800D1*
G1X387048Y224800D1*
G1X387048Y228800D2*
G1X387048Y232800D1*
G1X123731Y123491D2*
G1X131731Y123491D1*
G1X123731Y131491D1*
G1X131731Y131491D1*
G1X123731Y123491D1*
G1X136696Y115672D2*
G1X144696Y115672D1*
G1X136696Y123672D1*
G1X144696Y123672D1*
G1X136696Y115672D1*
G1X303105Y119276D2*
G1X311105Y119276D1*
G1X303105Y127276D1*
G1X311105Y127276D1*
G1X303105Y119276D1*
G1X311054Y123233D2*
G1X319054Y123233D1*
G1X311054Y131233D1*
G1X319054Y131233D1*
G1X311054Y123233D1*
G1X156862Y159418D2*
G1X164862Y159418D1*
G1X156862Y167418D1*
G1X164862Y167418D1*
G1X156862Y159418D1*
G1X227058Y152650D2*
G1X235058Y152650D1*
G1X227058Y160650D1*
G1X235058Y160650D1*
G1X227058Y152650D1*
G1X123731Y169992D2*
G1X131731Y169992D1*
G1X123731Y177992D1*
G1X131731Y177992D1*
G1X123731Y169992D1*
G1X163931Y174666D2*
G1X171931Y174666D1*
G1X163931Y182666D1*
G1X171931Y182666D1*
G1X163931Y174666D1*
G1X296539Y179004D2*
G1X304539Y179004D1*
G1X296539Y187004D1*
G1X304539Y187004D1*
G1X296539Y179004D1*
G1X172384Y194326D2*
G1X180384Y194326D1*
G1X172384Y202326D1*
G1X180384Y202326D1*
G1X172384Y194326D1*
G1X258300Y198852D2*
G1X266300Y198852D1*
G1X258300Y206852D1*
G1X266300Y206852D1*
G1X258300Y198852D1*
G1X303105Y204164D2*
G1X311105Y204164D1*
G1X303105Y212164D1*
G1X311105Y212164D1*
G1X303105Y204164D1*
G1X539910Y206251D2*
G1X547910Y206251D1*
G1X539910Y214251D1*
G1X547910Y214251D1*
G1X539910Y206251D1*
G1X156574Y214573D2*
G1X164574Y214573D1*
G1X156574Y222573D1*
G1X164574Y222573D1*
G1X156574Y214573D1*
G1X180628Y213390D2*
G1X188628Y213390D1*
G1X180628Y221390D1*
G1X188628Y221390D1*
G1X180628Y213390D1*
G1X211345Y219494D2*
G1X219345Y219494D1*
G1X211345Y227494D1*
G1X219345Y227494D1*
G1X211345Y219494D1*
G1X238024Y224769D2*
G1X246024Y224769D1*
G1X238024Y232769D1*
G1X246024Y232769D1*
G1X238024Y224769D1*
G1X251697Y215656D2*
G1X259697Y215656D1*
G1X251697Y223656D1*
G1X259697Y223656D1*
G1X251697Y215656D1*
G1X258300Y224769D2*
G1X266300Y224769D1*
G1X258300Y232769D1*
G1X266300Y232769D1*
G1X258300Y224769D1*
G1X311054Y224832D2*
G1X319054Y224832D1*
G1X311054Y232832D1*
G1X319054Y232832D1*
G1X311054Y224832D1*
G1X475111Y211251D2*
G1X483111Y211251D1*
G1X475111Y219251D1*
G1X483111Y219251D1*
G1X475111Y211251D1*
G1X480759Y216251D2*
G1X488759Y216251D1*
G1X480759Y224251D1*
G1X488759Y224251D1*
G1X480759Y216251D1*
G1X480759Y225863D2*
G1X488759Y225863D1*
G1X480759Y233863D1*
G1X488759Y233863D1*
G1X480759Y225863D1*
G1X519992Y216251D2*
G1X527992Y216251D1*
G1X519992Y224251D1*
G1X527992Y224251D1*
G1X519992Y216251D1*
G1X529998Y221251D2*
G1X537998Y221251D1*
G1X529998Y229251D1*
G1X537998Y229251D1*
G1X529998Y221251D1*
G1X549906Y211251D2*
G1X557906Y211251D1*
G1X549906Y219251D1*
G1X557906Y219251D1*
G1X549906Y211251D1*
G1X136696Y234552D2*
G1X144696Y234552D1*
G1X136696Y242552D1*
G1X144696Y242552D1*
G1X136696Y234552D1*
G1X197768Y240636D2*
G1X205768Y240636D1*
G1X197768Y248636D1*
G1X205768Y248636D1*
G1X197768Y240636D1*
G1X228497Y229494D2*
G1X236497Y229494D1*
G1X228497Y237494D1*
G1X236497Y237494D1*
G1X228497Y229494D1*
G1X256759Y236744D2*
G1X264759Y236744D1*
G1X256759Y244744D1*
G1X264759Y244744D1*
G1X256759Y236744D1*
G1X266759Y229494D2*
G1X274759Y229494D1*
G1X266759Y237494D1*
G1X274759Y237494D1*
G1X266759Y229494D1*
G1X271738Y240636D2*
G1X279738Y240636D1*
G1X271738Y248636D1*
G1X279738Y248636D1*
G1X271738Y240636D1*
G1X280881Y236744D2*
G1X288881Y236744D1*
G1X280881Y244744D1*
G1X288881Y244744D1*
G1X280881Y236744D1*
G1X225214Y258058D2*
G1X233214Y258058D1*
G1X225214Y266058D1*
G1X233214Y266058D1*
G1X225214Y258058D1*
G1X251730Y258040D2*
G1X259730Y258040D1*
G1X251730Y266040D1*
G1X259730Y266040D1*
G1X251730Y258040D1*
G1X266965Y258040D2*
G1X274965Y258040D1*
G1X266965Y266040D1*
G1X274965Y266040D1*
G1X266965Y258040D1*
G1X290449Y253834D2*
G1X298449Y253834D1*
G1X290449Y261834D1*
G1X298449Y261834D1*
G1X290449Y253834D1*
G1X459299Y247322D2*
G1X467299Y247322D1*
G1X459299Y255322D1*
G1X467299Y255322D1*
G1X459299Y247322D1*
G1X251673Y267040D2*
G1X259673Y267040D1*
G1X251673Y275040D1*
G1X259673Y275040D1*
G1X251673Y267040D1*
G1X267080Y267040D2*
G1X275080Y267040D1*
G1X267080Y275040D1*
G1X275080Y275040D1*
G1X267080Y267040D1*
G1X156594Y304008D2*
G1X164594Y304008D1*
G1X156594Y312008D1*
G1X164594Y312008D1*
G1X156594Y304008D1*
G1X225214Y290251D2*
G1X233214Y290251D1*
G1X225214Y298251D1*
G1X233214Y298251D1*
G1X225214Y290251D1*
G1X96916Y833623D2*
G1X354916Y833623D1*
G1X96916Y809623D2*
G1X354916Y809623D1*
G1X96916Y785623D2*
G1X354916Y785623D1*
G1X96916Y761623D2*
G1X354916Y761623D1*
G1X96916Y737623D2*
G1X354916Y737623D1*
G1X96916Y713623D2*
G1X354916Y713623D1*
G1X96916Y689623D2*
G1X354916Y689623D1*
G1X96916Y833623D2*
G1X96916Y689623D1*
G1X180916Y833623D2*
G1X180916Y689623D1*
G1X216916Y833623D2*
G1X216916Y689623D1*
G1X252916Y833623D2*
G1X252916Y689623D1*
G1X306916Y833623D2*
G1X306916Y689623D1*
G1X354916Y833623D2*
G1X354916Y689623D1*
G1X132416Y822373D2*
G1X131871Y823123D1*
G1X131052Y823498D1*
G1X129961Y823498D1*
G1X129143Y823123D1*
G1X128598Y822373D1*
G1X128598Y821623D1*
G1X128871Y820873D1*
G1X129143Y820498D1*
G1X129689Y820123D1*
G1X131325Y819373D1*
G1X131871Y818998D1*
G1X132143Y818623D1*
G1X132416Y817873D1*
G1X132416Y816748D1*
G1X131871Y815998D1*
G1X131052Y815623D1*
G1X129961Y815623D1*
G1X129143Y815998D1*
G1X128598Y816748D1*
G1X134871Y823498D2*
G1X134871Y815623D1*
G1X141143Y823498D2*
G1X137325Y815623D1*
G1X137325Y823498D2*
G1X141143Y823498D1*
G1X137325Y815623D2*
G1X141143Y815623D1*
G1X143598Y823498D2*
G1X143598Y815623D1*
G1X143598Y823498D2*
G1X147143Y823498D1*
G1X143598Y819748D2*
G1X145780Y819748D1*
G1X143598Y815623D2*
G1X147143Y815623D1*
G1X190780Y823498D2*
G1X190234Y823123D1*
G1X189689Y822373D1*
G1X189416Y821623D1*
G1X189143Y820498D1*
G1X189143Y818623D1*
G1X189416Y817498D1*
G1X189689Y816748D1*
G1X190234Y815998D1*
G1X190780Y815623D1*
G1X191871Y815623D1*
G1X192416Y815998D1*
G1X192961Y816748D1*
G1X193234Y817498D1*
G1X193507Y818623D1*
G1X193507Y820498D1*
G1X193234Y821623D1*
G1X192961Y822373D1*
G1X192416Y823123D1*
G1X191871Y823498D1*
G1X190780Y823498D1*
G1X191598Y817123D2*
G1X193234Y814873D1*
G1X197871Y823498D2*
G1X197871Y815623D1*
G1X195961Y823498D2*
G1X199780Y823498D1*
G1X202234Y823498D2*
G1X204416Y819748D1*
G1X204416Y815623D1*
G1X206598Y823498D2*
G1X204416Y819748D1*
G1X228961Y822373D2*
G1X228416Y823123D1*
G1X227598Y823498D1*
G1X226507Y823498D1*
G1X225689Y823123D1*
G1X225143Y822373D1*
G1X225143Y821623D1*
G1X225416Y820873D1*
G1X225689Y820498D1*
G1X226234Y820123D1*
G1X227871Y819373D1*
G1X228416Y818998D1*
G1X228689Y818623D1*
G1X228961Y817873D1*
G1X228961Y816748D1*
G1X228416Y815998D1*
G1X227598Y815623D1*
G1X226507Y815623D1*
G1X225689Y815998D1*
G1X225143Y816748D1*
G1X231416Y823498D2*
G1X233598Y819748D1*
G1X233598Y815623D1*
G1X235780Y823498D2*
G1X233598Y819748D1*
G1X238234Y823498D2*
G1X238234Y815623D1*
G1X238234Y823498D2*
G1X240416Y815623D1*
G1X242598Y823498D2*
G1X240416Y815623D1*
G1X242598Y823498D2*
G1X242598Y815623D1*
G1X264416Y823498D2*
G1X264416Y815623D1*
G1X264416Y823498D2*
G1X266871Y823498D1*
G1X267689Y823123D1*
G1X267961Y822748D1*
G1X268234Y821998D1*
G1X268234Y820873D1*
G1X267961Y820123D1*
G1X267689Y819748D1*
G1X266871Y819373D1*
G1X264416Y819373D1*
G1X270689Y823498D2*
G1X270689Y815623D1*
G1X273961Y815623D1*
G1X278598Y823498D2*
G1X276416Y815623D1*
G1X278598Y823498D2*
G1X280780Y815623D1*
G1X277234Y818248D2*
G1X279961Y818248D1*
G1X285143Y823498D2*
G1X285143Y815623D1*
G1X283234Y823498D2*
G1X287052Y823498D1*
G1X289507Y823498D2*
G1X289507Y815623D1*
G1X289507Y823498D2*
G1X293052Y823498D1*
G1X289507Y819748D2*
G1X291689Y819748D1*
G1X289507Y815623D2*
G1X293052Y815623D1*
G1X295507Y823498D2*
G1X295507Y815623D1*
G1X295507Y823498D2*
G1X297416Y823498D1*
G1X298234Y823123D1*
G1X298780Y822373D1*
G1X299052Y821623D1*
G1X299325Y820498D1*
G1X299325Y818623D1*
G1X299052Y817498D1*
G1X298780Y816748D1*
G1X298234Y815998D1*
G1X297416Y815623D1*
G1X295507Y815623D1*
G1X323598Y823498D2*
G1X323598Y815623D1*
G1X321689Y823498D2*
G1X325507Y823498D1*
G1X329598Y823498D2*
G1X329052Y823123D1*
G1X328507Y822373D1*
G1X328234Y821623D1*
G1X327961Y820498D1*
G1X327961Y818623D1*
G1X328234Y817498D1*
G1X328507Y816748D1*
G1X329052Y815998D1*
G1X329598Y815623D1*
G1X330689Y815623D1*
G1X331234Y815998D1*
G1X331780Y816748D1*
G1X332052Y817498D1*
G1X332325Y818623D1*
G1X332325Y820498D1*
G1X332052Y821623D1*
G1X331780Y822373D1*
G1X331234Y823123D1*
G1X330689Y823498D1*
G1X329598Y823498D1*
G1X334780Y823498D2*
G1X334780Y815623D1*
G1X338052Y815623D1*
G1X102916Y797998D2*
G1X103461Y798373D1*
G1X104280Y799498D1*
G1X104280Y791623D1*
G1X110280Y799498D2*
G1X107552Y799498D1*
G1X107280Y796123D1*
G1X107552Y796498D1*
G1X108371Y796873D1*
G1X109189Y796873D1*
G1X110007Y796498D1*
G1X110552Y795748D1*
G1X110825Y794623D1*
G1X110552Y793873D1*
G1X110280Y792748D1*
G1X109734Y791998D1*
G1X108916Y791623D1*
G1X108098Y791623D1*
G1X107280Y791998D1*
G1X107007Y792373D1*
G1X106734Y793123D1*
G1X117098Y799498D2*
G1X114371Y791623D1*
G1X113280Y799498D2*
G1X117098Y799498D1*
G1X119825Y792373D2*
G1X119552Y791998D1*
G1X119825Y791623D1*
G1X120098Y791998D1*
G1X119825Y792373D1*
G1X125280Y799498D2*
G1X122552Y794248D1*
G1X126643Y794248D1*
G1X125280Y799498D2*
G1X125280Y791623D1*
G1X130461Y799498D2*
G1X129643Y799123D1*
G1X129371Y798373D1*
G1X129371Y797623D1*
G1X129643Y796873D1*
G1X130189Y796498D1*
G1X131280Y796123D1*
G1X132098Y795748D1*
G1X132643Y794998D1*
G1X132916Y794248D1*
G1X132916Y793123D1*
G1X132643Y792373D1*
G1X132371Y791998D1*
G1X131552Y791623D1*
G1X130461Y791623D1*
G1X129643Y791998D1*
G1X129371Y792373D1*
G1X129098Y793123D1*
G1X129098Y794248D1*
G1X129371Y794998D1*
G1X129916Y795748D1*
G1X130734Y796123D1*
G1X131825Y796498D1*
G1X132371Y796873D1*
G1X132643Y797623D1*
G1X132643Y798373D1*
G1X132371Y799123D1*
G1X131552Y799498D1*
G1X130461Y799498D1*
G1X198552Y799498D2*
G1X195825Y794248D1*
G1X199916Y794248D1*
G1X198552Y799498D2*
G1X198552Y791623D1*
G1X228916Y797623D2*
G1X240916Y797623D1*
G1X234916Y791623D2*
G1X234916Y803623D1*
G1X261552Y799498D2*
G1X263734Y795748D1*
G1X263734Y791623D1*
G1X265916Y799498D2*
G1X263734Y795748D1*
G1X268371Y799498D2*
G1X268371Y791623D1*
G1X268371Y799498D2*
G1X271916Y799498D1*
G1X268371Y795748D2*
G1X270552Y795748D1*
G1X268371Y791623D2*
G1X271916Y791623D1*
G1X278189Y798373D2*
G1X277643Y799123D1*
G1X276825Y799498D1*
G1X275734Y799498D1*
G1X274916Y799123D1*
G1X274371Y798373D1*
G1X274371Y797623D1*
G1X274643Y796873D1*
G1X274916Y796498D1*
G1X275461Y796123D1*
G1X277098Y795373D1*
G1X277643Y794998D1*
G1X277916Y794623D1*
G1X278189Y793873D1*
G1X278189Y792748D1*
G1X277643Y791998D1*
G1X276825Y791623D1*
G1X275734Y791623D1*
G1X274916Y791998D1*
G1X274371Y792748D1*
G1X314734Y798373D2*
G1X314734Y791623D1*
G1X312280Y794998D2*
G1X317189Y794998D1*
G1X324552Y800998D2*
G1X319643Y788998D1*
G1X327007Y794998D2*
G1X331916Y794998D1*
G1X336007Y799498D2*
G1X335189Y799123D1*
G1X334643Y797998D1*
G1X334371Y796123D1*
G1X334371Y794998D1*
G1X334643Y793123D1*
G1X335189Y791998D1*
G1X336007Y791623D1*
G1X336552Y791623D1*
G1X337371Y791998D1*
G1X337916Y793123D1*
G1X338189Y794998D1*
G1X338189Y796123D1*
G1X337916Y797998D1*
G1X337371Y799123D1*
G1X336552Y799498D1*
G1X336007Y799498D1*
G1X340916Y792373D2*
G1X340643Y791998D1*
G1X340916Y791623D1*
G1X341189Y791998D1*
G1X340916Y792373D1*
G1X345280Y799498D2*
G1X344461Y799123D1*
G1X343916Y797998D1*
G1X343643Y796123D1*
G1X343643Y794998D1*
G1X343916Y793123D1*
G1X344461Y791998D1*
G1X345280Y791623D1*
G1X345825Y791623D1*
G1X346643Y791998D1*
G1X347189Y793123D1*
G1X347461Y794998D1*
G1X347461Y796123D1*
G1X347189Y797998D1*
G1X346643Y799123D1*
G1X345825Y799498D1*
G1X345280Y799498D1*
G1X102916Y773998D2*
G1X103461Y774373D1*
G1X104280Y775498D1*
G1X104280Y767623D1*
G1X108371Y775498D2*
G1X107552Y775123D1*
G1X107007Y773998D1*
G1X106734Y772123D1*
G1X106734Y770998D1*
G1X107007Y769123D1*
G1X107552Y767998D1*
G1X108371Y767623D1*
G1X108916Y767623D1*
G1X109734Y767998D1*
G1X110280Y769123D1*
G1X110552Y770998D1*
G1X110552Y772123D1*
G1X110280Y773998D1*
G1X109734Y775123D1*
G1X108916Y775498D1*
G1X108371Y775498D1*
G1X114643Y775498D2*
G1X113825Y775123D1*
G1X113280Y773998D1*
G1X113007Y772123D1*
G1X113007Y770998D1*
G1X113280Y769123D1*
G1X113825Y767998D1*
G1X114643Y767623D1*
G1X115189Y767623D1*
G1X116007Y767998D1*
G1X116552Y769123D1*
G1X116825Y770998D1*
G1X116825Y772123D1*
G1X116552Y773998D1*
G1X116007Y775123D1*
G1X115189Y775498D1*
G1X114643Y775498D1*
G1X196234Y773623D2*
G1X196234Y773998D1*
G1X196507Y774748D1*
G1X196780Y775123D1*
G1X197325Y775498D1*
G1X198416Y775498D1*
G1X198961Y775123D1*
G1X199234Y774748D1*
G1X199507Y773998D1*
G1X199507Y773248D1*
G1X199234Y772498D1*
G1X198689Y771373D1*
G1X195961Y767623D1*
G1X199780Y767623D1*
G1X228916Y767623D2*
G1X240916Y779623D1*
G1X228916Y779623D2*
G1X240916Y767623D1*
G1X261552Y775498D2*
G1X263734Y771748D1*
G1X263734Y767623D1*
G1X265916Y775498D2*
G1X263734Y771748D1*
G1X268371Y775498D2*
G1X268371Y767623D1*
G1X268371Y775498D2*
G1X271916Y775498D1*
G1X268371Y771748D2*
G1X270552Y771748D1*
G1X268371Y767623D2*
G1X271916Y767623D1*
G1X278189Y774373D2*
G1X277643Y775123D1*
G1X276825Y775498D1*
G1X275734Y775498D1*
G1X274916Y775123D1*
G1X274371Y774373D1*
G1X274371Y773623D1*
G1X274643Y772873D1*
G1X274916Y772498D1*
G1X275461Y772123D1*
G1X277098Y771373D1*
G1X277643Y770998D1*
G1X277916Y770623D1*
G1X278189Y769873D1*
G1X278189Y768748D1*
G1X277643Y767998D1*
G1X276825Y767623D1*
G1X275734Y767623D1*
G1X274916Y767998D1*
G1X274371Y768748D1*
G1X314734Y774373D2*
G1X314734Y767623D1*
G1X312280Y770998D2*
G1X317189Y770998D1*
G1X324552Y776998D2*
G1X319643Y764998D1*
G1X327007Y770998D2*
G1X331916Y770998D1*
G1X336007Y775498D2*
G1X335189Y775123D1*
G1X334643Y773998D1*
G1X334371Y772123D1*
G1X334371Y770998D1*
G1X334643Y769123D1*
G1X335189Y767998D1*
G1X336007Y767623D1*
G1X336552Y767623D1*
G1X337371Y767998D1*
G1X337916Y769123D1*
G1X338189Y770998D1*
G1X338189Y772123D1*
G1X337916Y773998D1*
G1X337371Y775123D1*
G1X336552Y775498D1*
G1X336007Y775498D1*
G1X340916Y768373D2*
G1X340643Y767998D1*
G1X340916Y767623D1*
G1X341189Y767998D1*
G1X340916Y768373D1*
G1X345280Y775498D2*
G1X344461Y775123D1*
G1X343916Y773998D1*
G1X343643Y772123D1*
G1X343643Y770998D1*
G1X343916Y769123D1*
G1X344461Y767998D1*
G1X345280Y767623D1*
G1X345825Y767623D1*
G1X346643Y767998D1*
G1X347189Y769123D1*
G1X347461Y770998D1*
G1X347461Y772123D1*
G1X347189Y773998D1*
G1X346643Y775123D1*
G1X345825Y775498D1*
G1X345280Y775498D1*
G1X103461Y751498D2*
G1X106461Y751498D1*
G1X104825Y748498D1*
G1X105643Y748498D1*
G1X106189Y748123D1*
G1X106461Y747748D1*
G1X106734Y746623D1*
G1X106734Y745873D1*
G1X106461Y744748D1*
G1X105916Y743998D1*
G1X105098Y743623D1*
G1X104280Y743623D1*
G1X103461Y743998D1*
G1X103189Y744373D1*
G1X102916Y745123D1*
G1X112734Y751498D2*
G1X110007Y751498D1*
G1X109734Y748123D1*
G1X110007Y748498D1*
G1X110825Y748873D1*
G1X111643Y748873D1*
G1X112461Y748498D1*
G1X113007Y747748D1*
G1X113280Y746623D1*
G1X113007Y745873D1*
G1X112734Y744748D1*
G1X112189Y743998D1*
G1X111371Y743623D1*
G1X110552Y743623D1*
G1X109734Y743998D1*
G1X109461Y744373D1*
G1X109189Y745123D1*
G1X194052Y749998D2*
G1X194598Y750373D1*
G1X195416Y751498D1*
G1X195416Y743623D1*
G1X199234Y751498D2*
G1X198416Y751123D1*
G1X198143Y750373D1*
G1X198143Y749623D1*
G1X198416Y748873D1*
G1X198961Y748498D1*
G1X200052Y748123D1*
G1X200871Y747748D1*
G1X201416Y746998D1*
G1X201689Y746248D1*
G1X201689Y745123D1*
G1X201416Y744373D1*
G1X201143Y743998D1*
G1X200325Y743623D1*
G1X199234Y743623D1*
G1X198416Y743998D1*
G1X198143Y744373D1*
G1X197871Y745123D1*
G1X197871Y746248D1*
G1X198143Y746998D1*
G1X198689Y747748D1*
G1X199507Y748123D1*
G1X200598Y748498D1*
G1X201143Y748873D1*
G1X201416Y749623D1*
G1X201416Y750373D1*
G1X201143Y751123D1*
G1X200325Y751498D1*
G1X199234Y751498D1*
G1X228916Y743623D2*
G1X240916Y743623D1*
G1X240916Y755623D1*
G1X228916Y755623D1*
G1X228916Y743623D1*
G1X234916Y749623D2*
G1X234916Y755623D1*
G1X261552Y751498D2*
G1X263734Y747748D1*
G1X263734Y743623D1*
G1X265916Y751498D2*
G1X263734Y747748D1*
G1X268371Y751498D2*
G1X268371Y743623D1*
G1X268371Y751498D2*
G1X271916Y751498D1*
G1X268371Y747748D2*
G1X270552Y747748D1*
G1X268371Y743623D2*
G1X271916Y743623D1*
G1X278189Y750373D2*
G1X277643Y751123D1*
G1X276825Y751498D1*
G1X275734Y751498D1*
G1X274916Y751123D1*
G1X274371Y750373D1*
G1X274371Y749623D1*
G1X274643Y748873D1*
G1X274916Y748498D1*
G1X275461Y748123D1*
G1X277098Y747373D1*
G1X277643Y746998D1*
G1X277916Y746623D1*
G1X278189Y745873D1*
G1X278189Y744748D1*
G1X277643Y743998D1*
G1X276825Y743623D1*
G1X275734Y743623D1*
G1X274916Y743998D1*
G1X274371Y744748D1*
G1X314734Y750373D2*
G1X314734Y743623D1*
G1X312280Y746998D2*
G1X317189Y746998D1*
G1X324552Y752998D2*
G1X319643Y740998D1*
G1X327007Y746998D2*
G1X331916Y746998D1*
G1X336007Y751498D2*
G1X335189Y751123D1*
G1X334643Y749998D1*
G1X334371Y748123D1*
G1X334371Y746998D1*
G1X334643Y745123D1*
G1X335189Y743998D1*
G1X336007Y743623D1*
G1X336552Y743623D1*
G1X337371Y743998D1*
G1X337916Y745123D1*
G1X338189Y746998D1*
G1X338189Y748123D1*
G1X337916Y749998D1*
G1X337371Y751123D1*
G1X336552Y751498D1*
G1X336007Y751498D1*
G1X340916Y744373D2*
G1X340643Y743998D1*
G1X340916Y743623D1*
G1X341189Y743998D1*
G1X340916Y744373D1*
G1X345280Y751498D2*
G1X344461Y751123D1*
G1X343916Y749998D1*
G1X343643Y748123D1*
G1X343643Y746998D1*
G1X343916Y745123D1*
G1X344461Y743998D1*
G1X345280Y743623D1*
G1X345825Y743623D1*
G1X346643Y743998D1*
G1X347189Y745123D1*
G1X347461Y746998D1*
G1X347461Y748123D1*
G1X347189Y749998D1*
G1X346643Y751123D1*
G1X345825Y751498D1*
G1X345280Y751498D1*
G1X105643Y727498D2*
G1X102916Y722248D1*
G1X107007Y722248D1*
G1X105643Y727498D2*
G1X105643Y719623D1*
G1X109461Y725998D2*
G1X110007Y726373D1*
G1X110825Y727498D1*
G1X110825Y719623D1*
G1X199371Y727498D2*
G1X196643Y727498D1*
G1X196371Y724123D1*
G1X196643Y724498D1*
G1X197461Y724873D1*
G1X198280Y724873D1*
G1X199098Y724498D1*
G1X199643Y723748D1*
G1X199916Y722623D1*
G1X199643Y721873D1*
G1X199371Y720748D1*
G1X198825Y719998D1*
G1X198007Y719623D1*
G1X197189Y719623D1*
G1X196371Y719998D1*
G1X196098Y720373D1*
G1X195825Y721123D1*
G1X234916Y719623D2*
G1X240916Y725623D1*
G1X234916Y731623D1*
G1X228916Y725623D1*
G1X234916Y719623D1*
G1X234916Y725623D2*
G1X234916Y731623D1*
G1X261552Y727498D2*
G1X263734Y723748D1*
G1X263734Y719623D1*
G1X265916Y727498D2*
G1X263734Y723748D1*
G1X268371Y727498D2*
G1X268371Y719623D1*
G1X268371Y727498D2*
G1X271916Y727498D1*
G1X268371Y723748D2*
G1X270552Y723748D1*
G1X268371Y719623D2*
G1X271916Y719623D1*
G1X278189Y726373D2*
G1X277643Y727123D1*
G1X276825Y727498D1*
G1X275734Y727498D1*
G1X274916Y727123D1*
G1X274371Y726373D1*
G1X274371Y725623D1*
G1X274643Y724873D1*
G1X274916Y724498D1*
G1X275461Y724123D1*
G1X277098Y723373D1*
G1X277643Y722998D1*
G1X277916Y722623D1*
G1X278189Y721873D1*
G1X278189Y720748D1*
G1X277643Y719998D1*
G1X276825Y719623D1*
G1X275734Y719623D1*
G1X274916Y719998D1*
G1X274371Y720748D1*
G1X314734Y726373D2*
G1X314734Y719623D1*
G1X312280Y722998D2*
G1X317189Y722998D1*
G1X324552Y728998D2*
G1X319643Y716998D1*
G1X327007Y722998D2*
G1X331916Y722998D1*
G1X336007Y727498D2*
G1X335189Y727123D1*
G1X334643Y725998D1*
G1X334371Y724123D1*
G1X334371Y722998D1*
G1X334643Y721123D1*
G1X335189Y719998D1*
G1X336007Y719623D1*
G1X336552Y719623D1*
G1X337371Y719998D1*
G1X337916Y721123D1*
G1X338189Y722998D1*
G1X338189Y724123D1*
G1X337916Y725998D1*
G1X337371Y727123D1*
G1X336552Y727498D1*
G1X336007Y727498D1*
G1X340916Y720373D2*
G1X340643Y719998D1*
G1X340916Y719623D1*
G1X341189Y719998D1*
G1X340916Y720373D1*
G1X345280Y727498D2*
G1X344461Y727123D1*
G1X343916Y725998D1*
G1X343643Y724123D1*
G1X343643Y722998D1*
G1X343916Y721123D1*
G1X344461Y719998D1*
G1X345280Y719623D1*
G1X345825Y719623D1*
G1X346643Y719998D1*
G1X347189Y721123D1*
G1X347461Y722998D1*
G1X347461Y724123D1*
G1X347189Y725998D1*
G1X346643Y727123D1*
G1X345825Y727498D1*
G1X345280Y727498D1*
G1X103189Y701623D2*
G1X103189Y701998D1*
G1X103461Y702748D1*
G1X103734Y703123D1*
G1X104280Y703498D1*
G1X105371Y703498D1*
G1X105916Y703123D1*
G1X106189Y702748D1*
G1X106461Y701998D1*
G1X106461Y701248D1*
G1X106189Y700498D1*
G1X105643Y699373D1*
G1X102916Y695623D1*
G1X106734Y695623D1*
G1X110825Y703498D2*
G1X110007Y703123D1*
G1X109461Y701998D1*
G1X109189Y700123D1*
G1X109189Y698998D1*
G1X109461Y697123D1*
G1X110007Y695998D1*
G1X110825Y695623D1*
G1X111371Y695623D1*
G1X112189Y695998D1*
G1X112734Y697123D1*
G1X113007Y698998D1*
G1X113007Y700123D1*
G1X112734Y701998D1*
G1X112189Y703123D1*
G1X111371Y703498D1*
G1X110825Y703498D1*
G1X195416Y703498D2*
G1X192689Y698248D1*
G1X196780Y698248D1*
G1X195416Y703498D2*
G1X195416Y695623D1*
G1X199507Y701623D2*
G1X199507Y701998D1*
G1X199780Y702748D1*
G1X200052Y703123D1*
G1X200598Y703498D1*
G1X201689Y703498D1*
G1X202234Y703123D1*
G1X202507Y702748D1*
G1X202780Y701998D1*
G1X202780Y701248D1*
G1X202507Y700498D1*
G1X201961Y699373D1*
G1X199234Y695623D1*
G1X203052Y695623D1*
G1X228916Y695623D2*
G1X240916Y695623D1*
G1X228916Y707623D1*
G1X240916Y707623D1*
G1X228916Y695623D1*
G1X261552Y703498D2*
G1X263734Y699748D1*
G1X263734Y695623D1*
G1X265916Y703498D2*
G1X263734Y699748D1*
G1X268371Y703498D2*
G1X268371Y695623D1*
G1X268371Y703498D2*
G1X271916Y703498D1*
G1X268371Y699748D2*
G1X270552Y699748D1*
G1X268371Y695623D2*
G1X271916Y695623D1*
G1X278189Y702373D2*
G1X277643Y703123D1*
G1X276825Y703498D1*
G1X275734Y703498D1*
G1X274916Y703123D1*
G1X274371Y702373D1*
G1X274371Y701623D1*
G1X274643Y700873D1*
G1X274916Y700498D1*
G1X275461Y700123D1*
G1X277098Y699373D1*
G1X277643Y698998D1*
G1X277916Y698623D1*
G1X278189Y697873D1*
G1X278189Y696748D1*
G1X277643Y695998D1*
G1X276825Y695623D1*
G1X275734Y695623D1*
G1X274916Y695998D1*
G1X274371Y696748D1*
G1X314734Y702373D2*
G1X314734Y695623D1*
G1X312280Y698998D2*
G1X317189Y698998D1*
G1X324552Y704998D2*
G1X319643Y692998D1*
G1X327007Y698998D2*
G1X331916Y698998D1*
G1X336007Y703498D2*
G1X335189Y703123D1*
G1X334643Y701998D1*
G1X334371Y700123D1*
G1X334371Y698998D1*
G1X334643Y697123D1*
G1X335189Y695998D1*
G1X336007Y695623D1*
G1X336552Y695623D1*
G1X337371Y695998D1*
G1X337916Y697123D1*
G1X338189Y698998D1*
G1X338189Y700123D1*
G1X337916Y701998D1*
G1X337371Y703123D1*
G1X336552Y703498D1*
G1X336007Y703498D1*
G1X340916Y696373D2*
G1X340643Y695998D1*
G1X340916Y695623D1*
G1X341189Y695998D1*
G1X340916Y696373D1*
G1X345280Y703498D2*
G1X344461Y703123D1*
G1X343916Y701998D1*
G1X343643Y700123D1*
G1X343643Y698998D1*
G1X343916Y697123D1*
G1X344461Y695998D1*
G1X345280Y695623D1*
G1X345825Y695623D1*
G1X346643Y695998D1*
G1X347189Y697123D1*
G1X347461Y698998D1*
G1X347461Y700123D1*
G1X347189Y701998D1*
G1X346643Y703123D1*
G1X345825Y703498D1*
G1X345280Y703498D1*
G1X540516Y511648D2*
G54D10*
G1X541816Y511648D1*
G1X529816Y511748D2*
G1X531216Y511748D1*
G1X540216Y511748D2*
G1X542216Y511748D1*
G1X529516Y511848D2*
G1X531616Y511848D1*
G1X535416Y511848D2*
G1X536416Y511848D1*
G1X540016Y511848D2*
G1X542416Y511848D1*
G1X529316Y511948D2*
G1X531916Y511948D1*
G1X535216Y511948D2*
G1X536716Y511948D1*
G1X539816Y511948D2*
G1X542716Y511948D1*
G1X529216Y512048D2*
G1X532116Y512048D1*
G1X535016Y512048D2*
G1X536816Y512048D1*
G1X539716Y512048D2*
G1X542916Y512048D1*
G1X529016Y512148D2*
G1X532316Y512148D1*
G1X534916Y512148D2*
G1X537016Y512148D1*
G1X539616Y512148D2*
G1X543016Y512148D1*
G1X528916Y512248D2*
G1X532416Y512248D1*
G1X534816Y512248D2*
G1X537216Y512248D1*
G1X539416Y512248D2*
G1X543216Y512248D1*
G1X528816Y512348D2*
G1X532716Y512348D1*
G1X534716Y512348D2*
G1X537316Y512348D1*
G1X539316Y512348D2*
G1X543316Y512348D1*
G1X528816Y512448D2*
G1X532916Y512448D1*
G1X534616Y512448D2*
G1X537516Y512448D1*
G1X539116Y512448D2*
G1X543416Y512448D1*
G1X528716Y512548D2*
G1X533216Y512548D1*
G1X534416Y512548D2*
G1X537816Y512548D1*
G1X538816Y512548D2*
G1X543516Y512548D1*
G1X528716Y512648D2*
G1X533616Y512648D1*
G1X534016Y512648D2*
G1X543616Y512648D1*
G1X528616Y512748D2*
G1X543716Y512748D1*
G1X528616Y512848D2*
G1X543816Y512848D1*
G1X528516Y512948D2*
G1X543916Y512948D1*
G1X528516Y513048D2*
G1X544016Y513048D1*
G1X528516Y513148D2*
G1X544116Y513148D1*
G1X528516Y513248D2*
G1X544116Y513248D1*
G1X528416Y513348D2*
G1X544216Y513348D1*
G1X528416Y513448D2*
G1X544316Y513448D1*
G1X528416Y513548D2*
G1X544316Y513548D1*
G1X528416Y513648D2*
G1X544416Y513648D1*
G1X528416Y513748D2*
G1X544416Y513748D1*
G1X528416Y513848D2*
G1X544516Y513848D1*
G1X528416Y513948D2*
G1X544516Y513948D1*
G1X528416Y514048D2*
G1X544516Y514048D1*
G1X528516Y514148D2*
G1X544616Y514148D1*
G1X528516Y514248D2*
G1X544616Y514248D1*
G1X528516Y514348D2*
G1X544616Y514348D1*
G1X528516Y514448D2*
G1X544616Y514448D1*
G1X528616Y514548D2*
G1X544716Y514548D1*
G1X528616Y514648D2*
G1X544716Y514648D1*
G1X528616Y514748D2*
G1X544716Y514748D1*
G1X528716Y514848D2*
G1X544716Y514848D1*
G1X528716Y514948D2*
G1X544716Y514948D1*
G1X528716Y515048D2*
G1X544816Y515048D1*
G1X528816Y515148D2*
G1X544816Y515148D1*
G1X528816Y515248D2*
G1X544816Y515248D1*
G1X528916Y515348D2*
G1X544816Y515348D1*
G1X528916Y515448D2*
G1X544816Y515448D1*
G1X529016Y515548D2*
G1X544816Y515548D1*
G1X529116Y515648D2*
G1X544816Y515648D1*
G1X529116Y515748D2*
G1X544816Y515748D1*
G1X529216Y515848D2*
G1X544716Y515848D1*
G1X529316Y515948D2*
G1X544716Y515948D1*
G1X529316Y516048D2*
G1X544716Y516048D1*
G1X529416Y516148D2*
G1X544716Y516148D1*
G1X529516Y516248D2*
G1X544716Y516248D1*
G1X529616Y516348D2*
G1X544616Y516348D1*
G1X529716Y516448D2*
G1X544616Y516448D1*
G1X529816Y516548D2*
G1X544516Y516548D1*
G1X529916Y516648D2*
G1X544516Y516648D1*
G1X530016Y516748D2*
G1X544516Y516748D1*
G1X530116Y516848D2*
G1X544416Y516848D1*
G1X530216Y516948D2*
G1X544416Y516948D1*
G1X530316Y517048D2*
G1X544316Y517048D1*
G1X530416Y517148D2*
G1X544316Y517148D1*
G1X530516Y517248D2*
G1X544216Y517248D1*
G1X530616Y517348D2*
G1X544116Y517348D1*
G1X530716Y517448D2*
G1X544116Y517448D1*
G1X530816Y517548D2*
G1X544016Y517548D1*
G1X531016Y517648D2*
G1X543916Y517648D1*
G1X531116Y517748D2*
G1X543916Y517748D1*
G1X531316Y517848D2*
G1X543816Y517848D1*
G1X531416Y517948D2*
G1X543716Y517948D1*
G1X531516Y518048D2*
G1X543716Y518048D1*
G1X531616Y518148D2*
G1X543616Y518148D1*
G1X531816Y518248D2*
G1X543516Y518248D1*
G1X531916Y518348D2*
G1X543516Y518348D1*
G1X532016Y518448D2*
G1X543416Y518448D1*
G1X532116Y518548D2*
G1X543416Y518548D1*
G1X532216Y518648D2*
G1X543316Y518648D1*
G1X532316Y518748D2*
G1X543316Y518748D1*
G1X532416Y518848D2*
G1X543216Y518848D1*
G1X532516Y518948D2*
G1X543216Y518948D1*
G1X532616Y519048D2*
G1X543116Y519048D1*
G1X532716Y519148D2*
G1X543116Y519148D1*
G1X532816Y519248D2*
G1X543116Y519248D1*
G1X532916Y519348D2*
G1X543016Y519348D1*
G1X533016Y519448D2*
G1X543016Y519448D1*
G1X533116Y519548D2*
G1X543016Y519548D1*
G1X546116Y519548D2*
G1X547016Y519548D1*
G1X529616Y519648D2*
G1X529716Y519648D1*
G1X533216Y519648D2*
G1X543016Y519648D1*
G1X545816Y519648D2*
G1X547416Y519648D1*
G1X528916Y519748D2*
G1X530316Y519748D1*
G1X533216Y519748D2*
G1X542916Y519748D1*
G1X545616Y519748D2*
G1X547716Y519748D1*
G1X528616Y519848D2*
G1X530616Y519848D1*
G1X533316Y519848D2*
G1X542916Y519848D1*
G1X545416Y519848D2*
G1X547916Y519848D1*
G1X528416Y519948D2*
G1X530816Y519948D1*
G1X533416Y519948D2*
G1X542916Y519948D1*
G1X545316Y519948D2*
G1X548116Y519948D1*
G1X528216Y520048D2*
G1X531016Y520048D1*
G1X533416Y520048D2*
G1X542916Y520048D1*
G1X545216Y520048D2*
G1X548316Y520048D1*
G1X528116Y520148D2*
G1X531116Y520148D1*
G1X533516Y520148D2*
G1X542916Y520148D1*
G1X545216Y520148D2*
G1X548516Y520148D1*
G1X528016Y520248D2*
G1X531316Y520248D1*
G1X533516Y520248D2*
G1X542916Y520248D1*
G1X545116Y520248D2*
G1X548716Y520248D1*
G1X527916Y520348D2*
G1X531416Y520348D1*
G1X533616Y520348D2*
G1X542916Y520348D1*
G1X545116Y520348D2*
G1X548816Y520348D1*
G1X527816Y520448D2*
G1X531516Y520448D1*
G1X533616Y520448D2*
G1X542916Y520448D1*
G1X545016Y520448D2*
G1X549016Y520448D1*
G1X527716Y520548D2*
G1X531616Y520548D1*
G1X533716Y520548D2*
G1X542916Y520548D1*
G1X545016Y520548D2*
G1X549116Y520548D1*
G1X527616Y520648D2*
G1X531716Y520648D1*
G1X533716Y520648D2*
G1X543016Y520648D1*
G1X545016Y520648D2*
G1X549216Y520648D1*
G1X527516Y520748D2*
G1X531816Y520748D1*
G1X533816Y520748D2*
G1X543016Y520748D1*
G1X544916Y520748D2*
G1X549416Y520748D1*
G1X527416Y520848D2*
G1X531816Y520848D1*
G1X533816Y520848D2*
G1X543016Y520848D1*
G1X544916Y520848D2*
G1X549516Y520848D1*
G1X527416Y520948D2*
G1X531916Y520948D1*
G1X533916Y520948D2*
G1X543016Y520948D1*
G1X544916Y520948D2*
G1X549616Y520948D1*
G1X527316Y521048D2*
G1X532016Y521048D1*
G1X533916Y521048D2*
G1X543016Y521048D1*
G1X544916Y521048D2*
G1X549716Y521048D1*
G1X527316Y521148D2*
G1X532116Y521148D1*
G1X533916Y521148D2*
G1X543116Y521148D1*
G1X544916Y521148D2*
G1X549816Y521148D1*
G1X527216Y521248D2*
G1X532116Y521248D1*
G1X533916Y521248D2*
G1X543116Y521248D1*
G1X544916Y521248D2*
G1X549916Y521248D1*
G1X527216Y521348D2*
G1X532216Y521348D1*
G1X534016Y521348D2*
G1X543116Y521348D1*
G1X544916Y521348D2*
G1X550016Y521348D1*
G1X527116Y521448D2*
G1X532216Y521448D1*
G1X534016Y521448D2*
G1X543116Y521448D1*
G1X544916Y521448D2*
G1X550116Y521448D1*
G1X527116Y521548D2*
G1X532316Y521548D1*
G1X534116Y521548D2*
G1X543116Y521548D1*
G1X544916Y521548D2*
G1X550216Y521548D1*
G1X527016Y521648D2*
G1X532316Y521648D1*
G1X534116Y521648D2*
G1X543216Y521648D1*
G1X544916Y521648D2*
G1X550316Y521648D1*
G1X527016Y521748D2*
G1X532416Y521748D1*
G1X534116Y521748D2*
G1X543216Y521748D1*
G1X544916Y521748D2*
G1X550416Y521748D1*
G1X527016Y521848D2*
G1X532416Y521848D1*
G1X534216Y521848D2*
G1X543216Y521848D1*
G1X545016Y521848D2*
G1X550516Y521848D1*
G1X526916Y521948D2*
G1X532416Y521948D1*
G1X534216Y521948D2*
G1X543216Y521948D1*
G1X545016Y521948D2*
G1X550616Y521948D1*
G1X526916Y522048D2*
G1X532516Y522048D1*
G1X534316Y522048D2*
G1X543216Y522048D1*
G1X545016Y522048D2*
G1X550616Y522048D1*
G1X526916Y522148D2*
G1X532516Y522148D1*
G1X534416Y522148D2*
G1X543216Y522148D1*
G1X545016Y522148D2*
G1X550716Y522148D1*
G1X526916Y522248D2*
G1X532516Y522248D1*
G1X534416Y522248D2*
G1X543116Y522248D1*
G1X545116Y522248D2*
G1X550816Y522248D1*
G1X526816Y522348D2*
G1X532516Y522348D1*
G1X534516Y522348D2*
G1X543116Y522348D1*
G1X545116Y522348D2*
G1X550916Y522348D1*
G1X526816Y522448D2*
G1X532616Y522448D1*
G1X534616Y522448D2*
G1X543116Y522448D1*
G1X545116Y522448D2*
G1X550916Y522448D1*
G1X526816Y522548D2*
G1X532616Y522548D1*
G1X534716Y522548D2*
G1X543016Y522548D1*
G1X545216Y522548D2*
G1X551016Y522548D1*
G1X526816Y522648D2*
G1X532616Y522648D1*
G1X534816Y522648D2*
G1X543016Y522648D1*
G1X545216Y522648D2*
G1X551116Y522648D1*
G1X526816Y522748D2*
G1X532616Y522748D1*
G1X534916Y522748D2*
G1X543016Y522748D1*
G1X545316Y522748D2*
G1X551116Y522748D1*
G1X526816Y522848D2*
G1X532716Y522848D1*
G1X535016Y522848D2*
G1X538716Y522848D1*
G1X539316Y522848D2*
G1X542916Y522848D1*
G1X545316Y522848D2*
G1X551216Y522848D1*
G1X526816Y522948D2*
G1X532716Y522948D1*
G1X535116Y522948D2*
G1X538416Y522948D1*
G1X539616Y522948D2*
G1X542916Y522948D1*
G1X545316Y522948D2*
G1X551216Y522948D1*
G1X526816Y523048D2*
G1X532716Y523048D1*
G1X535216Y523048D2*
G1X538216Y523048D1*
G1X539816Y523048D2*
G1X542816Y523048D1*
G1X545416Y523048D2*
G1X551316Y523048D1*
G1X526816Y523148D2*
G1X532716Y523148D1*
G1X535416Y523148D2*
G1X538116Y523148D1*
G1X540116Y523148D2*
G1X542716Y523148D1*
G1X545516Y523148D2*
G1X551316Y523148D1*
G1X526816Y523248D2*
G1X532716Y523248D1*
G1X535516Y523248D2*
G1X538016Y523248D1*
G1X540216Y523248D2*
G1X542616Y523248D1*
G1X545516Y523248D2*
G1X551416Y523248D1*
G1X526816Y523348D2*
G1X532716Y523348D1*
G1X535716Y523348D2*
G1X537816Y523348D1*
G1X540416Y523348D2*
G1X542516Y523348D1*
G1X545616Y523348D2*
G1X551416Y523348D1*
G1X526816Y523448D2*
G1X532716Y523448D1*
G1X535916Y523448D2*
G1X537716Y523448D1*
G1X540716Y523448D2*
G1X542216Y523448D1*
G1X545616Y523448D2*
G1X551516Y523448D1*
G1X526816Y523548D2*
G1X532716Y523548D1*
G1X536216Y523548D2*
G1X537516Y523548D1*
G1X541016Y523548D2*
G1X542116Y523548D1*
G1X545716Y523548D2*
G1X551516Y523548D1*
G1X526816Y523648D2*
G1X532716Y523648D1*
G1X536516Y523648D2*
G1X537016Y523648D1*
G1X545716Y523648D2*
G1X551516Y523648D1*
G1X526916Y523748D2*
G1X532716Y523748D1*
G1X545816Y523748D2*
G1X551616Y523748D1*
G1X526916Y523848D2*
G1X532716Y523848D1*
G1X545916Y523848D2*
G1X551616Y523848D1*
G1X526916Y523948D2*
G1X532616Y523948D1*
G1X545916Y523948D2*
G1X551616Y523948D1*
G1X526916Y524048D2*
G1X532616Y524048D1*
G1X546016Y524048D2*
G1X551716Y524048D1*
G1X526916Y524148D2*
G1X532616Y524148D1*
G1X546116Y524148D2*
G1X551716Y524148D1*
G1X526916Y524248D2*
G1X532616Y524248D1*
G1X546116Y524248D2*
G1X551716Y524248D1*
G1X527016Y524348D2*
G1X532616Y524348D1*
G1X546216Y524348D2*
G1X551816Y524348D1*
G1X527016Y524448D2*
G1X532616Y524448D1*
G1X546316Y524448D2*
G1X551816Y524448D1*
G1X527016Y524548D2*
G1X532516Y524548D1*
G1X546416Y524548D2*
G1X551816Y524548D1*
G1X527116Y524648D2*
G1X532516Y524648D1*
G1X546516Y524648D2*
G1X551816Y524648D1*
G1X527116Y524748D2*
G1X532516Y524748D1*
G1X546616Y524748D2*
G1X551816Y524748D1*
G1X527216Y524848D2*
G1X532516Y524848D1*
G1X546716Y524848D2*
G1X551816Y524848D1*
G1X527216Y524948D2*
G1X532416Y524948D1*
G1X546816Y524948D2*
G1X551816Y524948D1*
G1X527216Y525048D2*
G1X532416Y525048D1*
G1X546916Y525048D2*
G1X551816Y525048D1*
G1X527316Y525148D2*
G1X532316Y525148D1*
G1X547016Y525148D2*
G1X551816Y525148D1*
G1X527316Y525248D2*
G1X532316Y525248D1*
G1X547116Y525248D2*
G1X551816Y525248D1*
G1X527416Y525348D2*
G1X532216Y525348D1*
G1X547216Y525348D2*
G1X551816Y525348D1*
G1X527516Y525448D2*
G1X532216Y525448D1*
G1X547316Y525448D2*
G1X551816Y525448D1*
G1X527516Y525548D2*
G1X532116Y525548D1*
G1X547416Y525548D2*
G1X551816Y525548D1*
G1X527616Y525648D2*
G1X532016Y525648D1*
G1X547616Y525648D2*
G1X551816Y525648D1*
G1X527716Y525748D2*
G1X532016Y525748D1*
G1X547716Y525748D2*
G1X551716Y525748D1*
G1X527816Y525848D2*
G1X531916Y525848D1*
G1X547816Y525848D2*
G1X551716Y525848D1*
G1X527916Y525948D2*
G1X531816Y525948D1*
G1X548016Y525948D2*
G1X551616Y525948D1*
G1X528016Y526048D2*
G1X531716Y526048D1*
G1X548216Y526048D2*
G1X551616Y526048D1*
G1X528116Y526148D2*
G1X531616Y526148D1*
G1X548316Y526148D2*
G1X551516Y526148D1*
G1X528216Y526248D2*
G1X531516Y526248D1*
G1X548516Y526248D2*
G1X551416Y526248D1*
G1X528316Y526348D2*
G1X531416Y526348D1*
G1X548716Y526348D2*
G1X551316Y526348D1*
G1X528516Y526448D2*
G1X531216Y526448D1*
G1X548916Y526448D2*
G1X551216Y526448D1*
G1X528616Y526548D2*
G1X531116Y526548D1*
G1X549216Y526548D2*
G1X551016Y526548D1*
G1X528816Y526648D2*
G1X530916Y526648D1*
G1X549616Y526648D2*
G1X550816Y526648D1*
G1X529116Y526748D2*
G1X530716Y526748D1*
G1X543616Y526748D2*
G1X544116Y526748D1*
G1X529616Y526848D2*
G1X529716Y526848D1*
G1X529816Y526848D2*
G1X530116Y526848D1*
G1X535716Y526848D2*
G1X536916Y526848D1*
G1X543216Y526848D2*
G1X544616Y526848D1*
G1X535416Y526948D2*
G1X537216Y526948D1*
G1X542916Y526948D2*
G1X544916Y526948D1*
G1X535316Y527048D2*
G1X537416Y527048D1*
G1X542816Y527048D2*
G1X545116Y527048D1*
G1X535116Y527148D2*
G1X537616Y527148D1*
G1X542716Y527148D2*
G1X545316Y527148D1*
G1X535016Y527248D2*
G1X537816Y527248D1*
G1X542616Y527248D2*
G1X545416Y527248D1*
G1X534916Y527348D2*
G1X538016Y527348D1*
G1X542516Y527348D2*
G1X545616Y527348D1*
G1X534916Y527448D2*
G1X538116Y527448D1*
G1X542416Y527448D2*
G1X545716Y527448D1*
G1X534816Y527548D2*
G1X538216Y527548D1*
G1X542416Y527548D2*
G1X545816Y527548D1*
G1X534716Y527648D2*
G1X538316Y527648D1*
G1X542316Y527648D2*
G1X545916Y527648D1*
G1X549616Y527648D2*
G1X550516Y527648D1*
G1X550816Y527648D2*
G1X551116Y527648D1*
G1X530616Y527748D2*
G1X531016Y527748D1*
G1X534716Y527748D2*
G1X538416Y527748D1*
G1X542316Y527748D2*
G1X546016Y527748D1*
G1X549616Y527748D2*
G1X551116Y527748D1*
G1X529616Y527848D2*
G1X531016Y527848D1*
G1X534616Y527848D2*
G1X538516Y527848D1*
G1X542216Y527848D2*
G1X546116Y527848D1*
G1X549616Y527848D2*
G1X551216Y527848D1*
G1X529616Y527948D2*
G1X531116Y527948D1*
G1X534616Y527948D2*
G1X538616Y527948D1*
G1X542216Y527948D2*
G1X546216Y527948D1*
G1X549616Y527948D2*
G1X551216Y527948D1*
G1X529616Y528048D2*
G1X531116Y528048D1*
G1X534616Y528048D2*
G1X538716Y528048D1*
G1X542116Y528048D2*
G1X546316Y528048D1*
G1X549716Y528048D2*
G1X551216Y528048D1*
G1X529616Y528148D2*
G1X531216Y528148D1*
G1X534516Y528148D2*
G1X538816Y528148D1*
G1X542116Y528148D2*
G1X546416Y528148D1*
G1X549716Y528148D2*
G1X551216Y528148D1*
G1X529716Y528248D2*
G1X531216Y528248D1*
G1X534516Y528248D2*
G1X538916Y528248D1*
G1X542116Y528248D2*
G1X546516Y528248D1*
G1X549716Y528248D2*
G1X551316Y528248D1*
G1X529716Y528348D2*
G1X531216Y528348D1*
G1X534516Y528348D2*
G1X539016Y528348D1*
G1X542116Y528348D2*
G1X546516Y528348D1*
G1X549716Y528348D2*
G1X551316Y528348D1*
G1X529716Y528448D2*
G1X531316Y528448D1*
G1X534516Y528448D2*
G1X539016Y528448D1*
G1X542016Y528448D2*
G1X546616Y528448D1*
G1X549816Y528448D2*
G1X551316Y528448D1*
G1X529816Y528548D2*
G1X531316Y528548D1*
G1X534416Y528548D2*
G1X539116Y528548D1*
G1X542016Y528548D2*
G1X546716Y528548D1*
G1X549816Y528548D2*
G1X551316Y528548D1*
G1X529816Y528648D2*
G1X531316Y528648D1*
G1X534416Y528648D2*
G1X539216Y528648D1*
G1X542016Y528648D2*
G1X546816Y528648D1*
G1X549816Y528648D2*
G1X551316Y528648D1*
G1X529816Y528748D2*
G1X531416Y528748D1*
G1X534416Y528748D2*
G1X539216Y528748D1*
G1X542016Y528748D2*
G1X546816Y528748D1*
G1X549816Y528748D2*
G1X551416Y528748D1*
G1X529916Y528848D2*
G1X531416Y528848D1*
G1X534416Y528848D2*
G1X539316Y528848D1*
G1X542016Y528848D2*
G1X546916Y528848D1*
G1X549916Y528848D2*
G1X551416Y528848D1*
G1X529916Y528948D2*
G1X531416Y528948D1*
G1X534416Y528948D2*
G1X539416Y528948D1*
G1X542016Y528948D2*
G1X547016Y528948D1*
G1X549916Y528948D2*
G1X551416Y528948D1*
G1X530016Y529048D2*
G1X531416Y529048D1*
G1X534416Y529048D2*
G1X539416Y529048D1*
G1X542016Y529048D2*
G1X547016Y529048D1*
G1X549916Y529048D2*
G1X551416Y529048D1*
G1X530016Y529148D2*
G1X531516Y529148D1*
G1X534416Y529148D2*
G1X539516Y529148D1*
G1X542016Y529148D2*
G1X547116Y529148D1*
G1X550016Y529148D2*
G1X551416Y529148D1*
G1X530116Y529248D2*
G1X531516Y529248D1*
G1X534416Y529248D2*
G1X539516Y529248D1*
G1X542016Y529248D2*
G1X547116Y529248D1*
G1X550016Y529248D2*
G1X551416Y529248D1*
G1X530116Y529348D2*
G1X531516Y529348D1*
G1X534416Y529348D2*
G1X539616Y529348D1*
G1X542016Y529348D2*
G1X547216Y529348D1*
G1X550016Y529348D2*
G1X551416Y529348D1*
G1X530216Y529448D2*
G1X531516Y529448D1*
G1X534416Y529448D2*
G1X539616Y529448D1*
G1X542016Y529448D2*
G1X547216Y529448D1*
G1X550116Y529448D2*
G1X551416Y529448D1*
G1X530216Y529548D2*
G1X531616Y529548D1*
G1X534416Y529548D2*
G1X539716Y529548D1*
G1X542016Y529548D2*
G1X547316Y529548D1*
G1X550116Y529548D2*
G1X551416Y529548D1*
G1X530316Y529648D2*
G1X531616Y529648D1*
G1X534416Y529648D2*
G1X539716Y529648D1*
G1X542016Y529648D2*
G1X547316Y529648D1*
G1X550216Y529648D2*
G1X551416Y529648D1*
G1X530316Y529748D2*
G1X531616Y529748D1*
G1X534416Y529748D2*
G1X539816Y529748D1*
G1X542016Y529748D2*
G1X547416Y529748D1*
G1X550216Y529748D2*
G1X551416Y529748D1*
G1X530416Y529848D2*
G1X531616Y529848D1*
G1X534416Y529848D2*
G1X539816Y529848D1*
G1X542016Y529848D2*
G1X547416Y529848D1*
G1X550216Y529848D2*
G1X551416Y529848D1*
G1X530416Y529948D2*
G1X531616Y529948D1*
G1X534416Y529948D2*
G1X539916Y529948D1*
G1X542016Y529948D2*
G1X547516Y529948D1*
G1X550316Y529948D2*
G1X551416Y529948D1*
G1X530516Y530048D2*
G1X531616Y530048D1*
G1X534416Y530048D2*
G1X539916Y530048D1*
G1X542016Y530048D2*
G1X547516Y530048D1*
G1X550316Y530048D2*
G1X551416Y530048D1*
G1X530516Y530148D2*
G1X531616Y530148D1*
G1X534516Y530148D2*
G1X540016Y530148D1*
G1X542016Y530148D2*
G1X547616Y530148D1*
G1X550416Y530148D2*
G1X551416Y530148D1*
G1X530616Y530248D2*
G1X531616Y530248D1*
G1X534516Y530248D2*
G1X540016Y530248D1*
G1X542116Y530248D2*
G1X547616Y530248D1*
G1X550416Y530248D2*
G1X551416Y530248D1*
G1X530616Y530348D2*
G1X531616Y530348D1*
G1X534516Y530348D2*
G1X540016Y530348D1*
G1X542116Y530348D2*
G1X547616Y530348D1*
G1X550516Y530348D2*
G1X551416Y530348D1*
G1X530716Y530448D2*
G1X531716Y530448D1*
G1X534516Y530448D2*
G1X540116Y530448D1*
G1X542116Y530448D2*
G1X547616Y530448D1*
G1X550516Y530448D2*
G1X551416Y530448D1*
G1X530816Y530548D2*
G1X531716Y530548D1*
G1X534516Y530548D2*
G1X540116Y530548D1*
G1X542116Y530548D2*
G1X547716Y530548D1*
G1X550616Y530548D2*
G1X551416Y530548D1*
G1X530816Y530648D2*
G1X531716Y530648D1*
G1X534616Y530648D2*
G1X540116Y530648D1*
G1X542216Y530648D2*
G1X547716Y530648D1*
G1X550716Y530648D2*
G1X551416Y530648D1*
G1X530916Y530748D2*
G1X531716Y530748D1*
G1X534616Y530748D2*
G1X540216Y530748D1*
G1X542216Y530748D2*
G1X547716Y530748D1*
G1X550716Y530748D2*
G1X551316Y530748D1*
G1X531016Y530848D2*
G1X531716Y530848D1*
G1X534616Y530848D2*
G1X540216Y530848D1*
G1X542216Y530848D2*
G1X547816Y530848D1*
G1X550816Y530848D2*
G1X551316Y530848D1*
G1X531116Y530948D2*
G1X531716Y530948D1*
G1X534616Y530948D2*
G1X540216Y530948D1*
G1X542216Y530948D2*
G1X547816Y530948D1*
G1X550816Y530948D2*
G1X551316Y530948D1*
G1X531116Y531048D2*
G1X531716Y531048D1*
G1X534716Y531048D2*
G1X540316Y531048D1*
G1X542316Y531048D2*
G1X547816Y531048D1*
G1X550916Y531048D2*
G1X551316Y531048D1*
G1X531216Y531148D2*
G1X531716Y531148D1*
G1X534716Y531148D2*
G1X540316Y531148D1*
G1X542316Y531148D2*
G1X547816Y531148D1*
G1X550916Y531148D2*
G1X551316Y531148D1*
G1X531316Y531248D2*
G1X531616Y531248D1*
G1X534716Y531248D2*
G1X540316Y531248D1*
G1X542416Y531248D2*
G1X547916Y531248D1*
G1X551016Y531248D2*
G1X551316Y531248D1*
G1X531416Y531348D2*
G1X531616Y531348D1*
G1X534816Y531348D2*
G1X540316Y531348D1*
G1X542416Y531348D2*
G1X547916Y531348D1*
G1X551116Y531348D2*
G1X551216Y531348D1*
G1X531516Y531448D2*
G1X531616Y531448D1*
G1X534816Y531448D2*
G1X540316Y531448D1*
G1X542416Y531448D2*
G1X547916Y531448D1*
G1X534916Y531548D2*
G1X540316Y531548D1*
G1X542516Y531548D2*
G1X547916Y531548D1*
G1X534916Y531648D2*
G1X540316Y531648D1*
G1X542516Y531648D2*
G1X547916Y531648D1*
G1X535016Y531748D2*
G1X540316Y531748D1*
G1X542616Y531748D2*
G1X547916Y531748D1*
G1X535016Y531848D2*
G1X540316Y531848D1*
G1X542616Y531848D2*
G1X547916Y531848D1*
G1X535016Y531948D2*
G1X540316Y531948D1*
G1X542716Y531948D2*
G1X547916Y531948D1*
G1X535116Y532048D2*
G1X540316Y532048D1*
G1X542716Y532048D2*
G1X547916Y532048D1*
G1X535216Y532148D2*
G1X540316Y532148D1*
G1X542816Y532148D2*
G1X547916Y532148D1*
G1X535216Y532248D2*
G1X540316Y532248D1*
G1X542816Y532248D2*
G1X547916Y532248D1*
G1X535316Y532348D2*
G1X540316Y532348D1*
G1X542916Y532348D2*
G1X547916Y532348D1*
G1X535416Y532448D2*
G1X540316Y532448D1*
G1X543016Y532448D2*
G1X547916Y532448D1*
G1X535416Y532548D2*
G1X540316Y532548D1*
G1X543016Y532548D2*
G1X547916Y532548D1*
G1X535516Y532648D2*
G1X540316Y532648D1*
G1X543116Y532648D2*
G1X547916Y532648D1*
G1X535516Y532748D2*
G1X540316Y532748D1*
G1X543216Y532748D2*
G1X547816Y532748D1*
G1X535616Y532848D2*
G1X540316Y532848D1*
G1X543316Y532848D2*
G1X547816Y532848D1*
G1X535716Y532948D2*
G1X540316Y532948D1*
G1X543416Y532948D2*
G1X547816Y532948D1*
G1X535816Y533048D2*
G1X540216Y533048D1*
G1X543416Y533048D2*
G1X547816Y533048D1*
G1X535916Y533148D2*
G1X540216Y533148D1*
G1X543516Y533148D2*
G1X547716Y533148D1*
G1X536016Y533248D2*
G1X540216Y533248D1*
G1X543616Y533248D2*
G1X547716Y533248D1*
G1X536116Y533348D2*
G1X540116Y533348D1*
G1X543716Y533348D2*
G1X547716Y533348D1*
G1X536116Y533448D2*
G1X540116Y533448D1*
G1X543816Y533448D2*
G1X547616Y533448D1*
G1X536216Y533548D2*
G1X540116Y533548D1*
G1X543916Y533548D2*
G1X547616Y533548D1*
G1X536316Y533648D2*
G1X540016Y533648D1*
G1X544016Y533648D2*
G1X547516Y533648D1*
G1X536416Y533748D2*
G1X540016Y533748D1*
G1X544116Y533748D2*
G1X547516Y533748D1*
G1X536616Y533848D2*
G1X539916Y533848D1*
G1X544216Y533848D2*
G1X547416Y533848D1*
G1X536716Y533948D2*
G1X539816Y533948D1*
G1X544316Y533948D2*
G1X547416Y533948D1*
G1X536816Y534048D2*
G1X539816Y534048D1*
G1X544516Y534048D2*
G1X547316Y534048D1*
G1X536916Y534148D2*
G1X539716Y534148D1*
G1X544616Y534148D2*
G1X547216Y534148D1*
G1X537116Y534248D2*
G1X539616Y534248D1*
G1X544716Y534248D2*
G1X547116Y534248D1*
G1X537216Y534348D2*
G1X539516Y534348D1*
G1X544916Y534348D2*
G1X547116Y534348D1*
G1X537416Y534448D2*
G1X539416Y534448D1*
G1X545116Y534448D2*
G1X546916Y534448D1*
G1X537516Y534548D2*
G1X539316Y534548D1*
G1X545216Y534548D2*
G1X546816Y534548D1*
G1X537716Y534648D2*
G1X539216Y534648D1*
G1X545516Y534648D2*
G1X546716Y534648D1*
G1X538016Y534748D2*
G1X539016Y534748D1*
G1X545816Y534748D2*
G1X546416Y534748D1*
G1X538416Y534848D2*
G1X538616Y534848D1*
G1X539316Y535548D2*
G1X539416Y535548D1*
G1X545616Y535548D2*
G1X545816Y535548D1*
G1X546716Y535548D2*
G1X547016Y535548D1*
G1X538016Y535648D2*
G1X539516Y535648D1*
G1X545616Y535648D2*
G1X547116Y535648D1*
G1X538016Y535748D2*
G1X539516Y535748D1*
G1X545616Y535748D2*
G1X547116Y535748D1*
G1X538016Y535848D2*
G1X539616Y535848D1*
G1X545616Y535848D2*
G1X547216Y535848D1*
G1X538016Y535948D2*
G1X539616Y535948D1*
G1X545716Y535948D2*
G1X547216Y535948D1*
G1X538116Y536048D2*
G1X539616Y536048D1*
G1X545716Y536048D2*
G1X547216Y536048D1*
G1X538116Y536148D2*
G1X539616Y536148D1*
G1X545716Y536148D2*
G1X547216Y536148D1*
G1X538116Y536248D2*
G1X539716Y536248D1*
G1X545716Y536248D2*
G1X547216Y536248D1*
G1X538216Y536348D2*
G1X539716Y536348D1*
G1X545816Y536348D2*
G1X547316Y536348D1*
G1X538216Y536448D2*
G1X539716Y536448D1*
G1X545816Y536448D2*
G1X547316Y536448D1*
G1X538216Y536548D2*
G1X539716Y536548D1*
G1X545916Y536548D2*
G1X547316Y536548D1*
G1X538316Y536648D2*
G1X539716Y536648D1*
G1X545916Y536648D2*
G1X547316Y536648D1*
G1X538316Y536748D2*
G1X539816Y536748D1*
G1X545916Y536748D2*
G1X547416Y536748D1*
G1X538416Y536848D2*
G1X539816Y536848D1*
G1X546016Y536848D2*
G1X547416Y536848D1*
G1X538416Y536948D2*
G1X539816Y536948D1*
G1X546016Y536948D2*
G1X547416Y536948D1*
G1X538516Y537048D2*
G1X539816Y537048D1*
G1X546116Y537048D2*
G1X547416Y537048D1*
G1X538516Y537148D2*
G1X539816Y537148D1*
G1X546116Y537148D2*
G1X547416Y537148D1*
G1X538516Y537248D2*
G1X539816Y537248D1*
G1X546216Y537248D2*
G1X547416Y537248D1*
G1X538616Y537348D2*
G1X539816Y537348D1*
G1X546216Y537348D2*
G1X547416Y537348D1*
G1X538616Y537448D2*
G1X539816Y537448D1*
G1X546316Y537448D2*
G1X547416Y537448D1*
G1X538716Y537548D2*
G1X539816Y537548D1*
G1X546316Y537548D2*
G1X547416Y537548D1*
G1X538716Y537648D2*
G1X539816Y537648D1*
G1X546416Y537648D2*
G1X547416Y537648D1*
G1X538816Y537748D2*
G1X539816Y537748D1*
G1X546416Y537748D2*
G1X547416Y537748D1*
G1X538816Y537848D2*
G1X539816Y537848D1*
G1X546516Y537848D2*
G1X547416Y537848D1*
G1X538916Y537948D2*
G1X539816Y537948D1*
G1X546516Y537948D2*
G1X547416Y537948D1*
G1X539016Y538048D2*
G1X539816Y538048D1*
G1X546616Y538048D2*
G1X547416Y538048D1*
G1X539016Y538148D2*
G1X539816Y538148D1*
G1X546716Y538148D2*
G1X547416Y538148D1*
G1X539116Y538248D2*
G1X539816Y538248D1*
G1X546716Y538248D2*
G1X547416Y538248D1*
G1X539216Y538348D2*
G1X539816Y538348D1*
G1X546816Y538348D2*
G1X547416Y538348D1*
G1X539216Y538448D2*
G1X539816Y538448D1*
G1X546916Y538448D2*
G1X547416Y538448D1*
G1X539316Y538548D2*
G1X539816Y538548D1*
G1X546916Y538548D2*
G1X547416Y538548D1*
G1X539416Y538648D2*
G1X539816Y538648D1*
G1X547016Y538648D2*
G1X547416Y538648D1*
G1X539416Y538748D2*
G1X539816Y538748D1*
G1X547116Y538748D2*
G1X547316Y538748D1*
G1X539516Y538848D2*
G1X539816Y538848D1*
G1X547116Y538848D2*
G1X547316Y538848D1*
G1X539616Y538948D2*
G1X539716Y538948D1*
G1X100000Y587500D2*
G1X100003Y587500D1*
G1X575000Y587500D2*
G1X575003Y587500D1*
G1X100000Y350000D2*
G1X100003Y350000D1*
G1X100000Y587500D2*
G1X100003Y587500D1*
G1X513049Y409313D2*
G54D11*
G1X513049Y402750D1*
G1X513049Y409313D2*
G1X515094Y409313D1*
G1X515776Y409000D1*
G1X516003Y408688D1*
G1X516231Y408063D1*
G1X516231Y407438D1*
G1X516003Y406813D1*
G1X515776Y406500D1*
G1X515094Y406188D1*
G1X513049Y406188D2*
G1X515094Y406188D1*
G1X515776Y405875D1*
G1X516003Y405563D1*
G1X516231Y404938D1*
G1X516231Y404000D1*
G1X516003Y403375D1*
G1X515776Y403063D1*
G1X515094Y402750D1*
G1X513049Y402750D1*
G1X518276Y405250D2*
G1X521003Y405250D1*
G1X521003Y405875D1*
G1X520776Y406500D1*
G1X520549Y406813D1*
G1X520094Y407125D1*
G1X519412Y407125D1*
G1X518958Y406813D1*
G1X518503Y406188D1*
G1X518276Y405250D1*
G1X518276Y404625D1*
G1X518503Y403688D1*
G1X518958Y403063D1*
G1X519412Y402750D1*
G1X520094Y402750D1*
G1X520549Y403063D1*
G1X521003Y403688D1*
G1X523049Y407125D2*
G1X523049Y402750D1*
G1X523049Y405875D2*
G1X523731Y406813D1*
G1X524185Y407125D1*
G1X524867Y407125D1*
G1X525321Y406813D1*
G1X525549Y405875D1*
G1X525549Y402750D1*
G1X532821Y409313D2*
G1X532821Y402750D1*
G1X532821Y409313D2*
G1X534867Y409313D1*
G1X535549Y409000D1*
G1X535776Y408688D1*
G1X536003Y408063D1*
G1X536003Y407438D1*
G1X535776Y406813D1*
G1X535549Y406500D1*
G1X534867Y406188D1*
G1X532821Y406188D1*
G1X534412Y406188D2*
G1X536003Y402750D1*
G1X538049Y409313D2*
G1X538276Y409000D1*
G1X538503Y409313D1*
G1X538276Y409625D1*
G1X538049Y409313D1*
G1X538276Y407125D2*
G1X538276Y402750D1*
G1X543276Y406188D2*
G1X542821Y406813D1*
G1X542367Y407125D1*
G1X541685Y407125D1*
G1X541231Y406813D1*
G1X540776Y406188D1*
G1X540549Y405250D1*
G1X540549Y404625D1*
G1X540776Y403688D1*
G1X541231Y403063D1*
G1X541685Y402750D1*
G1X542367Y402750D1*
G1X542821Y403063D1*
G1X543276Y403688D1*
G1X545321Y409313D2*
G1X545321Y402750D1*
G1X545321Y405875D2*
G1X546003Y406813D1*
G1X546458Y407125D1*
G1X547140Y407125D1*
G1X547594Y406813D1*
G1X547821Y405875D1*
G1X547821Y402750D1*
G1X552594Y407125D2*
G1X552594Y402750D1*
G1X552594Y406188D2*
G1X552140Y406813D1*
G1X551685Y407125D1*
G1X551003Y407125D1*
G1X550549Y406813D1*
G1X550094Y406188D1*
G1X549867Y405250D1*
G1X549867Y404625D1*
G1X550094Y403688D1*
G1X550549Y403063D1*
G1X551003Y402750D1*
G1X551685Y402750D1*
G1X552140Y403063D1*
G1X552594Y403688D1*
G1X554640Y407125D2*
G1X554640Y402750D1*
G1X554640Y405250D2*
G1X554867Y406188D1*
G1X555321Y406813D1*
G1X555776Y407125D1*
G1X556458Y407125D1*
G1X561231Y409313D2*
G1X561231Y402750D1*
G1X561231Y406188D2*
G1X560776Y406813D1*
G1X560321Y407125D1*
G1X559640Y407125D1*
G1X559185Y406813D1*
G1X558731Y406188D1*
G1X558503Y405250D1*
G1X558503Y404625D1*
G1X558731Y403688D1*
G1X559185Y403063D1*
G1X559640Y402750D1*
G1X560321Y402750D1*
G1X560776Y403063D1*
G1X561231Y403688D1*
G1X565776Y406188D2*
G1X565549Y406813D1*
G1X564867Y407125D1*
G1X564185Y407125D1*
G1X563503Y406813D1*
G1X563276Y406188D1*
G1X563503Y405563D1*
G1X563958Y405250D1*
G1X565094Y404938D1*
G1X565549Y404625D1*
G1X565776Y404000D1*
G1X565776Y403688D1*
G1X565549Y403063D1*
G1X564867Y402750D1*
G1X564185Y402750D1*
G1X563503Y403063D1*
G1X563276Y403688D1*
G1X181500Y535000D2*
G1X189500Y535000D1*
G1X185500Y531000D2*
G1X185500Y539000D1*
G1X181500Y402500D2*
G1X189500Y402500D1*
G1X185500Y398500D2*
G1X185500Y406500D1*
G1X485500Y535000D2*
G1X493500Y535000D1*
G1X489500Y531000D2*
G1X489500Y539000D1*
G1X485500Y402500D2*
G1X493500Y402500D1*
G1X489500Y398500D2*
G1X489500Y406500D1*
G1X367870Y414750D2*
G1X375870Y422750D1*
G1X367870Y422750D2*
G1X375870Y414750D1*
G1X367986Y514750D2*
G1X375986Y522750D1*
G1X367986Y522750D2*
G1X375986Y514750D1*
G1X205214Y558866D2*
G1X213214Y558866D1*
G1X213214Y566866D1*
G1X205214Y566866D1*
G1X205214Y558866D1*
G1X209214Y562866D2*
G1X209214Y566866D1*
G1X215214Y558866D2*
G1X223214Y558866D1*
G1X223214Y566866D1*
G1X215214Y566866D1*
G1X215214Y558866D1*
G1X219214Y562866D2*
G1X219214Y566866D1*
G1X225214Y558866D2*
G1X233214Y558866D1*
G1X233214Y566866D1*
G1X225214Y566866D1*
G1X225214Y558866D1*
G1X229214Y562866D2*
G1X229214Y566866D1*
G1X235214Y558866D2*
G1X243214Y558866D1*
G1X243214Y566866D1*
G1X235214Y566866D1*
G1X235214Y558866D1*
G1X239214Y562866D2*
G1X239214Y566866D1*
G1X245214Y558866D2*
G1X253214Y558866D1*
G1X253214Y566866D1*
G1X245214Y566866D1*
G1X245214Y558866D1*
G1X249214Y562866D2*
G1X249214Y566866D1*
G1X255214Y558866D2*
G1X263214Y558866D1*
G1X263214Y566866D1*
G1X255214Y566866D1*
G1X255214Y558866D1*
G1X259214Y562866D2*
G1X259214Y566866D1*
G1X510000Y563500D2*
G1X518000Y563500D1*
G1X518000Y571500D1*
G1X510000Y571500D1*
G1X510000Y563500D1*
G1X514000Y567500D2*
G1X514000Y571500D1*
G1X520000Y563500D2*
G1X528000Y563500D1*
G1X528000Y571500D1*
G1X520000Y571500D1*
G1X520000Y563500D1*
G1X524000Y567500D2*
G1X524000Y571500D1*
G1X530000Y563500D2*
G1X538000Y563500D1*
G1X538000Y571500D1*
G1X530000Y571500D1*
G1X530000Y563500D1*
G1X534000Y567500D2*
G1X534000Y571500D1*
G1X540000Y563500D2*
G1X548000Y563500D1*
G1X548000Y571500D1*
G1X540000Y571500D1*
G1X540000Y563500D1*
G1X544000Y567500D2*
G1X544000Y571500D1*
G1X550000Y563500D2*
G1X558000Y563500D1*
G1X558000Y571500D1*
G1X550000Y571500D1*
G1X550000Y563500D1*
G1X554000Y567500D2*
G1X554000Y571500D1*
G1X560000Y563500D2*
G1X568000Y563500D1*
G1X568000Y571500D1*
G1X560000Y571500D1*
G1X560000Y563500D1*
G1X564000Y567500D2*
G1X564000Y571500D1*
G1X510000Y368500D2*
G1X518000Y368500D1*
G1X518000Y376500D1*
G1X510000Y376500D1*
G1X510000Y368500D1*
G1X514000Y372500D2*
G1X514000Y376500D1*
G1X520000Y368500D2*
G1X528000Y368500D1*
G1X528000Y376500D1*
G1X520000Y376500D1*
G1X520000Y368500D1*
G1X524000Y372500D2*
G1X524000Y376500D1*
G1X530000Y368500D2*
G1X538000Y368500D1*
G1X538000Y376500D1*
G1X530000Y376500D1*
G1X530000Y368500D1*
G1X534000Y372500D2*
G1X534000Y376500D1*
G1X540000Y368500D2*
G1X548000Y368500D1*
G1X548000Y376500D1*
G1X540000Y376500D1*
G1X540000Y368500D1*
G1X544000Y372500D2*
G1X544000Y376500D1*
G1X550000Y368500D2*
G1X558000Y368500D1*
G1X558000Y376500D1*
G1X550000Y376500D1*
G1X550000Y368500D1*
G1X554000Y372500D2*
G1X554000Y376500D1*
G1X560000Y368500D2*
G1X568000Y368500D1*
G1X568000Y376500D1*
G1X560000Y376500D1*
G1X560000Y368500D1*
G1X564000Y372500D2*
G1X564000Y376500D1*
G1X357000Y474750D2*
G1X361000Y478750D1*
G1X357000Y482750D1*
G1X353000Y478750D1*
G1X357000Y474750D1*
G1X357000Y478750D2*
G1X357000Y482750D1*
G1X357000Y464750D2*
G1X361000Y468750D1*
G1X357000Y472750D1*
G1X353000Y468750D1*
G1X357000Y464750D1*
G1X357000Y468750D2*
G1X357000Y472750D1*
G1X357000Y454750D2*
G1X361000Y458750D1*
G1X357000Y462750D1*
G1X353000Y458750D1*
G1X357000Y454750D1*
G1X357000Y458750D2*
G1X357000Y462750D1*
G1X387048Y454800D2*
G1X391048Y458800D1*
G1X387048Y462800D1*
G1X383048Y458800D1*
G1X387048Y454800D1*
G1X387048Y458800D2*
G1X387048Y462800D1*
G1X387048Y474800D2*
G1X391048Y478800D1*
G1X387048Y482800D1*
G1X383048Y478800D1*
G1X387048Y474800D1*
G1X387048Y478800D2*
G1X387048Y482800D1*
G1X123731Y373491D2*
G1X131731Y373491D1*
G1X123731Y381491D1*
G1X131731Y381491D1*
G1X123731Y373491D1*
G1X136696Y365672D2*
G1X144696Y365672D1*
G1X136696Y373672D1*
G1X144696Y373672D1*
G1X136696Y365672D1*
G1X303105Y369276D2*
G1X311105Y369276D1*
G1X303105Y377276D1*
G1X311105Y377276D1*
G1X303105Y369276D1*
G1X311054Y373233D2*
G1X319054Y373233D1*
G1X311054Y381233D1*
G1X319054Y381233D1*
G1X311054Y373233D1*
G1X156862Y409418D2*
G1X164862Y409418D1*
G1X156862Y417418D1*
G1X164862Y417418D1*
G1X156862Y409418D1*
G1X227058Y402650D2*
G1X235058Y402650D1*
G1X227058Y410650D1*
G1X235058Y410650D1*
G1X227058Y402650D1*
G1X123731Y419992D2*
G1X131731Y419992D1*
G1X123731Y427992D1*
G1X131731Y427992D1*
G1X123731Y419992D1*
G1X163931Y424666D2*
G1X171931Y424666D1*
G1X163931Y432666D1*
G1X171931Y432666D1*
G1X163931Y424666D1*
G1X296539Y429004D2*
G1X304539Y429004D1*
G1X296539Y437004D1*
G1X304539Y437004D1*
G1X296539Y429004D1*
G1X172384Y444326D2*
G1X180384Y444326D1*
G1X172384Y452326D1*
G1X180384Y452326D1*
G1X172384Y444326D1*
G1X258300Y448852D2*
G1X266300Y448852D1*
G1X258300Y456852D1*
G1X266300Y456852D1*
G1X258300Y448852D1*
G1X303105Y454164D2*
G1X311105Y454164D1*
G1X303105Y462164D1*
G1X311105Y462164D1*
G1X303105Y454164D1*
G1X539910Y456251D2*
G1X547910Y456251D1*
G1X539910Y464251D1*
G1X547910Y464251D1*
G1X539910Y456251D1*
G1X156574Y464573D2*
G1X164574Y464573D1*
G1X156574Y472573D1*
G1X164574Y472573D1*
G1X156574Y464573D1*
G1X180628Y463390D2*
G1X188628Y463390D1*
G1X180628Y471390D1*
G1X188628Y471390D1*
G1X180628Y463390D1*
G1X211345Y469494D2*
G1X219345Y469494D1*
G1X211345Y477494D1*
G1X219345Y477494D1*
G1X211345Y469494D1*
G1X238024Y474769D2*
G1X246024Y474769D1*
G1X238024Y482769D1*
G1X246024Y482769D1*
G1X238024Y474769D1*
G1X251697Y465656D2*
G1X259697Y465656D1*
G1X251697Y473656D1*
G1X259697Y473656D1*
G1X251697Y465656D1*
G1X258300Y474769D2*
G1X266300Y474769D1*
G1X258300Y482769D1*
G1X266300Y482769D1*
G1X258300Y474769D1*
G1X311054Y474832D2*
G1X319054Y474832D1*
G1X311054Y482832D1*
G1X319054Y482832D1*
G1X311054Y474832D1*
G1X475111Y461251D2*
G1X483111Y461251D1*
G1X475111Y469251D1*
G1X483111Y469251D1*
G1X475111Y461251D1*
G1X480759Y466251D2*
G1X488759Y466251D1*
G1X480759Y474251D1*
G1X488759Y474251D1*
G1X480759Y466251D1*
G1X480759Y475863D2*
G1X488759Y475863D1*
G1X480759Y483863D1*
G1X488759Y483863D1*
G1X480759Y475863D1*
G1X519992Y466251D2*
G1X527992Y466251D1*
G1X519992Y474251D1*
G1X527992Y474251D1*
G1X519992Y466251D1*
G1X529998Y471251D2*
G1X537998Y471251D1*
G1X529998Y479251D1*
G1X537998Y479251D1*
G1X529998Y471251D1*
G1X549906Y461251D2*
G1X557906Y461251D1*
G1X549906Y469251D1*
G1X557906Y469251D1*
G1X549906Y461251D1*
G1X136696Y484552D2*
G1X144696Y484552D1*
G1X136696Y492552D1*
G1X144696Y492552D1*
G1X136696Y484552D1*
G1X197768Y490636D2*
G1X205768Y490636D1*
G1X197768Y498636D1*
G1X205768Y498636D1*
G1X197768Y490636D1*
G1X228497Y479494D2*
G1X236497Y479494D1*
G1X228497Y487494D1*
G1X236497Y487494D1*
G1X228497Y479494D1*
G1X256759Y486744D2*
G1X264759Y486744D1*
G1X256759Y494744D1*
G1X264759Y494744D1*
G1X256759Y486744D1*
G1X266759Y479494D2*
G1X274759Y479494D1*
G1X266759Y487494D1*
G1X274759Y487494D1*
G1X266759Y479494D1*
G1X271738Y490636D2*
G1X279738Y490636D1*
G1X271738Y498636D1*
G1X279738Y498636D1*
G1X271738Y490636D1*
G1X280881Y486744D2*
G1X288881Y486744D1*
G1X280881Y494744D1*
G1X288881Y494744D1*
G1X280881Y486744D1*
G1X225214Y508058D2*
G1X233214Y508058D1*
G1X225214Y516058D1*
G1X233214Y516058D1*
G1X225214Y508058D1*
G1X251730Y508040D2*
G1X259730Y508040D1*
G1X251730Y516040D1*
G1X259730Y516040D1*
G1X251730Y508040D1*
G1X266965Y508040D2*
G1X274965Y508040D1*
G1X266965Y516040D1*
G1X274965Y516040D1*
G1X266965Y508040D1*
G1X290449Y503834D2*
G1X298449Y503834D1*
G1X290449Y511834D1*
G1X298449Y511834D1*
G1X290449Y503834D1*
G1X459299Y497322D2*
G1X467299Y497322D1*
G1X459299Y505322D1*
G1X467299Y505322D1*
G1X459299Y497322D1*
G1X251673Y517040D2*
G1X259673Y517040D1*
G1X251673Y525040D1*
G1X259673Y525040D1*
G1X251673Y517040D1*
G1X267080Y517040D2*
G1X275080Y517040D1*
G1X267080Y525040D1*
G1X275080Y525040D1*
G1X267080Y517040D1*
G1X156594Y554008D2*
G1X164594Y554008D1*
G1X156594Y562008D1*
G1X164594Y562008D1*
G1X156594Y554008D1*
G1X225214Y540251D2*
G1X233214Y540251D1*
G1X225214Y548251D1*
G1X233214Y548251D1*
G1X225214Y540251D1*
G1X1030516Y261648D2*
G54D10*
G1X1031816Y261648D1*
G1X1019816Y261748D2*
G1X1021216Y261748D1*
G1X1030216Y261748D2*
G1X1032216Y261748D1*
G1X1019516Y261848D2*
G1X1021616Y261848D1*
G1X1025416Y261848D2*
G1X1026416Y261848D1*
G1X1030016Y261848D2*
G1X1032416Y261848D1*
G1X1019316Y261948D2*
G1X1021916Y261948D1*
G1X1025216Y261948D2*
G1X1026716Y261948D1*
G1X1029816Y261948D2*
G1X1032716Y261948D1*
G1X1019216Y262048D2*
G1X1022116Y262048D1*
G1X1025016Y262048D2*
G1X1026816Y262048D1*
G1X1029716Y262048D2*
G1X1032916Y262048D1*
G1X1019016Y262148D2*
G1X1022316Y262148D1*
G1X1024916Y262148D2*
G1X1027016Y262148D1*
G1X1029616Y262148D2*
G1X1033016Y262148D1*
G1X1018916Y262248D2*
G1X1022416Y262248D1*
G1X1024816Y262248D2*
G1X1027216Y262248D1*
G1X1029416Y262248D2*
G1X1033216Y262248D1*
G1X1018816Y262348D2*
G1X1022716Y262348D1*
G1X1024716Y262348D2*
G1X1027316Y262348D1*
G1X1029316Y262348D2*
G1X1033316Y262348D1*
G1X1018816Y262448D2*
G1X1022916Y262448D1*
G1X1024616Y262448D2*
G1X1027516Y262448D1*
G1X1029116Y262448D2*
G1X1033416Y262448D1*
G1X1018716Y262548D2*
G1X1023216Y262548D1*
G1X1024416Y262548D2*
G1X1027816Y262548D1*
G1X1028816Y262548D2*
G1X1033516Y262548D1*
G1X1018716Y262648D2*
G1X1023616Y262648D1*
G1X1024016Y262648D2*
G1X1033616Y262648D1*
G1X1018616Y262748D2*
G1X1033716Y262748D1*
G1X1018616Y262848D2*
G1X1033816Y262848D1*
G1X1018516Y262948D2*
G1X1033916Y262948D1*
G1X1018516Y263048D2*
G1X1034016Y263048D1*
G1X1018516Y263148D2*
G1X1034116Y263148D1*
G1X1018516Y263248D2*
G1X1034116Y263248D1*
G1X1018416Y263348D2*
G1X1034216Y263348D1*
G1X1018416Y263448D2*
G1X1034316Y263448D1*
G1X1018416Y263548D2*
G1X1034316Y263548D1*
G1X1018416Y263648D2*
G1X1034416Y263648D1*
G1X1018416Y263748D2*
G1X1034416Y263748D1*
G1X1018416Y263848D2*
G1X1034516Y263848D1*
G1X1018416Y263948D2*
G1X1034516Y263948D1*
G1X1018416Y264048D2*
G1X1034516Y264048D1*
G1X1018516Y264148D2*
G1X1034616Y264148D1*
G1X1018516Y264248D2*
G1X1034616Y264248D1*
G1X1018516Y264348D2*
G1X1034616Y264348D1*
G1X1018516Y264448D2*
G1X1034616Y264448D1*
G1X1018616Y264548D2*
G1X1034716Y264548D1*
G1X1018616Y264648D2*
G1X1034716Y264648D1*
G1X1018616Y264748D2*
G1X1034716Y264748D1*
G1X1018716Y264848D2*
G1X1034716Y264848D1*
G1X1018716Y264948D2*
G1X1034716Y264948D1*
G1X1018716Y265048D2*
G1X1034816Y265048D1*
G1X1018816Y265148D2*
G1X1034816Y265148D1*
G1X1018816Y265248D2*
G1X1034816Y265248D1*
G1X1018916Y265348D2*
G1X1034816Y265348D1*
G1X1018916Y265448D2*
G1X1034816Y265448D1*
G1X1019016Y265548D2*
G1X1034816Y265548D1*
G1X1019116Y265648D2*
G1X1034816Y265648D1*
G1X1019116Y265748D2*
G1X1034816Y265748D1*
G1X1019216Y265848D2*
G1X1034716Y265848D1*
G1X1019316Y265948D2*
G1X1034716Y265948D1*
G1X1019316Y266048D2*
G1X1034716Y266048D1*
G1X1019416Y266148D2*
G1X1034716Y266148D1*
G1X1019516Y266248D2*
G1X1034716Y266248D1*
G1X1019616Y266348D2*
G1X1034616Y266348D1*
G1X1019716Y266448D2*
G1X1034616Y266448D1*
G1X1019816Y266548D2*
G1X1034516Y266548D1*
G1X1019916Y266648D2*
G1X1034516Y266648D1*
G1X1020016Y266748D2*
G1X1034516Y266748D1*
G1X1020116Y266848D2*
G1X1034416Y266848D1*
G1X1020216Y266948D2*
G1X1034416Y266948D1*
G1X1020316Y267048D2*
G1X1034316Y267048D1*
G1X1020416Y267148D2*
G1X1034316Y267148D1*
G1X1020516Y267248D2*
G1X1034216Y267248D1*
G1X1020616Y267348D2*
G1X1034116Y267348D1*
G1X1020716Y267448D2*
G1X1034116Y267448D1*
G1X1020816Y267548D2*
G1X1034016Y267548D1*
G1X1021016Y267648D2*
G1X1033916Y267648D1*
G1X1021116Y267748D2*
G1X1033916Y267748D1*
G1X1021316Y267848D2*
G1X1033816Y267848D1*
G1X1021416Y267948D2*
G1X1033716Y267948D1*
G1X1021516Y268048D2*
G1X1033716Y268048D1*
G1X1021616Y268148D2*
G1X1033616Y268148D1*
G1X1021816Y268248D2*
G1X1033516Y268248D1*
G1X1021916Y268348D2*
G1X1033516Y268348D1*
G1X1022016Y268448D2*
G1X1033416Y268448D1*
G1X1022116Y268548D2*
G1X1033416Y268548D1*
G1X1022216Y268648D2*
G1X1033316Y268648D1*
G1X1022316Y268748D2*
G1X1033316Y268748D1*
G1X1022416Y268848D2*
G1X1033216Y268848D1*
G1X1022516Y268948D2*
G1X1033216Y268948D1*
G1X1022616Y269048D2*
G1X1033116Y269048D1*
G1X1022716Y269148D2*
G1X1033116Y269148D1*
G1X1022816Y269248D2*
G1X1033116Y269248D1*
G1X1022916Y269348D2*
G1X1033016Y269348D1*
G1X1023016Y269448D2*
G1X1033016Y269448D1*
G1X1023116Y269548D2*
G1X1033016Y269548D1*
G1X1036116Y269548D2*
G1X1037016Y269548D1*
G1X1019616Y269648D2*
G1X1019716Y269648D1*
G1X1023216Y269648D2*
G1X1033016Y269648D1*
G1X1035816Y269648D2*
G1X1037416Y269648D1*
G1X1018916Y269748D2*
G1X1020316Y269748D1*
G1X1023216Y269748D2*
G1X1032916Y269748D1*
G1X1035616Y269748D2*
G1X1037716Y269748D1*
G1X1018616Y269848D2*
G1X1020616Y269848D1*
G1X1023316Y269848D2*
G1X1032916Y269848D1*
G1X1035416Y269848D2*
G1X1037916Y269848D1*
G1X1018416Y269948D2*
G1X1020816Y269948D1*
G1X1023416Y269948D2*
G1X1032916Y269948D1*
G1X1035316Y269948D2*
G1X1038116Y269948D1*
G1X1018216Y270048D2*
G1X1021016Y270048D1*
G1X1023416Y270048D2*
G1X1032916Y270048D1*
G1X1035216Y270048D2*
G1X1038316Y270048D1*
G1X1018116Y270148D2*
G1X1021116Y270148D1*
G1X1023516Y270148D2*
G1X1032916Y270148D1*
G1X1035216Y270148D2*
G1X1038516Y270148D1*
G1X1018016Y270248D2*
G1X1021316Y270248D1*
G1X1023516Y270248D2*
G1X1032916Y270248D1*
G1X1035116Y270248D2*
G1X1038716Y270248D1*
G1X1017916Y270348D2*
G1X1021416Y270348D1*
G1X1023616Y270348D2*
G1X1032916Y270348D1*
G1X1035116Y270348D2*
G1X1038816Y270348D1*
G1X1017816Y270448D2*
G1X1021516Y270448D1*
G1X1023616Y270448D2*
G1X1032916Y270448D1*
G1X1035016Y270448D2*
G1X1039016Y270448D1*
G1X1017716Y270548D2*
G1X1021616Y270548D1*
G1X1023716Y270548D2*
G1X1032916Y270548D1*
G1X1035016Y270548D2*
G1X1039116Y270548D1*
G1X1017616Y270648D2*
G1X1021716Y270648D1*
G1X1023716Y270648D2*
G1X1033016Y270648D1*
G1X1035016Y270648D2*
G1X1039216Y270648D1*
G1X1017516Y270748D2*
G1X1021816Y270748D1*
G1X1023816Y270748D2*
G1X1033016Y270748D1*
G1X1034916Y270748D2*
G1X1039416Y270748D1*
G1X1017416Y270848D2*
G1X1021816Y270848D1*
G1X1023816Y270848D2*
G1X1033016Y270848D1*
G1X1034916Y270848D2*
G1X1039516Y270848D1*
G1X1017416Y270948D2*
G1X1021916Y270948D1*
G1X1023916Y270948D2*
G1X1033016Y270948D1*
G1X1034916Y270948D2*
G1X1039616Y270948D1*
G1X1017316Y271048D2*
G1X1022016Y271048D1*
G1X1023916Y271048D2*
G1X1033016Y271048D1*
G1X1034916Y271048D2*
G1X1039716Y271048D1*
G1X1017316Y271148D2*
G1X1022116Y271148D1*
G1X1023916Y271148D2*
G1X1033116Y271148D1*
G1X1034916Y271148D2*
G1X1039816Y271148D1*
G1X1017216Y271248D2*
G1X1022116Y271248D1*
G1X1023916Y271248D2*
G1X1033116Y271248D1*
G1X1034916Y271248D2*
G1X1039916Y271248D1*
G1X1017216Y271348D2*
G1X1022216Y271348D1*
G1X1024016Y271348D2*
G1X1033116Y271348D1*
G1X1034916Y271348D2*
G1X1040016Y271348D1*
G1X1017116Y271448D2*
G1X1022216Y271448D1*
G1X1024016Y271448D2*
G1X1033116Y271448D1*
G1X1034916Y271448D2*
G1X1040116Y271448D1*
G1X1017116Y271548D2*
G1X1022316Y271548D1*
G1X1024116Y271548D2*
G1X1033116Y271548D1*
G1X1034916Y271548D2*
G1X1040216Y271548D1*
G1X1017016Y271648D2*
G1X1022316Y271648D1*
G1X1024116Y271648D2*
G1X1033216Y271648D1*
G1X1034916Y271648D2*
G1X1040316Y271648D1*
G1X1017016Y271748D2*
G1X1022416Y271748D1*
G1X1024116Y271748D2*
G1X1033216Y271748D1*
G1X1034916Y271748D2*
G1X1040416Y271748D1*
G1X1017016Y271848D2*
G1X1022416Y271848D1*
G1X1024216Y271848D2*
G1X1033216Y271848D1*
G1X1035016Y271848D2*
G1X1040516Y271848D1*
G1X1016916Y271948D2*
G1X1022416Y271948D1*
G1X1024216Y271948D2*
G1X1033216Y271948D1*
G1X1035016Y271948D2*
G1X1040616Y271948D1*
G1X1016916Y272048D2*
G1X1022516Y272048D1*
G1X1024316Y272048D2*
G1X1033216Y272048D1*
G1X1035016Y272048D2*
G1X1040616Y272048D1*
G1X1016916Y272148D2*
G1X1022516Y272148D1*
G1X1024416Y272148D2*
G1X1033216Y272148D1*
G1X1035016Y272148D2*
G1X1040716Y272148D1*
G1X1016916Y272248D2*
G1X1022516Y272248D1*
G1X1024416Y272248D2*
G1X1033116Y272248D1*
G1X1035116Y272248D2*
G1X1040816Y272248D1*
G1X1016816Y272348D2*
G1X1022516Y272348D1*
G1X1024516Y272348D2*
G1X1033116Y272348D1*
G1X1035116Y272348D2*
G1X1040916Y272348D1*
G1X1016816Y272448D2*
G1X1022616Y272448D1*
G1X1024616Y272448D2*
G1X1033116Y272448D1*
G1X1035116Y272448D2*
G1X1040916Y272448D1*
G1X1016816Y272548D2*
G1X1022616Y272548D1*
G1X1024716Y272548D2*
G1X1033016Y272548D1*
G1X1035216Y272548D2*
G1X1041016Y272548D1*
G1X1016816Y272648D2*
G1X1022616Y272648D1*
G1X1024816Y272648D2*
G1X1033016Y272648D1*
G1X1035216Y272648D2*
G1X1041116Y272648D1*
G1X1016816Y272748D2*
G1X1022616Y272748D1*
G1X1024916Y272748D2*
G1X1033016Y272748D1*
G1X1035316Y272748D2*
G1X1041116Y272748D1*
G1X1016816Y272848D2*
G1X1022716Y272848D1*
G1X1025016Y272848D2*
G1X1028716Y272848D1*
G1X1029316Y272848D2*
G1X1032916Y272848D1*
G1X1035316Y272848D2*
G1X1041216Y272848D1*
G1X1016816Y272948D2*
G1X1022716Y272948D1*
G1X1025116Y272948D2*
G1X1028416Y272948D1*
G1X1029616Y272948D2*
G1X1032916Y272948D1*
G1X1035316Y272948D2*
G1X1041216Y272948D1*
G1X1016816Y273048D2*
G1X1022716Y273048D1*
G1X1025216Y273048D2*
G1X1028216Y273048D1*
G1X1029816Y273048D2*
G1X1032816Y273048D1*
G1X1035416Y273048D2*
G1X1041316Y273048D1*
G1X1016816Y273148D2*
G1X1022716Y273148D1*
G1X1025416Y273148D2*
G1X1028116Y273148D1*
G1X1030116Y273148D2*
G1X1032716Y273148D1*
G1X1035516Y273148D2*
G1X1041316Y273148D1*
G1X1016816Y273248D2*
G1X1022716Y273248D1*
G1X1025516Y273248D2*
G1X1028016Y273248D1*
G1X1030216Y273248D2*
G1X1032616Y273248D1*
G1X1035516Y273248D2*
G1X1041416Y273248D1*
G1X1016816Y273348D2*
G1X1022716Y273348D1*
G1X1025716Y273348D2*
G1X1027816Y273348D1*
G1X1030416Y273348D2*
G1X1032516Y273348D1*
G1X1035616Y273348D2*
G1X1041416Y273348D1*
G1X1016816Y273448D2*
G1X1022716Y273448D1*
G1X1025916Y273448D2*
G1X1027716Y273448D1*
G1X1030716Y273448D2*
G1X1032216Y273448D1*
G1X1035616Y273448D2*
G1X1041516Y273448D1*
G1X1016816Y273548D2*
G1X1022716Y273548D1*
G1X1026216Y273548D2*
G1X1027516Y273548D1*
G1X1031016Y273548D2*
G1X1032116Y273548D1*
G1X1035716Y273548D2*
G1X1041516Y273548D1*
G1X1016816Y273648D2*
G1X1022716Y273648D1*
G1X1026516Y273648D2*
G1X1027016Y273648D1*
G1X1035716Y273648D2*
G1X1041516Y273648D1*
G1X1016916Y273748D2*
G1X1022716Y273748D1*
G1X1035816Y273748D2*
G1X1041616Y273748D1*
G1X1016916Y273848D2*
G1X1022716Y273848D1*
G1X1035916Y273848D2*
G1X1041616Y273848D1*
G1X1016916Y273948D2*
G1X1022616Y273948D1*
G1X1035916Y273948D2*
G1X1041616Y273948D1*
G1X1016916Y274048D2*
G1X1022616Y274048D1*
G1X1036016Y274048D2*
G1X1041716Y274048D1*
G1X1016916Y274148D2*
G1X1022616Y274148D1*
G1X1036116Y274148D2*
G1X1041716Y274148D1*
G1X1016916Y274248D2*
G1X1022616Y274248D1*
G1X1036116Y274248D2*
G1X1041716Y274248D1*
G1X1017016Y274348D2*
G1X1022616Y274348D1*
G1X1036216Y274348D2*
G1X1041816Y274348D1*
G1X1017016Y274448D2*
G1X1022616Y274448D1*
G1X1036316Y274448D2*
G1X1041816Y274448D1*
G1X1017016Y274548D2*
G1X1022516Y274548D1*
G1X1036416Y274548D2*
G1X1041816Y274548D1*
G1X1017116Y274648D2*
G1X1022516Y274648D1*
G1X1036516Y274648D2*
G1X1041816Y274648D1*
G1X1017116Y274748D2*
G1X1022516Y274748D1*
G1X1036616Y274748D2*
G1X1041816Y274748D1*
G1X1017216Y274848D2*
G1X1022516Y274848D1*
G1X1036716Y274848D2*
G1X1041816Y274848D1*
G1X1017216Y274948D2*
G1X1022416Y274948D1*
G1X1036816Y274948D2*
G1X1041816Y274948D1*
G1X1017216Y275048D2*
G1X1022416Y275048D1*
G1X1036916Y275048D2*
G1X1041816Y275048D1*
G1X1017316Y275148D2*
G1X1022316Y275148D1*
G1X1037016Y275148D2*
G1X1041816Y275148D1*
G1X1017316Y275248D2*
G1X1022316Y275248D1*
G1X1037116Y275248D2*
G1X1041816Y275248D1*
G1X1017416Y275348D2*
G1X1022216Y275348D1*
G1X1037216Y275348D2*
G1X1041816Y275348D1*
G1X1017516Y275448D2*
G1X1022216Y275448D1*
G1X1037316Y275448D2*
G1X1041816Y275448D1*
G1X1017516Y275548D2*
G1X1022116Y275548D1*
G1X1037416Y275548D2*
G1X1041816Y275548D1*
G1X1017616Y275648D2*
G1X1022016Y275648D1*
G1X1037616Y275648D2*
G1X1041816Y275648D1*
G1X1017716Y275748D2*
G1X1022016Y275748D1*
G1X1037716Y275748D2*
G1X1041716Y275748D1*
G1X1017816Y275848D2*
G1X1021916Y275848D1*
G1X1037816Y275848D2*
G1X1041716Y275848D1*
G1X1017916Y275948D2*
G1X1021816Y275948D1*
G1X1038016Y275948D2*
G1X1041616Y275948D1*
G1X1018016Y276048D2*
G1X1021716Y276048D1*
G1X1038216Y276048D2*
G1X1041616Y276048D1*
G1X1018116Y276148D2*
G1X1021616Y276148D1*
G1X1038316Y276148D2*
G1X1041516Y276148D1*
G1X1018216Y276248D2*
G1X1021516Y276248D1*
G1X1038516Y276248D2*
G1X1041416Y276248D1*
G1X1018316Y276348D2*
G1X1021416Y276348D1*
G1X1038716Y276348D2*
G1X1041316Y276348D1*
G1X1018516Y276448D2*
G1X1021216Y276448D1*
G1X1038916Y276448D2*
G1X1041216Y276448D1*
G1X1018616Y276548D2*
G1X1021116Y276548D1*
G1X1039216Y276548D2*
G1X1041016Y276548D1*
G1X1018816Y276648D2*
G1X1020916Y276648D1*
G1X1039616Y276648D2*
G1X1040816Y276648D1*
G1X1019116Y276748D2*
G1X1020716Y276748D1*
G1X1033616Y276748D2*
G1X1034116Y276748D1*
G1X1019616Y276848D2*
G1X1019716Y276848D1*
G1X1019816Y276848D2*
G1X1020116Y276848D1*
G1X1025716Y276848D2*
G1X1026916Y276848D1*
G1X1033216Y276848D2*
G1X1034616Y276848D1*
G1X1025416Y276948D2*
G1X1027216Y276948D1*
G1X1032916Y276948D2*
G1X1034916Y276948D1*
G1X1025316Y277048D2*
G1X1027416Y277048D1*
G1X1032816Y277048D2*
G1X1035116Y277048D1*
G1X1025116Y277148D2*
G1X1027616Y277148D1*
G1X1032716Y277148D2*
G1X1035316Y277148D1*
G1X1025016Y277248D2*
G1X1027816Y277248D1*
G1X1032616Y277248D2*
G1X1035416Y277248D1*
G1X1024916Y277348D2*
G1X1028016Y277348D1*
G1X1032516Y277348D2*
G1X1035616Y277348D1*
G1X1024916Y277448D2*
G1X1028116Y277448D1*
G1X1032416Y277448D2*
G1X1035716Y277448D1*
G1X1024816Y277548D2*
G1X1028216Y277548D1*
G1X1032416Y277548D2*
G1X1035816Y277548D1*
G1X1024716Y277648D2*
G1X1028316Y277648D1*
G1X1032316Y277648D2*
G1X1035916Y277648D1*
G1X1039616Y277648D2*
G1X1040516Y277648D1*
G1X1040816Y277648D2*
G1X1041116Y277648D1*
G1X1020616Y277748D2*
G1X1021016Y277748D1*
G1X1024716Y277748D2*
G1X1028416Y277748D1*
G1X1032316Y277748D2*
G1X1036016Y277748D1*
G1X1039616Y277748D2*
G1X1041116Y277748D1*
G1X1019616Y277848D2*
G1X1021016Y277848D1*
G1X1024616Y277848D2*
G1X1028516Y277848D1*
G1X1032216Y277848D2*
G1X1036116Y277848D1*
G1X1039616Y277848D2*
G1X1041216Y277848D1*
G1X1019616Y277948D2*
G1X1021116Y277948D1*
G1X1024616Y277948D2*
G1X1028616Y277948D1*
G1X1032216Y277948D2*
G1X1036216Y277948D1*
G1X1039616Y277948D2*
G1X1041216Y277948D1*
G1X1019616Y278048D2*
G1X1021116Y278048D1*
G1X1024616Y278048D2*
G1X1028716Y278048D1*
G1X1032116Y278048D2*
G1X1036316Y278048D1*
G1X1039716Y278048D2*
G1X1041216Y278048D1*
G1X1019616Y278148D2*
G1X1021216Y278148D1*
G1X1024516Y278148D2*
G1X1028816Y278148D1*
G1X1032116Y278148D2*
G1X1036416Y278148D1*
G1X1039716Y278148D2*
G1X1041216Y278148D1*
G1X1019716Y278248D2*
G1X1021216Y278248D1*
G1X1024516Y278248D2*
G1X1028916Y278248D1*
G1X1032116Y278248D2*
G1X1036516Y278248D1*
G1X1039716Y278248D2*
G1X1041316Y278248D1*
G1X1019716Y278348D2*
G1X1021216Y278348D1*
G1X1024516Y278348D2*
G1X1029016Y278348D1*
G1X1032116Y278348D2*
G1X1036516Y278348D1*
G1X1039716Y278348D2*
G1X1041316Y278348D1*
G1X1019716Y278448D2*
G1X1021316Y278448D1*
G1X1024516Y278448D2*
G1X1029016Y278448D1*
G1X1032016Y278448D2*
G1X1036616Y278448D1*
G1X1039816Y278448D2*
G1X1041316Y278448D1*
G1X1019816Y278548D2*
G1X1021316Y278548D1*
G1X1024416Y278548D2*
G1X1029116Y278548D1*
G1X1032016Y278548D2*
G1X1036716Y278548D1*
G1X1039816Y278548D2*
G1X1041316Y278548D1*
G1X1019816Y278648D2*
G1X1021316Y278648D1*
G1X1024416Y278648D2*
G1X1029216Y278648D1*
G1X1032016Y278648D2*
G1X1036816Y278648D1*
G1X1039816Y278648D2*
G1X1041316Y278648D1*
G1X1019816Y278748D2*
G1X1021416Y278748D1*
G1X1024416Y278748D2*
G1X1029216Y278748D1*
G1X1032016Y278748D2*
G1X1036816Y278748D1*
G1X1039816Y278748D2*
G1X1041416Y278748D1*
G1X1019916Y278848D2*
G1X1021416Y278848D1*
G1X1024416Y278848D2*
G1X1029316Y278848D1*
G1X1032016Y278848D2*
G1X1036916Y278848D1*
G1X1039916Y278848D2*
G1X1041416Y278848D1*
G1X1019916Y278948D2*
G1X1021416Y278948D1*
G1X1024416Y278948D2*
G1X1029416Y278948D1*
G1X1032016Y278948D2*
G1X1037016Y278948D1*
G1X1039916Y278948D2*
G1X1041416Y278948D1*
G1X1020016Y279048D2*
G1X1021416Y279048D1*
G1X1024416Y279048D2*
G1X1029416Y279048D1*
G1X1032016Y279048D2*
G1X1037016Y279048D1*
G1X1039916Y279048D2*
G1X1041416Y279048D1*
G1X1020016Y279148D2*
G1X1021516Y279148D1*
G1X1024416Y279148D2*
G1X1029516Y279148D1*
G1X1032016Y279148D2*
G1X1037116Y279148D1*
G1X1040016Y279148D2*
G1X1041416Y279148D1*
G1X1020116Y279248D2*
G1X1021516Y279248D1*
G1X1024416Y279248D2*
G1X1029516Y279248D1*
G1X1032016Y279248D2*
G1X1037116Y279248D1*
G1X1040016Y279248D2*
G1X1041416Y279248D1*
G1X1020116Y279348D2*
G1X1021516Y279348D1*
G1X1024416Y279348D2*
G1X1029616Y279348D1*
G1X1032016Y279348D2*
G1X1037216Y279348D1*
G1X1040016Y279348D2*
G1X1041416Y279348D1*
G1X1020216Y279448D2*
G1X1021516Y279448D1*
G1X1024416Y279448D2*
G1X1029616Y279448D1*
G1X1032016Y279448D2*
G1X1037216Y279448D1*
G1X1040116Y279448D2*
G1X1041416Y279448D1*
G1X1020216Y279548D2*
G1X1021616Y279548D1*
G1X1024416Y279548D2*
G1X1029716Y279548D1*
G1X1032016Y279548D2*
G1X1037316Y279548D1*
G1X1040116Y279548D2*
G1X1041416Y279548D1*
G1X1020316Y279648D2*
G1X1021616Y279648D1*
G1X1024416Y279648D2*
G1X1029716Y279648D1*
G1X1032016Y279648D2*
G1X1037316Y279648D1*
G1X1040216Y279648D2*
G1X1041416Y279648D1*
G1X1020316Y279748D2*
G1X1021616Y279748D1*
G1X1024416Y279748D2*
G1X1029816Y279748D1*
G1X1032016Y279748D2*
G1X1037416Y279748D1*
G1X1040216Y279748D2*
G1X1041416Y279748D1*
G1X1020416Y279848D2*
G1X1021616Y279848D1*
G1X1024416Y279848D2*
G1X1029816Y279848D1*
G1X1032016Y279848D2*
G1X1037416Y279848D1*
G1X1040216Y279848D2*
G1X1041416Y279848D1*
G1X1020416Y279948D2*
G1X1021616Y279948D1*
G1X1024416Y279948D2*
G1X1029916Y279948D1*
G1X1032016Y279948D2*
G1X1037516Y279948D1*
G1X1040316Y279948D2*
G1X1041416Y279948D1*
G1X1020516Y280048D2*
G1X1021616Y280048D1*
G1X1024416Y280048D2*
G1X1029916Y280048D1*
G1X1032016Y280048D2*
G1X1037516Y280048D1*
G1X1040316Y280048D2*
G1X1041416Y280048D1*
G1X1020516Y280148D2*
G1X1021616Y280148D1*
G1X1024516Y280148D2*
G1X1030016Y280148D1*
G1X1032016Y280148D2*
G1X1037616Y280148D1*
G1X1040416Y280148D2*
G1X1041416Y280148D1*
G1X1020616Y280248D2*
G1X1021616Y280248D1*
G1X1024516Y280248D2*
G1X1030016Y280248D1*
G1X1032116Y280248D2*
G1X1037616Y280248D1*
G1X1040416Y280248D2*
G1X1041416Y280248D1*
G1X1020616Y280348D2*
G1X1021616Y280348D1*
G1X1024516Y280348D2*
G1X1030016Y280348D1*
G1X1032116Y280348D2*
G1X1037616Y280348D1*
G1X1040516Y280348D2*
G1X1041416Y280348D1*
G1X1020716Y280448D2*
G1X1021716Y280448D1*
G1X1024516Y280448D2*
G1X1030116Y280448D1*
G1X1032116Y280448D2*
G1X1037616Y280448D1*
G1X1040516Y280448D2*
G1X1041416Y280448D1*
G1X1020816Y280548D2*
G1X1021716Y280548D1*
G1X1024516Y280548D2*
G1X1030116Y280548D1*
G1X1032116Y280548D2*
G1X1037716Y280548D1*
G1X1040616Y280548D2*
G1X1041416Y280548D1*
G1X1020816Y280648D2*
G1X1021716Y280648D1*
G1X1024616Y280648D2*
G1X1030116Y280648D1*
G1X1032216Y280648D2*
G1X1037716Y280648D1*
G1X1040716Y280648D2*
G1X1041416Y280648D1*
G1X1020916Y280748D2*
G1X1021716Y280748D1*
G1X1024616Y280748D2*
G1X1030216Y280748D1*
G1X1032216Y280748D2*
G1X1037716Y280748D1*
G1X1040716Y280748D2*
G1X1041316Y280748D1*
G1X1021016Y280848D2*
G1X1021716Y280848D1*
G1X1024616Y280848D2*
G1X1030216Y280848D1*
G1X1032216Y280848D2*
G1X1037816Y280848D1*
G1X1040816Y280848D2*
G1X1041316Y280848D1*
G1X1021116Y280948D2*
G1X1021716Y280948D1*
G1X1024616Y280948D2*
G1X1030216Y280948D1*
G1X1032216Y280948D2*
G1X1037816Y280948D1*
G1X1040816Y280948D2*
G1X1041316Y280948D1*
G1X1021116Y281048D2*
G1X1021716Y281048D1*
G1X1024716Y281048D2*
G1X1030316Y281048D1*
G1X1032316Y281048D2*
G1X1037816Y281048D1*
G1X1040916Y281048D2*
G1X1041316Y281048D1*
G1X1021216Y281148D2*
G1X1021716Y281148D1*
G1X1024716Y281148D2*
G1X1030316Y281148D1*
G1X1032316Y281148D2*
G1X1037816Y281148D1*
G1X1040916Y281148D2*
G1X1041316Y281148D1*
G1X1021316Y281248D2*
G1X1021616Y281248D1*
G1X1024716Y281248D2*
G1X1030316Y281248D1*
G1X1032416Y281248D2*
G1X1037916Y281248D1*
G1X1041016Y281248D2*
G1X1041316Y281248D1*
G1X1021416Y281348D2*
G1X1021616Y281348D1*
G1X1024816Y281348D2*
G1X1030316Y281348D1*
G1X1032416Y281348D2*
G1X1037916Y281348D1*
G1X1041116Y281348D2*
G1X1041216Y281348D1*
G1X1021516Y281448D2*
G1X1021616Y281448D1*
G1X1024816Y281448D2*
G1X1030316Y281448D1*
G1X1032416Y281448D2*
G1X1037916Y281448D1*
G1X1024916Y281548D2*
G1X1030316Y281548D1*
G1X1032516Y281548D2*
G1X1037916Y281548D1*
G1X1024916Y281648D2*
G1X1030316Y281648D1*
G1X1032516Y281648D2*
G1X1037916Y281648D1*
G1X1025016Y281748D2*
G1X1030316Y281748D1*
G1X1032616Y281748D2*
G1X1037916Y281748D1*
G1X1025016Y281848D2*
G1X1030316Y281848D1*
G1X1032616Y281848D2*
G1X1037916Y281848D1*
G1X1025016Y281948D2*
G1X1030316Y281948D1*
G1X1032716Y281948D2*
G1X1037916Y281948D1*
G1X1025116Y282048D2*
G1X1030316Y282048D1*
G1X1032716Y282048D2*
G1X1037916Y282048D1*
G1X1025216Y282148D2*
G1X1030316Y282148D1*
G1X1032816Y282148D2*
G1X1037916Y282148D1*
G1X1025216Y282248D2*
G1X1030316Y282248D1*
G1X1032816Y282248D2*
G1X1037916Y282248D1*
G1X1025316Y282348D2*
G1X1030316Y282348D1*
G1X1032916Y282348D2*
G1X1037916Y282348D1*
G1X1025416Y282448D2*
G1X1030316Y282448D1*
G1X1033016Y282448D2*
G1X1037916Y282448D1*
G1X1025416Y282548D2*
G1X1030316Y282548D1*
G1X1033016Y282548D2*
G1X1037916Y282548D1*
G1X1025516Y282648D2*
G1X1030316Y282648D1*
G1X1033116Y282648D2*
G1X1037916Y282648D1*
G1X1025516Y282748D2*
G1X1030316Y282748D1*
G1X1033216Y282748D2*
G1X1037816Y282748D1*
G1X1025616Y282848D2*
G1X1030316Y282848D1*
G1X1033316Y282848D2*
G1X1037816Y282848D1*
G1X1025716Y282948D2*
G1X1030316Y282948D1*
G1X1033416Y282948D2*
G1X1037816Y282948D1*
G1X1025816Y283048D2*
G1X1030216Y283048D1*
G1X1033416Y283048D2*
G1X1037816Y283048D1*
G1X1025916Y283148D2*
G1X1030216Y283148D1*
G1X1033516Y283148D2*
G1X1037716Y283148D1*
G1X1026016Y283248D2*
G1X1030216Y283248D1*
G1X1033616Y283248D2*
G1X1037716Y283248D1*
G1X1026116Y283348D2*
G1X1030116Y283348D1*
G1X1033716Y283348D2*
G1X1037716Y283348D1*
G1X1026116Y283448D2*
G1X1030116Y283448D1*
G1X1033816Y283448D2*
G1X1037616Y283448D1*
G1X1026216Y283548D2*
G1X1030116Y283548D1*
G1X1033916Y283548D2*
G1X1037616Y283548D1*
G1X1026316Y283648D2*
G1X1030016Y283648D1*
G1X1034016Y283648D2*
G1X1037516Y283648D1*
G1X1026416Y283748D2*
G1X1030016Y283748D1*
G1X1034116Y283748D2*
G1X1037516Y283748D1*
G1X1026616Y283848D2*
G1X1029916Y283848D1*
G1X1034216Y283848D2*
G1X1037416Y283848D1*
G1X1026716Y283948D2*
G1X1029816Y283948D1*
G1X1034316Y283948D2*
G1X1037416Y283948D1*
G1X1026816Y284048D2*
G1X1029816Y284048D1*
G1X1034516Y284048D2*
G1X1037316Y284048D1*
G1X1026916Y284148D2*
G1X1029716Y284148D1*
G1X1034616Y284148D2*
G1X1037216Y284148D1*
G1X1027116Y284248D2*
G1X1029616Y284248D1*
G1X1034716Y284248D2*
G1X1037116Y284248D1*
G1X1027216Y284348D2*
G1X1029516Y284348D1*
G1X1034916Y284348D2*
G1X1037116Y284348D1*
G1X1027416Y284448D2*
G1X1029416Y284448D1*
G1X1035116Y284448D2*
G1X1036916Y284448D1*
G1X1027516Y284548D2*
G1X1029316Y284548D1*
G1X1035216Y284548D2*
G1X1036816Y284548D1*
G1X1027716Y284648D2*
G1X1029216Y284648D1*
G1X1035516Y284648D2*
G1X1036716Y284648D1*
G1X1028016Y284748D2*
G1X1029016Y284748D1*
G1X1035816Y284748D2*
G1X1036416Y284748D1*
G1X1028416Y284848D2*
G1X1028616Y284848D1*
G1X1029316Y285548D2*
G1X1029416Y285548D1*
G1X1035616Y285548D2*
G1X1035816Y285548D1*
G1X1036716Y285548D2*
G1X1037016Y285548D1*
G1X1028016Y285648D2*
G1X1029516Y285648D1*
G1X1035616Y285648D2*
G1X1037116Y285648D1*
G1X1028016Y285748D2*
G1X1029516Y285748D1*
G1X1035616Y285748D2*
G1X1037116Y285748D1*
G1X1028016Y285848D2*
G1X1029616Y285848D1*
G1X1035616Y285848D2*
G1X1037216Y285848D1*
G1X1028016Y285948D2*
G1X1029616Y285948D1*
G1X1035716Y285948D2*
G1X1037216Y285948D1*
G1X1028116Y286048D2*
G1X1029616Y286048D1*
G1X1035716Y286048D2*
G1X1037216Y286048D1*
G1X1028116Y286148D2*
G1X1029616Y286148D1*
G1X1035716Y286148D2*
G1X1037216Y286148D1*
G1X1028116Y286248D2*
G1X1029716Y286248D1*
G1X1035716Y286248D2*
G1X1037216Y286248D1*
G1X1028216Y286348D2*
G1X1029716Y286348D1*
G1X1035816Y286348D2*
G1X1037316Y286348D1*
G1X1028216Y286448D2*
G1X1029716Y286448D1*
G1X1035816Y286448D2*
G1X1037316Y286448D1*
G1X1028216Y286548D2*
G1X1029716Y286548D1*
G1X1035916Y286548D2*
G1X1037316Y286548D1*
G1X1028316Y286648D2*
G1X1029716Y286648D1*
G1X1035916Y286648D2*
G1X1037316Y286648D1*
G1X1028316Y286748D2*
G1X1029816Y286748D1*
G1X1035916Y286748D2*
G1X1037416Y286748D1*
G1X1028416Y286848D2*
G1X1029816Y286848D1*
G1X1036016Y286848D2*
G1X1037416Y286848D1*
G1X1028416Y286948D2*
G1X1029816Y286948D1*
G1X1036016Y286948D2*
G1X1037416Y286948D1*
G1X1028516Y287048D2*
G1X1029816Y287048D1*
G1X1036116Y287048D2*
G1X1037416Y287048D1*
G1X1028516Y287148D2*
G1X1029816Y287148D1*
G1X1036116Y287148D2*
G1X1037416Y287148D1*
G1X1028516Y287248D2*
G1X1029816Y287248D1*
G1X1036216Y287248D2*
G1X1037416Y287248D1*
G1X1028616Y287348D2*
G1X1029816Y287348D1*
G1X1036216Y287348D2*
G1X1037416Y287348D1*
G1X1028616Y287448D2*
G1X1029816Y287448D1*
G1X1036316Y287448D2*
G1X1037416Y287448D1*
G1X1028716Y287548D2*
G1X1029816Y287548D1*
G1X1036316Y287548D2*
G1X1037416Y287548D1*
G1X1028716Y287648D2*
G1X1029816Y287648D1*
G1X1036416Y287648D2*
G1X1037416Y287648D1*
G1X1028816Y287748D2*
G1X1029816Y287748D1*
G1X1036416Y287748D2*
G1X1037416Y287748D1*
G1X1028816Y287848D2*
G1X1029816Y287848D1*
G1X1036516Y287848D2*
G1X1037416Y287848D1*
G1X1028916Y287948D2*
G1X1029816Y287948D1*
G1X1036516Y287948D2*
G1X1037416Y287948D1*
G1X1029016Y288048D2*
G1X1029816Y288048D1*
G1X1036616Y288048D2*
G1X1037416Y288048D1*
G1X1029016Y288148D2*
G1X1029816Y288148D1*
G1X1036716Y288148D2*
G1X1037416Y288148D1*
G1X1029116Y288248D2*
G1X1029816Y288248D1*
G1X1036716Y288248D2*
G1X1037416Y288248D1*
G1X1029216Y288348D2*
G1X1029816Y288348D1*
G1X1036816Y288348D2*
G1X1037416Y288348D1*
G1X1029216Y288448D2*
G1X1029816Y288448D1*
G1X1036916Y288448D2*
G1X1037416Y288448D1*
G1X1029316Y288548D2*
G1X1029816Y288548D1*
G1X1036916Y288548D2*
G1X1037416Y288548D1*
G1X1029416Y288648D2*
G1X1029816Y288648D1*
G1X1037016Y288648D2*
G1X1037416Y288648D1*
G1X1029416Y288748D2*
G1X1029816Y288748D1*
G1X1037116Y288748D2*
G1X1037316Y288748D1*
G1X1029516Y288848D2*
G1X1029816Y288848D1*
G1X1037116Y288848D2*
G1X1037316Y288848D1*
G1X1029616Y288948D2*
G1X1029716Y288948D1*
G1X590000Y337500D2*
G1X590003Y337500D1*
G1X1065000Y337500D2*
G1X1065003Y337500D1*
G1X590000Y100000D2*
G1X590003Y100000D1*
G1X590000Y337500D2*
G1X590003Y337500D1*
G1X1003049Y159313D2*
G54D11*
G1X1003049Y152750D1*
G1X1003049Y159313D2*
G1X1005094Y159313D1*
G1X1005776Y159000D1*
G1X1006003Y158688D1*
G1X1006231Y158063D1*
G1X1006231Y157438D1*
G1X1006003Y156813D1*
G1X1005776Y156500D1*
G1X1005094Y156188D1*
G1X1003049Y156188D2*
G1X1005094Y156188D1*
G1X1005776Y155875D1*
G1X1006003Y155563D1*
G1X1006231Y154938D1*
G1X1006231Y154000D1*
G1X1006003Y153375D1*
G1X1005776Y153063D1*
G1X1005094Y152750D1*
G1X1003049Y152750D1*
G1X1008276Y155250D2*
G1X1011003Y155250D1*
G1X1011003Y155875D1*
G1X1010776Y156500D1*
G1X1010549Y156813D1*
G1X1010094Y157125D1*
G1X1009412Y157125D1*
G1X1008958Y156813D1*
G1X1008503Y156188D1*
G1X1008276Y155250D1*
G1X1008276Y154625D1*
G1X1008503Y153688D1*
G1X1008958Y153063D1*
G1X1009412Y152750D1*
G1X1010094Y152750D1*
G1X1010549Y153063D1*
G1X1011003Y153688D1*
G1X1013049Y157125D2*
G1X1013049Y152750D1*
G1X1013049Y155875D2*
G1X1013731Y156813D1*
G1X1014185Y157125D1*
G1X1014867Y157125D1*
G1X1015321Y156813D1*
G1X1015549Y155875D1*
G1X1015549Y152750D1*
G1X1022821Y159313D2*
G1X1022821Y152750D1*
G1X1022821Y159313D2*
G1X1024867Y159313D1*
G1X1025549Y159000D1*
G1X1025776Y158688D1*
G1X1026003Y158063D1*
G1X1026003Y157438D1*
G1X1025776Y156813D1*
G1X1025549Y156500D1*
G1X1024867Y156188D1*
G1X1022821Y156188D1*
G1X1024412Y156188D2*
G1X1026003Y152750D1*
G1X1028049Y159313D2*
G1X1028276Y159000D1*
G1X1028503Y159313D1*
G1X1028276Y159625D1*
G1X1028049Y159313D1*
G1X1028276Y157125D2*
G1X1028276Y152750D1*
G1X1033276Y156188D2*
G1X1032821Y156813D1*
G1X1032367Y157125D1*
G1X1031685Y157125D1*
G1X1031231Y156813D1*
G1X1030776Y156188D1*
G1X1030549Y155250D1*
G1X1030549Y154625D1*
G1X1030776Y153688D1*
G1X1031231Y153063D1*
G1X1031685Y152750D1*
G1X1032367Y152750D1*
G1X1032821Y153063D1*
G1X1033276Y153688D1*
G1X1035321Y159313D2*
G1X1035321Y152750D1*
G1X1035321Y155875D2*
G1X1036003Y156813D1*
G1X1036458Y157125D1*
G1X1037140Y157125D1*
G1X1037594Y156813D1*
G1X1037821Y155875D1*
G1X1037821Y152750D1*
G1X1042594Y157125D2*
G1X1042594Y152750D1*
G1X1042594Y156188D2*
G1X1042140Y156813D1*
G1X1041685Y157125D1*
G1X1041003Y157125D1*
G1X1040549Y156813D1*
G1X1040094Y156188D1*
G1X1039867Y155250D1*
G1X1039867Y154625D1*
G1X1040094Y153688D1*
G1X1040549Y153063D1*
G1X1041003Y152750D1*
G1X1041685Y152750D1*
G1X1042140Y153063D1*
G1X1042594Y153688D1*
G1X1044640Y157125D2*
G1X1044640Y152750D1*
G1X1044640Y155250D2*
G1X1044867Y156188D1*
G1X1045321Y156813D1*
G1X1045776Y157125D1*
G1X1046458Y157125D1*
G1X1051231Y159313D2*
G1X1051231Y152750D1*
G1X1051231Y156188D2*
G1X1050776Y156813D1*
G1X1050321Y157125D1*
G1X1049640Y157125D1*
G1X1049185Y156813D1*
G1X1048731Y156188D1*
G1X1048503Y155250D1*
G1X1048503Y154625D1*
G1X1048731Y153688D1*
G1X1049185Y153063D1*
G1X1049640Y152750D1*
G1X1050321Y152750D1*
G1X1050776Y153063D1*
G1X1051231Y153688D1*
G1X1055776Y156188D2*
G1X1055549Y156813D1*
G1X1054867Y157125D1*
G1X1054185Y157125D1*
G1X1053503Y156813D1*
G1X1053276Y156188D1*
G1X1053503Y155563D1*
G1X1053958Y155250D1*
G1X1055094Y154938D1*
G1X1055549Y154625D1*
G1X1055776Y154000D1*
G1X1055776Y153688D1*
G1X1055549Y153063D1*
G1X1054867Y152750D1*
G1X1054185Y152750D1*
G1X1053503Y153063D1*
G1X1053276Y153688D1*
G1X671500Y285000D2*
G1X679500Y285000D1*
G1X675500Y281000D2*
G1X675500Y289000D1*
G1X671500Y152500D2*
G1X679500Y152500D1*
G1X675500Y148500D2*
G1X675500Y156500D1*
G1X975500Y285000D2*
G1X983500Y285000D1*
G1X979500Y281000D2*
G1X979500Y289000D1*
G1X975500Y152500D2*
G1X983500Y152500D1*
G1X979500Y148500D2*
G1X979500Y156500D1*
G1X857870Y164750D2*
G1X865870Y172750D1*
G1X857870Y172750D2*
G1X865870Y164750D1*
G1X857986Y264750D2*
G1X865986Y272750D1*
G1X857986Y272750D2*
G1X865986Y264750D1*
G1X695214Y308866D2*
G1X703214Y308866D1*
G1X703214Y316866D1*
G1X695214Y316866D1*
G1X695214Y308866D1*
G1X699214Y312866D2*
G1X699214Y316866D1*
G1X705214Y308866D2*
G1X713214Y308866D1*
G1X713214Y316866D1*
G1X705214Y316866D1*
G1X705214Y308866D1*
G1X709214Y312866D2*
G1X709214Y316866D1*
G1X715214Y308866D2*
G1X723214Y308866D1*
G1X723214Y316866D1*
G1X715214Y316866D1*
G1X715214Y308866D1*
G1X719214Y312866D2*
G1X719214Y316866D1*
G1X725214Y308866D2*
G1X733214Y308866D1*
G1X733214Y316866D1*
G1X725214Y316866D1*
G1X725214Y308866D1*
G1X729214Y312866D2*
G1X729214Y316866D1*
G1X735214Y308866D2*
G1X743214Y308866D1*
G1X743214Y316866D1*
G1X735214Y316866D1*
G1X735214Y308866D1*
G1X739214Y312866D2*
G1X739214Y316866D1*
G1X745214Y308866D2*
G1X753214Y308866D1*
G1X753214Y316866D1*
G1X745214Y316866D1*
G1X745214Y308866D1*
G1X749214Y312866D2*
G1X749214Y316866D1*
G1X1000000Y313500D2*
G1X1008000Y313500D1*
G1X1008000Y321500D1*
G1X1000000Y321500D1*
G1X1000000Y313500D1*
G1X1004000Y317500D2*
G1X1004000Y321500D1*
G1X1010000Y313500D2*
G1X1018000Y313500D1*
G1X1018000Y321500D1*
G1X1010000Y321500D1*
G1X1010000Y313500D1*
G1X1014000Y317500D2*
G1X1014000Y321500D1*
G1X1020000Y313500D2*
G1X1028000Y313500D1*
G1X1028000Y321500D1*
G1X1020000Y321500D1*
G1X1020000Y313500D1*
G1X1024000Y317500D2*
G1X1024000Y321500D1*
G1X1030000Y313500D2*
G1X1038000Y313500D1*
G1X1038000Y321500D1*
G1X1030000Y321500D1*
G1X1030000Y313500D1*
G1X1034000Y317500D2*
G1X1034000Y321500D1*
G1X1040000Y313500D2*
G1X1048000Y313500D1*
G1X1048000Y321500D1*
G1X1040000Y321500D1*
G1X1040000Y313500D1*
G1X1044000Y317500D2*
G1X1044000Y321500D1*
G1X1050000Y313500D2*
G1X1058000Y313500D1*
G1X1058000Y321500D1*
G1X1050000Y321500D1*
G1X1050000Y313500D1*
G1X1054000Y317500D2*
G1X1054000Y321500D1*
G1X1000000Y118500D2*
G1X1008000Y118500D1*
G1X1008000Y126500D1*
G1X1000000Y126500D1*
G1X1000000Y118500D1*
G1X1004000Y122500D2*
G1X1004000Y126500D1*
G1X1010000Y118500D2*
G1X1018000Y118500D1*
G1X1018000Y126500D1*
G1X1010000Y126500D1*
G1X1010000Y118500D1*
G1X1014000Y122500D2*
G1X1014000Y126500D1*
G1X1020000Y118500D2*
G1X1028000Y118500D1*
G1X1028000Y126500D1*
G1X1020000Y126500D1*
G1X1020000Y118500D1*
G1X1024000Y122500D2*
G1X1024000Y126500D1*
G1X1030000Y118500D2*
G1X1038000Y118500D1*
G1X1038000Y126500D1*
G1X1030000Y126500D1*
G1X1030000Y118500D1*
G1X1034000Y122500D2*
G1X1034000Y126500D1*
G1X1040000Y118500D2*
G1X1048000Y118500D1*
G1X1048000Y126500D1*
G1X1040000Y126500D1*
G1X1040000Y118500D1*
G1X1044000Y122500D2*
G1X1044000Y126500D1*
G1X1050000Y118500D2*
G1X1058000Y118500D1*
G1X1058000Y126500D1*
G1X1050000Y126500D1*
G1X1050000Y118500D1*
G1X1054000Y122500D2*
G1X1054000Y126500D1*
G1X847000Y224750D2*
G1X851000Y228750D1*
G1X847000Y232750D1*
G1X843000Y228750D1*
G1X847000Y224750D1*
G1X847000Y228750D2*
G1X847000Y232750D1*
G1X847000Y214750D2*
G1X851000Y218750D1*
G1X847000Y222750D1*
G1X843000Y218750D1*
G1X847000Y214750D1*
G1X847000Y218750D2*
G1X847000Y222750D1*
G1X847000Y204750D2*
G1X851000Y208750D1*
G1X847000Y212750D1*
G1X843000Y208750D1*
G1X847000Y204750D1*
G1X847000Y208750D2*
G1X847000Y212750D1*
G1X877048Y204800D2*
G1X881048Y208800D1*
G1X877048Y212800D1*
G1X873048Y208800D1*
G1X877048Y204800D1*
G1X877048Y208800D2*
G1X877048Y212800D1*
G1X877048Y224800D2*
G1X881048Y228800D1*
G1X877048Y232800D1*
G1X873048Y228800D1*
G1X877048Y224800D1*
G1X877048Y228800D2*
G1X877048Y232800D1*
G1X613731Y123491D2*
G1X621731Y123491D1*
G1X613731Y131491D1*
G1X621731Y131491D1*
G1X613731Y123491D1*
G1X626696Y115672D2*
G1X634696Y115672D1*
G1X626696Y123672D1*
G1X634696Y123672D1*
G1X626696Y115672D1*
G1X793105Y119276D2*
G1X801105Y119276D1*
G1X793105Y127276D1*
G1X801105Y127276D1*
G1X793105Y119276D1*
G1X801054Y123233D2*
G1X809054Y123233D1*
G1X801054Y131233D1*
G1X809054Y131233D1*
G1X801054Y123233D1*
G1X646862Y159418D2*
G1X654862Y159418D1*
G1X646862Y167418D1*
G1X654862Y167418D1*
G1X646862Y159418D1*
G1X717058Y152650D2*
G1X725058Y152650D1*
G1X717058Y160650D1*
G1X725058Y160650D1*
G1X717058Y152650D1*
G1X613731Y169992D2*
G1X621731Y169992D1*
G1X613731Y177992D1*
G1X621731Y177992D1*
G1X613731Y169992D1*
G1X653931Y174666D2*
G1X661931Y174666D1*
G1X653931Y182666D1*
G1X661931Y182666D1*
G1X653931Y174666D1*
G1X786539Y179004D2*
G1X794539Y179004D1*
G1X786539Y187004D1*
G1X794539Y187004D1*
G1X786539Y179004D1*
G1X662384Y194326D2*
G1X670384Y194326D1*
G1X662384Y202326D1*
G1X670384Y202326D1*
G1X662384Y194326D1*
G1X748300Y198852D2*
G1X756300Y198852D1*
G1X748300Y206852D1*
G1X756300Y206852D1*
G1X748300Y198852D1*
G1X793105Y204164D2*
G1X801105Y204164D1*
G1X793105Y212164D1*
G1X801105Y212164D1*
G1X793105Y204164D1*
G1X1029910Y206251D2*
G1X1037910Y206251D1*
G1X1029910Y214251D1*
G1X1037910Y214251D1*
G1X1029910Y206251D1*
G1X646574Y214573D2*
G1X654574Y214573D1*
G1X646574Y222573D1*
G1X654574Y222573D1*
G1X646574Y214573D1*
G1X670628Y213390D2*
G1X678628Y213390D1*
G1X670628Y221390D1*
G1X678628Y221390D1*
G1X670628Y213390D1*
G1X701345Y219494D2*
G1X709345Y219494D1*
G1X701345Y227494D1*
G1X709345Y227494D1*
G1X701345Y219494D1*
G1X728024Y224769D2*
G1X736024Y224769D1*
G1X728024Y232769D1*
G1X736024Y232769D1*
G1X728024Y224769D1*
G1X741697Y215656D2*
G1X749697Y215656D1*
G1X741697Y223656D1*
G1X749697Y223656D1*
G1X741697Y215656D1*
G1X748300Y224769D2*
G1X756300Y224769D1*
G1X748300Y232769D1*
G1X756300Y232769D1*
G1X748300Y224769D1*
G1X801054Y224832D2*
G1X809054Y224832D1*
G1X801054Y232832D1*
G1X809054Y232832D1*
G1X801054Y224832D1*
G1X965111Y211251D2*
G1X973111Y211251D1*
G1X965111Y219251D1*
G1X973111Y219251D1*
G1X965111Y211251D1*
G1X970759Y216251D2*
G1X978759Y216251D1*
G1X970759Y224251D1*
G1X978759Y224251D1*
G1X970759Y216251D1*
G1X970759Y225863D2*
G1X978759Y225863D1*
G1X970759Y233863D1*
G1X978759Y233863D1*
G1X970759Y225863D1*
G1X1009992Y216251D2*
G1X1017992Y216251D1*
G1X1009992Y224251D1*
G1X1017992Y224251D1*
G1X1009992Y216251D1*
G1X1019998Y221251D2*
G1X1027998Y221251D1*
G1X1019998Y229251D1*
G1X1027998Y229251D1*
G1X1019998Y221251D1*
G1X1039906Y211251D2*
G1X1047906Y211251D1*
G1X1039906Y219251D1*
G1X1047906Y219251D1*
G1X1039906Y211251D1*
G1X626696Y234552D2*
G1X634696Y234552D1*
G1X626696Y242552D1*
G1X634696Y242552D1*
G1X626696Y234552D1*
G1X687768Y240636D2*
G1X695768Y240636D1*
G1X687768Y248636D1*
G1X695768Y248636D1*
G1X687768Y240636D1*
G1X718497Y229494D2*
G1X726497Y229494D1*
G1X718497Y237494D1*
G1X726497Y237494D1*
G1X718497Y229494D1*
G1X746759Y236744D2*
G1X754759Y236744D1*
G1X746759Y244744D1*
G1X754759Y244744D1*
G1X746759Y236744D1*
G1X756759Y229494D2*
G1X764759Y229494D1*
G1X756759Y237494D1*
G1X764759Y237494D1*
G1X756759Y229494D1*
G1X761738Y240636D2*
G1X769738Y240636D1*
G1X761738Y248636D1*
G1X769738Y248636D1*
G1X761738Y240636D1*
G1X770881Y236744D2*
G1X778881Y236744D1*
G1X770881Y244744D1*
G1X778881Y244744D1*
G1X770881Y236744D1*
G1X715214Y258058D2*
G1X723214Y258058D1*
G1X715214Y266058D1*
G1X723214Y266058D1*
G1X715214Y258058D1*
G1X741730Y258040D2*
G1X749730Y258040D1*
G1X741730Y266040D1*
G1X749730Y266040D1*
G1X741730Y258040D1*
G1X756965Y258040D2*
G1X764965Y258040D1*
G1X756965Y266040D1*
G1X764965Y266040D1*
G1X756965Y258040D1*
G1X780449Y253834D2*
G1X788449Y253834D1*
G1X780449Y261834D1*
G1X788449Y261834D1*
G1X780449Y253834D1*
G1X949299Y247322D2*
G1X957299Y247322D1*
G1X949299Y255322D1*
G1X957299Y255322D1*
G1X949299Y247322D1*
G1X741673Y267040D2*
G1X749673Y267040D1*
G1X741673Y275040D1*
G1X749673Y275040D1*
G1X741673Y267040D1*
G1X757080Y267040D2*
G1X765080Y267040D1*
G1X757080Y275040D1*
G1X765080Y275040D1*
G1X757080Y267040D1*
G1X646594Y304008D2*
G1X654594Y304008D1*
G1X646594Y312008D1*
G1X654594Y312008D1*
G1X646594Y304008D1*
G1X715214Y290251D2*
G1X723214Y290251D1*
G1X715214Y298251D1*
G1X723214Y298251D1*
G1X715214Y290251D1*
G1X1030516Y511648D2*
G54D10*
G1X1031816Y511648D1*
G1X1019816Y511748D2*
G1X1021216Y511748D1*
G1X1030216Y511748D2*
G1X1032216Y511748D1*
G1X1019516Y511848D2*
G1X1021616Y511848D1*
G1X1025416Y511848D2*
G1X1026416Y511848D1*
G1X1030016Y511848D2*
G1X1032416Y511848D1*
G1X1019316Y511948D2*
G1X1021916Y511948D1*
G1X1025216Y511948D2*
G1X1026716Y511948D1*
G1X1029816Y511948D2*
G1X1032716Y511948D1*
G1X1019216Y512048D2*
G1X1022116Y512048D1*
G1X1025016Y512048D2*
G1X1026816Y512048D1*
G1X1029716Y512048D2*
G1X1032916Y512048D1*
G1X1019016Y512148D2*
G1X1022316Y512148D1*
G1X1024916Y512148D2*
G1X1027016Y512148D1*
G1X1029616Y512148D2*
G1X1033016Y512148D1*
G1X1018916Y512248D2*
G1X1022416Y512248D1*
G1X1024816Y512248D2*
G1X1027216Y512248D1*
G1X1029416Y512248D2*
G1X1033216Y512248D1*
G1X1018816Y512348D2*
G1X1022716Y512348D1*
G1X1024716Y512348D2*
G1X1027316Y512348D1*
G1X1029316Y512348D2*
G1X1033316Y512348D1*
G1X1018816Y512448D2*
G1X1022916Y512448D1*
G1X1024616Y512448D2*
G1X1027516Y512448D1*
G1X1029116Y512448D2*
G1X1033416Y512448D1*
G1X1018716Y512548D2*
G1X1023216Y512548D1*
G1X1024416Y512548D2*
G1X1027816Y512548D1*
G1X1028816Y512548D2*
G1X1033516Y512548D1*
G1X1018716Y512648D2*
G1X1023616Y512648D1*
G1X1024016Y512648D2*
G1X1033616Y512648D1*
G1X1018616Y512748D2*
G1X1033716Y512748D1*
G1X1018616Y512848D2*
G1X1033816Y512848D1*
G1X1018516Y512948D2*
G1X1033916Y512948D1*
G1X1018516Y513048D2*
G1X1034016Y513048D1*
G1X1018516Y513148D2*
G1X1034116Y513148D1*
G1X1018516Y513248D2*
G1X1034116Y513248D1*
G1X1018416Y513348D2*
G1X1034216Y513348D1*
G1X1018416Y513448D2*
G1X1034316Y513448D1*
G1X1018416Y513548D2*
G1X1034316Y513548D1*
G1X1018416Y513648D2*
G1X1034416Y513648D1*
G1X1018416Y513748D2*
G1X1034416Y513748D1*
G1X1018416Y513848D2*
G1X1034516Y513848D1*
G1X1018416Y513948D2*
G1X1034516Y513948D1*
G1X1018416Y514048D2*
G1X1034516Y514048D1*
G1X1018516Y514148D2*
G1X1034616Y514148D1*
G1X1018516Y514248D2*
G1X1034616Y514248D1*
G1X1018516Y514348D2*
G1X1034616Y514348D1*
G1X1018516Y514448D2*
G1X1034616Y514448D1*
G1X1018616Y514548D2*
G1X1034716Y514548D1*
G1X1018616Y514648D2*
G1X1034716Y514648D1*
G1X1018616Y514748D2*
G1X1034716Y514748D1*
G1X1018716Y514848D2*
G1X1034716Y514848D1*
G1X1018716Y514948D2*
G1X1034716Y514948D1*
G1X1018716Y515048D2*
G1X1034816Y515048D1*
G1X1018816Y515148D2*
G1X1034816Y515148D1*
G1X1018816Y515248D2*
G1X1034816Y515248D1*
G1X1018916Y515348D2*
G1X1034816Y515348D1*
G1X1018916Y515448D2*
G1X1034816Y515448D1*
G1X1019016Y515548D2*
G1X1034816Y515548D1*
G1X1019116Y515648D2*
G1X1034816Y515648D1*
G1X1019116Y515748D2*
G1X1034816Y515748D1*
G1X1019216Y515848D2*
G1X1034716Y515848D1*
G1X1019316Y515948D2*
G1X1034716Y515948D1*
G1X1019316Y516048D2*
G1X1034716Y516048D1*
G1X1019416Y516148D2*
G1X1034716Y516148D1*
G1X1019516Y516248D2*
G1X1034716Y516248D1*
G1X1019616Y516348D2*
G1X1034616Y516348D1*
G1X1019716Y516448D2*
G1X1034616Y516448D1*
G1X1019816Y516548D2*
G1X1034516Y516548D1*
G1X1019916Y516648D2*
G1X1034516Y516648D1*
G1X1020016Y516748D2*
G1X1034516Y516748D1*
G1X1020116Y516848D2*
G1X1034416Y516848D1*
G1X1020216Y516948D2*
G1X1034416Y516948D1*
G1X1020316Y517048D2*
G1X1034316Y517048D1*
G1X1020416Y517148D2*
G1X1034316Y517148D1*
G1X1020516Y517248D2*
G1X1034216Y517248D1*
G1X1020616Y517348D2*
G1X1034116Y517348D1*
G1X1020716Y517448D2*
G1X1034116Y517448D1*
G1X1020816Y517548D2*
G1X1034016Y517548D1*
G1X1021016Y517648D2*
G1X1033916Y517648D1*
G1X1021116Y517748D2*
G1X1033916Y517748D1*
G1X1021316Y517848D2*
G1X1033816Y517848D1*
G1X1021416Y517948D2*
G1X1033716Y517948D1*
G1X1021516Y518048D2*
G1X1033716Y518048D1*
G1X1021616Y518148D2*
G1X1033616Y518148D1*
G1X1021816Y518248D2*
G1X1033516Y518248D1*
G1X1021916Y518348D2*
G1X1033516Y518348D1*
G1X1022016Y518448D2*
G1X1033416Y518448D1*
G1X1022116Y518548D2*
G1X1033416Y518548D1*
G1X1022216Y518648D2*
G1X1033316Y518648D1*
G1X1022316Y518748D2*
G1X1033316Y518748D1*
G1X1022416Y518848D2*
G1X1033216Y518848D1*
G1X1022516Y518948D2*
G1X1033216Y518948D1*
G1X1022616Y519048D2*
G1X1033116Y519048D1*
G1X1022716Y519148D2*
G1X1033116Y519148D1*
G1X1022816Y519248D2*
G1X1033116Y519248D1*
G1X1022916Y519348D2*
G1X1033016Y519348D1*
G1X1023016Y519448D2*
G1X1033016Y519448D1*
G1X1023116Y519548D2*
G1X1033016Y519548D1*
G1X1036116Y519548D2*
G1X1037016Y519548D1*
G1X1019616Y519648D2*
G1X1019716Y519648D1*
G1X1023216Y519648D2*
G1X1033016Y519648D1*
G1X1035816Y519648D2*
G1X1037416Y519648D1*
G1X1018916Y519748D2*
G1X1020316Y519748D1*
G1X1023216Y519748D2*
G1X1032916Y519748D1*
G1X1035616Y519748D2*
G1X1037716Y519748D1*
G1X1018616Y519848D2*
G1X1020616Y519848D1*
G1X1023316Y519848D2*
G1X1032916Y519848D1*
G1X1035416Y519848D2*
G1X1037916Y519848D1*
G1X1018416Y519948D2*
G1X1020816Y519948D1*
G1X1023416Y519948D2*
G1X1032916Y519948D1*
G1X1035316Y519948D2*
G1X1038116Y519948D1*
G1X1018216Y520048D2*
G1X1021016Y520048D1*
G1X1023416Y520048D2*
G1X1032916Y520048D1*
G1X1035216Y520048D2*
G1X1038316Y520048D1*
G1X1018116Y520148D2*
G1X1021116Y520148D1*
G1X1023516Y520148D2*
G1X1032916Y520148D1*
G1X1035216Y520148D2*
G1X1038516Y520148D1*
G1X1018016Y520248D2*
G1X1021316Y520248D1*
G1X1023516Y520248D2*
G1X1032916Y520248D1*
G1X1035116Y520248D2*
G1X1038716Y520248D1*
G1X1017916Y520348D2*
G1X1021416Y520348D1*
G1X1023616Y520348D2*
G1X1032916Y520348D1*
G1X1035116Y520348D2*
G1X1038816Y520348D1*
G1X1017816Y520448D2*
G1X1021516Y520448D1*
G1X1023616Y520448D2*
G1X1032916Y520448D1*
G1X1035016Y520448D2*
G1X1039016Y520448D1*
G1X1017716Y520548D2*
G1X1021616Y520548D1*
G1X1023716Y520548D2*
G1X1032916Y520548D1*
G1X1035016Y520548D2*
G1X1039116Y520548D1*
G1X1017616Y520648D2*
G1X1021716Y520648D1*
G1X1023716Y520648D2*
G1X1033016Y520648D1*
G1X1035016Y520648D2*
G1X1039216Y520648D1*
G1X1017516Y520748D2*
G1X1021816Y520748D1*
G1X1023816Y520748D2*
G1X1033016Y520748D1*
G1X1034916Y520748D2*
G1X1039416Y520748D1*
G1X1017416Y520848D2*
G1X1021816Y520848D1*
G1X1023816Y520848D2*
G1X1033016Y520848D1*
G1X1034916Y520848D2*
G1X1039516Y520848D1*
G1X1017416Y520948D2*
G1X1021916Y520948D1*
G1X1023916Y520948D2*
G1X1033016Y520948D1*
G1X1034916Y520948D2*
G1X1039616Y520948D1*
G1X1017316Y521048D2*
G1X1022016Y521048D1*
G1X1023916Y521048D2*
G1X1033016Y521048D1*
G1X1034916Y521048D2*
G1X1039716Y521048D1*
G1X1017316Y521148D2*
G1X1022116Y521148D1*
G1X1023916Y521148D2*
G1X1033116Y521148D1*
G1X1034916Y521148D2*
G1X1039816Y521148D1*
G1X1017216Y521248D2*
G1X1022116Y521248D1*
G1X1023916Y521248D2*
G1X1033116Y521248D1*
G1X1034916Y521248D2*
G1X1039916Y521248D1*
G1X1017216Y521348D2*
G1X1022216Y521348D1*
G1X1024016Y521348D2*
G1X1033116Y521348D1*
G1X1034916Y521348D2*
G1X1040016Y521348D1*
G1X1017116Y521448D2*
G1X1022216Y521448D1*
G1X1024016Y521448D2*
G1X1033116Y521448D1*
G1X1034916Y521448D2*
G1X1040116Y521448D1*
G1X1017116Y521548D2*
G1X1022316Y521548D1*
G1X1024116Y521548D2*
G1X1033116Y521548D1*
G1X1034916Y521548D2*
G1X1040216Y521548D1*
G1X1017016Y521648D2*
G1X1022316Y521648D1*
G1X1024116Y521648D2*
G1X1033216Y521648D1*
G1X1034916Y521648D2*
G1X1040316Y521648D1*
G1X1017016Y521748D2*
G1X1022416Y521748D1*
G1X1024116Y521748D2*
G1X1033216Y521748D1*
G1X1034916Y521748D2*
G1X1040416Y521748D1*
G1X1017016Y521848D2*
G1X1022416Y521848D1*
G1X1024216Y521848D2*
G1X1033216Y521848D1*
G1X1035016Y521848D2*
G1X1040516Y521848D1*
G1X1016916Y521948D2*
G1X1022416Y521948D1*
G1X1024216Y521948D2*
G1X1033216Y521948D1*
G1X1035016Y521948D2*
G1X1040616Y521948D1*
G1X1016916Y522048D2*
G1X1022516Y522048D1*
G1X1024316Y522048D2*
G1X1033216Y522048D1*
G1X1035016Y522048D2*
G1X1040616Y522048D1*
G1X1016916Y522148D2*
G1X1022516Y522148D1*
G1X1024416Y522148D2*
G1X1033216Y522148D1*
G1X1035016Y522148D2*
G1X1040716Y522148D1*
G1X1016916Y522248D2*
G1X1022516Y522248D1*
G1X1024416Y522248D2*
G1X1033116Y522248D1*
G1X1035116Y522248D2*
G1X1040816Y522248D1*
G1X1016816Y522348D2*
G1X1022516Y522348D1*
G1X1024516Y522348D2*
G1X1033116Y522348D1*
G1X1035116Y522348D2*
G1X1040916Y522348D1*
G1X1016816Y522448D2*
G1X1022616Y522448D1*
G1X1024616Y522448D2*
G1X1033116Y522448D1*
G1X1035116Y522448D2*
G1X1040916Y522448D1*
G1X1016816Y522548D2*
G1X1022616Y522548D1*
G1X1024716Y522548D2*
G1X1033016Y522548D1*
G1X1035216Y522548D2*
G1X1041016Y522548D1*
G1X1016816Y522648D2*
G1X1022616Y522648D1*
G1X1024816Y522648D2*
G1X1033016Y522648D1*
G1X1035216Y522648D2*
G1X1041116Y522648D1*
G1X1016816Y522748D2*
G1X1022616Y522748D1*
G1X1024916Y522748D2*
G1X1033016Y522748D1*
G1X1035316Y522748D2*
G1X1041116Y522748D1*
G1X1016816Y522848D2*
G1X1022716Y522848D1*
G1X1025016Y522848D2*
G1X1028716Y522848D1*
G1X1029316Y522848D2*
G1X1032916Y522848D1*
G1X1035316Y522848D2*
G1X1041216Y522848D1*
G1X1016816Y522948D2*
G1X1022716Y522948D1*
G1X1025116Y522948D2*
G1X1028416Y522948D1*
G1X1029616Y522948D2*
G1X1032916Y522948D1*
G1X1035316Y522948D2*
G1X1041216Y522948D1*
G1X1016816Y523048D2*
G1X1022716Y523048D1*
G1X1025216Y523048D2*
G1X1028216Y523048D1*
G1X1029816Y523048D2*
G1X1032816Y523048D1*
G1X1035416Y523048D2*
G1X1041316Y523048D1*
G1X1016816Y523148D2*
G1X1022716Y523148D1*
G1X1025416Y523148D2*
G1X1028116Y523148D1*
G1X1030116Y523148D2*
G1X1032716Y523148D1*
G1X1035516Y523148D2*
G1X1041316Y523148D1*
G1X1016816Y523248D2*
G1X1022716Y523248D1*
G1X1025516Y523248D2*
G1X1028016Y523248D1*
G1X1030216Y523248D2*
G1X1032616Y523248D1*
G1X1035516Y523248D2*
G1X1041416Y523248D1*
G1X1016816Y523348D2*
G1X1022716Y523348D1*
G1X1025716Y523348D2*
G1X1027816Y523348D1*
G1X1030416Y523348D2*
G1X1032516Y523348D1*
G1X1035616Y523348D2*
G1X1041416Y523348D1*
G1X1016816Y523448D2*
G1X1022716Y523448D1*
G1X1025916Y523448D2*
G1X1027716Y523448D1*
G1X1030716Y523448D2*
G1X1032216Y523448D1*
G1X1035616Y523448D2*
G1X1041516Y523448D1*
G1X1016816Y523548D2*
G1X1022716Y523548D1*
G1X1026216Y523548D2*
G1X1027516Y523548D1*
G1X1031016Y523548D2*
G1X1032116Y523548D1*
G1X1035716Y523548D2*
G1X1041516Y523548D1*
G1X1016816Y523648D2*
G1X1022716Y523648D1*
G1X1026516Y523648D2*
G1X1027016Y523648D1*
G1X1035716Y523648D2*
G1X1041516Y523648D1*
G1X1016916Y523748D2*
G1X1022716Y523748D1*
G1X1035816Y523748D2*
G1X1041616Y523748D1*
G1X1016916Y523848D2*
G1X1022716Y523848D1*
G1X1035916Y523848D2*
G1X1041616Y523848D1*
G1X1016916Y523948D2*
G1X1022616Y523948D1*
G1X1035916Y523948D2*
G1X1041616Y523948D1*
G1X1016916Y524048D2*
G1X1022616Y524048D1*
G1X1036016Y524048D2*
G1X1041716Y524048D1*
G1X1016916Y524148D2*
G1X1022616Y524148D1*
G1X1036116Y524148D2*
G1X1041716Y524148D1*
G1X1016916Y524248D2*
G1X1022616Y524248D1*
G1X1036116Y524248D2*
G1X1041716Y524248D1*
G1X1017016Y524348D2*
G1X1022616Y524348D1*
G1X1036216Y524348D2*
G1X1041816Y524348D1*
G1X1017016Y524448D2*
G1X1022616Y524448D1*
G1X1036316Y524448D2*
G1X1041816Y524448D1*
G1X1017016Y524548D2*
G1X1022516Y524548D1*
G1X1036416Y524548D2*
G1X1041816Y524548D1*
G1X1017116Y524648D2*
G1X1022516Y524648D1*
G1X1036516Y524648D2*
G1X1041816Y524648D1*
G1X1017116Y524748D2*
G1X1022516Y524748D1*
G1X1036616Y524748D2*
G1X1041816Y524748D1*
G1X1017216Y524848D2*
G1X1022516Y524848D1*
G1X1036716Y524848D2*
G1X1041816Y524848D1*
G1X1017216Y524948D2*
G1X1022416Y524948D1*
G1X1036816Y524948D2*
G1X1041816Y524948D1*
G1X1017216Y525048D2*
G1X1022416Y525048D1*
G1X1036916Y525048D2*
G1X1041816Y525048D1*
G1X1017316Y525148D2*
G1X1022316Y525148D1*
G1X1037016Y525148D2*
G1X1041816Y525148D1*
G1X1017316Y525248D2*
G1X1022316Y525248D1*
G1X1037116Y525248D2*
G1X1041816Y525248D1*
G1X1017416Y525348D2*
G1X1022216Y525348D1*
G1X1037216Y525348D2*
G1X1041816Y525348D1*
G1X1017516Y525448D2*
G1X1022216Y525448D1*
G1X1037316Y525448D2*
G1X1041816Y525448D1*
G1X1017516Y525548D2*
G1X1022116Y525548D1*
G1X1037416Y525548D2*
G1X1041816Y525548D1*
G1X1017616Y525648D2*
G1X1022016Y525648D1*
G1X1037616Y525648D2*
G1X1041816Y525648D1*
G1X1017716Y525748D2*
G1X1022016Y525748D1*
G1X1037716Y525748D2*
G1X1041716Y525748D1*
G1X1017816Y525848D2*
G1X1021916Y525848D1*
G1X1037816Y525848D2*
G1X1041716Y525848D1*
G1X1017916Y525948D2*
G1X1021816Y525948D1*
G1X1038016Y525948D2*
G1X1041616Y525948D1*
G1X1018016Y526048D2*
G1X1021716Y526048D1*
G1X1038216Y526048D2*
G1X1041616Y526048D1*
G1X1018116Y526148D2*
G1X1021616Y526148D1*
G1X1038316Y526148D2*
G1X1041516Y526148D1*
G1X1018216Y526248D2*
G1X1021516Y526248D1*
G1X1038516Y526248D2*
G1X1041416Y526248D1*
G1X1018316Y526348D2*
G1X1021416Y526348D1*
G1X1038716Y526348D2*
G1X1041316Y526348D1*
G1X1018516Y526448D2*
G1X1021216Y526448D1*
G1X1038916Y526448D2*
G1X1041216Y526448D1*
G1X1018616Y526548D2*
G1X1021116Y526548D1*
G1X1039216Y526548D2*
G1X1041016Y526548D1*
G1X1018816Y526648D2*
G1X1020916Y526648D1*
G1X1039616Y526648D2*
G1X1040816Y526648D1*
G1X1019116Y526748D2*
G1X1020716Y526748D1*
G1X1033616Y526748D2*
G1X1034116Y526748D1*
G1X1019616Y526848D2*
G1X1019716Y526848D1*
G1X1019816Y526848D2*
G1X1020116Y526848D1*
G1X1025716Y526848D2*
G1X1026916Y526848D1*
G1X1033216Y526848D2*
G1X1034616Y526848D1*
G1X1025416Y526948D2*
G1X1027216Y526948D1*
G1X1032916Y526948D2*
G1X1034916Y526948D1*
G1X1025316Y527048D2*
G1X1027416Y527048D1*
G1X1032816Y527048D2*
G1X1035116Y527048D1*
G1X1025116Y527148D2*
G1X1027616Y527148D1*
G1X1032716Y527148D2*
G1X1035316Y527148D1*
G1X1025016Y527248D2*
G1X1027816Y527248D1*
G1X1032616Y527248D2*
G1X1035416Y527248D1*
G1X1024916Y527348D2*
G1X1028016Y527348D1*
G1X1032516Y527348D2*
G1X1035616Y527348D1*
G1X1024916Y527448D2*
G1X1028116Y527448D1*
G1X1032416Y527448D2*
G1X1035716Y527448D1*
G1X1024816Y527548D2*
G1X1028216Y527548D1*
G1X1032416Y527548D2*
G1X1035816Y527548D1*
G1X1024716Y527648D2*
G1X1028316Y527648D1*
G1X1032316Y527648D2*
G1X1035916Y527648D1*
G1X1039616Y527648D2*
G1X1040516Y527648D1*
G1X1040816Y527648D2*
G1X1041116Y527648D1*
G1X1020616Y527748D2*
G1X1021016Y527748D1*
G1X1024716Y527748D2*
G1X1028416Y527748D1*
G1X1032316Y527748D2*
G1X1036016Y527748D1*
G1X1039616Y527748D2*
G1X1041116Y527748D1*
G1X1019616Y527848D2*
G1X1021016Y527848D1*
G1X1024616Y527848D2*
G1X1028516Y527848D1*
G1X1032216Y527848D2*
G1X1036116Y527848D1*
G1X1039616Y527848D2*
G1X1041216Y527848D1*
G1X1019616Y527948D2*
G1X1021116Y527948D1*
G1X1024616Y527948D2*
G1X1028616Y527948D1*
G1X1032216Y527948D2*
G1X1036216Y527948D1*
G1X1039616Y527948D2*
G1X1041216Y527948D1*
G1X1019616Y528048D2*
G1X1021116Y528048D1*
G1X1024616Y528048D2*
G1X1028716Y528048D1*
G1X1032116Y528048D2*
G1X1036316Y528048D1*
G1X1039716Y528048D2*
G1X1041216Y528048D1*
G1X1019616Y528148D2*
G1X1021216Y528148D1*
G1X1024516Y528148D2*
G1X1028816Y528148D1*
G1X1032116Y528148D2*
G1X1036416Y528148D1*
G1X1039716Y528148D2*
G1X1041216Y528148D1*
G1X1019716Y528248D2*
G1X1021216Y528248D1*
G1X1024516Y528248D2*
G1X1028916Y528248D1*
G1X1032116Y528248D2*
G1X1036516Y528248D1*
G1X1039716Y528248D2*
G1X1041316Y528248D1*
G1X1019716Y528348D2*
G1X1021216Y528348D1*
G1X1024516Y528348D2*
G1X1029016Y528348D1*
G1X1032116Y528348D2*
G1X1036516Y528348D1*
G1X1039716Y528348D2*
G1X1041316Y528348D1*
G1X1019716Y528448D2*
G1X1021316Y528448D1*
G1X1024516Y528448D2*
G1X1029016Y528448D1*
G1X1032016Y528448D2*
G1X1036616Y528448D1*
G1X1039816Y528448D2*
G1X1041316Y528448D1*
G1X1019816Y528548D2*
G1X1021316Y528548D1*
G1X1024416Y528548D2*
G1X1029116Y528548D1*
G1X1032016Y528548D2*
G1X1036716Y528548D1*
G1X1039816Y528548D2*
G1X1041316Y528548D1*
G1X1019816Y528648D2*
G1X1021316Y528648D1*
G1X1024416Y528648D2*
G1X1029216Y528648D1*
G1X1032016Y528648D2*
G1X1036816Y528648D1*
G1X1039816Y528648D2*
G1X1041316Y528648D1*
G1X1019816Y528748D2*
G1X1021416Y528748D1*
G1X1024416Y528748D2*
G1X1029216Y528748D1*
G1X1032016Y528748D2*
G1X1036816Y528748D1*
G1X1039816Y528748D2*
G1X1041416Y528748D1*
G1X1019916Y528848D2*
G1X1021416Y528848D1*
G1X1024416Y528848D2*
G1X1029316Y528848D1*
G1X1032016Y528848D2*
G1X1036916Y528848D1*
G1X1039916Y528848D2*
G1X1041416Y528848D1*
G1X1019916Y528948D2*
G1X1021416Y528948D1*
G1X1024416Y528948D2*
G1X1029416Y528948D1*
G1X1032016Y528948D2*
G1X1037016Y528948D1*
G1X1039916Y528948D2*
G1X1041416Y528948D1*
G1X1020016Y529048D2*
G1X1021416Y529048D1*
G1X1024416Y529048D2*
G1X1029416Y529048D1*
G1X1032016Y529048D2*
G1X1037016Y529048D1*
G1X1039916Y529048D2*
G1X1041416Y529048D1*
G1X1020016Y529148D2*
G1X1021516Y529148D1*
G1X1024416Y529148D2*
G1X1029516Y529148D1*
G1X1032016Y529148D2*
G1X1037116Y529148D1*
G1X1040016Y529148D2*
G1X1041416Y529148D1*
G1X1020116Y529248D2*
G1X1021516Y529248D1*
G1X1024416Y529248D2*
G1X1029516Y529248D1*
G1X1032016Y529248D2*
G1X1037116Y529248D1*
G1X1040016Y529248D2*
G1X1041416Y529248D1*
G1X1020116Y529348D2*
G1X1021516Y529348D1*
G1X1024416Y529348D2*
G1X1029616Y529348D1*
G1X1032016Y529348D2*
G1X1037216Y529348D1*
G1X1040016Y529348D2*
G1X1041416Y529348D1*
G1X1020216Y529448D2*
G1X1021516Y529448D1*
G1X1024416Y529448D2*
G1X1029616Y529448D1*
G1X1032016Y529448D2*
G1X1037216Y529448D1*
G1X1040116Y529448D2*
G1X1041416Y529448D1*
G1X1020216Y529548D2*
G1X1021616Y529548D1*
G1X1024416Y529548D2*
G1X1029716Y529548D1*
G1X1032016Y529548D2*
G1X1037316Y529548D1*
G1X1040116Y529548D2*
G1X1041416Y529548D1*
G1X1020316Y529648D2*
G1X1021616Y529648D1*
G1X1024416Y529648D2*
G1X1029716Y529648D1*
G1X1032016Y529648D2*
G1X1037316Y529648D1*
G1X1040216Y529648D2*
G1X1041416Y529648D1*
G1X1020316Y529748D2*
G1X1021616Y529748D1*
G1X1024416Y529748D2*
G1X1029816Y529748D1*
G1X1032016Y529748D2*
G1X1037416Y529748D1*
G1X1040216Y529748D2*
G1X1041416Y529748D1*
G1X1020416Y529848D2*
G1X1021616Y529848D1*
G1X1024416Y529848D2*
G1X1029816Y529848D1*
G1X1032016Y529848D2*
G1X1037416Y529848D1*
G1X1040216Y529848D2*
G1X1041416Y529848D1*
G1X1020416Y529948D2*
G1X1021616Y529948D1*
G1X1024416Y529948D2*
G1X1029916Y529948D1*
G1X1032016Y529948D2*
G1X1037516Y529948D1*
G1X1040316Y529948D2*
G1X1041416Y529948D1*
G1X1020516Y530048D2*
G1X1021616Y530048D1*
G1X1024416Y530048D2*
G1X1029916Y530048D1*
G1X1032016Y530048D2*
G1X1037516Y530048D1*
G1X1040316Y530048D2*
G1X1041416Y530048D1*
G1X1020516Y530148D2*
G1X1021616Y530148D1*
G1X1024516Y530148D2*
G1X1030016Y530148D1*
G1X1032016Y530148D2*
G1X1037616Y530148D1*
G1X1040416Y530148D2*
G1X1041416Y530148D1*
G1X1020616Y530248D2*
G1X1021616Y530248D1*
G1X1024516Y530248D2*
G1X1030016Y530248D1*
G1X1032116Y530248D2*
G1X1037616Y530248D1*
G1X1040416Y530248D2*
G1X1041416Y530248D1*
G1X1020616Y530348D2*
G1X1021616Y530348D1*
G1X1024516Y530348D2*
G1X1030016Y530348D1*
G1X1032116Y530348D2*
G1X1037616Y530348D1*
G1X1040516Y530348D2*
G1X1041416Y530348D1*
G1X1020716Y530448D2*
G1X1021716Y530448D1*
G1X1024516Y530448D2*
G1X1030116Y530448D1*
G1X1032116Y530448D2*
G1X1037616Y530448D1*
G1X1040516Y530448D2*
G1X1041416Y530448D1*
G1X1020816Y530548D2*
G1X1021716Y530548D1*
G1X1024516Y530548D2*
G1X1030116Y530548D1*
G1X1032116Y530548D2*
G1X1037716Y530548D1*
G1X1040616Y530548D2*
G1X1041416Y530548D1*
G1X1020816Y530648D2*
G1X1021716Y530648D1*
G1X1024616Y530648D2*
G1X1030116Y530648D1*
G1X1032216Y530648D2*
G1X1037716Y530648D1*
G1X1040716Y530648D2*
G1X1041416Y530648D1*
G1X1020916Y530748D2*
G1X1021716Y530748D1*
G1X1024616Y530748D2*
G1X1030216Y530748D1*
G1X1032216Y530748D2*
G1X1037716Y530748D1*
G1X1040716Y530748D2*
G1X1041316Y530748D1*
G1X1021016Y530848D2*
G1X1021716Y530848D1*
G1X1024616Y530848D2*
G1X1030216Y530848D1*
G1X1032216Y530848D2*
G1X1037816Y530848D1*
G1X1040816Y530848D2*
G1X1041316Y530848D1*
G1X1021116Y530948D2*
G1X1021716Y530948D1*
G1X1024616Y530948D2*
G1X1030216Y530948D1*
G1X1032216Y530948D2*
G1X1037816Y530948D1*
G1X1040816Y530948D2*
G1X1041316Y530948D1*
G1X1021116Y531048D2*
G1X1021716Y531048D1*
G1X1024716Y531048D2*
G1X1030316Y531048D1*
G1X1032316Y531048D2*
G1X1037816Y531048D1*
G1X1040916Y531048D2*
G1X1041316Y531048D1*
G1X1021216Y531148D2*
G1X1021716Y531148D1*
G1X1024716Y531148D2*
G1X1030316Y531148D1*
G1X1032316Y531148D2*
G1X1037816Y531148D1*
G1X1040916Y531148D2*
G1X1041316Y531148D1*
G1X1021316Y531248D2*
G1X1021616Y531248D1*
G1X1024716Y531248D2*
G1X1030316Y531248D1*
G1X1032416Y531248D2*
G1X1037916Y531248D1*
G1X1041016Y531248D2*
G1X1041316Y531248D1*
G1X1021416Y531348D2*
G1X1021616Y531348D1*
G1X1024816Y531348D2*
G1X1030316Y531348D1*
G1X1032416Y531348D2*
G1X1037916Y531348D1*
G1X1041116Y531348D2*
G1X1041216Y531348D1*
G1X1021516Y531448D2*
G1X1021616Y531448D1*
G1X1024816Y531448D2*
G1X1030316Y531448D1*
G1X1032416Y531448D2*
G1X1037916Y531448D1*
G1X1024916Y531548D2*
G1X1030316Y531548D1*
G1X1032516Y531548D2*
G1X1037916Y531548D1*
G1X1024916Y531648D2*
G1X1030316Y531648D1*
G1X1032516Y531648D2*
G1X1037916Y531648D1*
G1X1025016Y531748D2*
G1X1030316Y531748D1*
G1X1032616Y531748D2*
G1X1037916Y531748D1*
G1X1025016Y531848D2*
G1X1030316Y531848D1*
G1X1032616Y531848D2*
G1X1037916Y531848D1*
G1X1025016Y531948D2*
G1X1030316Y531948D1*
G1X1032716Y531948D2*
G1X1037916Y531948D1*
G1X1025116Y532048D2*
G1X1030316Y532048D1*
G1X1032716Y532048D2*
G1X1037916Y532048D1*
G1X1025216Y532148D2*
G1X1030316Y532148D1*
G1X1032816Y532148D2*
G1X1037916Y532148D1*
G1X1025216Y532248D2*
G1X1030316Y532248D1*
G1X1032816Y532248D2*
G1X1037916Y532248D1*
G1X1025316Y532348D2*
G1X1030316Y532348D1*
G1X1032916Y532348D2*
G1X1037916Y532348D1*
G1X1025416Y532448D2*
G1X1030316Y532448D1*
G1X1033016Y532448D2*
G1X1037916Y532448D1*
G1X1025416Y532548D2*
G1X1030316Y532548D1*
G1X1033016Y532548D2*
G1X1037916Y532548D1*
G1X1025516Y532648D2*
G1X1030316Y532648D1*
G1X1033116Y532648D2*
G1X1037916Y532648D1*
G1X1025516Y532748D2*
G1X1030316Y532748D1*
G1X1033216Y532748D2*
G1X1037816Y532748D1*
G1X1025616Y532848D2*
G1X1030316Y532848D1*
G1X1033316Y532848D2*
G1X1037816Y532848D1*
G1X1025716Y532948D2*
G1X1030316Y532948D1*
G1X1033416Y532948D2*
G1X1037816Y532948D1*
G1X1025816Y533048D2*
G1X1030216Y533048D1*
G1X1033416Y533048D2*
G1X1037816Y533048D1*
G1X1025916Y533148D2*
G1X1030216Y533148D1*
G1X1033516Y533148D2*
G1X1037716Y533148D1*
G1X1026016Y533248D2*
G1X1030216Y533248D1*
G1X1033616Y533248D2*
G1X1037716Y533248D1*
G1X1026116Y533348D2*
G1X1030116Y533348D1*
G1X1033716Y533348D2*
G1X1037716Y533348D1*
G1X1026116Y533448D2*
G1X1030116Y533448D1*
G1X1033816Y533448D2*
G1X1037616Y533448D1*
G1X1026216Y533548D2*
G1X1030116Y533548D1*
G1X1033916Y533548D2*
G1X1037616Y533548D1*
G1X1026316Y533648D2*
G1X1030016Y533648D1*
G1X1034016Y533648D2*
G1X1037516Y533648D1*
G1X1026416Y533748D2*
G1X1030016Y533748D1*
G1X1034116Y533748D2*
G1X1037516Y533748D1*
G1X1026616Y533848D2*
G1X1029916Y533848D1*
G1X1034216Y533848D2*
G1X1037416Y533848D1*
G1X1026716Y533948D2*
G1X1029816Y533948D1*
G1X1034316Y533948D2*
G1X1037416Y533948D1*
G1X1026816Y534048D2*
G1X1029816Y534048D1*
G1X1034516Y534048D2*
G1X1037316Y534048D1*
G1X1026916Y534148D2*
G1X1029716Y534148D1*
G1X1034616Y534148D2*
G1X1037216Y534148D1*
G1X1027116Y534248D2*
G1X1029616Y534248D1*
G1X1034716Y534248D2*
G1X1037116Y534248D1*
G1X1027216Y534348D2*
G1X1029516Y534348D1*
G1X1034916Y534348D2*
G1X1037116Y534348D1*
G1X1027416Y534448D2*
G1X1029416Y534448D1*
G1X1035116Y534448D2*
G1X1036916Y534448D1*
G1X1027516Y534548D2*
G1X1029316Y534548D1*
G1X1035216Y534548D2*
G1X1036816Y534548D1*
G1X1027716Y534648D2*
G1X1029216Y534648D1*
G1X1035516Y534648D2*
G1X1036716Y534648D1*
G1X1028016Y534748D2*
G1X1029016Y534748D1*
G1X1035816Y534748D2*
G1X1036416Y534748D1*
G1X1028416Y534848D2*
G1X1028616Y534848D1*
G1X1029316Y535548D2*
G1X1029416Y535548D1*
G1X1035616Y535548D2*
G1X1035816Y535548D1*
G1X1036716Y535548D2*
G1X1037016Y535548D1*
G1X1028016Y535648D2*
G1X1029516Y535648D1*
G1X1035616Y535648D2*
G1X1037116Y535648D1*
G1X1028016Y535748D2*
G1X1029516Y535748D1*
G1X1035616Y535748D2*
G1X1037116Y535748D1*
G1X1028016Y535848D2*
G1X1029616Y535848D1*
G1X1035616Y535848D2*
G1X1037216Y535848D1*
G1X1028016Y535948D2*
G1X1029616Y535948D1*
G1X1035716Y535948D2*
G1X1037216Y535948D1*
G1X1028116Y536048D2*
G1X1029616Y536048D1*
G1X1035716Y536048D2*
G1X1037216Y536048D1*
G1X1028116Y536148D2*
G1X1029616Y536148D1*
G1X1035716Y536148D2*
G1X1037216Y536148D1*
G1X1028116Y536248D2*
G1X1029716Y536248D1*
G1X1035716Y536248D2*
G1X1037216Y536248D1*
G1X1028216Y536348D2*
G1X1029716Y536348D1*
G1X1035816Y536348D2*
G1X1037316Y536348D1*
G1X1028216Y536448D2*
G1X1029716Y536448D1*
G1X1035816Y536448D2*
G1X1037316Y536448D1*
G1X1028216Y536548D2*
G1X1029716Y536548D1*
G1X1035916Y536548D2*
G1X1037316Y536548D1*
G1X1028316Y536648D2*
G1X1029716Y536648D1*
G1X1035916Y536648D2*
G1X1037316Y536648D1*
G1X1028316Y536748D2*
G1X1029816Y536748D1*
G1X1035916Y536748D2*
G1X1037416Y536748D1*
G1X1028416Y536848D2*
G1X1029816Y536848D1*
G1X1036016Y536848D2*
G1X1037416Y536848D1*
G1X1028416Y536948D2*
G1X1029816Y536948D1*
G1X1036016Y536948D2*
G1X1037416Y536948D1*
G1X1028516Y537048D2*
G1X1029816Y537048D1*
G1X1036116Y537048D2*
G1X1037416Y537048D1*
G1X1028516Y537148D2*
G1X1029816Y537148D1*
G1X1036116Y537148D2*
G1X1037416Y537148D1*
G1X1028516Y537248D2*
G1X1029816Y537248D1*
G1X1036216Y537248D2*
G1X1037416Y537248D1*
G1X1028616Y537348D2*
G1X1029816Y537348D1*
G1X1036216Y537348D2*
G1X1037416Y537348D1*
G1X1028616Y537448D2*
G1X1029816Y537448D1*
G1X1036316Y537448D2*
G1X1037416Y537448D1*
G1X1028716Y537548D2*
G1X1029816Y537548D1*
G1X1036316Y537548D2*
G1X1037416Y537548D1*
G1X1028716Y537648D2*
G1X1029816Y537648D1*
G1X1036416Y537648D2*
G1X1037416Y537648D1*
G1X1028816Y537748D2*
G1X1029816Y537748D1*
G1X1036416Y537748D2*
G1X1037416Y537748D1*
G1X1028816Y537848D2*
G1X1029816Y537848D1*
G1X1036516Y537848D2*
G1X1037416Y537848D1*
G1X1028916Y537948D2*
G1X1029816Y537948D1*
G1X1036516Y537948D2*
G1X1037416Y537948D1*
G1X1029016Y538048D2*
G1X1029816Y538048D1*
G1X1036616Y538048D2*
G1X1037416Y538048D1*
G1X1029016Y538148D2*
G1X1029816Y538148D1*
G1X1036716Y538148D2*
G1X1037416Y538148D1*
G1X1029116Y538248D2*
G1X1029816Y538248D1*
G1X1036716Y538248D2*
G1X1037416Y538248D1*
G1X1029216Y538348D2*
G1X1029816Y538348D1*
G1X1036816Y538348D2*
G1X1037416Y538348D1*
G1X1029216Y538448D2*
G1X1029816Y538448D1*
G1X1036916Y538448D2*
G1X1037416Y538448D1*
G1X1029316Y538548D2*
G1X1029816Y538548D1*
G1X1036916Y538548D2*
G1X1037416Y538548D1*
G1X1029416Y538648D2*
G1X1029816Y538648D1*
G1X1037016Y538648D2*
G1X1037416Y538648D1*
G1X1029416Y538748D2*
G1X1029816Y538748D1*
G1X1037116Y538748D2*
G1X1037316Y538748D1*
G1X1029516Y538848D2*
G1X1029816Y538848D1*
G1X1037116Y538848D2*
G1X1037316Y538848D1*
G1X1029616Y538948D2*
G1X1029716Y538948D1*
G1X590000Y587500D2*
G1X590003Y587500D1*
G1X1065000Y587500D2*
G1X1065003Y587500D1*
G1X590000Y350000D2*
G1X590003Y350000D1*
G1X590000Y587500D2*
G1X590003Y587500D1*
G1X1003049Y409313D2*
G54D11*
G1X1003049Y402750D1*
G1X1003049Y409313D2*
G1X1005094Y409313D1*
G1X1005776Y409000D1*
G1X1006003Y408688D1*
G1X1006231Y408063D1*
G1X1006231Y407438D1*
G1X1006003Y406813D1*
G1X1005776Y406500D1*
G1X1005094Y406188D1*
G1X1003049Y406188D2*
G1X1005094Y406188D1*
G1X1005776Y405875D1*
G1X1006003Y405563D1*
G1X1006231Y404938D1*
G1X1006231Y404000D1*
G1X1006003Y403375D1*
G1X1005776Y403063D1*
G1X1005094Y402750D1*
G1X1003049Y402750D1*
G1X1008276Y405250D2*
G1X1011003Y405250D1*
G1X1011003Y405875D1*
G1X1010776Y406500D1*
G1X1010549Y406813D1*
G1X1010094Y407125D1*
G1X1009412Y407125D1*
G1X1008958Y406813D1*
G1X1008503Y406188D1*
G1X1008276Y405250D1*
G1X1008276Y404625D1*
G1X1008503Y403688D1*
G1X1008958Y403063D1*
G1X1009412Y402750D1*
G1X1010094Y402750D1*
G1X1010549Y403063D1*
G1X1011003Y403688D1*
G1X1013049Y407125D2*
G1X1013049Y402750D1*
G1X1013049Y405875D2*
G1X1013731Y406813D1*
G1X1014185Y407125D1*
G1X1014867Y407125D1*
G1X1015321Y406813D1*
G1X1015549Y405875D1*
G1X1015549Y402750D1*
G1X1022821Y409313D2*
G1X1022821Y402750D1*
G1X1022821Y409313D2*
G1X1024867Y409313D1*
G1X1025549Y409000D1*
G1X1025776Y408688D1*
G1X1026003Y408063D1*
G1X1026003Y407438D1*
G1X1025776Y406813D1*
G1X1025549Y406500D1*
G1X1024867Y406188D1*
G1X1022821Y406188D1*
G1X1024412Y406188D2*
G1X1026003Y402750D1*
G1X1028049Y409313D2*
G1X1028276Y409000D1*
G1X1028503Y409313D1*
G1X1028276Y409625D1*
G1X1028049Y409313D1*
G1X1028276Y407125D2*
G1X1028276Y402750D1*
G1X1033276Y406188D2*
G1X1032821Y406813D1*
G1X1032367Y407125D1*
G1X1031685Y407125D1*
G1X1031231Y406813D1*
G1X1030776Y406188D1*
G1X1030549Y405250D1*
G1X1030549Y404625D1*
G1X1030776Y403688D1*
G1X1031231Y403063D1*
G1X1031685Y402750D1*
G1X1032367Y402750D1*
G1X1032821Y403063D1*
G1X1033276Y403688D1*
G1X1035321Y409313D2*
G1X1035321Y402750D1*
G1X1035321Y405875D2*
G1X1036003Y406813D1*
G1X1036458Y407125D1*
G1X1037140Y407125D1*
G1X1037594Y406813D1*
G1X1037821Y405875D1*
G1X1037821Y402750D1*
G1X1042594Y407125D2*
G1X1042594Y402750D1*
G1X1042594Y406188D2*
G1X1042140Y406813D1*
G1X1041685Y407125D1*
G1X1041003Y407125D1*
G1X1040549Y406813D1*
G1X1040094Y406188D1*
G1X1039867Y405250D1*
G1X1039867Y404625D1*
G1X1040094Y403688D1*
G1X1040549Y403063D1*
G1X1041003Y402750D1*
G1X1041685Y402750D1*
G1X1042140Y403063D1*
G1X1042594Y403688D1*
G1X1044640Y407125D2*
G1X1044640Y402750D1*
G1X1044640Y405250D2*
G1X1044867Y406188D1*
G1X1045321Y406813D1*
G1X1045776Y407125D1*
G1X1046458Y407125D1*
G1X1051231Y409313D2*
G1X1051231Y402750D1*
G1X1051231Y406188D2*
G1X1050776Y406813D1*
G1X1050321Y407125D1*
G1X1049640Y407125D1*
G1X1049185Y406813D1*
G1X1048731Y406188D1*
G1X1048503Y405250D1*
G1X1048503Y404625D1*
G1X1048731Y403688D1*
G1X1049185Y403063D1*
G1X1049640Y402750D1*
G1X1050321Y402750D1*
G1X1050776Y403063D1*
G1X1051231Y403688D1*
G1X1055776Y406188D2*
G1X1055549Y406813D1*
G1X1054867Y407125D1*
G1X1054185Y407125D1*
G1X1053503Y406813D1*
G1X1053276Y406188D1*
G1X1053503Y405563D1*
G1X1053958Y405250D1*
G1X1055094Y404938D1*
G1X1055549Y404625D1*
G1X1055776Y404000D1*
G1X1055776Y403688D1*
G1X1055549Y403063D1*
G1X1054867Y402750D1*
G1X1054185Y402750D1*
G1X1053503Y403063D1*
G1X1053276Y403688D1*
G1X671500Y535000D2*
G1X679500Y535000D1*
G1X675500Y531000D2*
G1X675500Y539000D1*
G1X671500Y402500D2*
G1X679500Y402500D1*
G1X675500Y398500D2*
G1X675500Y406500D1*
G1X975500Y535000D2*
G1X983500Y535000D1*
G1X979500Y531000D2*
G1X979500Y539000D1*
G1X975500Y402500D2*
G1X983500Y402500D1*
G1X979500Y398500D2*
G1X979500Y406500D1*
G1X857870Y414750D2*
G1X865870Y422750D1*
G1X857870Y422750D2*
G1X865870Y414750D1*
G1X857986Y514750D2*
G1X865986Y522750D1*
G1X857986Y522750D2*
G1X865986Y514750D1*
G1X695214Y558866D2*
G1X703214Y558866D1*
G1X703214Y566866D1*
G1X695214Y566866D1*
G1X695214Y558866D1*
G1X699214Y562866D2*
G1X699214Y566866D1*
G1X705214Y558866D2*
G1X713214Y558866D1*
G1X713214Y566866D1*
G1X705214Y566866D1*
G1X705214Y558866D1*
G1X709214Y562866D2*
G1X709214Y566866D1*
G1X715214Y558866D2*
G1X723214Y558866D1*
G1X723214Y566866D1*
G1X715214Y566866D1*
G1X715214Y558866D1*
G1X719214Y562866D2*
G1X719214Y566866D1*
G1X725214Y558866D2*
G1X733214Y558866D1*
G1X733214Y566866D1*
G1X725214Y566866D1*
G1X725214Y558866D1*
G1X729214Y562866D2*
G1X729214Y566866D1*
G1X735214Y558866D2*
G1X743214Y558866D1*
G1X743214Y566866D1*
G1X735214Y566866D1*
G1X735214Y558866D1*
G1X739214Y562866D2*
G1X739214Y566866D1*
G1X745214Y558866D2*
G1X753214Y558866D1*
G1X753214Y566866D1*
G1X745214Y566866D1*
G1X745214Y558866D1*
G1X749214Y562866D2*
G1X749214Y566866D1*
G1X1000000Y563500D2*
G1X1008000Y563500D1*
G1X1008000Y571500D1*
G1X1000000Y571500D1*
G1X1000000Y563500D1*
G1X1004000Y567500D2*
G1X1004000Y571500D1*
G1X1010000Y563500D2*
G1X1018000Y563500D1*
G1X1018000Y571500D1*
G1X1010000Y571500D1*
G1X1010000Y563500D1*
G1X1014000Y567500D2*
G1X1014000Y571500D1*
G1X1020000Y563500D2*
G1X1028000Y563500D1*
G1X1028000Y571500D1*
G1X1020000Y571500D1*
G1X1020000Y563500D1*
G1X1024000Y567500D2*
G1X1024000Y571500D1*
G1X1030000Y563500D2*
G1X1038000Y563500D1*
G1X1038000Y571500D1*
G1X1030000Y571500D1*
G1X1030000Y563500D1*
G1X1034000Y567500D2*
G1X1034000Y571500D1*
G1X1040000Y563500D2*
G1X1048000Y563500D1*
G1X1048000Y571500D1*
G1X1040000Y571500D1*
G1X1040000Y563500D1*
G1X1044000Y567500D2*
G1X1044000Y571500D1*
G1X1050000Y563500D2*
G1X1058000Y563500D1*
G1X1058000Y571500D1*
G1X1050000Y571500D1*
G1X1050000Y563500D1*
G1X1054000Y567500D2*
G1X1054000Y571500D1*
G1X1000000Y368500D2*
G1X1008000Y368500D1*
G1X1008000Y376500D1*
G1X1000000Y376500D1*
G1X1000000Y368500D1*
G1X1004000Y372500D2*
G1X1004000Y376500D1*
G1X1010000Y368500D2*
G1X1018000Y368500D1*
G1X1018000Y376500D1*
G1X1010000Y376500D1*
G1X1010000Y368500D1*
G1X1014000Y372500D2*
G1X1014000Y376500D1*
G1X1020000Y368500D2*
G1X1028000Y368500D1*
G1X1028000Y376500D1*
G1X1020000Y376500D1*
G1X1020000Y368500D1*
G1X1024000Y372500D2*
G1X1024000Y376500D1*
G1X1030000Y368500D2*
G1X1038000Y368500D1*
G1X1038000Y376500D1*
G1X1030000Y376500D1*
G1X1030000Y368500D1*
G1X1034000Y372500D2*
G1X1034000Y376500D1*
G1X1040000Y368500D2*
G1X1048000Y368500D1*
G1X1048000Y376500D1*
G1X1040000Y376500D1*
G1X1040000Y368500D1*
G1X1044000Y372500D2*
G1X1044000Y376500D1*
G1X1050000Y368500D2*
G1X1058000Y368500D1*
G1X1058000Y376500D1*
G1X1050000Y376500D1*
G1X1050000Y368500D1*
G1X1054000Y372500D2*
G1X1054000Y376500D1*
G1X847000Y474750D2*
G1X851000Y478750D1*
G1X847000Y482750D1*
G1X843000Y478750D1*
G1X847000Y474750D1*
G1X847000Y478750D2*
G1X847000Y482750D1*
G1X847000Y464750D2*
G1X851000Y468750D1*
G1X847000Y472750D1*
G1X843000Y468750D1*
G1X847000Y464750D1*
G1X847000Y468750D2*
G1X847000Y472750D1*
G1X847000Y454750D2*
G1X851000Y458750D1*
G1X847000Y462750D1*
G1X843000Y458750D1*
G1X847000Y454750D1*
G1X847000Y458750D2*
G1X847000Y462750D1*
G1X877048Y454800D2*
G1X881048Y458800D1*
G1X877048Y462800D1*
G1X873048Y458800D1*
G1X877048Y454800D1*
G1X877048Y458800D2*
G1X877048Y462800D1*
G1X877048Y474800D2*
G1X881048Y478800D1*
G1X877048Y482800D1*
G1X873048Y478800D1*
G1X877048Y474800D1*
G1X877048Y478800D2*
G1X877048Y482800D1*
G1X613731Y373491D2*
G1X621731Y373491D1*
G1X613731Y381491D1*
G1X621731Y381491D1*
G1X613731Y373491D1*
G1X626696Y365672D2*
G1X634696Y365672D1*
G1X626696Y373672D1*
G1X634696Y373672D1*
G1X626696Y365672D1*
G1X793105Y369276D2*
G1X801105Y369276D1*
G1X793105Y377276D1*
G1X801105Y377276D1*
G1X793105Y369276D1*
G1X801054Y373233D2*
G1X809054Y373233D1*
G1X801054Y381233D1*
G1X809054Y381233D1*
G1X801054Y373233D1*
G1X646862Y409418D2*
G1X654862Y409418D1*
G1X646862Y417418D1*
G1X654862Y417418D1*
G1X646862Y409418D1*
G1X717058Y402650D2*
G1X725058Y402650D1*
G1X717058Y410650D1*
G1X725058Y410650D1*
G1X717058Y402650D1*
G1X613731Y419992D2*
G1X621731Y419992D1*
G1X613731Y427992D1*
G1X621731Y427992D1*
G1X613731Y419992D1*
G1X653931Y424666D2*
G1X661931Y424666D1*
G1X653931Y432666D1*
G1X661931Y432666D1*
G1X653931Y424666D1*
G1X786539Y429004D2*
G1X794539Y429004D1*
G1X786539Y437004D1*
G1X794539Y437004D1*
G1X786539Y429004D1*
G1X662384Y444326D2*
G1X670384Y444326D1*
G1X662384Y452326D1*
G1X670384Y452326D1*
G1X662384Y444326D1*
G1X748300Y448852D2*
G1X756300Y448852D1*
G1X748300Y456852D1*
G1X756300Y456852D1*
G1X748300Y448852D1*
G1X793105Y454164D2*
G1X801105Y454164D1*
G1X793105Y462164D1*
G1X801105Y462164D1*
G1X793105Y454164D1*
G1X1029910Y456251D2*
G1X1037910Y456251D1*
G1X1029910Y464251D1*
G1X1037910Y464251D1*
G1X1029910Y456251D1*
G1X646574Y464573D2*
G1X654574Y464573D1*
G1X646574Y472573D1*
G1X654574Y472573D1*
G1X646574Y464573D1*
G1X670628Y463390D2*
G1X678628Y463390D1*
G1X670628Y471390D1*
G1X678628Y471390D1*
G1X670628Y463390D1*
G1X701345Y469494D2*
G1X709345Y469494D1*
G1X701345Y477494D1*
G1X709345Y477494D1*
G1X701345Y469494D1*
G1X728024Y474769D2*
G1X736024Y474769D1*
G1X728024Y482769D1*
G1X736024Y482769D1*
G1X728024Y474769D1*
G1X741697Y465656D2*
G1X749697Y465656D1*
G1X741697Y473656D1*
G1X749697Y473656D1*
G1X741697Y465656D1*
G1X748300Y474769D2*
G1X756300Y474769D1*
G1X748300Y482769D1*
G1X756300Y482769D1*
G1X748300Y474769D1*
G1X801054Y474832D2*
G1X809054Y474832D1*
G1X801054Y482832D1*
G1X809054Y482832D1*
G1X801054Y474832D1*
G1X965111Y461251D2*
G1X973111Y461251D1*
G1X965111Y469251D1*
G1X973111Y469251D1*
G1X965111Y461251D1*
G1X970759Y466251D2*
G1X978759Y466251D1*
G1X970759Y474251D1*
G1X978759Y474251D1*
G1X970759Y466251D1*
G1X970759Y475863D2*
G1X978759Y475863D1*
G1X970759Y483863D1*
G1X978759Y483863D1*
G1X970759Y475863D1*
G1X1009992Y466251D2*
G1X1017992Y466251D1*
G1X1009992Y474251D1*
G1X1017992Y474251D1*
G1X1009992Y466251D1*
G1X1019998Y471251D2*
G1X1027998Y471251D1*
G1X1019998Y479251D1*
G1X1027998Y479251D1*
G1X1019998Y471251D1*
G1X1039906Y461251D2*
G1X1047906Y461251D1*
G1X1039906Y469251D1*
G1X1047906Y469251D1*
G1X1039906Y461251D1*
G1X626696Y484552D2*
G1X634696Y484552D1*
G1X626696Y492552D1*
G1X634696Y492552D1*
G1X626696Y484552D1*
G1X687768Y490636D2*
G1X695768Y490636D1*
G1X687768Y498636D1*
G1X695768Y498636D1*
G1X687768Y490636D1*
G1X718497Y479494D2*
G1X726497Y479494D1*
G1X718497Y487494D1*
G1X726497Y487494D1*
G1X718497Y479494D1*
G1X746759Y486744D2*
G1X754759Y486744D1*
G1X746759Y494744D1*
G1X754759Y494744D1*
G1X746759Y486744D1*
G1X756759Y479494D2*
G1X764759Y479494D1*
G1X756759Y487494D1*
G1X764759Y487494D1*
G1X756759Y479494D1*
G1X761738Y490636D2*
G1X769738Y490636D1*
G1X761738Y498636D1*
G1X769738Y498636D1*
G1X761738Y490636D1*
G1X770881Y486744D2*
G1X778881Y486744D1*
G1X770881Y494744D1*
G1X778881Y494744D1*
G1X770881Y486744D1*
G1X715214Y508058D2*
G1X723214Y508058D1*
G1X715214Y516058D1*
G1X723214Y516058D1*
G1X715214Y508058D1*
G1X741730Y508040D2*
G1X749730Y508040D1*
G1X741730Y516040D1*
G1X749730Y516040D1*
G1X741730Y508040D1*
G1X756965Y508040D2*
G1X764965Y508040D1*
G1X756965Y516040D1*
G1X764965Y516040D1*
G1X756965Y508040D1*
G1X780449Y503834D2*
G1X788449Y503834D1*
G1X780449Y511834D1*
G1X788449Y511834D1*
G1X780449Y503834D1*
G1X949299Y497322D2*
G1X957299Y497322D1*
G1X949299Y505322D1*
G1X957299Y505322D1*
G1X949299Y497322D1*
G1X741673Y517040D2*
G1X749673Y517040D1*
G1X741673Y525040D1*
G1X749673Y525040D1*
G1X741673Y517040D1*
G1X757080Y517040D2*
G1X765080Y517040D1*
G1X757080Y525040D1*
G1X765080Y525040D1*
G1X757080Y517040D1*
G1X646594Y554008D2*
G1X654594Y554008D1*
G1X646594Y562008D1*
G1X654594Y562008D1*
G1X646594Y554008D1*
G1X715214Y540251D2*
G1X723214Y540251D1*
G1X715214Y548251D1*
G1X723214Y548251D1*
G1X715214Y540251D1*
G1X100000Y100000D2*
G54D10*
G1X100000Y587500D1*
G1X1065000Y587500D1*
G1X1065000Y100000D1*
G1X100000Y100000D1*
G54D55*
G1X582500Y610750D3*
G54D56*
G1X1114224Y343750D3*
M2*
