M48
INCH,TZ
FMAT,2
ICI,OFF
T01C.02F197S55
T02C.035F197S55
T03C.041F139S55
T04C.1F069S658
T05C.15748F035S9
%
T01
G05
X12773Y12749
X12773Y17399
X12773Y37749
X12773Y42399
X14070Y48855
X14070Y36967
X14070Y23855
X14070Y11967
X16086Y16342
X16793Y17867
X16057Y21857
X16059Y30801
X16086Y41342
X17638Y19833
X16793Y42867
X16057Y46857
X16059Y55801
X18463Y21739
X17638Y44833
X18463Y46739
X20177Y49464
X20177Y24464
X21534Y22349
X21534Y47349
X23106Y15665
X23250Y23349
X22921Y26206
X22921Y29425
X23106Y40665
X22921Y51206
X22921Y54425
X23250Y48349
X24202Y47877
X24202Y22877
X26230Y20285
X25570Y21966
X26230Y22877
X26076Y24074
X25573Y26204
X25567Y27104
X26230Y45285
X25570Y46966
X26230Y47877
X26076Y49074
X25573Y51204
X25567Y52104
X27076Y23349
X27574Y24464
X27097Y26204
X27108Y27104
X27076Y48349
X27097Y51204
X27108Y52104
X28488Y24074
X29445Y25783
X28488Y49074
X27574Y49464
X29445Y50783
X30054Y43300
X30054Y18300
X30710Y12328
X31505Y12723
X30710Y20816
X31505Y22883
X30710Y37328
X31505Y37723
X30710Y45816
X31505Y47883
X46330Y50132
X46330Y25132
X47911Y21525
X48476Y22025
X48476Y22986
X47911Y46525
X48476Y47025
X48476Y47986
X52399Y47025
X52399Y22025
X54391Y21025
X53400Y22525
X54391Y46025
X53400Y47525
X55391Y46525
X55391Y21525
X61773Y12749
X61773Y17399
X61773Y37749
X61773Y42399
X63070Y48855
X63070Y36967
X63070Y23855
X63070Y11967
X65086Y16342
X65793Y17867
X65057Y21857
X65059Y30801
X65086Y41342
X66638Y19833
X65793Y42867
X65057Y46857
X65059Y55801
X67463Y21739
X66638Y44833
X67463Y46739
X69177Y49464
X69177Y24464
X70534Y22349
X70534Y47349
X72106Y15665
X72250Y23349
X71921Y26206
X71921Y29425
X72106Y40665
X71921Y51206
X71921Y54425
X72250Y48349
X73202Y47877
X73202Y22877
X75230Y20285
X74570Y21966
X75230Y22877
X75076Y24074
X74573Y26204
X74567Y27104
X75230Y45285
X74570Y46966
X75230Y47877
X75076Y49074
X74573Y51204
X74567Y52104
X76076Y23349
X76574Y24464
X76097Y26204
X76108Y27104
X76076Y48349
X76097Y51204
X76108Y52104
X77488Y24074
X78445Y25783
X77488Y49074
X76574Y49464
X78445Y50783
X79054Y43300
X79054Y18300
X79710Y12328
X80505Y12723
X79710Y20816
X80505Y22883
X79710Y37328
X80505Y37723
X79710Y45816
X80505Y47883
X95330Y50132
X95330Y25132
X96911Y21525
X97476Y22025
X97476Y22986
X96911Y46525
X97476Y47025
X97476Y47986
X101399Y47025
X101399Y22025
X103391Y21025
X102400Y22525
X103391Y46025
X102400Y47525
X104391Y46525
X104391Y21525
T02
X20921Y31287
X22921Y31287
X21921Y31287
X22921Y56287
X20921Y56287
X21921Y56287
X23921Y31287
X24921Y31287
X23921Y56287
X24921Y56287
X25921Y56287
X25921Y31287
X51400Y12250
X52400Y12250
X52400Y31750
X51400Y31750
X53400Y31750
X53400Y12250
X51400Y37250
X52400Y37250
X53400Y37250
X51400Y56750
X54400Y37250
X54400Y31750
X54400Y12250
X53400Y56750
X52400Y56750
X56400Y12250
X55400Y12250
X56400Y31750
X55400Y31750
X56400Y37250
X55400Y37250
X54400Y56750
X56400Y56750
X55400Y56750
X69921Y31287
X70921Y31287
X70921Y56287
X69921Y56287
X71921Y31287
X72921Y31287
X71921Y56287
X74921Y31287
X73921Y31287
X72921Y56287
X73921Y56287
X74921Y56287
X101400Y12250
X100400Y12250
X101400Y31750
X100400Y31750
X102400Y31750
X102400Y12250
X100400Y37250
X101400Y37250
X102400Y37250
X100400Y56750
X103400Y37250
X103400Y31750
X103400Y12250
X101400Y56750
X102400Y56750
X103400Y56750
X104400Y12250
X105400Y12250
X104400Y31750
X105400Y31750
X104400Y37250
X105400Y37250
X104400Y56750
X105400Y56750
T03
X35700Y20875
X35700Y21875
X35700Y22875
X35700Y45875
X35700Y46875
X35700Y47875
X38705Y47880
X38705Y45880
X38705Y22880
X38705Y20880
X84700Y20875
X84700Y21875
X84700Y22875
X84700Y45875
X84700Y46875
X84700Y47875
X87705Y47880
X87705Y45880
X87705Y22880
X87705Y20880
T04
X37187Y16875
X37199Y26875
X37187Y41875
X37199Y51875
X86187Y16875
X86199Y26875
X86187Y41875
X86199Y51875
T05
X18550Y15250
X18550Y28500
X18550Y40250
X18550Y53500
X48950Y53500
X48950Y40250
X48950Y28500
X48950Y15250
X67550Y15250
X67550Y28500
X67550Y40250
X67550Y53500
X97950Y53500
X97950Y40250
X97950Y28500
X97950Y15250
M30
