*
%LPD*%
%LNsm001021*%
%FSLAX25Y25*%
%MOIN*%
%AD*%
%AD*%
%ADD11C,0.01*%
%ADD19R,0.06X0.07*%
%ADD20R,0.07X0.06*%
%ADD21C,0.384020079*%
%ADD22C,0.21*%
%ADD23R,0.325X0.097*%
%ADD24R,0.075X0.075*%
%ADD25C,0.075*%
%ADD26R,0.065X0.093*%
%ADD27O,0.084X0.034*%
%ADD28R,0.0848X0.0474*%
%ADD29R,0.0848X0.13795*%
%ADD30O,0.034X0.084*%
%ADD31R,0.07X0.07*%
%ADD32C,0.07*%
%ADD33R,0.08X0.08*%
%ADD34C,0.08*%
%ADD53R,0.065X0.065*%
G54D11*
%SRX1Y1I0.0J0.0*%
G1X524639Y249429D2*
G1X525346Y250136D1*
G1X552580Y250136D1*
G1X553287Y249429D1*
G1X553287Y239702D1*
G1X552580Y238994D1*
G1X525346Y238994D1*
G1X524639Y239702D1*
G1X524639Y249429D1*
G1X511290Y159079D2*
G1X513497Y161286D1*
G1X564838Y161286D1*
G1X567045Y159079D1*
G1X567045Y152351D1*
G1X564838Y150144D1*
G1X513497Y150144D1*
G1X511290Y152351D1*
G1X511290Y159079D1*
G1X524922Y289807D2*
G1X525629Y290514D1*
G1X552863Y290514D1*
G1X553570Y289807D1*
G1X553570Y260314D1*
G1X552863Y259607D1*
G1X525629Y259607D1*
G1X524922Y260314D1*
G1X524922Y289807D1*
G1X543108Y238994D2*
G1X553287Y249174D1*
G1X544380Y238994D2*
G1X553287Y247901D1*
G1X545653Y238994D2*
G1X553287Y246629D1*
G1X546926Y238994D2*
G1X553287Y245356D1*
G1X548199Y238994D2*
G1X553287Y244083D1*
G1X549472Y238994D2*
G1X553287Y242810D1*
G1X550744Y238994D2*
G1X553287Y241537D1*
G1X552017Y238994D2*
G1X553287Y240265D1*
G1X541835Y238994D2*
G1X552778Y249938D1*
G1X540562Y238994D2*
G1X551704Y250136D1*
G1X539289Y238994D2*
G1X550431Y250136D1*
G1X538016Y238994D2*
G1X549158Y250136D1*
G1X536744Y238994D2*
G1X547885Y250136D1*
G1X535471Y238994D2*
G1X546612Y250136D1*
G1X534198Y238994D2*
G1X545340Y250136D1*
G1X532925Y238994D2*
G1X544067Y250136D1*
G1X531653Y238994D2*
G1X542794Y250136D1*
G1X530380Y238994D2*
G1X541521Y250136D1*
G1X529107Y238994D2*
G1X540249Y250136D1*
G1X527834Y238994D2*
G1X538976Y250136D1*
G1X526561Y238994D2*
G1X537703Y250136D1*
G1X525317Y239023D2*
G1X536430Y250136D1*
G1X524681Y239660D2*
G1X535157Y250136D1*
G1X524639Y240891D2*
G1X533885Y250136D1*
G1X524639Y242164D2*
G1X532612Y250136D1*
G1X524639Y243436D2*
G1X531339Y250136D1*
G1X524639Y244709D2*
G1X530066Y250136D1*
G1X524639Y245982D2*
G1X528793Y250136D1*
G1X524639Y247255D2*
G1X527521Y250136D1*
G1X524639Y248528D2*
G1X526248Y250136D1*
G1X558138Y150144D2*
G1X567045Y159051D1*
G1X559411Y150144D2*
G1X567045Y157778D1*
G1X560683Y150144D2*
G1X567045Y156505D1*
G1X561956Y150144D2*
G1X567045Y155233D1*
G1X563229Y150144D2*
G1X567045Y153960D1*
G1X564502Y150144D2*
G1X567045Y152687D1*
G1X556865Y150144D2*
G1X566422Y159701D1*
G1X555592Y150144D2*
G1X565786Y160338D1*
G1X554319Y150144D2*
G1X565149Y160974D1*
G1X553047Y150144D2*
G1X564188Y161286D1*
G1X551774Y150144D2*
G1X562915Y161286D1*
G1X550501Y150144D2*
G1X561643Y161286D1*
G1X549228Y150144D2*
G1X560370Y161286D1*
G1X547955Y150144D2*
G1X559097Y161286D1*
G1X546683Y150144D2*
G1X557824Y161286D1*
G1X545410Y150144D2*
G1X556551Y161286D1*
G1X544137Y150144D2*
G1X555279Y161286D1*
G1X542864Y150144D2*
G1X554006Y161286D1*
G1X541591Y150144D2*
G1X552733Y161286D1*
G1X540319Y150144D2*
G1X551460Y161286D1*
G1X539046Y150144D2*
G1X550187Y161286D1*
G1X537773Y150144D2*
G1X548915Y161286D1*
G1X536500Y150144D2*
G1X547642Y161286D1*
G1X535228Y150144D2*
G1X546369Y161286D1*
G1X533955Y150144D2*
G1X545096Y161286D1*
G1X532682Y150144D2*
G1X543824Y161286D1*
G1X531409Y150144D2*
G1X542551Y161286D1*
G1X530136Y150144D2*
G1X541278Y161286D1*
G1X528864Y150144D2*
G1X540005Y161286D1*
G1X527591Y150144D2*
G1X538732Y161286D1*
G1X526318Y150144D2*
G1X537460Y161286D1*
G1X525045Y150144D2*
G1X536187Y161286D1*
G1X523772Y150144D2*
G1X534914Y161286D1*
G1X522500Y150144D2*
G1X533641Y161286D1*
G1X521227Y150144D2*
G1X532368Y161286D1*
G1X519954Y150144D2*
G1X531096Y161286D1*
G1X518681Y150144D2*
G1X529823Y161286D1*
G1X517408Y150144D2*
G1X528550Y161286D1*
G1X516136Y150144D2*
G1X527277Y161286D1*
G1X514863Y150144D2*
G1X526004Y161286D1*
G1X513590Y150144D2*
G1X524732Y161286D1*
G1X512907Y150734D2*
G1X523459Y161286D1*
G1X512271Y151370D2*
G1X522186Y161286D1*
G1X511634Y152007D2*
G1X520913Y161286D1*
G1X511290Y152935D2*
G1X519640Y161286D1*
G1X511290Y154208D2*
G1X518368Y161286D1*
G1X511290Y155481D2*
G1X517095Y161286D1*
G1X511290Y156753D2*
G1X515822Y161286D1*
G1X511290Y158026D2*
G1X514549Y161286D1*
G1X524963Y260272D2*
G1X553570Y288878D1*
G1X525600Y259636D2*
G1X553570Y287606D1*
G1X526844Y259607D2*
G1X553570Y286333D1*
G1X528117Y259607D2*
G1X553570Y285060D1*
G1X529389Y259607D2*
G1X553570Y283787D1*
G1X530662Y259607D2*
G1X553570Y282514D1*
G1X531935Y259607D2*
G1X553570Y281242D1*
G1X533208Y259607D2*
G1X553570Y279969D1*
G1X534480Y259607D2*
G1X553570Y278696D1*
G1X535753Y259607D2*
G1X553570Y277423D1*
G1X537026Y259607D2*
G1X553570Y276151D1*
G1X538299Y259607D2*
G1X553570Y274878D1*
G1X539572Y259607D2*
G1X553570Y273605D1*
G1X540844Y259607D2*
G1X553570Y272332D1*
G1X542117Y259607D2*
G1X553570Y271059D1*
G1X543390Y259607D2*
G1X553570Y269787D1*
G1X544663Y259607D2*
G1X553570Y268514D1*
G1X545936Y259607D2*
G1X553570Y267241D1*
G1X547208Y259607D2*
G1X553570Y265968D1*
G1X548481Y259607D2*
G1X553570Y264695D1*
G1X549754Y259607D2*
G1X553570Y263423D1*
G1X551027Y259607D2*
G1X553570Y262150D1*
G1X552300Y259607D2*
G1X553570Y260877D1*
G1X524922Y261503D2*
G1X553397Y289979D1*
G1X524922Y262776D2*
G1X552660Y290514D1*
G1X524922Y264049D2*
G1X551387Y290514D1*
G1X524922Y265322D2*
G1X550114Y290514D1*
G1X524922Y266594D2*
G1X548841Y290514D1*
G1X524922Y267867D2*
G1X547568Y290514D1*
G1X524922Y269140D2*
G1X546296Y290514D1*
G1X524922Y270413D2*
G1X545023Y290514D1*
G1X524922Y271686D2*
G1X543750Y290514D1*
G1X524922Y272958D2*
G1X542477Y290514D1*
G1X524922Y274231D2*
G1X541204Y290514D1*
G1X524922Y275504D2*
G1X539932Y290514D1*
G1X524922Y276777D2*
G1X538659Y290514D1*
G1X524922Y278050D2*
G1X537386Y290514D1*
G1X524922Y279322D2*
G1X536113Y290514D1*
G1X524922Y280595D2*
G1X534840Y290514D1*
G1X524922Y281868D2*
G1X533568Y290514D1*
G1X524922Y283141D2*
G1X532295Y290514D1*
G1X524922Y284413D2*
G1X531022Y290514D1*
G1X524922Y285686D2*
G1X529749Y290514D1*
G1X524922Y286959D2*
G1X528476Y290514D1*
G1X524922Y288232D2*
G1X527204Y290514D1*
G1X524922Y289505D2*
G1X525931Y290514D1*
G54D19*
G1X120519Y303866D3*
G1X120519Y312866D3*
G1X218028Y174929D3*
G1X218028Y165929D3*
G1X277742Y140773D3*
G1X277742Y149773D3*
G1X307100Y219832D3*
G1X307100Y228832D3*
G1X470923Y219398D3*
G1X470923Y210398D3*
G1X284482Y262040D3*
G1X284482Y271040D3*
G1X143651Y303866D3*
G1X143651Y312866D3*
G1X131994Y312861D3*
G1X131994Y321861D3*
G1X218028Y153207D3*
G1X218028Y144207D3*
G1X151773Y192597D3*
G1X151773Y183597D3*
G1X151372Y227573D3*
G1X151372Y218573D3*
G1X176384Y237595D3*
G1X176384Y228595D3*
G1X176384Y207135D3*
G1X176384Y216135D3*
G1X307100Y240767D3*
G1X307100Y249767D3*
G1X151456Y154381D3*
G1X151456Y163381D3*
G54D20*
G1X239307Y156650D3*
G1X248307Y156650D3*
G1X224345Y246806D3*
G1X215345Y246806D3*
G1X127731Y154196D3*
G1X136731Y154196D3*
G1X127288Y227617D3*
G1X136288Y227617D3*
G1X127731Y192484D3*
G1X136731Y192484D3*
G1X248307Y144241D3*
G1X239307Y144241D3*
G1X232281Y191265D3*
G1X223281Y191265D3*
G1X473764Y251322D3*
G1X482764Y251322D3*
G1X473764Y238051D3*
G1X482764Y238051D3*
G1X173367Y112218D3*
G1X164367Y112218D3*
G54D21*
G1X185500Y285000D3*
G1X185500Y152500D3*
G1X489500Y285000D3*
G1X489500Y152500D3*
G54D22*
G1X371870Y168750D3*
G1X371986Y268750D3*
G54D23*
G1X277432Y160559D3*
G1X277432Y183059D3*
G54D24*
G1X357000Y228750D3*
G54D25*
G1X357000Y218750D3*
G1X357000Y208750D3*
G1X387048Y208800D3*
G1X387048Y228800D3*
G54D26*
G1X140696Y284906D3*
G1X140696Y249006D3*
G1X123196Y284906D3*
G1X123196Y249006D3*
G54D27*
G1X201768Y238494D3*
G1X201768Y233494D3*
G1X201768Y228494D3*
G1X201768Y223494D3*
G1X224368Y223494D3*
G1X224368Y228494D3*
G1X224368Y233494D3*
G1X224368Y238494D3*
G1X232440Y180146D3*
G1X232440Y175146D3*
G1X232440Y170146D3*
G1X232440Y165146D3*
G1X255040Y165146D3*
G1X255040Y170146D3*
G1X255040Y175146D3*
G1X255040Y180146D3*
G1X153590Y112214D3*
G1X153590Y122214D3*
G1X127590Y122214D3*
G1X127590Y112214D3*
G1X492827Y225251D3*
G1X492827Y220251D3*
G1X492827Y215251D3*
G1X492827Y210251D3*
G1X515427Y210251D3*
G1X515427Y215251D3*
G1X515427Y220251D3*
G1X515427Y225251D3*
G54D28*
G1X294389Y210644D3*
G1X294389Y219699D3*
G1X294389Y228754D3*
G54D29*
G1X270373Y219699D3*
G54D30*
G1X235759Y253792D3*
G1X240759Y253792D3*
G1X245759Y253792D3*
G1X250759Y253792D3*
G1X255759Y253792D3*
G1X260759Y253792D3*
G1X265759Y253792D3*
G1X270759Y253792D3*
G1X275759Y253792D3*
G1X275759Y291192D3*
G1X270759Y291192D3*
G1X265759Y291192D3*
G1X260759Y291192D3*
G1X255759Y291192D3*
G1X250759Y291192D3*
G1X245759Y291192D3*
G1X240759Y291192D3*
G1X235759Y291192D3*
G54D31*
G1X209214Y312866D3*
G54D32*
G1X219214Y312866D3*
G1X229214Y312866D3*
G1X239214Y312866D3*
G1X249214Y312866D3*
G1X259214Y312866D3*
G54D33*
G1X514000Y317500D3*
G1X514000Y122500D3*
G54D34*
G1X524000Y317500D3*
G1X534000Y317500D3*
G1X544000Y317500D3*
G1X554000Y317500D3*
G1X564000Y317500D3*
G1X524000Y122500D3*
G1X534000Y122500D3*
G1X544000Y122500D3*
G1X554000Y122500D3*
G1X564000Y122500D3*
G54D53*
G1X302680Y148814D3*
G1X302680Y160814D3*
G1X524639Y499429D2*
G54D11*
G1X525346Y500136D1*
G1X552580Y500136D1*
G1X553287Y499429D1*
G1X553287Y489702D1*
G1X552580Y488994D1*
G1X525346Y488994D1*
G1X524639Y489702D1*
G1X524639Y499429D1*
G1X511290Y409079D2*
G1X513497Y411286D1*
G1X564838Y411286D1*
G1X567045Y409079D1*
G1X567045Y402351D1*
G1X564838Y400144D1*
G1X513497Y400144D1*
G1X511290Y402351D1*
G1X511290Y409079D1*
G1X524922Y539807D2*
G1X525629Y540514D1*
G1X552863Y540514D1*
G1X553570Y539807D1*
G1X553570Y510314D1*
G1X552863Y509607D1*
G1X525629Y509607D1*
G1X524922Y510314D1*
G1X524922Y539807D1*
G1X543108Y488994D2*
G1X553287Y499174D1*
G1X544380Y488994D2*
G1X553287Y497901D1*
G1X545653Y488994D2*
G1X553287Y496629D1*
G1X546926Y488994D2*
G1X553287Y495356D1*
G1X548199Y488994D2*
G1X553287Y494083D1*
G1X549472Y488994D2*
G1X553287Y492810D1*
G1X550744Y488994D2*
G1X553287Y491537D1*
G1X552017Y488994D2*
G1X553287Y490265D1*
G1X541835Y488994D2*
G1X552778Y499938D1*
G1X540562Y488994D2*
G1X551704Y500136D1*
G1X539289Y488994D2*
G1X550431Y500136D1*
G1X538016Y488994D2*
G1X549158Y500136D1*
G1X536744Y488994D2*
G1X547885Y500136D1*
G1X535471Y488994D2*
G1X546612Y500136D1*
G1X534198Y488994D2*
G1X545340Y500136D1*
G1X532925Y488994D2*
G1X544067Y500136D1*
G1X531653Y488994D2*
G1X542794Y500136D1*
G1X530380Y488994D2*
G1X541521Y500136D1*
G1X529107Y488994D2*
G1X540249Y500136D1*
G1X527834Y488994D2*
G1X538976Y500136D1*
G1X526561Y488994D2*
G1X537703Y500136D1*
G1X525317Y489023D2*
G1X536430Y500136D1*
G1X524681Y489660D2*
G1X535157Y500136D1*
G1X524639Y490891D2*
G1X533885Y500136D1*
G1X524639Y492164D2*
G1X532612Y500136D1*
G1X524639Y493436D2*
G1X531339Y500136D1*
G1X524639Y494709D2*
G1X530066Y500136D1*
G1X524639Y495982D2*
G1X528793Y500136D1*
G1X524639Y497255D2*
G1X527521Y500136D1*
G1X524639Y498528D2*
G1X526248Y500136D1*
G1X558138Y400144D2*
G1X567045Y409051D1*
G1X559411Y400144D2*
G1X567045Y407778D1*
G1X560683Y400144D2*
G1X567045Y406505D1*
G1X561956Y400144D2*
G1X567045Y405233D1*
G1X563229Y400144D2*
G1X567045Y403960D1*
G1X564502Y400144D2*
G1X567045Y402687D1*
G1X556865Y400144D2*
G1X566422Y409701D1*
G1X555592Y400144D2*
G1X565786Y410338D1*
G1X554319Y400144D2*
G1X565149Y410974D1*
G1X553047Y400144D2*
G1X564188Y411286D1*
G1X551774Y400144D2*
G1X562915Y411286D1*
G1X550501Y400144D2*
G1X561643Y411286D1*
G1X549228Y400144D2*
G1X560370Y411286D1*
G1X547955Y400144D2*
G1X559097Y411286D1*
G1X546683Y400144D2*
G1X557824Y411286D1*
G1X545410Y400144D2*
G1X556551Y411286D1*
G1X544137Y400144D2*
G1X555279Y411286D1*
G1X542864Y400144D2*
G1X554006Y411286D1*
G1X541591Y400144D2*
G1X552733Y411286D1*
G1X540319Y400144D2*
G1X551460Y411286D1*
G1X539046Y400144D2*
G1X550187Y411286D1*
G1X537773Y400144D2*
G1X548915Y411286D1*
G1X536500Y400144D2*
G1X547642Y411286D1*
G1X535228Y400144D2*
G1X546369Y411286D1*
G1X533955Y400144D2*
G1X545096Y411286D1*
G1X532682Y400144D2*
G1X543824Y411286D1*
G1X531409Y400144D2*
G1X542551Y411286D1*
G1X530136Y400144D2*
G1X541278Y411286D1*
G1X528864Y400144D2*
G1X540005Y411286D1*
G1X527591Y400144D2*
G1X538732Y411286D1*
G1X526318Y400144D2*
G1X537460Y411286D1*
G1X525045Y400144D2*
G1X536187Y411286D1*
G1X523772Y400144D2*
G1X534914Y411286D1*
G1X522500Y400144D2*
G1X533641Y411286D1*
G1X521227Y400144D2*
G1X532368Y411286D1*
G1X519954Y400144D2*
G1X531096Y411286D1*
G1X518681Y400144D2*
G1X529823Y411286D1*
G1X517408Y400144D2*
G1X528550Y411286D1*
G1X516136Y400144D2*
G1X527277Y411286D1*
G1X514863Y400144D2*
G1X526004Y411286D1*
G1X513590Y400144D2*
G1X524732Y411286D1*
G1X512907Y400734D2*
G1X523459Y411286D1*
G1X512271Y401370D2*
G1X522186Y411286D1*
G1X511634Y402007D2*
G1X520913Y411286D1*
G1X511290Y402935D2*
G1X519640Y411286D1*
G1X511290Y404208D2*
G1X518368Y411286D1*
G1X511290Y405481D2*
G1X517095Y411286D1*
G1X511290Y406753D2*
G1X515822Y411286D1*
G1X511290Y408026D2*
G1X514549Y411286D1*
G1X524963Y510272D2*
G1X553570Y538878D1*
G1X525600Y509636D2*
G1X553570Y537606D1*
G1X526844Y509607D2*
G1X553570Y536333D1*
G1X528117Y509607D2*
G1X553570Y535060D1*
G1X529389Y509607D2*
G1X553570Y533787D1*
G1X530662Y509607D2*
G1X553570Y532514D1*
G1X531935Y509607D2*
G1X553570Y531242D1*
G1X533208Y509607D2*
G1X553570Y529969D1*
G1X534480Y509607D2*
G1X553570Y528696D1*
G1X535753Y509607D2*
G1X553570Y527423D1*
G1X537026Y509607D2*
G1X553570Y526151D1*
G1X538299Y509607D2*
G1X553570Y524878D1*
G1X539572Y509607D2*
G1X553570Y523605D1*
G1X540844Y509607D2*
G1X553570Y522332D1*
G1X542117Y509607D2*
G1X553570Y521059D1*
G1X543390Y509607D2*
G1X553570Y519787D1*
G1X544663Y509607D2*
G1X553570Y518514D1*
G1X545936Y509607D2*
G1X553570Y517241D1*
G1X547208Y509607D2*
G1X553570Y515968D1*
G1X548481Y509607D2*
G1X553570Y514695D1*
G1X549754Y509607D2*
G1X553570Y513423D1*
G1X551027Y509607D2*
G1X553570Y512150D1*
G1X552300Y509607D2*
G1X553570Y510877D1*
G1X524922Y511503D2*
G1X553397Y539979D1*
G1X524922Y512776D2*
G1X552660Y540514D1*
G1X524922Y514049D2*
G1X551387Y540514D1*
G1X524922Y515322D2*
G1X550114Y540514D1*
G1X524922Y516594D2*
G1X548841Y540514D1*
G1X524922Y517867D2*
G1X547568Y540514D1*
G1X524922Y519140D2*
G1X546296Y540514D1*
G1X524922Y520413D2*
G1X545023Y540514D1*
G1X524922Y521686D2*
G1X543750Y540514D1*
G1X524922Y522958D2*
G1X542477Y540514D1*
G1X524922Y524231D2*
G1X541204Y540514D1*
G1X524922Y525504D2*
G1X539932Y540514D1*
G1X524922Y526777D2*
G1X538659Y540514D1*
G1X524922Y528050D2*
G1X537386Y540514D1*
G1X524922Y529322D2*
G1X536113Y540514D1*
G1X524922Y530595D2*
G1X534840Y540514D1*
G1X524922Y531868D2*
G1X533568Y540514D1*
G1X524922Y533141D2*
G1X532295Y540514D1*
G1X524922Y534413D2*
G1X531022Y540514D1*
G1X524922Y535686D2*
G1X529749Y540514D1*
G1X524922Y536959D2*
G1X528476Y540514D1*
G1X524922Y538232D2*
G1X527204Y540514D1*
G1X524922Y539505D2*
G1X525931Y540514D1*
G54D19*
G1X120519Y553866D3*
G1X120519Y562866D3*
G1X218028Y424929D3*
G1X218028Y415929D3*
G1X277742Y390773D3*
G1X277742Y399773D3*
G1X307100Y469832D3*
G1X307100Y478832D3*
G1X470923Y469398D3*
G1X470923Y460398D3*
G1X284482Y512040D3*
G1X284482Y521040D3*
G1X143651Y553866D3*
G1X143651Y562866D3*
G1X131994Y562861D3*
G1X131994Y571861D3*
G1X218028Y403207D3*
G1X218028Y394207D3*
G1X151773Y442597D3*
G1X151773Y433597D3*
G1X151372Y477573D3*
G1X151372Y468573D3*
G1X176384Y487595D3*
G1X176384Y478595D3*
G1X176384Y457135D3*
G1X176384Y466135D3*
G1X307100Y490767D3*
G1X307100Y499767D3*
G1X151456Y404381D3*
G1X151456Y413381D3*
G54D20*
G1X239307Y406650D3*
G1X248307Y406650D3*
G1X224345Y496806D3*
G1X215345Y496806D3*
G1X127731Y404196D3*
G1X136731Y404196D3*
G1X127288Y477617D3*
G1X136288Y477617D3*
G1X127731Y442484D3*
G1X136731Y442484D3*
G1X248307Y394241D3*
G1X239307Y394241D3*
G1X232281Y441265D3*
G1X223281Y441265D3*
G1X473764Y501322D3*
G1X482764Y501322D3*
G1X473764Y488051D3*
G1X482764Y488051D3*
G1X173367Y362218D3*
G1X164367Y362218D3*
G54D21*
G1X185500Y535000D3*
G1X185500Y402500D3*
G1X489500Y535000D3*
G1X489500Y402500D3*
G54D22*
G1X371870Y418750D3*
G1X371986Y518750D3*
G54D23*
G1X277432Y410559D3*
G1X277432Y433059D3*
G54D24*
G1X357000Y478750D3*
G54D25*
G1X357000Y468750D3*
G1X357000Y458750D3*
G1X387048Y458800D3*
G1X387048Y478800D3*
G54D26*
G1X140696Y534906D3*
G1X140696Y499006D3*
G1X123196Y534906D3*
G1X123196Y499006D3*
G54D27*
G1X201768Y488494D3*
G1X201768Y483494D3*
G1X201768Y478494D3*
G1X201768Y473494D3*
G1X224368Y473494D3*
G1X224368Y478494D3*
G1X224368Y483494D3*
G1X224368Y488494D3*
G1X232440Y430146D3*
G1X232440Y425146D3*
G1X232440Y420146D3*
G1X232440Y415146D3*
G1X255040Y415146D3*
G1X255040Y420146D3*
G1X255040Y425146D3*
G1X255040Y430146D3*
G1X153590Y362214D3*
G1X153590Y372214D3*
G1X127590Y372214D3*
G1X127590Y362214D3*
G1X492827Y475251D3*
G1X492827Y470251D3*
G1X492827Y465251D3*
G1X492827Y460251D3*
G1X515427Y460251D3*
G1X515427Y465251D3*
G1X515427Y470251D3*
G1X515427Y475251D3*
G54D28*
G1X294389Y460644D3*
G1X294389Y469699D3*
G1X294389Y478754D3*
G54D29*
G1X270373Y469699D3*
G54D30*
G1X235759Y503792D3*
G1X240759Y503792D3*
G1X245759Y503792D3*
G1X250759Y503792D3*
G1X255759Y503792D3*
G1X260759Y503792D3*
G1X265759Y503792D3*
G1X270759Y503792D3*
G1X275759Y503792D3*
G1X275759Y541192D3*
G1X270759Y541192D3*
G1X265759Y541192D3*
G1X260759Y541192D3*
G1X255759Y541192D3*
G1X250759Y541192D3*
G1X245759Y541192D3*
G1X240759Y541192D3*
G1X235759Y541192D3*
G54D31*
G1X209214Y562866D3*
G54D32*
G1X219214Y562866D3*
G1X229214Y562866D3*
G1X239214Y562866D3*
G1X249214Y562866D3*
G1X259214Y562866D3*
G54D33*
G1X514000Y567500D3*
G1X514000Y372500D3*
G54D34*
G1X524000Y567500D3*
G1X534000Y567500D3*
G1X544000Y567500D3*
G1X554000Y567500D3*
G1X564000Y567500D3*
G1X524000Y372500D3*
G1X534000Y372500D3*
G1X544000Y372500D3*
G1X554000Y372500D3*
G1X564000Y372500D3*
G54D53*
G1X302680Y398814D3*
G1X302680Y410814D3*
G1X1014639Y249429D2*
G54D11*
G1X1015346Y250136D1*
G1X1042580Y250136D1*
G1X1043287Y249429D1*
G1X1043287Y239702D1*
G1X1042580Y238994D1*
G1X1015346Y238994D1*
G1X1014639Y239702D1*
G1X1014639Y249429D1*
G1X1001290Y159079D2*
G1X1003497Y161286D1*
G1X1054838Y161286D1*
G1X1057045Y159079D1*
G1X1057045Y152351D1*
G1X1054838Y150144D1*
G1X1003497Y150144D1*
G1X1001290Y152351D1*
G1X1001290Y159079D1*
G1X1014922Y289807D2*
G1X1015629Y290514D1*
G1X1042863Y290514D1*
G1X1043570Y289807D1*
G1X1043570Y260314D1*
G1X1042863Y259607D1*
G1X1015629Y259607D1*
G1X1014922Y260314D1*
G1X1014922Y289807D1*
G1X1033108Y238994D2*
G1X1043287Y249174D1*
G1X1034380Y238994D2*
G1X1043287Y247901D1*
G1X1035653Y238994D2*
G1X1043287Y246629D1*
G1X1036926Y238994D2*
G1X1043287Y245356D1*
G1X1038199Y238994D2*
G1X1043287Y244083D1*
G1X1039472Y238994D2*
G1X1043287Y242810D1*
G1X1040744Y238994D2*
G1X1043287Y241537D1*
G1X1042017Y238994D2*
G1X1043287Y240265D1*
G1X1031835Y238994D2*
G1X1042778Y249938D1*
G1X1030562Y238994D2*
G1X1041704Y250136D1*
G1X1029289Y238994D2*
G1X1040431Y250136D1*
G1X1028016Y238994D2*
G1X1039158Y250136D1*
G1X1026744Y238994D2*
G1X1037885Y250136D1*
G1X1025471Y238994D2*
G1X1036612Y250136D1*
G1X1024198Y238994D2*
G1X1035340Y250136D1*
G1X1022925Y238994D2*
G1X1034067Y250136D1*
G1X1021653Y238994D2*
G1X1032794Y250136D1*
G1X1020380Y238994D2*
G1X1031521Y250136D1*
G1X1019107Y238994D2*
G1X1030249Y250136D1*
G1X1017834Y238994D2*
G1X1028976Y250136D1*
G1X1016561Y238994D2*
G1X1027703Y250136D1*
G1X1015317Y239023D2*
G1X1026430Y250136D1*
G1X1014681Y239660D2*
G1X1025157Y250136D1*
G1X1014639Y240891D2*
G1X1023885Y250136D1*
G1X1014639Y242164D2*
G1X1022612Y250136D1*
G1X1014639Y243436D2*
G1X1021339Y250136D1*
G1X1014639Y244709D2*
G1X1020066Y250136D1*
G1X1014639Y245982D2*
G1X1018793Y250136D1*
G1X1014639Y247255D2*
G1X1017521Y250136D1*
G1X1014639Y248528D2*
G1X1016248Y250136D1*
G1X1048138Y150144D2*
G1X1057045Y159051D1*
G1X1049411Y150144D2*
G1X1057045Y157778D1*
G1X1050683Y150144D2*
G1X1057045Y156505D1*
G1X1051956Y150144D2*
G1X1057045Y155233D1*
G1X1053229Y150144D2*
G1X1057045Y153960D1*
G1X1054502Y150144D2*
G1X1057045Y152687D1*
G1X1046865Y150144D2*
G1X1056422Y159701D1*
G1X1045592Y150144D2*
G1X1055786Y160338D1*
G1X1044319Y150144D2*
G1X1055149Y160974D1*
G1X1043047Y150144D2*
G1X1054188Y161286D1*
G1X1041774Y150144D2*
G1X1052915Y161286D1*
G1X1040501Y150144D2*
G1X1051643Y161286D1*
G1X1039228Y150144D2*
G1X1050370Y161286D1*
G1X1037955Y150144D2*
G1X1049097Y161286D1*
G1X1036683Y150144D2*
G1X1047824Y161286D1*
G1X1035410Y150144D2*
G1X1046551Y161286D1*
G1X1034137Y150144D2*
G1X1045279Y161286D1*
G1X1032864Y150144D2*
G1X1044006Y161286D1*
G1X1031591Y150144D2*
G1X1042733Y161286D1*
G1X1030319Y150144D2*
G1X1041460Y161286D1*
G1X1029046Y150144D2*
G1X1040187Y161286D1*
G1X1027773Y150144D2*
G1X1038915Y161286D1*
G1X1026500Y150144D2*
G1X1037642Y161286D1*
G1X1025228Y150144D2*
G1X1036369Y161286D1*
G1X1023955Y150144D2*
G1X1035096Y161286D1*
G1X1022682Y150144D2*
G1X1033824Y161286D1*
G1X1021409Y150144D2*
G1X1032551Y161286D1*
G1X1020136Y150144D2*
G1X1031278Y161286D1*
G1X1018864Y150144D2*
G1X1030005Y161286D1*
G1X1017591Y150144D2*
G1X1028732Y161286D1*
G1X1016318Y150144D2*
G1X1027460Y161286D1*
G1X1015045Y150144D2*
G1X1026187Y161286D1*
G1X1013772Y150144D2*
G1X1024914Y161286D1*
G1X1012500Y150144D2*
G1X1023641Y161286D1*
G1X1011227Y150144D2*
G1X1022368Y161286D1*
G1X1009954Y150144D2*
G1X1021096Y161286D1*
G1X1008681Y150144D2*
G1X1019823Y161286D1*
G1X1007408Y150144D2*
G1X1018550Y161286D1*
G1X1006136Y150144D2*
G1X1017277Y161286D1*
G1X1004863Y150144D2*
G1X1016004Y161286D1*
G1X1003590Y150144D2*
G1X1014732Y161286D1*
G1X1002907Y150734D2*
G1X1013459Y161286D1*
G1X1002271Y151370D2*
G1X1012186Y161286D1*
G1X1001634Y152007D2*
G1X1010913Y161286D1*
G1X1001290Y152935D2*
G1X1009640Y161286D1*
G1X1001290Y154208D2*
G1X1008368Y161286D1*
G1X1001290Y155481D2*
G1X1007095Y161286D1*
G1X1001290Y156753D2*
G1X1005822Y161286D1*
G1X1001290Y158026D2*
G1X1004549Y161286D1*
G1X1014963Y260272D2*
G1X1043570Y288878D1*
G1X1015600Y259636D2*
G1X1043570Y287606D1*
G1X1016844Y259607D2*
G1X1043570Y286333D1*
G1X1018117Y259607D2*
G1X1043570Y285060D1*
G1X1019389Y259607D2*
G1X1043570Y283787D1*
G1X1020662Y259607D2*
G1X1043570Y282514D1*
G1X1021935Y259607D2*
G1X1043570Y281242D1*
G1X1023208Y259607D2*
G1X1043570Y279969D1*
G1X1024480Y259607D2*
G1X1043570Y278696D1*
G1X1025753Y259607D2*
G1X1043570Y277423D1*
G1X1027026Y259607D2*
G1X1043570Y276151D1*
G1X1028299Y259607D2*
G1X1043570Y274878D1*
G1X1029572Y259607D2*
G1X1043570Y273605D1*
G1X1030844Y259607D2*
G1X1043570Y272332D1*
G1X1032117Y259607D2*
G1X1043570Y271059D1*
G1X1033390Y259607D2*
G1X1043570Y269787D1*
G1X1034663Y259607D2*
G1X1043570Y268514D1*
G1X1035936Y259607D2*
G1X1043570Y267241D1*
G1X1037208Y259607D2*
G1X1043570Y265968D1*
G1X1038481Y259607D2*
G1X1043570Y264695D1*
G1X1039754Y259607D2*
G1X1043570Y263423D1*
G1X1041027Y259607D2*
G1X1043570Y262150D1*
G1X1042300Y259607D2*
G1X1043570Y260877D1*
G1X1014922Y261503D2*
G1X1043397Y289979D1*
G1X1014922Y262776D2*
G1X1042660Y290514D1*
G1X1014922Y264049D2*
G1X1041387Y290514D1*
G1X1014922Y265322D2*
G1X1040114Y290514D1*
G1X1014922Y266594D2*
G1X1038841Y290514D1*
G1X1014922Y267867D2*
G1X1037568Y290514D1*
G1X1014922Y269140D2*
G1X1036296Y290514D1*
G1X1014922Y270413D2*
G1X1035023Y290514D1*
G1X1014922Y271686D2*
G1X1033750Y290514D1*
G1X1014922Y272958D2*
G1X1032477Y290514D1*
G1X1014922Y274231D2*
G1X1031204Y290514D1*
G1X1014922Y275504D2*
G1X1029932Y290514D1*
G1X1014922Y276777D2*
G1X1028659Y290514D1*
G1X1014922Y278050D2*
G1X1027386Y290514D1*
G1X1014922Y279322D2*
G1X1026113Y290514D1*
G1X1014922Y280595D2*
G1X1024840Y290514D1*
G1X1014922Y281868D2*
G1X1023568Y290514D1*
G1X1014922Y283141D2*
G1X1022295Y290514D1*
G1X1014922Y284413D2*
G1X1021022Y290514D1*
G1X1014922Y285686D2*
G1X1019749Y290514D1*
G1X1014922Y286959D2*
G1X1018476Y290514D1*
G1X1014922Y288232D2*
G1X1017204Y290514D1*
G1X1014922Y289505D2*
G1X1015931Y290514D1*
G54D19*
G1X610519Y303866D3*
G1X610519Y312866D3*
G1X708028Y174929D3*
G1X708028Y165929D3*
G1X767742Y140773D3*
G1X767742Y149773D3*
G1X797100Y219832D3*
G1X797100Y228832D3*
G1X960923Y219398D3*
G1X960923Y210398D3*
G1X774482Y262040D3*
G1X774482Y271040D3*
G1X633651Y303866D3*
G1X633651Y312866D3*
G1X621994Y312861D3*
G1X621994Y321861D3*
G1X708028Y153207D3*
G1X708028Y144207D3*
G1X641773Y192597D3*
G1X641773Y183597D3*
G1X641372Y227573D3*
G1X641372Y218573D3*
G1X666384Y237595D3*
G1X666384Y228595D3*
G1X666384Y207135D3*
G1X666384Y216135D3*
G1X797100Y240767D3*
G1X797100Y249767D3*
G1X641456Y154381D3*
G1X641456Y163381D3*
G54D20*
G1X729307Y156650D3*
G1X738307Y156650D3*
G1X714345Y246806D3*
G1X705345Y246806D3*
G1X617731Y154196D3*
G1X626731Y154196D3*
G1X617288Y227617D3*
G1X626288Y227617D3*
G1X617731Y192484D3*
G1X626731Y192484D3*
G1X738307Y144241D3*
G1X729307Y144241D3*
G1X722281Y191265D3*
G1X713281Y191265D3*
G1X963764Y251322D3*
G1X972764Y251322D3*
G1X963764Y238051D3*
G1X972764Y238051D3*
G1X663367Y112218D3*
G1X654367Y112218D3*
G54D21*
G1X675500Y285000D3*
G1X675500Y152500D3*
G1X979500Y285000D3*
G1X979500Y152500D3*
G54D22*
G1X861870Y168750D3*
G1X861986Y268750D3*
G54D23*
G1X767432Y160559D3*
G1X767432Y183059D3*
G54D24*
G1X847000Y228750D3*
G54D25*
G1X847000Y218750D3*
G1X847000Y208750D3*
G1X877048Y208800D3*
G1X877048Y228800D3*
G54D26*
G1X630696Y284906D3*
G1X630696Y249006D3*
G1X613196Y284906D3*
G1X613196Y249006D3*
G54D27*
G1X691768Y238494D3*
G1X691768Y233494D3*
G1X691768Y228494D3*
G1X691768Y223494D3*
G1X714368Y223494D3*
G1X714368Y228494D3*
G1X714368Y233494D3*
G1X714368Y238494D3*
G1X722440Y180146D3*
G1X722440Y175146D3*
G1X722440Y170146D3*
G1X722440Y165146D3*
G1X745040Y165146D3*
G1X745040Y170146D3*
G1X745040Y175146D3*
G1X745040Y180146D3*
G1X643590Y112214D3*
G1X643590Y122214D3*
G1X617590Y122214D3*
G1X617590Y112214D3*
G1X982827Y225251D3*
G1X982827Y220251D3*
G1X982827Y215251D3*
G1X982827Y210251D3*
G1X1005427Y210251D3*
G1X1005427Y215251D3*
G1X1005427Y220251D3*
G1X1005427Y225251D3*
G54D28*
G1X784389Y210644D3*
G1X784389Y219699D3*
G1X784389Y228754D3*
G54D29*
G1X760373Y219699D3*
G54D30*
G1X725759Y253792D3*
G1X730759Y253792D3*
G1X735759Y253792D3*
G1X740759Y253792D3*
G1X745759Y253792D3*
G1X750759Y253792D3*
G1X755759Y253792D3*
G1X760759Y253792D3*
G1X765759Y253792D3*
G1X765759Y291192D3*
G1X760759Y291192D3*
G1X755759Y291192D3*
G1X750759Y291192D3*
G1X745759Y291192D3*
G1X740759Y291192D3*
G1X735759Y291192D3*
G1X730759Y291192D3*
G1X725759Y291192D3*
G54D31*
G1X699214Y312866D3*
G54D32*
G1X709214Y312866D3*
G1X719214Y312866D3*
G1X729214Y312866D3*
G1X739214Y312866D3*
G1X749214Y312866D3*
G54D33*
G1X1004000Y317500D3*
G1X1004000Y122500D3*
G54D34*
G1X1014000Y317500D3*
G1X1024000Y317500D3*
G1X1034000Y317500D3*
G1X1044000Y317500D3*
G1X1054000Y317500D3*
G1X1014000Y122500D3*
G1X1024000Y122500D3*
G1X1034000Y122500D3*
G1X1044000Y122500D3*
G1X1054000Y122500D3*
G54D53*
G1X792680Y148814D3*
G1X792680Y160814D3*
G1X1014639Y499429D2*
G54D11*
G1X1015346Y500136D1*
G1X1042580Y500136D1*
G1X1043287Y499429D1*
G1X1043287Y489702D1*
G1X1042580Y488994D1*
G1X1015346Y488994D1*
G1X1014639Y489702D1*
G1X1014639Y499429D1*
G1X1001290Y409079D2*
G1X1003497Y411286D1*
G1X1054838Y411286D1*
G1X1057045Y409079D1*
G1X1057045Y402351D1*
G1X1054838Y400144D1*
G1X1003497Y400144D1*
G1X1001290Y402351D1*
G1X1001290Y409079D1*
G1X1014922Y539807D2*
G1X1015629Y540514D1*
G1X1042863Y540514D1*
G1X1043570Y539807D1*
G1X1043570Y510314D1*
G1X1042863Y509607D1*
G1X1015629Y509607D1*
G1X1014922Y510314D1*
G1X1014922Y539807D1*
G1X1033108Y488994D2*
G1X1043287Y499174D1*
G1X1034380Y488994D2*
G1X1043287Y497901D1*
G1X1035653Y488994D2*
G1X1043287Y496629D1*
G1X1036926Y488994D2*
G1X1043287Y495356D1*
G1X1038199Y488994D2*
G1X1043287Y494083D1*
G1X1039472Y488994D2*
G1X1043287Y492810D1*
G1X1040744Y488994D2*
G1X1043287Y491537D1*
G1X1042017Y488994D2*
G1X1043287Y490265D1*
G1X1031835Y488994D2*
G1X1042778Y499938D1*
G1X1030562Y488994D2*
G1X1041704Y500136D1*
G1X1029289Y488994D2*
G1X1040431Y500136D1*
G1X1028016Y488994D2*
G1X1039158Y500136D1*
G1X1026744Y488994D2*
G1X1037885Y500136D1*
G1X1025471Y488994D2*
G1X1036612Y500136D1*
G1X1024198Y488994D2*
G1X1035340Y500136D1*
G1X1022925Y488994D2*
G1X1034067Y500136D1*
G1X1021653Y488994D2*
G1X1032794Y500136D1*
G1X1020380Y488994D2*
G1X1031521Y500136D1*
G1X1019107Y488994D2*
G1X1030249Y500136D1*
G1X1017834Y488994D2*
G1X1028976Y500136D1*
G1X1016561Y488994D2*
G1X1027703Y500136D1*
G1X1015317Y489023D2*
G1X1026430Y500136D1*
G1X1014681Y489660D2*
G1X1025157Y500136D1*
G1X1014639Y490891D2*
G1X1023885Y500136D1*
G1X1014639Y492164D2*
G1X1022612Y500136D1*
G1X1014639Y493436D2*
G1X1021339Y500136D1*
G1X1014639Y494709D2*
G1X1020066Y500136D1*
G1X1014639Y495982D2*
G1X1018793Y500136D1*
G1X1014639Y497255D2*
G1X1017521Y500136D1*
G1X1014639Y498528D2*
G1X1016248Y500136D1*
G1X1048138Y400144D2*
G1X1057045Y409051D1*
G1X1049411Y400144D2*
G1X1057045Y407778D1*
G1X1050683Y400144D2*
G1X1057045Y406505D1*
G1X1051956Y400144D2*
G1X1057045Y405233D1*
G1X1053229Y400144D2*
G1X1057045Y403960D1*
G1X1054502Y400144D2*
G1X1057045Y402687D1*
G1X1046865Y400144D2*
G1X1056422Y409701D1*
G1X1045592Y400144D2*
G1X1055786Y410338D1*
G1X1044319Y400144D2*
G1X1055149Y410974D1*
G1X1043047Y400144D2*
G1X1054188Y411286D1*
G1X1041774Y400144D2*
G1X1052915Y411286D1*
G1X1040501Y400144D2*
G1X1051643Y411286D1*
G1X1039228Y400144D2*
G1X1050370Y411286D1*
G1X1037955Y400144D2*
G1X1049097Y411286D1*
G1X1036683Y400144D2*
G1X1047824Y411286D1*
G1X1035410Y400144D2*
G1X1046551Y411286D1*
G1X1034137Y400144D2*
G1X1045279Y411286D1*
G1X1032864Y400144D2*
G1X1044006Y411286D1*
G1X1031591Y400144D2*
G1X1042733Y411286D1*
G1X1030319Y400144D2*
G1X1041460Y411286D1*
G1X1029046Y400144D2*
G1X1040187Y411286D1*
G1X1027773Y400144D2*
G1X1038915Y411286D1*
G1X1026500Y400144D2*
G1X1037642Y411286D1*
G1X1025228Y400144D2*
G1X1036369Y411286D1*
G1X1023955Y400144D2*
G1X1035096Y411286D1*
G1X1022682Y400144D2*
G1X1033824Y411286D1*
G1X1021409Y400144D2*
G1X1032551Y411286D1*
G1X1020136Y400144D2*
G1X1031278Y411286D1*
G1X1018864Y400144D2*
G1X1030005Y411286D1*
G1X1017591Y400144D2*
G1X1028732Y411286D1*
G1X1016318Y400144D2*
G1X1027460Y411286D1*
G1X1015045Y400144D2*
G1X1026187Y411286D1*
G1X1013772Y400144D2*
G1X1024914Y411286D1*
G1X1012500Y400144D2*
G1X1023641Y411286D1*
G1X1011227Y400144D2*
G1X1022368Y411286D1*
G1X1009954Y400144D2*
G1X1021096Y411286D1*
G1X1008681Y400144D2*
G1X1019823Y411286D1*
G1X1007408Y400144D2*
G1X1018550Y411286D1*
G1X1006136Y400144D2*
G1X1017277Y411286D1*
G1X1004863Y400144D2*
G1X1016004Y411286D1*
G1X1003590Y400144D2*
G1X1014732Y411286D1*
G1X1002907Y400734D2*
G1X1013459Y411286D1*
G1X1002271Y401370D2*
G1X1012186Y411286D1*
G1X1001634Y402007D2*
G1X1010913Y411286D1*
G1X1001290Y402935D2*
G1X1009640Y411286D1*
G1X1001290Y404208D2*
G1X1008368Y411286D1*
G1X1001290Y405481D2*
G1X1007095Y411286D1*
G1X1001290Y406753D2*
G1X1005822Y411286D1*
G1X1001290Y408026D2*
G1X1004549Y411286D1*
G1X1014963Y510272D2*
G1X1043570Y538878D1*
G1X1015600Y509636D2*
G1X1043570Y537606D1*
G1X1016844Y509607D2*
G1X1043570Y536333D1*
G1X1018117Y509607D2*
G1X1043570Y535060D1*
G1X1019389Y509607D2*
G1X1043570Y533787D1*
G1X1020662Y509607D2*
G1X1043570Y532514D1*
G1X1021935Y509607D2*
G1X1043570Y531242D1*
G1X1023208Y509607D2*
G1X1043570Y529969D1*
G1X1024480Y509607D2*
G1X1043570Y528696D1*
G1X1025753Y509607D2*
G1X1043570Y527423D1*
G1X1027026Y509607D2*
G1X1043570Y526151D1*
G1X1028299Y509607D2*
G1X1043570Y524878D1*
G1X1029572Y509607D2*
G1X1043570Y523605D1*
G1X1030844Y509607D2*
G1X1043570Y522332D1*
G1X1032117Y509607D2*
G1X1043570Y521059D1*
G1X1033390Y509607D2*
G1X1043570Y519787D1*
G1X1034663Y509607D2*
G1X1043570Y518514D1*
G1X1035936Y509607D2*
G1X1043570Y517241D1*
G1X1037208Y509607D2*
G1X1043570Y515968D1*
G1X1038481Y509607D2*
G1X1043570Y514695D1*
G1X1039754Y509607D2*
G1X1043570Y513423D1*
G1X1041027Y509607D2*
G1X1043570Y512150D1*
G1X1042300Y509607D2*
G1X1043570Y510877D1*
G1X1014922Y511503D2*
G1X1043397Y539979D1*
G1X1014922Y512776D2*
G1X1042660Y540514D1*
G1X1014922Y514049D2*
G1X1041387Y540514D1*
G1X1014922Y515322D2*
G1X1040114Y540514D1*
G1X1014922Y516594D2*
G1X1038841Y540514D1*
G1X1014922Y517867D2*
G1X1037568Y540514D1*
G1X1014922Y519140D2*
G1X1036296Y540514D1*
G1X1014922Y520413D2*
G1X1035023Y540514D1*
G1X1014922Y521686D2*
G1X1033750Y540514D1*
G1X1014922Y522958D2*
G1X1032477Y540514D1*
G1X1014922Y524231D2*
G1X1031204Y540514D1*
G1X1014922Y525504D2*
G1X1029932Y540514D1*
G1X1014922Y526777D2*
G1X1028659Y540514D1*
G1X1014922Y528050D2*
G1X1027386Y540514D1*
G1X1014922Y529322D2*
G1X1026113Y540514D1*
G1X1014922Y530595D2*
G1X1024840Y540514D1*
G1X1014922Y531868D2*
G1X1023568Y540514D1*
G1X1014922Y533141D2*
G1X1022295Y540514D1*
G1X1014922Y534413D2*
G1X1021022Y540514D1*
G1X1014922Y535686D2*
G1X1019749Y540514D1*
G1X1014922Y536959D2*
G1X1018476Y540514D1*
G1X1014922Y538232D2*
G1X1017204Y540514D1*
G1X1014922Y539505D2*
G1X1015931Y540514D1*
G54D19*
G1X610519Y553866D3*
G1X610519Y562866D3*
G1X708028Y424929D3*
G1X708028Y415929D3*
G1X767742Y390773D3*
G1X767742Y399773D3*
G1X797100Y469832D3*
G1X797100Y478832D3*
G1X960923Y469398D3*
G1X960923Y460398D3*
G1X774482Y512040D3*
G1X774482Y521040D3*
G1X633651Y553866D3*
G1X633651Y562866D3*
G1X621994Y562861D3*
G1X621994Y571861D3*
G1X708028Y403207D3*
G1X708028Y394207D3*
G1X641773Y442597D3*
G1X641773Y433597D3*
G1X641372Y477573D3*
G1X641372Y468573D3*
G1X666384Y487595D3*
G1X666384Y478595D3*
G1X666384Y457135D3*
G1X666384Y466135D3*
G1X797100Y490767D3*
G1X797100Y499767D3*
G1X641456Y404381D3*
G1X641456Y413381D3*
G54D20*
G1X729307Y406650D3*
G1X738307Y406650D3*
G1X714345Y496806D3*
G1X705345Y496806D3*
G1X617731Y404196D3*
G1X626731Y404196D3*
G1X617288Y477617D3*
G1X626288Y477617D3*
G1X617731Y442484D3*
G1X626731Y442484D3*
G1X738307Y394241D3*
G1X729307Y394241D3*
G1X722281Y441265D3*
G1X713281Y441265D3*
G1X963764Y501322D3*
G1X972764Y501322D3*
G1X963764Y488051D3*
G1X972764Y488051D3*
G1X663367Y362218D3*
G1X654367Y362218D3*
G54D21*
G1X675500Y535000D3*
G1X675500Y402500D3*
G1X979500Y535000D3*
G1X979500Y402500D3*
G54D22*
G1X861870Y418750D3*
G1X861986Y518750D3*
G54D23*
G1X767432Y410559D3*
G1X767432Y433059D3*
G54D24*
G1X847000Y478750D3*
G54D25*
G1X847000Y468750D3*
G1X847000Y458750D3*
G1X877048Y458800D3*
G1X877048Y478800D3*
G54D26*
G1X630696Y534906D3*
G1X630696Y499006D3*
G1X613196Y534906D3*
G1X613196Y499006D3*
G54D27*
G1X691768Y488494D3*
G1X691768Y483494D3*
G1X691768Y478494D3*
G1X691768Y473494D3*
G1X714368Y473494D3*
G1X714368Y478494D3*
G1X714368Y483494D3*
G1X714368Y488494D3*
G1X722440Y430146D3*
G1X722440Y425146D3*
G1X722440Y420146D3*
G1X722440Y415146D3*
G1X745040Y415146D3*
G1X745040Y420146D3*
G1X745040Y425146D3*
G1X745040Y430146D3*
G1X643590Y362214D3*
G1X643590Y372214D3*
G1X617590Y372214D3*
G1X617590Y362214D3*
G1X982827Y475251D3*
G1X982827Y470251D3*
G1X982827Y465251D3*
G1X982827Y460251D3*
G1X1005427Y460251D3*
G1X1005427Y465251D3*
G1X1005427Y470251D3*
G1X1005427Y475251D3*
G54D28*
G1X784389Y460644D3*
G1X784389Y469699D3*
G1X784389Y478754D3*
G54D29*
G1X760373Y469699D3*
G54D30*
G1X725759Y503792D3*
G1X730759Y503792D3*
G1X735759Y503792D3*
G1X740759Y503792D3*
G1X745759Y503792D3*
G1X750759Y503792D3*
G1X755759Y503792D3*
G1X760759Y503792D3*
G1X765759Y503792D3*
G1X765759Y541192D3*
G1X760759Y541192D3*
G1X755759Y541192D3*
G1X750759Y541192D3*
G1X745759Y541192D3*
G1X740759Y541192D3*
G1X735759Y541192D3*
G1X730759Y541192D3*
G1X725759Y541192D3*
G54D31*
G1X699214Y562866D3*
G54D32*
G1X709214Y562866D3*
G1X719214Y562866D3*
G1X729214Y562866D3*
G1X739214Y562866D3*
G1X749214Y562866D3*
G54D33*
G1X1004000Y567500D3*
G1X1004000Y372500D3*
G54D34*
G1X1014000Y567500D3*
G1X1024000Y567500D3*
G1X1034000Y567500D3*
G1X1044000Y567500D3*
G1X1054000Y567500D3*
G1X1014000Y372500D3*
G1X1024000Y372500D3*
G1X1034000Y372500D3*
G1X1044000Y372500D3*
G1X1054000Y372500D3*
G54D53*
G1X792680Y398814D3*
G1X792680Y410814D3*
M2*
