*
%LPD*%
%LNsm002028*%
%FSLAX25Y25*%
%MOIN*%
%AD*%
%AD*%
%ADD20R,0.07X0.06*%
%ADD21C,0.384020079*%
%ADD22C,0.21*%
%ADD24R,0.075X0.075*%
%ADD25C,0.075*%
%ADD31R,0.07X0.07*%
%ADD32C,0.07*%
%ADD33R,0.08X0.08*%
%ADD34C,0.08*%
%ADD52R,0.049370079X0.037559843*%
G54D20*
%SRX1Y1I0.0J0.0*%
G1X534386Y217840D3*
G1X543386Y217840D3*
G1X193804Y207026D3*
G1X184804Y207026D3*
G54D21*
G1X185500Y285000D3*
G1X185500Y152500D3*
G1X489500Y285000D3*
G1X489500Y152500D3*
G54D22*
G1X371870Y168750D3*
G1X371986Y268750D3*
G54D24*
G1X357000Y228750D3*
G54D25*
G1X357000Y218750D3*
G1X357000Y208750D3*
G1X387048Y208800D3*
G1X387048Y228800D3*
G54D31*
G1X209214Y312866D3*
G54D32*
G1X219214Y312866D3*
G1X229214Y312866D3*
G1X239214Y312866D3*
G1X249214Y312866D3*
G1X259214Y312866D3*
G54D33*
G1X514000Y317500D3*
G1X514000Y122500D3*
G54D34*
G1X524000Y317500D3*
G1X534000Y317500D3*
G1X544000Y317500D3*
G1X554000Y317500D3*
G1X564000Y317500D3*
G1X524000Y122500D3*
G1X534000Y122500D3*
G1X544000Y122500D3*
G1X554000Y122500D3*
G1X564000Y122500D3*
G54D52*
G1X180000Y173500D3*
G1X180000Y181500D3*
G1X190000Y177500D3*
G1X180000Y256000D3*
G1X180000Y264000D3*
G1X190000Y260000D3*
G54D20*
G1X534386Y467840D3*
G1X543386Y467840D3*
G1X193804Y457026D3*
G1X184804Y457026D3*
G54D21*
G1X185500Y535000D3*
G1X185500Y402500D3*
G1X489500Y535000D3*
G1X489500Y402500D3*
G54D22*
G1X371870Y418750D3*
G1X371986Y518750D3*
G54D24*
G1X357000Y478750D3*
G54D25*
G1X357000Y468750D3*
G1X357000Y458750D3*
G1X387048Y458800D3*
G1X387048Y478800D3*
G54D31*
G1X209214Y562866D3*
G54D32*
G1X219214Y562866D3*
G1X229214Y562866D3*
G1X239214Y562866D3*
G1X249214Y562866D3*
G1X259214Y562866D3*
G54D33*
G1X514000Y567500D3*
G1X514000Y372500D3*
G54D34*
G1X524000Y567500D3*
G1X534000Y567500D3*
G1X544000Y567500D3*
G1X554000Y567500D3*
G1X564000Y567500D3*
G1X524000Y372500D3*
G1X534000Y372500D3*
G1X544000Y372500D3*
G1X554000Y372500D3*
G1X564000Y372500D3*
G54D52*
G1X180000Y423500D3*
G1X180000Y431500D3*
G1X190000Y427500D3*
G1X180000Y506000D3*
G1X180000Y514000D3*
G1X190000Y510000D3*
G54D20*
G1X1024386Y217840D3*
G1X1033386Y217840D3*
G1X683804Y207026D3*
G1X674804Y207026D3*
G54D21*
G1X675500Y285000D3*
G1X675500Y152500D3*
G1X979500Y285000D3*
G1X979500Y152500D3*
G54D22*
G1X861870Y168750D3*
G1X861986Y268750D3*
G54D24*
G1X847000Y228750D3*
G54D25*
G1X847000Y218750D3*
G1X847000Y208750D3*
G1X877048Y208800D3*
G1X877048Y228800D3*
G54D31*
G1X699214Y312866D3*
G54D32*
G1X709214Y312866D3*
G1X719214Y312866D3*
G1X729214Y312866D3*
G1X739214Y312866D3*
G1X749214Y312866D3*
G54D33*
G1X1004000Y317500D3*
G1X1004000Y122500D3*
G54D34*
G1X1014000Y317500D3*
G1X1024000Y317500D3*
G1X1034000Y317500D3*
G1X1044000Y317500D3*
G1X1054000Y317500D3*
G1X1014000Y122500D3*
G1X1024000Y122500D3*
G1X1034000Y122500D3*
G1X1044000Y122500D3*
G1X1054000Y122500D3*
G54D52*
G1X670000Y173500D3*
G1X670000Y181500D3*
G1X680000Y177500D3*
G1X670000Y256000D3*
G1X670000Y264000D3*
G1X680000Y260000D3*
G54D20*
G1X1024386Y467840D3*
G1X1033386Y467840D3*
G1X683804Y457026D3*
G1X674804Y457026D3*
G54D21*
G1X675500Y535000D3*
G1X675500Y402500D3*
G1X979500Y535000D3*
G1X979500Y402500D3*
G54D22*
G1X861870Y418750D3*
G1X861986Y518750D3*
G54D24*
G1X847000Y478750D3*
G54D25*
G1X847000Y468750D3*
G1X847000Y458750D3*
G1X877048Y458800D3*
G1X877048Y478800D3*
G54D31*
G1X699214Y562866D3*
G54D32*
G1X709214Y562866D3*
G1X719214Y562866D3*
G1X729214Y562866D3*
G1X739214Y562866D3*
G1X749214Y562866D3*
G54D33*
G1X1004000Y567500D3*
G1X1004000Y372500D3*
G54D34*
G1X1014000Y567500D3*
G1X1024000Y567500D3*
G1X1034000Y567500D3*
G1X1044000Y567500D3*
G1X1054000Y567500D3*
G1X1014000Y372500D3*
G1X1024000Y372500D3*
G1X1034000Y372500D3*
G1X1044000Y372500D3*
G1X1054000Y372500D3*
G54D52*
G1X670000Y423500D3*
G1X670000Y431500D3*
G1X680000Y427500D3*
G1X670000Y506000D3*
G1X670000Y514000D3*
G1X680000Y510000D3*
M2*
