*
%LPD*%
%LNssb002029*%
%FSLAX25Y25*%
%MOIN*%
%AD*%
%AD*%
%ADD11C,0.01*%
%ADD13C,0.007*%
%ADD16C,0.005*%
G54D11*
%SRX1Y1I0.0J0.0*%
G1X537386Y213340D2*
G1X529386Y213340D1*
G1X529386Y222340D1*
G1X537386Y222340D1*
G1X540386Y213340D2*
G1X548386Y213340D1*
G1X548386Y222340D1*
G1X540386Y222340D1*
G1X190804Y211526D2*
G1X198804Y211526D1*
G1X198804Y202526D1*
G1X190804Y202526D1*
G1X187804Y211526D2*
G1X179804Y211526D1*
G1X179804Y202526D1*
G1X187804Y202526D1*
G1X540648Y203316D2*
G1X541273Y203088D1*
G1X541898Y202634D1*
G1X542210Y202179D1*
G1X542210Y201270D1*
G1X541898Y200816D1*
G1X541273Y200361D1*
G1X540648Y200134D1*
G1X539710Y199907D1*
G1X538148Y199907D1*
G1X537210Y200134D1*
G1X536585Y200361D1*
G1X535960Y200816D1*
G1X535648Y201270D1*
G1X535648Y202179D1*
G1X535960Y202634D1*
G1X536585Y203088D1*
G1X537210Y203316D1*
G1X542210Y206498D2*
G1X541898Y205816D1*
G1X541273Y205588D1*
G1X540648Y205588D1*
G1X540023Y205816D1*
G1X539710Y206270D1*
G1X539398Y207179D1*
G1X539085Y207861D1*
G1X538460Y208316D1*
G1X537835Y208543D1*
G1X536898Y208543D1*
G1X536273Y208316D1*
G1X535960Y208088D1*
G1X535648Y207407D1*
G1X535648Y206498D1*
G1X535960Y205816D1*
G1X536273Y205588D1*
G1X536898Y205361D1*
G1X537835Y205361D1*
G1X538460Y205588D1*
G1X539085Y206043D1*
G1X539398Y206725D1*
G1X539710Y207634D1*
G1X540023Y208088D1*
G1X540648Y208316D1*
G1X541273Y208316D1*
G1X541898Y208088D1*
G1X542210Y207407D1*
G1X542210Y206498D1*
G1X190678Y195574D2*
G1X191303Y195347D1*
G1X191928Y194892D1*
G1X192240Y194438D1*
G1X192240Y193529D1*
G1X191928Y193074D1*
G1X191303Y192620D1*
G1X190678Y192392D1*
G1X189740Y192165D1*
G1X188178Y192165D1*
G1X187240Y192392D1*
G1X186615Y192620D1*
G1X185990Y193074D1*
G1X185678Y193529D1*
G1X185678Y194438D1*
G1X185990Y194892D1*
G1X186615Y195347D1*
G1X187240Y195574D1*
G1X190053Y200574D2*
G1X189115Y200347D1*
G1X188490Y199892D1*
G1X188178Y199211D1*
G1X188178Y198983D1*
G1X188490Y198302D1*
G1X189115Y197847D1*
G1X190053Y197620D1*
G1X190365Y197620D1*
G1X191303Y197847D1*
G1X191928Y198302D1*
G1X192240Y198983D1*
G1X192240Y199211D1*
G1X191928Y199892D1*
G1X191303Y200347D1*
G1X190053Y200574D1*
G1X188490Y200574D1*
G1X186928Y200347D1*
G1X185990Y199892D1*
G1X185678Y199211D1*
G1X185678Y198756D1*
G1X185990Y198074D1*
G1X186615Y197847D1*
G1X187000Y171594D2*
G54D13*
G1X187000Y183406D1*
G1X183000Y183406D1*
G1X183000Y171594D1*
G1X187000Y171594D1*
G1X175000Y168642D2*
G1X175000Y171500D1*
G1X176000Y171500D1*
G1X176000Y168642D1*
G1X175000Y168642D1*
G1X176000Y168642D2*
G1X176000Y171500D1*
G1X174000Y171500D1*
G1X174000Y168642D1*
G1X176000Y168642D1*
G1X187000Y254094D2*
G1X187000Y265906D1*
G1X183000Y265906D1*
G1X183000Y254094D1*
G1X187000Y254094D1*
G1X175000Y251142D2*
G1X175000Y254000D1*
G1X176000Y254000D1*
G1X176000Y251142D1*
G1X175000Y251142D1*
G1X176000Y251142D2*
G1X176000Y254000D1*
G1X174000Y254000D1*
G1X174000Y251142D1*
G1X176000Y251142D1*
G1X171392Y169876D2*
G54D16*
G1X169283Y169876D1*
G1X168861Y169990D1*
G1X168580Y170217D1*
G1X168439Y170558D1*
G1X168439Y170785D1*
G1X168580Y171126D1*
G1X168861Y171353D1*
G1X169283Y171467D1*
G1X171392Y171467D1*
G1X171392Y173967D2*
G1X171392Y172831D1*
G1X170126Y172717D1*
G1X170267Y172831D1*
G1X170408Y173171D1*
G1X170408Y173512D1*
G1X170267Y173853D1*
G1X169986Y174081D1*
G1X169564Y174194D1*
G1X169283Y174081D1*
G1X168861Y173967D1*
G1X168580Y173740D1*
G1X168439Y173399D1*
G1X168439Y173058D1*
G1X168580Y172717D1*
G1X168720Y172603D1*
G1X169001Y172490D1*
G1X171392Y176126D2*
G1X168439Y175217D1*
G1X171392Y176126D2*
G1X168439Y177035D1*
G1X169423Y175558D2*
G1X169423Y176694D1*
G1X171392Y252376D2*
G1X169283Y252376D1*
G1X168861Y252490D1*
G1X168580Y252717D1*
G1X168439Y253058D1*
G1X168439Y253285D1*
G1X168580Y253626D1*
G1X168861Y253853D1*
G1X169283Y253967D1*
G1X171392Y253967D1*
G1X171392Y256467D2*
G1X171392Y255331D1*
G1X170126Y255217D1*
G1X170267Y255331D1*
G1X170408Y255671D1*
G1X170408Y256012D1*
G1X170267Y256353D1*
G1X169986Y256581D1*
G1X169564Y256694D1*
G1X169283Y256581D1*
G1X168861Y256467D1*
G1X168580Y256240D1*
G1X168439Y255899D1*
G1X168439Y255558D1*
G1X168580Y255217D1*
G1X168720Y255103D1*
G1X169001Y254990D1*
G1X171392Y257717D2*
G1X168439Y257717D1*
G1X171392Y257717D2*
G1X171392Y258740D1*
G1X171251Y259081D1*
G1X171111Y259194D1*
G1X170830Y259308D1*
G1X170548Y259308D1*
G1X170267Y259194D1*
G1X170126Y259081D1*
G1X169986Y258740D1*
G1X169986Y257717D2*
G1X169986Y258740D1*
G1X169845Y259081D1*
G1X169705Y259194D1*
G1X169423Y259308D1*
G1X169001Y259308D1*
G1X168720Y259194D1*
G1X168580Y259081D1*
G1X168439Y258740D1*
G1X168439Y257717D1*
G1X537386Y463340D2*
G54D11*
G1X529386Y463340D1*
G1X529386Y472340D1*
G1X537386Y472340D1*
G1X540386Y463340D2*
G1X548386Y463340D1*
G1X548386Y472340D1*
G1X540386Y472340D1*
G1X190804Y461526D2*
G1X198804Y461526D1*
G1X198804Y452526D1*
G1X190804Y452526D1*
G1X187804Y461526D2*
G1X179804Y461526D1*
G1X179804Y452526D1*
G1X187804Y452526D1*
G1X540648Y453316D2*
G1X541273Y453088D1*
G1X541898Y452634D1*
G1X542210Y452179D1*
G1X542210Y451270D1*
G1X541898Y450816D1*
G1X541273Y450361D1*
G1X540648Y450134D1*
G1X539710Y449907D1*
G1X538148Y449907D1*
G1X537210Y450134D1*
G1X536585Y450361D1*
G1X535960Y450816D1*
G1X535648Y451270D1*
G1X535648Y452179D1*
G1X535960Y452634D1*
G1X536585Y453088D1*
G1X537210Y453316D1*
G1X542210Y456498D2*
G1X541898Y455816D1*
G1X541273Y455588D1*
G1X540648Y455588D1*
G1X540023Y455816D1*
G1X539710Y456270D1*
G1X539398Y457179D1*
G1X539085Y457861D1*
G1X538460Y458316D1*
G1X537835Y458543D1*
G1X536898Y458543D1*
G1X536273Y458316D1*
G1X535960Y458088D1*
G1X535648Y457407D1*
G1X535648Y456498D1*
G1X535960Y455816D1*
G1X536273Y455588D1*
G1X536898Y455361D1*
G1X537835Y455361D1*
G1X538460Y455588D1*
G1X539085Y456043D1*
G1X539398Y456725D1*
G1X539710Y457634D1*
G1X540023Y458088D1*
G1X540648Y458316D1*
G1X541273Y458316D1*
G1X541898Y458088D1*
G1X542210Y457407D1*
G1X542210Y456498D1*
G1X190678Y445574D2*
G1X191303Y445347D1*
G1X191928Y444892D1*
G1X192240Y444438D1*
G1X192240Y443529D1*
G1X191928Y443074D1*
G1X191303Y442620D1*
G1X190678Y442392D1*
G1X189740Y442165D1*
G1X188178Y442165D1*
G1X187240Y442392D1*
G1X186615Y442620D1*
G1X185990Y443074D1*
G1X185678Y443529D1*
G1X185678Y444438D1*
G1X185990Y444892D1*
G1X186615Y445347D1*
G1X187240Y445574D1*
G1X190053Y450574D2*
G1X189115Y450347D1*
G1X188490Y449892D1*
G1X188178Y449211D1*
G1X188178Y448983D1*
G1X188490Y448302D1*
G1X189115Y447847D1*
G1X190053Y447620D1*
G1X190365Y447620D1*
G1X191303Y447847D1*
G1X191928Y448302D1*
G1X192240Y448983D1*
G1X192240Y449211D1*
G1X191928Y449892D1*
G1X191303Y450347D1*
G1X190053Y450574D1*
G1X188490Y450574D1*
G1X186928Y450347D1*
G1X185990Y449892D1*
G1X185678Y449211D1*
G1X185678Y448756D1*
G1X185990Y448074D1*
G1X186615Y447847D1*
G1X187000Y421594D2*
G54D13*
G1X187000Y433406D1*
G1X183000Y433406D1*
G1X183000Y421594D1*
G1X187000Y421594D1*
G1X175000Y418642D2*
G1X175000Y421500D1*
G1X176000Y421500D1*
G1X176000Y418642D1*
G1X175000Y418642D1*
G1X176000Y418642D2*
G1X176000Y421500D1*
G1X174000Y421500D1*
G1X174000Y418642D1*
G1X176000Y418642D1*
G1X187000Y504094D2*
G1X187000Y515906D1*
G1X183000Y515906D1*
G1X183000Y504094D1*
G1X187000Y504094D1*
G1X175000Y501142D2*
G1X175000Y504000D1*
G1X176000Y504000D1*
G1X176000Y501142D1*
G1X175000Y501142D1*
G1X176000Y501142D2*
G1X176000Y504000D1*
G1X174000Y504000D1*
G1X174000Y501142D1*
G1X176000Y501142D1*
G1X171392Y419876D2*
G54D16*
G1X169283Y419876D1*
G1X168861Y419990D1*
G1X168580Y420217D1*
G1X168439Y420558D1*
G1X168439Y420785D1*
G1X168580Y421126D1*
G1X168861Y421353D1*
G1X169283Y421467D1*
G1X171392Y421467D1*
G1X171392Y423967D2*
G1X171392Y422831D1*
G1X170126Y422717D1*
G1X170267Y422831D1*
G1X170408Y423171D1*
G1X170408Y423512D1*
G1X170267Y423853D1*
G1X169986Y424081D1*
G1X169564Y424194D1*
G1X169283Y424081D1*
G1X168861Y423967D1*
G1X168580Y423740D1*
G1X168439Y423399D1*
G1X168439Y423058D1*
G1X168580Y422717D1*
G1X168720Y422603D1*
G1X169001Y422490D1*
G1X171392Y426126D2*
G1X168439Y425217D1*
G1X171392Y426126D2*
G1X168439Y427035D1*
G1X169423Y425558D2*
G1X169423Y426694D1*
G1X171392Y502376D2*
G1X169283Y502376D1*
G1X168861Y502490D1*
G1X168580Y502717D1*
G1X168439Y503058D1*
G1X168439Y503285D1*
G1X168580Y503626D1*
G1X168861Y503853D1*
G1X169283Y503967D1*
G1X171392Y503967D1*
G1X171392Y506467D2*
G1X171392Y505331D1*
G1X170126Y505217D1*
G1X170267Y505331D1*
G1X170408Y505671D1*
G1X170408Y506012D1*
G1X170267Y506353D1*
G1X169986Y506581D1*
G1X169564Y506694D1*
G1X169283Y506581D1*
G1X168861Y506467D1*
G1X168580Y506240D1*
G1X168439Y505899D1*
G1X168439Y505558D1*
G1X168580Y505217D1*
G1X168720Y505103D1*
G1X169001Y504990D1*
G1X171392Y507717D2*
G1X168439Y507717D1*
G1X171392Y507717D2*
G1X171392Y508740D1*
G1X171251Y509081D1*
G1X171111Y509194D1*
G1X170830Y509308D1*
G1X170548Y509308D1*
G1X170267Y509194D1*
G1X170126Y509081D1*
G1X169986Y508740D1*
G1X169986Y507717D2*
G1X169986Y508740D1*
G1X169845Y509081D1*
G1X169705Y509194D1*
G1X169423Y509308D1*
G1X169001Y509308D1*
G1X168720Y509194D1*
G1X168580Y509081D1*
G1X168439Y508740D1*
G1X168439Y507717D1*
G1X1027386Y213340D2*
G54D11*
G1X1019386Y213340D1*
G1X1019386Y222340D1*
G1X1027386Y222340D1*
G1X1030386Y213340D2*
G1X1038386Y213340D1*
G1X1038386Y222340D1*
G1X1030386Y222340D1*
G1X680804Y211526D2*
G1X688804Y211526D1*
G1X688804Y202526D1*
G1X680804Y202526D1*
G1X677804Y211526D2*
G1X669804Y211526D1*
G1X669804Y202526D1*
G1X677804Y202526D1*
G1X1030648Y203316D2*
G1X1031273Y203088D1*
G1X1031898Y202634D1*
G1X1032210Y202179D1*
G1X1032210Y201270D1*
G1X1031898Y200816D1*
G1X1031273Y200361D1*
G1X1030648Y200134D1*
G1X1029710Y199907D1*
G1X1028148Y199907D1*
G1X1027210Y200134D1*
G1X1026585Y200361D1*
G1X1025960Y200816D1*
G1X1025648Y201270D1*
G1X1025648Y202179D1*
G1X1025960Y202634D1*
G1X1026585Y203088D1*
G1X1027210Y203316D1*
G1X1032210Y206498D2*
G1X1031898Y205816D1*
G1X1031273Y205588D1*
G1X1030648Y205588D1*
G1X1030023Y205816D1*
G1X1029710Y206270D1*
G1X1029398Y207179D1*
G1X1029085Y207861D1*
G1X1028460Y208316D1*
G1X1027835Y208543D1*
G1X1026898Y208543D1*
G1X1026273Y208316D1*
G1X1025960Y208088D1*
G1X1025648Y207407D1*
G1X1025648Y206498D1*
G1X1025960Y205816D1*
G1X1026273Y205588D1*
G1X1026898Y205361D1*
G1X1027835Y205361D1*
G1X1028460Y205588D1*
G1X1029085Y206043D1*
G1X1029398Y206725D1*
G1X1029710Y207634D1*
G1X1030023Y208088D1*
G1X1030648Y208316D1*
G1X1031273Y208316D1*
G1X1031898Y208088D1*
G1X1032210Y207407D1*
G1X1032210Y206498D1*
G1X680678Y195574D2*
G1X681303Y195347D1*
G1X681928Y194892D1*
G1X682240Y194438D1*
G1X682240Y193529D1*
G1X681928Y193074D1*
G1X681303Y192620D1*
G1X680678Y192392D1*
G1X679740Y192165D1*
G1X678178Y192165D1*
G1X677240Y192392D1*
G1X676615Y192620D1*
G1X675990Y193074D1*
G1X675678Y193529D1*
G1X675678Y194438D1*
G1X675990Y194892D1*
G1X676615Y195347D1*
G1X677240Y195574D1*
G1X680053Y200574D2*
G1X679115Y200347D1*
G1X678490Y199892D1*
G1X678178Y199211D1*
G1X678178Y198983D1*
G1X678490Y198302D1*
G1X679115Y197847D1*
G1X680053Y197620D1*
G1X680365Y197620D1*
G1X681303Y197847D1*
G1X681928Y198302D1*
G1X682240Y198983D1*
G1X682240Y199211D1*
G1X681928Y199892D1*
G1X681303Y200347D1*
G1X680053Y200574D1*
G1X678490Y200574D1*
G1X676928Y200347D1*
G1X675990Y199892D1*
G1X675678Y199211D1*
G1X675678Y198756D1*
G1X675990Y198074D1*
G1X676615Y197847D1*
G1X677000Y171594D2*
G54D13*
G1X677000Y183406D1*
G1X673000Y183406D1*
G1X673000Y171594D1*
G1X677000Y171594D1*
G1X665000Y168642D2*
G1X665000Y171500D1*
G1X666000Y171500D1*
G1X666000Y168642D1*
G1X665000Y168642D1*
G1X666000Y168642D2*
G1X666000Y171500D1*
G1X664000Y171500D1*
G1X664000Y168642D1*
G1X666000Y168642D1*
G1X677000Y254094D2*
G1X677000Y265906D1*
G1X673000Y265906D1*
G1X673000Y254094D1*
G1X677000Y254094D1*
G1X665000Y251142D2*
G1X665000Y254000D1*
G1X666000Y254000D1*
G1X666000Y251142D1*
G1X665000Y251142D1*
G1X666000Y251142D2*
G1X666000Y254000D1*
G1X664000Y254000D1*
G1X664000Y251142D1*
G1X666000Y251142D1*
G1X661392Y169876D2*
G54D16*
G1X659283Y169876D1*
G1X658861Y169990D1*
G1X658580Y170217D1*
G1X658439Y170558D1*
G1X658439Y170785D1*
G1X658580Y171126D1*
G1X658861Y171353D1*
G1X659283Y171467D1*
G1X661392Y171467D1*
G1X661392Y173967D2*
G1X661392Y172831D1*
G1X660126Y172717D1*
G1X660267Y172831D1*
G1X660408Y173171D1*
G1X660408Y173512D1*
G1X660267Y173853D1*
G1X659986Y174081D1*
G1X659564Y174194D1*
G1X659283Y174081D1*
G1X658861Y173967D1*
G1X658580Y173740D1*
G1X658439Y173399D1*
G1X658439Y173058D1*
G1X658580Y172717D1*
G1X658720Y172603D1*
G1X659001Y172490D1*
G1X661392Y176126D2*
G1X658439Y175217D1*
G1X661392Y176126D2*
G1X658439Y177035D1*
G1X659423Y175558D2*
G1X659423Y176694D1*
G1X661392Y252376D2*
G1X659283Y252376D1*
G1X658861Y252490D1*
G1X658580Y252717D1*
G1X658439Y253058D1*
G1X658439Y253285D1*
G1X658580Y253626D1*
G1X658861Y253853D1*
G1X659283Y253967D1*
G1X661392Y253967D1*
G1X661392Y256467D2*
G1X661392Y255331D1*
G1X660126Y255217D1*
G1X660267Y255331D1*
G1X660408Y255671D1*
G1X660408Y256012D1*
G1X660267Y256353D1*
G1X659986Y256581D1*
G1X659564Y256694D1*
G1X659283Y256581D1*
G1X658861Y256467D1*
G1X658580Y256240D1*
G1X658439Y255899D1*
G1X658439Y255558D1*
G1X658580Y255217D1*
G1X658720Y255103D1*
G1X659001Y254990D1*
G1X661392Y257717D2*
G1X658439Y257717D1*
G1X661392Y257717D2*
G1X661392Y258740D1*
G1X661251Y259081D1*
G1X661111Y259194D1*
G1X660830Y259308D1*
G1X660548Y259308D1*
G1X660267Y259194D1*
G1X660126Y259081D1*
G1X659986Y258740D1*
G1X659986Y257717D2*
G1X659986Y258740D1*
G1X659845Y259081D1*
G1X659705Y259194D1*
G1X659423Y259308D1*
G1X659001Y259308D1*
G1X658720Y259194D1*
G1X658580Y259081D1*
G1X658439Y258740D1*
G1X658439Y257717D1*
G1X1027386Y463340D2*
G54D11*
G1X1019386Y463340D1*
G1X1019386Y472340D1*
G1X1027386Y472340D1*
G1X1030386Y463340D2*
G1X1038386Y463340D1*
G1X1038386Y472340D1*
G1X1030386Y472340D1*
G1X680804Y461526D2*
G1X688804Y461526D1*
G1X688804Y452526D1*
G1X680804Y452526D1*
G1X677804Y461526D2*
G1X669804Y461526D1*
G1X669804Y452526D1*
G1X677804Y452526D1*
G1X1030648Y453316D2*
G1X1031273Y453088D1*
G1X1031898Y452634D1*
G1X1032210Y452179D1*
G1X1032210Y451270D1*
G1X1031898Y450816D1*
G1X1031273Y450361D1*
G1X1030648Y450134D1*
G1X1029710Y449907D1*
G1X1028148Y449907D1*
G1X1027210Y450134D1*
G1X1026585Y450361D1*
G1X1025960Y450816D1*
G1X1025648Y451270D1*
G1X1025648Y452179D1*
G1X1025960Y452634D1*
G1X1026585Y453088D1*
G1X1027210Y453316D1*
G1X1032210Y456498D2*
G1X1031898Y455816D1*
G1X1031273Y455588D1*
G1X1030648Y455588D1*
G1X1030023Y455816D1*
G1X1029710Y456270D1*
G1X1029398Y457179D1*
G1X1029085Y457861D1*
G1X1028460Y458316D1*
G1X1027835Y458543D1*
G1X1026898Y458543D1*
G1X1026273Y458316D1*
G1X1025960Y458088D1*
G1X1025648Y457407D1*
G1X1025648Y456498D1*
G1X1025960Y455816D1*
G1X1026273Y455588D1*
G1X1026898Y455361D1*
G1X1027835Y455361D1*
G1X1028460Y455588D1*
G1X1029085Y456043D1*
G1X1029398Y456725D1*
G1X1029710Y457634D1*
G1X1030023Y458088D1*
G1X1030648Y458316D1*
G1X1031273Y458316D1*
G1X1031898Y458088D1*
G1X1032210Y457407D1*
G1X1032210Y456498D1*
G1X680678Y445574D2*
G1X681303Y445347D1*
G1X681928Y444892D1*
G1X682240Y444438D1*
G1X682240Y443529D1*
G1X681928Y443074D1*
G1X681303Y442620D1*
G1X680678Y442392D1*
G1X679740Y442165D1*
G1X678178Y442165D1*
G1X677240Y442392D1*
G1X676615Y442620D1*
G1X675990Y443074D1*
G1X675678Y443529D1*
G1X675678Y444438D1*
G1X675990Y444892D1*
G1X676615Y445347D1*
G1X677240Y445574D1*
G1X680053Y450574D2*
G1X679115Y450347D1*
G1X678490Y449892D1*
G1X678178Y449211D1*
G1X678178Y448983D1*
G1X678490Y448302D1*
G1X679115Y447847D1*
G1X680053Y447620D1*
G1X680365Y447620D1*
G1X681303Y447847D1*
G1X681928Y448302D1*
G1X682240Y448983D1*
G1X682240Y449211D1*
G1X681928Y449892D1*
G1X681303Y450347D1*
G1X680053Y450574D1*
G1X678490Y450574D1*
G1X676928Y450347D1*
G1X675990Y449892D1*
G1X675678Y449211D1*
G1X675678Y448756D1*
G1X675990Y448074D1*
G1X676615Y447847D1*
G1X677000Y421594D2*
G54D13*
G1X677000Y433406D1*
G1X673000Y433406D1*
G1X673000Y421594D1*
G1X677000Y421594D1*
G1X665000Y418642D2*
G1X665000Y421500D1*
G1X666000Y421500D1*
G1X666000Y418642D1*
G1X665000Y418642D1*
G1X666000Y418642D2*
G1X666000Y421500D1*
G1X664000Y421500D1*
G1X664000Y418642D1*
G1X666000Y418642D1*
G1X677000Y504094D2*
G1X677000Y515906D1*
G1X673000Y515906D1*
G1X673000Y504094D1*
G1X677000Y504094D1*
G1X665000Y501142D2*
G1X665000Y504000D1*
G1X666000Y504000D1*
G1X666000Y501142D1*
G1X665000Y501142D1*
G1X666000Y501142D2*
G1X666000Y504000D1*
G1X664000Y504000D1*
G1X664000Y501142D1*
G1X666000Y501142D1*
G1X661392Y419876D2*
G54D16*
G1X659283Y419876D1*
G1X658861Y419990D1*
G1X658580Y420217D1*
G1X658439Y420558D1*
G1X658439Y420785D1*
G1X658580Y421126D1*
G1X658861Y421353D1*
G1X659283Y421467D1*
G1X661392Y421467D1*
G1X661392Y423967D2*
G1X661392Y422831D1*
G1X660126Y422717D1*
G1X660267Y422831D1*
G1X660408Y423171D1*
G1X660408Y423512D1*
G1X660267Y423853D1*
G1X659986Y424081D1*
G1X659564Y424194D1*
G1X659283Y424081D1*
G1X658861Y423967D1*
G1X658580Y423740D1*
G1X658439Y423399D1*
G1X658439Y423058D1*
G1X658580Y422717D1*
G1X658720Y422603D1*
G1X659001Y422490D1*
G1X661392Y426126D2*
G1X658439Y425217D1*
G1X661392Y426126D2*
G1X658439Y427035D1*
G1X659423Y425558D2*
G1X659423Y426694D1*
G1X661392Y502376D2*
G1X659283Y502376D1*
G1X658861Y502490D1*
G1X658580Y502717D1*
G1X658439Y503058D1*
G1X658439Y503285D1*
G1X658580Y503626D1*
G1X658861Y503853D1*
G1X659283Y503967D1*
G1X661392Y503967D1*
G1X661392Y506467D2*
G1X661392Y505331D1*
G1X660126Y505217D1*
G1X660267Y505331D1*
G1X660408Y505671D1*
G1X660408Y506012D1*
G1X660267Y506353D1*
G1X659986Y506581D1*
G1X659564Y506694D1*
G1X659283Y506581D1*
G1X658861Y506467D1*
G1X658580Y506240D1*
G1X658439Y505899D1*
G1X658439Y505558D1*
G1X658580Y505217D1*
G1X658720Y505103D1*
G1X659001Y504990D1*
G1X661392Y507717D2*
G1X658439Y507717D1*
G1X661392Y507717D2*
G1X661392Y508740D1*
G1X661251Y509081D1*
G1X661111Y509194D1*
G1X660830Y509308D1*
G1X660548Y509308D1*
G1X660267Y509194D1*
G1X660126Y509081D1*
G1X659986Y508740D1*
G1X659986Y507717D2*
G1X659986Y508740D1*
G1X659845Y509081D1*
G1X659705Y509194D1*
G1X659423Y509308D1*
G1X659001Y509308D1*
G1X658720Y509194D1*
G1X658580Y509081D1*
G1X658439Y508740D1*
G1X658439Y507717D1*
M2*
