G04 #@! TF.FileFunction,Soldermask,Bot*
%FSLAX46Y46*%
G04 Gerber Fmt 4.6, Leading zero omitted, Abs format (unit mm)*
G04 Created by KiCad (PCBNEW (2015-08-05 BZR 6055, Git fa29c62)-product) date 3/31/2016 4:17:10 PM*
%MOMM*%
G01*
G04 APERTURE LIST*
%ADD10C,0.100000*%
%ADD11C,0.150000*%
%ADD12C,5.162500*%
%ADD13R,2.400000X2.300000*%
%ADD14C,2.300000*%
%ADD15C,3.900000*%
%ADD16R,2.127200X2.127200*%
%ADD17O,2.127200X2.127200*%
%ADD18C,0.254000*%
G04 APERTURE END LIST*
D10*
D11*
X152796051Y-73500000D02*
G75*
G03X152796051Y-73500000I-1796051J0D01*
G01*
X115196051Y-73500000D02*
G75*
G03X115196051Y-73500000I-1796051J0D01*
G01*
X138396051Y-45000000D02*
G75*
G03X138396051Y-45000000I-1796051J0D01*
G01*
D12*
X151000000Y-73500000D03*
X113400000Y-73500000D03*
D13*
X141000000Y-69000000D03*
D14*
X141000000Y-66460000D03*
D15*
X151660000Y-53088000D03*
X151660000Y-63498000D03*
D16*
X116332000Y-45974000D03*
D17*
X113792000Y-45974000D03*
X116332000Y-48514000D03*
X113792000Y-48514000D03*
X116332000Y-51054000D03*
X113792000Y-51054000D03*
X116332000Y-53594000D03*
X113792000Y-53594000D03*
X116332000Y-56134000D03*
X113792000Y-56134000D03*
X116332000Y-58674000D03*
X113792000Y-58674000D03*
X116332000Y-61214000D03*
X113792000Y-61214000D03*
X116332000Y-63754000D03*
X113792000Y-63754000D03*
D12*
X136600000Y-45000000D03*
D18*
G36*
X153543000Y-45847000D02*
X143002000Y-45847000D01*
X143002000Y-40767000D01*
X153543000Y-40767000D01*
X153543000Y-45847000D01*
X153543000Y-45847000D01*
G37*
X153543000Y-45847000D02*
X143002000Y-45847000D01*
X143002000Y-40767000D01*
X153543000Y-40767000D01*
X153543000Y-45847000D01*
M02*
