G04 #@! TF.FileFunction,Legend,Top*
%FSLAX46Y46*%
G04 Gerber Fmt 4.6, Leading zero omitted, Abs format (unit mm)*
G04 Created by KiCad (PCBNEW (2015-08-05 BZR 6055, Git fa29c62)-product) date 3/31/2016 4:17:10 PM*
%MOMM*%
G01*
G04 APERTURE LIST*
%ADD10C,0.100000*%
%ADD11C,0.150000*%
G04 APERTURE END LIST*
D10*
D11*
X109400000Y-77000000D02*
X155000000Y-77000000D01*
X109400000Y-40000000D02*
X155000000Y-40000000D01*
X109400000Y-40000000D02*
X109400000Y-77000000D01*
X155000000Y-40000000D02*
X155000000Y-77000000D01*
X144214668Y-76979543D02*
G75*
G03X120170000Y-77000000I-12014668J-9020457D01*
G01*
X142524904Y-70214888D02*
G75*
G03X139500000Y-70230000I-1524904J2484888D01*
G01*
X142500000Y-70230000D02*
X139500000Y-70230000D01*
X143517936Y-67730000D02*
G75*
G03X143517936Y-67730000I-2517936J0D01*
G01*
X121800000Y-40800000D02*
X130200000Y-40800000D01*
X130200000Y-49200000D02*
X121800000Y-49200000D01*
X121800000Y-50800000D02*
X130200000Y-50800000D01*
X130200000Y-59200000D02*
X121800000Y-59200000D01*
X121800000Y-60800000D02*
X130200000Y-60800000D01*
X130200000Y-69200000D02*
X121800000Y-69200000D01*
X142800000Y-40800000D02*
X151200000Y-40800000D01*
X151200000Y-49200000D02*
X142800000Y-49200000D01*
X145516381Y-68214095D02*
X144516381Y-68214095D01*
X144516381Y-67976000D01*
X144564000Y-67833142D01*
X144659238Y-67737904D01*
X144754476Y-67690285D01*
X144944952Y-67642666D01*
X145087810Y-67642666D01*
X145278286Y-67690285D01*
X145373524Y-67737904D01*
X145468762Y-67833142D01*
X145516381Y-67976000D01*
X145516381Y-68214095D01*
X145516381Y-66690285D02*
X145516381Y-67261714D01*
X145516381Y-66976000D02*
X144516381Y-66976000D01*
X144659238Y-67071238D01*
X144754476Y-67166476D01*
X144802095Y-67261714D01*
X143357381Y-71166905D02*
X142357381Y-71166905D01*
X143357381Y-70595476D02*
X142785952Y-71024048D01*
X142357381Y-70595476D02*
X142928810Y-71166905D01*
X148407381Y-59031095D02*
X147407381Y-59031095D01*
X147407381Y-58650142D01*
X147455000Y-58554904D01*
X147502619Y-58507285D01*
X147597857Y-58459666D01*
X147740714Y-58459666D01*
X147835952Y-58507285D01*
X147883571Y-58554904D01*
X147931190Y-58650142D01*
X147931190Y-59031095D01*
X148407381Y-57507285D02*
X148407381Y-58078714D01*
X148407381Y-57793000D02*
X147407381Y-57793000D01*
X147550238Y-57888238D01*
X147645476Y-57983476D01*
X147693095Y-58078714D01*
X124650667Y-50442762D02*
X124793524Y-50490381D01*
X125031620Y-50490381D01*
X125126858Y-50442762D01*
X125174477Y-50395143D01*
X125222096Y-50299905D01*
X125222096Y-50204667D01*
X125174477Y-50109429D01*
X125126858Y-50061810D01*
X125031620Y-50014190D01*
X124841143Y-49966571D01*
X124745905Y-49918952D01*
X124698286Y-49871333D01*
X124650667Y-49776095D01*
X124650667Y-49680857D01*
X124698286Y-49585619D01*
X124745905Y-49538000D01*
X124841143Y-49490381D01*
X125079239Y-49490381D01*
X125222096Y-49538000D01*
X125555429Y-49490381D02*
X125793524Y-50490381D01*
X125984001Y-49776095D01*
X126174477Y-50490381D01*
X126412572Y-49490381D01*
X127222096Y-49823714D02*
X127222096Y-50490381D01*
X126984000Y-49442762D02*
X126745905Y-50157048D01*
X127364953Y-50157048D01*
X124650667Y-60475762D02*
X124793524Y-60523381D01*
X125031620Y-60523381D01*
X125126858Y-60475762D01*
X125174477Y-60428143D01*
X125222096Y-60332905D01*
X125222096Y-60237667D01*
X125174477Y-60142429D01*
X125126858Y-60094810D01*
X125031620Y-60047190D01*
X124841143Y-59999571D01*
X124745905Y-59951952D01*
X124698286Y-59904333D01*
X124650667Y-59809095D01*
X124650667Y-59713857D01*
X124698286Y-59618619D01*
X124745905Y-59571000D01*
X124841143Y-59523381D01*
X125079239Y-59523381D01*
X125222096Y-59571000D01*
X125555429Y-59523381D02*
X125793524Y-60523381D01*
X125984001Y-59809095D01*
X126174477Y-60523381D01*
X126412572Y-59523381D01*
X126698286Y-59523381D02*
X127317334Y-59523381D01*
X126984000Y-59904333D01*
X127126858Y-59904333D01*
X127222096Y-59951952D01*
X127269715Y-59999571D01*
X127317334Y-60094810D01*
X127317334Y-60332905D01*
X127269715Y-60428143D01*
X127222096Y-60475762D01*
X127126858Y-60523381D01*
X126841143Y-60523381D01*
X126745905Y-60475762D01*
X126698286Y-60428143D01*
X124650667Y-70635762D02*
X124793524Y-70683381D01*
X125031620Y-70683381D01*
X125126858Y-70635762D01*
X125174477Y-70588143D01*
X125222096Y-70492905D01*
X125222096Y-70397667D01*
X125174477Y-70302429D01*
X125126858Y-70254810D01*
X125031620Y-70207190D01*
X124841143Y-70159571D01*
X124745905Y-70111952D01*
X124698286Y-70064333D01*
X124650667Y-69969095D01*
X124650667Y-69873857D01*
X124698286Y-69778619D01*
X124745905Y-69731000D01*
X124841143Y-69683381D01*
X125079239Y-69683381D01*
X125222096Y-69731000D01*
X125555429Y-69683381D02*
X125793524Y-70683381D01*
X125984001Y-69969095D01*
X126174477Y-70683381D01*
X126412572Y-69683381D01*
X126745905Y-69778619D02*
X126793524Y-69731000D01*
X126888762Y-69683381D01*
X127126858Y-69683381D01*
X127222096Y-69731000D01*
X127269715Y-69778619D01*
X127317334Y-69873857D01*
X127317334Y-69969095D01*
X127269715Y-70111952D01*
X126698286Y-70683381D01*
X127317334Y-70683381D01*
X145605667Y-50442762D02*
X145748524Y-50490381D01*
X145986620Y-50490381D01*
X146081858Y-50442762D01*
X146129477Y-50395143D01*
X146177096Y-50299905D01*
X146177096Y-50204667D01*
X146129477Y-50109429D01*
X146081858Y-50061810D01*
X145986620Y-50014190D01*
X145796143Y-49966571D01*
X145700905Y-49918952D01*
X145653286Y-49871333D01*
X145605667Y-49776095D01*
X145605667Y-49680857D01*
X145653286Y-49585619D01*
X145700905Y-49538000D01*
X145796143Y-49490381D01*
X146034239Y-49490381D01*
X146177096Y-49538000D01*
X146510429Y-49490381D02*
X146748524Y-50490381D01*
X146939001Y-49776095D01*
X147129477Y-50490381D01*
X147367572Y-49490381D01*
X148272334Y-50490381D02*
X147700905Y-50490381D01*
X147986619Y-50490381D02*
X147986619Y-49490381D01*
X147891381Y-49633238D01*
X147796143Y-49728476D01*
X147700905Y-49776095D01*
M02*
