M48
;DRILL file {KiCad (2015-08-05 BZR 6055, Git fa29c62)-product} date 3/31/2016 4:17:18 PM
;FORMAT={-:-/ absolute / metric / decimal}
FMAT,2
METRIC,TZ
T1C0.400
T2C1.001
T3C1.016
T4C2.950
T5C3.400
%
G90
G05
M71
T1
X111.252Y-51.054
X111.76Y-69.596
X118.618Y-70.739
X120.65Y-69.596
X129.54Y-45.212
X129.667Y-48.641
X135.636Y-52.07
X135.89Y-57.15
X141.986Y-53.086
T2
X141.Y-66.46
X141.Y-69.
T3
X113.792Y-45.974
X113.792Y-48.514
X113.792Y-51.054
X113.792Y-53.594
X113.792Y-56.134
X113.792Y-58.674
X113.792Y-61.214
X113.792Y-63.754
X116.332Y-45.974
X116.332Y-48.514
X116.332Y-51.054
X116.332Y-53.594
X116.332Y-56.134
X116.332Y-58.674
X116.332Y-61.214
X116.332Y-63.754
T4
X113.4Y-73.5
X136.6Y-45.
X151.Y-73.5
T5
X151.66Y-53.088
X151.66Y-63.498
T0
M30
