M48
;DRILL file {KiCad 4.0.2-stable} date 3/30/2017 9:01:39 AM
;FORMAT={-:-/ absolute / inch / decimal}
FMAT,2
INCH,TZ
T1C0.016
T2C0.037
T3C0.039
T4C0.040
T5C0.043
T6C0.051
T7C0.071
T8C0.078
T9C0.081
T10C0.091
T11C0.100
T12C0.110
T13C0.120
T14C0.130
T15C0.134
T16C0.138
%
G90
G05
M72
T1
X3.175Y-3.215
X3.185Y-4.8075
X3.27Y-4.535
X3.32Y-5.175
X3.355Y-5.31
X3.37Y-5.205
X3.4Y-3.04
X3.455Y-4.15
X3.46Y-4.715
X3.465Y-3.725
X3.47Y-4.9125
X3.48Y-4.6275
X3.49Y-5.01
X3.4925Y-3.0225
X3.495Y-4.0625
X3.4975Y-4.2075
X3.525Y-5.085
X3.555Y-3.915
X3.575Y-5.18
X3.5825Y-2.86
X3.595Y-3.64
X3.605Y-3.835
X3.605Y-4.715
X3.625Y-5.245
X3.645Y-4.67
X3.66Y-4.095
X3.67Y-5.43
X3.675Y-5.135
X3.675Y-5.485
X3.7069Y-4.62
X3.71Y-4.715
X3.71Y-5.005
X3.7181Y-2.9794
X3.745Y-4.765
X3.77Y-2.8425
X3.815Y-4.95
X3.815Y-5.435
X3.8175Y-5.385
X3.85Y-3.015
X3.8575Y-3.9175
X3.875Y-4.66
X3.92Y-4.8925
X3.9225Y-5.3875
X3.925Y-4.985
X3.9625Y-5.3075
X3.98Y-4.9025
X3.995Y-5.185
X4.03Y-5.065
X4.0325Y-5.275
X4.075Y-4.92
X4.095Y-4.62
X4.17Y-4.9225
X4.17Y-5.2425
X4.1775Y-2.95
X4.1775Y-5.35
X4.1775Y-5.4
X4.18Y-4.305
X4.185Y-5.295
X4.2Y-5.135
X4.245Y-2.9175
X4.335Y-5.025
X4.53Y-2.83
X4.53Y-2.865
X4.5325Y-2.9975
X4.54Y-3.04
X4.5575Y-2.8075
X4.5775Y-3.05
X4.6Y-2.8
X4.6275Y-3.05
X4.64Y-2.8075
X4.6675Y-3.0375
X4.67Y-2.83
X4.6725Y-2.8675
X4.6775Y-2.9975
X4.865Y-4.875
X4.915Y-5.03
X4.965Y-4.875
X5.055Y-5.025
X5.09Y-5.18
X5.1525Y-5.11
X5.155Y-5.055
X5.155Y-5.2
X5.24Y-5.2
X5.255Y-4.96
X5.285Y-5.27
X5.525Y-5.165
X5.53Y-4.995
X5.595Y-5.22
X5.635Y-5.55
X5.645Y-5.15
X5.765Y-5.025
X5.795Y-5.22
X5.82Y-2.85
X5.825Y-3.36
X5.85Y-3.85
X5.855Y-2.895
X5.865Y-3.995
X5.875Y-4.965
X5.88Y-2.945
X5.92Y-5.6
X5.92Y-5.745
X5.975Y-5.115
X5.99Y-5.295
X6.025Y-3.83
X6.055Y-4.815
X6.075Y-3.82
X6.095Y-3.965
X6.125Y-4.43
X6.16Y-2.93
X6.16Y-3.07
X6.19Y-5.11
X6.195Y-3.23
X6.21Y-4.84
X6.24Y-5.09
X6.295Y-2.86
X6.3Y-3.05
X6.3025Y-4.3125
X6.305Y-2.79
X6.305Y-3.
X6.315Y-5.195
X6.315Y-5.415
X6.335Y-3.075
X6.34Y-3.12
X6.355Y-4.49
X6.39Y-5.92
X6.4592Y-3.9233
X6.495Y-3.4
X6.5Y-4.445
X6.525Y-3.785
X6.53Y-5.45
X6.535Y-4.97
X6.57Y-3.76
X6.58Y-5.74
X6.595Y-3.915
X6.62Y-3.955
X6.63Y-3.155
X6.67Y-4.215
X6.6725Y-3.2925
X6.675Y-4.35
X6.68Y-4.05
X6.68Y-4.475
X6.685Y-4.41
X6.685Y-5.105
X6.705Y-3.215
X6.735Y-3.64
X6.74Y-3.735
X6.75Y-4.485
X6.765Y-3.49
X6.77Y-3.615
X6.785Y-4.405
X6.85Y-3.74
X6.885Y-3.52
X6.89Y-3.215
X6.9Y-4.825
X6.905Y-4.935
X6.915Y-4.72
X6.92Y-4.61
X6.92Y-5.04
X6.935Y-3.88
X6.94Y-3.935
X6.945Y-4.25
X6.975Y-3.7
X6.98Y-3.255
X7.065Y-4.37
X7.08Y-3.6
X7.11Y-3.265
X7.12Y-5.36
X7.185Y-4.475
X7.26Y-5.535
X7.26Y-5.58
X7.265Y-4.935
X7.27Y-5.415
X7.27Y-5.48
X7.325Y-5.08
X7.345Y-4.965
X7.36Y-4.77
X7.38Y-5.75
X7.385Y-4.985
X7.39Y-4.415
X7.4Y-4.37
X7.4Y-5.555
X7.405Y-4.785
X7.41Y-3.94
X7.415Y-5.145
X7.43Y-2.795
X7.43Y-3.785
X7.435Y-4.485
X7.44Y-4.36
X7.445Y-2.755
X7.445Y-5.03
X7.455Y-3.97
X7.465Y-3.835
X7.49Y-2.685
X7.5Y-3.12
X7.515Y-5.85
X7.53Y-4.205
X7.56Y-4.405
X7.565Y-4.065
X7.565Y-4.48
X7.57Y-4.445
X7.57Y-5.63
X7.61Y-4.35
X7.62Y-5.49
X7.625Y-5.19
X7.66Y-4.94
X7.675Y-5.7
X7.695Y-4.39
X7.695Y-4.465
X7.695Y-5.845
X7.7028Y-4.9464
X7.705Y-5.23
X7.705Y-5.38
X7.72Y-5.48
X7.745Y-4.945
X7.75Y-4.82
X7.75Y-5.07
X7.775Y-3.73
X7.785Y-4.94
X7.785Y-5.075
X7.79Y-4.215
X7.795Y-3.355
X7.82Y-4.835
X7.825Y-4.21
X7.83Y-3.88
X7.835Y-4.035
X7.835Y-5.85
X7.855Y-4.1
X7.86Y-4.215
X7.875Y-5.87
X7.885Y-3.88
X7.885Y-5.635
X7.9Y-4.22
X7.9146Y-4.3408
X7.92Y-3.73
X7.93Y-4.035
X7.93Y-5.195
X7.9408Y-4.1944
X7.945Y-3.44
X7.955Y-3.345
X7.97Y-4.94
X7.975Y-5.495
X8.005Y-5.03
X8.01Y-4.365
X8.01Y-4.94
X8.01Y-5.43
X8.02Y-5.38
X8.035Y-3.88
X8.035Y-4.035
X8.035Y-5.22
X8.045Y-5.005
X8.05Y-4.765
X8.075Y-4.21
X8.075Y-4.96
X8.08Y-5.185
X8.085Y-5.465
X8.09Y-5.32
X8.095Y-3.4
X8.095Y-5.555
X8.115Y-3.67
X8.135Y-3.71
X8.135Y-5.835
X8.14Y-4.95
X8.14Y-5.325
X8.16Y-4.09
X8.17Y-5.96
X8.175Y-4.415
X8.205Y-3.535
X8.205Y-5.095
X8.215Y-4.32
X8.22Y-5.225
X8.22Y-5.77
X8.255Y-5.905
X8.26Y-5.46
X8.325Y-5.225
X8.325Y-5.57
X8.34Y-5.865
X8.35Y-4.83
X8.355Y-4.225
X8.36Y-5.09
X8.37Y-4.515
X8.375Y-3.525
X8.41Y-3.61
X8.43Y-5.82
X8.635Y-5.49
T2
X6.596Y-2.502
X6.596Y-2.581
X6.694Y-2.502
X6.694Y-2.581
T3
X3.7125Y-3.9338
X4.78Y-4.1442
X4.78Y-4.7458
X4.88Y-4.1442
X4.88Y-4.7458
X5.48Y-4.1442
X5.48Y-4.7458
X5.68Y-4.1442
X5.68Y-4.7458
T4
X6.39Y-4.625
X6.39Y-4.725
X6.39Y-4.825
X6.39Y-4.925
X6.39Y-5.025
X6.39Y-5.125
X6.39Y-5.225
X6.39Y-5.325
X6.49Y-4.625
X6.49Y-4.725
X6.49Y-4.825
X6.49Y-4.925
X6.49Y-5.025
X6.49Y-5.125
X6.49Y-5.225
X6.49Y-5.325
X8.48Y-2.92
X8.48Y-3.03
X8.48Y-3.14
X8.48Y-3.25
X8.48Y-3.36
X8.48Y-3.46
X8.48Y-3.575
X8.48Y-3.685
X8.48Y-3.795
X8.48Y-3.905
X8.48Y-4.01
X8.48Y-4.12
X8.48Y-4.23
X8.48Y-4.34
X8.48Y-4.45
X8.48Y-4.555
X8.48Y-4.665
X8.48Y-4.775
X8.59Y-2.87
X8.59Y-2.98
X8.59Y-3.085
X8.59Y-3.195
X8.59Y-3.305
X8.59Y-3.415
X8.59Y-3.525
X8.59Y-3.63
X8.59Y-3.74
X8.59Y-3.85
X8.59Y-3.96
X8.59Y-4.07
X8.59Y-4.175
X8.59Y-4.285
X8.59Y-4.395
X8.59Y-4.505
X8.59Y-4.615
X8.59Y-4.72
X8.59Y-4.83
T5
X5.4775Y-3.0225
X5.4775Y-3.4225
T6
X7.5661Y-2.84
X7.6448Y-2.6038
X7.6448Y-3.0762
X8.1252Y-3.0762
T7
X3.7048Y-2.46
X3.8048Y-2.46
X4.1449Y-2.46
X4.2449Y-2.46
X4.5851Y-2.46
X4.6851Y-2.46
X5.0252Y-2.46
X5.1252Y-2.46
T8
X4.8775Y-2.8725
T9
X4.9775Y-3.5725
T10
X6.408Y-2.395
X6.882Y-2.395
T11
X4.0301Y-3.9075
X4.2301Y-3.9075
X4.3899Y-3.9075
X4.5899Y-3.9075
T12
X3.1949Y-2.6352
T13
X8.535Y-2.6
X8.535Y-5.1
T14
X3.1949Y-2.46
X5.6351Y-2.46
T15
X2.9046Y-3.7601
X2.9046Y-3.9699
X2.9046Y-4.1551
X2.9046Y-4.3649
X2.9046Y-4.5551
X2.9046Y-5.1649
T16
X2.915Y-2.31
X2.915Y-5.41
X8.5Y-2.3
X8.5Y-5.4
T0
M30
