*
*
G04 PADS 9.4.1 Build Number: 494907 generated Gerber (RS-274-X) file*
G04 PC Version=2.1*
*
%IN "bms2014.pcb"*%
*
%MOIN*%
*
%FSLAX35Y35*%
*
*
*
*
G04 PC Standard Apertures*
*
*
G04 Thermal Relief Aperture macro.*
%AMTER*
1,1,$1,0,0*
1,0,$1-$2,0,0*
21,0,$3,$4,0,0,45*
21,0,$3,$4,0,0,135*
%
*
*
G04 Annular Aperture macro.*
%AMANN*
1,1,$1,0,0*
1,0,$2,0,0*
%
*
*
G04 Odd Aperture macro.*
%AMODD*
1,1,$1,0,0*
1,0,$1-0.005,0,0*
%
*
*
G04 PC Custom Aperture Macros*
*
*
*
*
*
*
G04 PC Aperture Table*
*
%ADD010C,0.001*%
%ADD011C,0.01*%
%ADD031R,0.07X0.07*%
%ADD032C,0.07*%
%ADD035R,0.05X0.06*%
%ADD036R,0.06X0.05*%
%ADD037C,0.37402*%
%ADD038C,0.2*%
%ADD039R,0.315X0.087*%
%ADD040R,0.065X0.065*%
%ADD041C,0.065*%
%ADD042R,0.055X0.083*%
%ADD043O,0.074X0.024*%
%ADD044R,0.0748X0.0374*%
%ADD045R,0.0748X0.12795*%
%ADD046O,0.024X0.074*%
%ADD047R,0.06X0.06*%
%ADD048C,0.06*%
%ADD049C,0.04*%
%ADD054R,0.055X0.055*%
*
*
*
*
G04 PC Circuitry*
G04 Layer Name bms2014.pcb - circuitry*
%LPD*%
*
*
G04 PC Custom Flashes*
G04 Layer Name bms2014.pcb - flashes*
%LPD*%
*
*
G04 PC Circuitry*
G04 Layer Name bms2014.pcb - circuitry*
%LPD*%
*
G54D10*
G01X540516Y261648D02*
X541816D01*
X529816Y261748D02*
X531216D01*
X540216D02*
X542216D01*
X529516Y261848D02*
X531616D01*
X535416D02*
X536416D01*
X540016D02*
X542416D01*
X529316Y261948D02*
X531916D01*
X535216D02*
X536716D01*
X539816D02*
X542716D01*
X529216Y262048D02*
X532116D01*
X535016D02*
X536816D01*
X539716D02*
X542916D01*
X529016Y262148D02*
X532316D01*
X534916D02*
X537016D01*
X539616D02*
X543016D01*
X528916Y262248D02*
X532416D01*
X534816D02*
X537216D01*
X539416D02*
X543216D01*
X528816Y262348D02*
X532716D01*
X534716D02*
X537316D01*
X539316D02*
X543316D01*
X528816Y262448D02*
X532916D01*
X534616D02*
X537516D01*
X539116D02*
X543416D01*
X528716Y262548D02*
X533216D01*
X534416D02*
X537816D01*
X538816D02*
X543516D01*
X528716Y262648D02*
X533616D01*
X534016D02*
X543616D01*
X528616Y262748D02*
X543716D01*
X528616Y262848D02*
X543816D01*
X528516Y262948D02*
X543916D01*
X528516Y263048D02*
X544016D01*
X528516Y263148D02*
X544116D01*
X528516Y263248D02*
X544116D01*
X528416Y263348D02*
X544216D01*
X528416Y263448D02*
X544316D01*
X528416Y263548D02*
X544316D01*
X528416Y263648D02*
X544416D01*
X528416Y263748D02*
X544416D01*
X528416Y263848D02*
X544516D01*
X528416Y263948D02*
X544516D01*
X528416Y264048D02*
X544516D01*
X528516Y264148D02*
X544616D01*
X528516Y264248D02*
X544616D01*
X528516Y264348D02*
X544616D01*
X528516Y264448D02*
X544616D01*
X528616Y264548D02*
X544716D01*
X528616Y264648D02*
X544716D01*
X528616Y264748D02*
X544716D01*
X528716Y264848D02*
X544716D01*
X528716Y264948D02*
X544716D01*
X528716Y265048D02*
X544816D01*
X528816Y265148D02*
X544816D01*
X528816Y265248D02*
X544816D01*
X528916Y265348D02*
X544816D01*
X528916Y265448D02*
X544816D01*
X529016Y265548D02*
X544816D01*
X529116Y265648D02*
X544816D01*
X529116Y265748D02*
X544816D01*
X529216Y265848D02*
X544716D01*
X529316Y265948D02*
X544716D01*
X529316Y266048D02*
X544716D01*
X529416Y266148D02*
X544716D01*
X529516Y266248D02*
X544716D01*
X529616Y266348D02*
X544616D01*
X529716Y266448D02*
X544616D01*
X529816Y266548D02*
X544516D01*
X529916Y266648D02*
X544516D01*
X530016Y266748D02*
X544516D01*
X530116Y266848D02*
X544416D01*
X530216Y266948D02*
X544416D01*
X530316Y267048D02*
X544316D01*
X530416Y267148D02*
X544316D01*
X530516Y267248D02*
X544216D01*
X530616Y267348D02*
X544116D01*
X530716Y267448D02*
X544116D01*
X530816Y267548D02*
X544016D01*
X531016Y267648D02*
X543916D01*
X531116Y267748D02*
X543916D01*
X531316Y267848D02*
X543816D01*
X531416Y267948D02*
X543716D01*
X531516Y268048D02*
X543716D01*
X531616Y268148D02*
X543616D01*
X531816Y268248D02*
X543516D01*
X531916Y268348D02*
X543516D01*
X532016Y268448D02*
X543416D01*
X532116Y268548D02*
X543416D01*
X532216Y268648D02*
X543316D01*
X532316Y268748D02*
X543316D01*
X532416Y268848D02*
X543216D01*
X532516Y268948D02*
X543216D01*
X532616Y269048D02*
X543116D01*
X532716Y269148D02*
X543116D01*
X532816Y269248D02*
X543116D01*
X532916Y269348D02*
X543016D01*
X533016Y269448D02*
X543016D01*
X533116Y269548D02*
X543016D01*
X546116D02*
X547016D01*
X529616Y269648D02*
X529716D01*
X533216D02*
X543016D01*
X545816D02*
X547416D01*
X528916Y269748D02*
X530316D01*
X533216D02*
X542916D01*
X545616D02*
X547716D01*
X528616Y269848D02*
X530616D01*
X533316D02*
X542916D01*
X545416D02*
X547916D01*
X528416Y269948D02*
X530816D01*
X533416D02*
X542916D01*
X545316D02*
X548116D01*
X528216Y270048D02*
X531016D01*
X533416D02*
X542916D01*
X545216D02*
X548316D01*
X528116Y270148D02*
X531116D01*
X533516D02*
X542916D01*
X545216D02*
X548516D01*
X528016Y270248D02*
X531316D01*
X533516D02*
X542916D01*
X545116D02*
X548716D01*
X527916Y270348D02*
X531416D01*
X533616D02*
X542916D01*
X545116D02*
X548816D01*
X527816Y270448D02*
X531516D01*
X533616D02*
X542916D01*
X545016D02*
X549016D01*
X527716Y270548D02*
X531616D01*
X533716D02*
X542916D01*
X545016D02*
X549116D01*
X527616Y270648D02*
X531716D01*
X533716D02*
X543016D01*
X545016D02*
X549216D01*
X527516Y270748D02*
X531816D01*
X533816D02*
X543016D01*
X544916D02*
X549416D01*
X527416Y270848D02*
X531816D01*
X533816D02*
X543016D01*
X544916D02*
X549516D01*
X527416Y270948D02*
X531916D01*
X533916D02*
X543016D01*
X544916D02*
X549616D01*
X527316Y271048D02*
X532016D01*
X533916D02*
X543016D01*
X544916D02*
X549716D01*
X527316Y271148D02*
X532116D01*
X533916D02*
X543116D01*
X544916D02*
X549816D01*
X527216Y271248D02*
X532116D01*
X533916D02*
X543116D01*
X544916D02*
X549916D01*
X527216Y271348D02*
X532216D01*
X534016D02*
X543116D01*
X544916D02*
X550016D01*
X527116Y271448D02*
X532216D01*
X534016D02*
X543116D01*
X544916D02*
X550116D01*
X527116Y271548D02*
X532316D01*
X534116D02*
X543116D01*
X544916D02*
X550216D01*
X527016Y271648D02*
X532316D01*
X534116D02*
X543216D01*
X544916D02*
X550316D01*
X527016Y271748D02*
X532416D01*
X534116D02*
X543216D01*
X544916D02*
X550416D01*
X527016Y271848D02*
X532416D01*
X534216D02*
X543216D01*
X545016D02*
X550516D01*
X526916Y271948D02*
X532416D01*
X534216D02*
X543216D01*
X545016D02*
X550616D01*
X526916Y272048D02*
X532516D01*
X534316D02*
X543216D01*
X545016D02*
X550616D01*
X526916Y272148D02*
X532516D01*
X534416D02*
X543216D01*
X545016D02*
X550716D01*
X526916Y272248D02*
X532516D01*
X534416D02*
X543116D01*
X545116D02*
X550816D01*
X526816Y272348D02*
X532516D01*
X534516D02*
X543116D01*
X545116D02*
X550916D01*
X526816Y272448D02*
X532616D01*
X534616D02*
X543116D01*
X545116D02*
X550916D01*
X526816Y272548D02*
X532616D01*
X534716D02*
X543016D01*
X545216D02*
X551016D01*
X526816Y272648D02*
X532616D01*
X534816D02*
X543016D01*
X545216D02*
X551116D01*
X526816Y272748D02*
X532616D01*
X534916D02*
X543016D01*
X545316D02*
X551116D01*
X526816Y272848D02*
X532716D01*
X535016D02*
X538716D01*
X539316D02*
X542916D01*
X545316D02*
X551216D01*
X526816Y272948D02*
X532716D01*
X535116D02*
X538416D01*
X539616D02*
X542916D01*
X545316D02*
X551216D01*
X526816Y273048D02*
X532716D01*
X535216D02*
X538216D01*
X539816D02*
X542816D01*
X545416D02*
X551316D01*
X526816Y273148D02*
X532716D01*
X535416D02*
X538116D01*
X540116D02*
X542716D01*
X545516D02*
X551316D01*
X526816Y273248D02*
X532716D01*
X535516D02*
X538016D01*
X540216D02*
X542616D01*
X545516D02*
X551416D01*
X526816Y273348D02*
X532716D01*
X535716D02*
X537816D01*
X540416D02*
X542516D01*
X545616D02*
X551416D01*
X526816Y273448D02*
X532716D01*
X535916D02*
X537716D01*
X540716D02*
X542216D01*
X545616D02*
X551516D01*
X526816Y273548D02*
X532716D01*
X536216D02*
X537516D01*
X541016D02*
X542116D01*
X545716D02*
X551516D01*
X526816Y273648D02*
X532716D01*
X536516D02*
X537016D01*
X545716D02*
X551516D01*
X526916Y273748D02*
X532716D01*
X545816D02*
X551616D01*
X526916Y273848D02*
X532716D01*
X545916D02*
X551616D01*
X526916Y273948D02*
X532616D01*
X545916D02*
X551616D01*
X526916Y274048D02*
X532616D01*
X546016D02*
X551716D01*
X526916Y274148D02*
X532616D01*
X546116D02*
X551716D01*
X526916Y274248D02*
X532616D01*
X546116D02*
X551716D01*
X527016Y274348D02*
X532616D01*
X546216D02*
X551816D01*
X527016Y274448D02*
X532616D01*
X546316D02*
X551816D01*
X527016Y274548D02*
X532516D01*
X546416D02*
X551816D01*
X527116Y274648D02*
X532516D01*
X546516D02*
X551816D01*
X527116Y274748D02*
X532516D01*
X546616D02*
X551816D01*
X527216Y274848D02*
X532516D01*
X546716D02*
X551816D01*
X527216Y274948D02*
X532416D01*
X546816D02*
X551816D01*
X527216Y275048D02*
X532416D01*
X546916D02*
X551816D01*
X527316Y275148D02*
X532316D01*
X547016D02*
X551816D01*
X527316Y275248D02*
X532316D01*
X547116D02*
X551816D01*
X527416Y275348D02*
X532216D01*
X547216D02*
X551816D01*
X527516Y275448D02*
X532216D01*
X547316D02*
X551816D01*
X527516Y275548D02*
X532116D01*
X547416D02*
X551816D01*
X527616Y275648D02*
X532016D01*
X547616D02*
X551816D01*
X527716Y275748D02*
X532016D01*
X547716D02*
X551716D01*
X527816Y275848D02*
X531916D01*
X547816D02*
X551716D01*
X527916Y275948D02*
X531816D01*
X548016D02*
X551616D01*
X528016Y276048D02*
X531716D01*
X548216D02*
X551616D01*
X528116Y276148D02*
X531616D01*
X548316D02*
X551516D01*
X528216Y276248D02*
X531516D01*
X548516D02*
X551416D01*
X528316Y276348D02*
X531416D01*
X548716D02*
X551316D01*
X528516Y276448D02*
X531216D01*
X548916D02*
X551216D01*
X528616Y276548D02*
X531116D01*
X549216D02*
X551016D01*
X528816Y276648D02*
X530916D01*
X549616D02*
X550816D01*
X529116Y276748D02*
X530716D01*
X543616D02*
X544116D01*
X529616Y276848D02*
X529716D01*
X529816D02*
X530116D01*
X535716D02*
X536916D01*
X543216D02*
X544616D01*
X535416Y276948D02*
X537216D01*
X542916D02*
X544916D01*
X535316Y277048D02*
X537416D01*
X542816D02*
X545116D01*
X535116Y277148D02*
X537616D01*
X542716D02*
X545316D01*
X535016Y277248D02*
X537816D01*
X542616D02*
X545416D01*
X534916Y277348D02*
X538016D01*
X542516D02*
X545616D01*
X534916Y277448D02*
X538116D01*
X542416D02*
X545716D01*
X534816Y277548D02*
X538216D01*
X542416D02*
X545816D01*
X534716Y277648D02*
X538316D01*
X542316D02*
X545916D01*
X549616D02*
X550516D01*
X550816D02*
X551116D01*
X530616Y277748D02*
X531016D01*
X534716D02*
X538416D01*
X542316D02*
X546016D01*
X549616D02*
X551116D01*
X529616Y277848D02*
X531016D01*
X534616D02*
X538516D01*
X542216D02*
X546116D01*
X549616D02*
X551216D01*
X529616Y277948D02*
X531116D01*
X534616D02*
X538616D01*
X542216D02*
X546216D01*
X549616D02*
X551216D01*
X529616Y278048D02*
X531116D01*
X534616D02*
X538716D01*
X542116D02*
X546316D01*
X549716D02*
X551216D01*
X529616Y278148D02*
X531216D01*
X534516D02*
X538816D01*
X542116D02*
X546416D01*
X549716D02*
X551216D01*
X529716Y278248D02*
X531216D01*
X534516D02*
X538916D01*
X542116D02*
X546516D01*
X549716D02*
X551316D01*
X529716Y278348D02*
X531216D01*
X534516D02*
X539016D01*
X542116D02*
X546516D01*
X549716D02*
X551316D01*
X529716Y278448D02*
X531316D01*
X534516D02*
X539016D01*
X542016D02*
X546616D01*
X549816D02*
X551316D01*
X529816Y278548D02*
X531316D01*
X534416D02*
X539116D01*
X542016D02*
X546716D01*
X549816D02*
X551316D01*
X529816Y278648D02*
X531316D01*
X534416D02*
X539216D01*
X542016D02*
X546816D01*
X549816D02*
X551316D01*
X529816Y278748D02*
X531416D01*
X534416D02*
X539216D01*
X542016D02*
X546816D01*
X549816D02*
X551416D01*
X529916Y278848D02*
X531416D01*
X534416D02*
X539316D01*
X542016D02*
X546916D01*
X549916D02*
X551416D01*
X529916Y278948D02*
X531416D01*
X534416D02*
X539416D01*
X542016D02*
X547016D01*
X549916D02*
X551416D01*
X530016Y279048D02*
X531416D01*
X534416D02*
X539416D01*
X542016D02*
X547016D01*
X549916D02*
X551416D01*
X530016Y279148D02*
X531516D01*
X534416D02*
X539516D01*
X542016D02*
X547116D01*
X550016D02*
X551416D01*
X530116Y279248D02*
X531516D01*
X534416D02*
X539516D01*
X542016D02*
X547116D01*
X550016D02*
X551416D01*
X530116Y279348D02*
X531516D01*
X534416D02*
X539616D01*
X542016D02*
X547216D01*
X550016D02*
X551416D01*
X530216Y279448D02*
X531516D01*
X534416D02*
X539616D01*
X542016D02*
X547216D01*
X550116D02*
X551416D01*
X530216Y279548D02*
X531616D01*
X534416D02*
X539716D01*
X542016D02*
X547316D01*
X550116D02*
X551416D01*
X530316Y279648D02*
X531616D01*
X534416D02*
X539716D01*
X542016D02*
X547316D01*
X550216D02*
X551416D01*
X530316Y279748D02*
X531616D01*
X534416D02*
X539816D01*
X542016D02*
X547416D01*
X550216D02*
X551416D01*
X530416Y279848D02*
X531616D01*
X534416D02*
X539816D01*
X542016D02*
X547416D01*
X550216D02*
X551416D01*
X530416Y279948D02*
X531616D01*
X534416D02*
X539916D01*
X542016D02*
X547516D01*
X550316D02*
X551416D01*
X530516Y280048D02*
X531616D01*
X534416D02*
X539916D01*
X542016D02*
X547516D01*
X550316D02*
X551416D01*
X530516Y280148D02*
X531616D01*
X534516D02*
X540016D01*
X542016D02*
X547616D01*
X550416D02*
X551416D01*
X530616Y280248D02*
X531616D01*
X534516D02*
X540016D01*
X542116D02*
X547616D01*
X550416D02*
X551416D01*
X530616Y280348D02*
X531616D01*
X534516D02*
X540016D01*
X542116D02*
X547616D01*
X550516D02*
X551416D01*
X530716Y280448D02*
X531716D01*
X534516D02*
X540116D01*
X542116D02*
X547616D01*
X550516D02*
X551416D01*
X530816Y280548D02*
X531716D01*
X534516D02*
X540116D01*
X542116D02*
X547716D01*
X550616D02*
X551416D01*
X530816Y280648D02*
X531716D01*
X534616D02*
X540116D01*
X542216D02*
X547716D01*
X550716D02*
X551416D01*
X530916Y280748D02*
X531716D01*
X534616D02*
X540216D01*
X542216D02*
X547716D01*
X550716D02*
X551316D01*
X531016Y280848D02*
X531716D01*
X534616D02*
X540216D01*
X542216D02*
X547816D01*
X550816D02*
X551316D01*
X531116Y280948D02*
X531716D01*
X534616D02*
X540216D01*
X542216D02*
X547816D01*
X550816D02*
X551316D01*
X531116Y281048D02*
X531716D01*
X534716D02*
X540316D01*
X542316D02*
X547816D01*
X550916D02*
X551316D01*
X531216Y281148D02*
X531716D01*
X534716D02*
X540316D01*
X542316D02*
X547816D01*
X550916D02*
X551316D01*
X531316Y281248D02*
X531616D01*
X534716D02*
X540316D01*
X542416D02*
X547916D01*
X551016D02*
X551316D01*
X531416Y281348D02*
X531616D01*
X534816D02*
X540316D01*
X542416D02*
X547916D01*
X551116D02*
X551216D01*
X531516Y281448D02*
X531616D01*
X534816D02*
X540316D01*
X542416D02*
X547916D01*
X534916Y281548D02*
X540316D01*
X542516D02*
X547916D01*
X534916Y281648D02*
X540316D01*
X542516D02*
X547916D01*
X535016Y281748D02*
X540316D01*
X542616D02*
X547916D01*
X535016Y281848D02*
X540316D01*
X542616D02*
X547916D01*
X535016Y281948D02*
X540316D01*
X542716D02*
X547916D01*
X535116Y282048D02*
X540316D01*
X542716D02*
X547916D01*
X535216Y282148D02*
X540316D01*
X542816D02*
X547916D01*
X535216Y282248D02*
X540316D01*
X542816D02*
X547916D01*
X535316Y282348D02*
X540316D01*
X542916D02*
X547916D01*
X535416Y282448D02*
X540316D01*
X543016D02*
X547916D01*
X535416Y282548D02*
X540316D01*
X543016D02*
X547916D01*
X535516Y282648D02*
X540316D01*
X543116D02*
X547916D01*
X535516Y282748D02*
X540316D01*
X543216D02*
X547816D01*
X535616Y282848D02*
X540316D01*
X543316D02*
X547816D01*
X535716Y282948D02*
X540316D01*
X543416D02*
X547816D01*
X535816Y283048D02*
X540216D01*
X543416D02*
X547816D01*
X535916Y283148D02*
X540216D01*
X543516D02*
X547716D01*
X536016Y283248D02*
X540216D01*
X543616D02*
X547716D01*
X536116Y283348D02*
X540116D01*
X543716D02*
X547716D01*
X536116Y283448D02*
X540116D01*
X543816D02*
X547616D01*
X536216Y283548D02*
X540116D01*
X543916D02*
X547616D01*
X536316Y283648D02*
X540016D01*
X544016D02*
X547516D01*
X536416Y283748D02*
X540016D01*
X544116D02*
X547516D01*
X536616Y283848D02*
X539916D01*
X544216D02*
X547416D01*
X536716Y283948D02*
X539816D01*
X544316D02*
X547416D01*
X536816Y284048D02*
X539816D01*
X544516D02*
X547316D01*
X536916Y284148D02*
X539716D01*
X544616D02*
X547216D01*
X537116Y284248D02*
X539616D01*
X544716D02*
X547116D01*
X537216Y284348D02*
X539516D01*
X544916D02*
X547116D01*
X537416Y284448D02*
X539416D01*
X545116D02*
X546916D01*
X537516Y284548D02*
X539316D01*
X545216D02*
X546816D01*
X537716Y284648D02*
X539216D01*
X545516D02*
X546716D01*
X538016Y284748D02*
X539016D01*
X545816D02*
X546416D01*
X538416Y284848D02*
X538616D01*
X539316Y285548D02*
X539416D01*
X545616D02*
X545816D01*
X546716D02*
X547016D01*
X538016Y285648D02*
X539516D01*
X545616D02*
X547116D01*
X538016Y285748D02*
X539516D01*
X545616D02*
X547116D01*
X538016Y285848D02*
X539616D01*
X545616D02*
X547216D01*
X538016Y285948D02*
X539616D01*
X545716D02*
X547216D01*
X538116Y286048D02*
X539616D01*
X545716D02*
X547216D01*
X538116Y286148D02*
X539616D01*
X545716D02*
X547216D01*
X538116Y286248D02*
X539716D01*
X545716D02*
X547216D01*
X538216Y286348D02*
X539716D01*
X545816D02*
X547316D01*
X538216Y286448D02*
X539716D01*
X545816D02*
X547316D01*
X538216Y286548D02*
X539716D01*
X545916D02*
X547316D01*
X538316Y286648D02*
X539716D01*
X545916D02*
X547316D01*
X538316Y286748D02*
X539816D01*
X545916D02*
X547416D01*
X538416Y286848D02*
X539816D01*
X546016D02*
X547416D01*
X538416Y286948D02*
X539816D01*
X546016D02*
X547416D01*
X538516Y287048D02*
X539816D01*
X546116D02*
X547416D01*
X538516Y287148D02*
X539816D01*
X546116D02*
X547416D01*
X538516Y287248D02*
X539816D01*
X546216D02*
X547416D01*
X538616Y287348D02*
X539816D01*
X546216D02*
X547416D01*
X538616Y287448D02*
X539816D01*
X546316D02*
X547416D01*
X538716Y287548D02*
X539816D01*
X546316D02*
X547416D01*
X538716Y287648D02*
X539816D01*
X546416D02*
X547416D01*
X538816Y287748D02*
X539816D01*
X546416D02*
X547416D01*
X538816Y287848D02*
X539816D01*
X546516D02*
X547416D01*
X538916Y287948D02*
X539816D01*
X546516D02*
X547416D01*
X539016Y288048D02*
X539816D01*
X546616D02*
X547416D01*
X539016Y288148D02*
X539816D01*
X546716D02*
X547416D01*
X539116Y288248D02*
X539816D01*
X546716D02*
X547416D01*
X539216Y288348D02*
X539816D01*
X546816D02*
X547416D01*
X539216Y288448D02*
X539816D01*
X546916D02*
X547416D01*
X539316Y288548D02*
X539816D01*
X546916D02*
X547416D01*
X539416Y288648D02*
X539816D01*
X547016D02*
X547416D01*
X539416Y288748D02*
X539816D01*
X547116D02*
X547316D01*
X539516Y288848D02*
X539816D01*
X547116D02*
X547316D01*
X539616Y288948D02*
X539716D01*
G54D11*
X513049Y159313D02*
Y152750D01*
Y159313D02*
X515094D01*
X515776Y159000*
X516003Y158688*
X516231Y158063*
Y157438*
X516003Y156813*
X515776Y156500*
X515094Y156188*
X513049D02*
X515094D01*
X515776Y155875*
X516003Y155563*
X516231Y154938*
Y154000*
X516003Y153375*
X515776Y153063*
X515094Y152750*
X513049*
X518276Y155250D02*
X521003D01*
Y155875*
X520776Y156500*
X520549Y156813*
X520094Y157125*
X519412*
X518958Y156813*
X518503Y156188*
X518276Y155250*
Y154625*
X518503Y153688*
X518958Y153063*
X519412Y152750*
X520094*
X520549Y153063*
X521003Y153688*
X523049Y157125D02*
Y152750D01*
Y155875D02*
X523731Y156813D01*
X524185Y157125*
X524867*
X525321Y156813*
X525549Y155875*
Y152750*
X532821Y159313D02*
Y152750D01*
Y159313D02*
X534867D01*
X535549Y159000*
X535776Y158688*
X536003Y158063*
Y157438*
X535776Y156813*
X535549Y156500*
X534867Y156188*
X532821*
X534412D02*
X536003Y152750D01*
X538049Y159313D02*
X538276Y159000D01*
X538503Y159313*
X538276Y159625*
X538049Y159313*
X538276Y157125D02*
Y152750D01*
X543276Y156188D02*
X542821Y156813D01*
X542367Y157125*
X541685*
X541231Y156813*
X540776Y156188*
X540549Y155250*
Y154625*
X540776Y153688*
X541231Y153063*
X541685Y152750*
X542367*
X542821Y153063*
X543276Y153688*
X545321Y159313D02*
Y152750D01*
Y155875D02*
X546003Y156813D01*
X546458Y157125*
X547140*
X547594Y156813*
X547821Y155875*
Y152750*
X552594Y157125D02*
Y152750D01*
Y156188D02*
X552140Y156813D01*
X551685Y157125*
X551003*
X550549Y156813*
X550094Y156188*
X549867Y155250*
Y154625*
X550094Y153688*
X550549Y153063*
X551003Y152750*
X551685*
X552140Y153063*
X552594Y153688*
X554640Y157125D02*
Y152750D01*
Y155250D02*
X554867Y156188D01*
X555321Y156813*
X555776Y157125*
X556458*
X561231Y159313D02*
Y152750D01*
Y156188D02*
X560776Y156813D01*
X560321Y157125*
X559640*
X559185Y156813*
X558731Y156188*
X558503Y155250*
Y154625*
X558731Y153688*
X559185Y153063*
X559640Y152750*
X560321*
X560776Y153063*
X561231Y153688*
X565776Y156188D02*
X565549Y156813D01*
X564867Y157125*
X564185*
X563503Y156813*
X563276Y156188*
X563503Y155563*
X563958Y155250*
X565094Y154938*
X565549Y154625*
X565776Y154000*
Y153688*
X565549Y153063*
X564867Y152750*
X564185*
X563503Y153063*
X563276Y153688*
X127590Y112214D02*
X127632Y112173D01*
X133196*
X140696Y119672*
X127590Y122214D02*
X127731Y122354D01*
Y127491*
X153590Y122214D02*
X185952D01*
X191093Y117074*
X508574*
X514000Y122500*
X153590Y112214D02*
X164363D01*
X164367Y112218*
X173367D02*
X553218D01*
X564000Y122500*
X307105Y123276D02*
X459113D01*
Y210251*
X471882*
X307105Y123276D02*
X459113D01*
Y210251*
X492827*
X315054Y127233D02*
X454797D01*
Y219398*
X470923*
X218028Y144207D02*
X218062Y144241D01*
X239307*
X226193D02*
Y175146D01*
X232440*
X226193Y144241D02*
X239307D01*
X248307D02*
X248308Y144242D01*
X251777Y140773*
X277742*
X302680*
Y148814*
X311042*
Y193991*
X127731Y154196D02*
Y131697D01*
X317546*
Y199026*
X337271Y218750*
X357000*
X151456Y163381D02*
X151493Y163418D01*
X160862*
X136731Y154196D02*
X151088D01*
X151456Y154381*
X185500Y152500D02*
X197022Y167022D01*
X198114Y165929*
X218028*
X232440Y165146D02*
X239307D01*
Y156650*
X232440Y170146D02*
X255040D01*
X218028Y165929D02*
Y153207D01*
X231058Y156650D02*
X239307D01*
X248307D02*
Y170146D01*
X255040*
X239307Y156650D02*
Y149773D01*
X277742*
X255040Y170146D02*
X277432D01*
Y183059*
X255040Y165146D02*
Y160559D01*
X276368*
X277432D02*
X276368D01*
X276622Y160814*
X302680*
X127731Y173992D02*
X171008D01*
X185500Y152500*
X151773Y183597D02*
X156704Y178666D01*
X167931*
X177549Y188284*
X207512*
X222079Y202852*
X262300*
X218028Y174929D02*
Y191265D01*
X223281*
X277432Y183059D02*
X277487Y183004D01*
X300539*
X127731Y192484D02*
Y173992D01*
X136731Y192484D02*
X151660D01*
X151773Y192597*
X176384Y198326D02*
Y207135D01*
X232281Y191265D02*
Y180305D01*
X232440Y180146*
X294389Y210644D02*
X311042Y193991D01*
X470923Y210398D02*
X471070Y210251D01*
X471882*
X515427D02*
X543910D01*
X127288Y227617D02*
Y192927D01*
X127731Y192484*
X151372Y218573D02*
X160574D01*
X136288Y227617D02*
X151329D01*
X151372Y227573*
X176384Y216135D02*
Y228595D01*
X201745Y228470*
X201768Y228494*
X184628Y217390D02*
X224368D01*
Y223494*
X201768D02*
X215345D01*
Y246806*
X270373Y219699D02*
X294389D01*
X255697Y219656D02*
X270330D01*
X270373Y219699*
X255697Y219656D02*
Y253729D01*
X255759Y253792*
X262300Y228769D02*
X294374D01*
X294389Y228754*
X307027*
X307100Y228832*
X294389Y219699D02*
X306971D01*
X307100Y219832*
Y228832D02*
X315054D01*
X307105Y208164D02*
X307100Y219832D01*
X307105Y208164*
X470923Y219398D02*
Y225251D01*
X492827*
X479111Y215251D02*
X492827D01*
X484759Y220251D02*
X492827D01*
X515427Y225251D02*
X533998D01*
X515427Y220251D02*
X523992D01*
X515427Y215251D02*
X553906D01*
X123196Y249006D02*
Y284906D01*
X123070Y239200D02*
Y248881D01*
X123196Y249006*
X123070Y239200D02*
X127288Y234982D01*
Y227617*
X140696Y284906D02*
Y249006D01*
X167608*
Y193471*
X205699*
X220627Y208398*
X250759*
Y253792*
X140696Y238552D02*
Y249006D01*
X176384Y237595D02*
Y268884D01*
X185500Y285000*
X201768Y233494D02*
Y238494D01*
Y244636*
X224368Y238494D02*
X242024D01*
Y228769*
X224368Y228494D02*
Y233494D01*
X232497*
X224345Y246806D02*
Y238517D01*
X224368Y238494*
X260759Y240744D02*
Y253792D01*
X275738Y244636D02*
Y253770D01*
X275759Y253792*
X284881Y240744D02*
X307077D01*
X307100Y240767*
Y249767D02*
X316658D01*
X337675Y228750*
X357000*
X482764Y238051D02*
X492827D01*
Y225251*
X473764Y238051D02*
Y229863D01*
X484759*
X229214Y262058D02*
Y294251D01*
X270759Y253792D02*
Y233494D01*
X255730Y262040D02*
Y253821D01*
X255759Y253792*
X270965Y262040D02*
X284482D01*
X463299Y251322D02*
X473764D01*
X482764D02*
Y238051D01*
X140696Y284906D02*
X143651Y287862D01*
Y303866*
X255673Y271040D02*
Y291105D01*
X255759Y291192*
X265744Y274419D02*
X300253Y308928D01*
X458641*
Y238051*
X473764*
X265744Y274419D02*
Y253806D01*
X265759Y253792*
X271080Y271040D02*
X284482D01*
X294449*
Y257834*
X120519Y303866D02*
Y287583D01*
X123196Y284906*
X160594Y308008D02*
X195812D01*
X205828Y297992*
X250759*
Y291192*
X275759D02*
X296873Y312305D01*
X463299*
Y251322*
X131994Y321861D02*
X210151Y321929D01*
X219214Y312866*
X131994Y312861D02*
X143646D01*
X143651Y312866*
X120519D02*
X131989D01*
X131994Y312861*
X143651Y312866D02*
X209214D01*
X209214*
X219214D02*
X231175Y300905D01*
X255759*
Y291192*
X249214Y312866D02*
X254701Y307380D01*
X265759*
Y291192*
X239214Y312866D02*
X247938Y304142D01*
X260759*
Y291192*
G54D31*
X514000Y317500D03*
Y122500D03*
G54D32*
X524000Y317500D03*
X534000D03*
X544000D03*
X554000D03*
X564000D03*
X524000Y122500D03*
X534000D03*
X544000D03*
X554000D03*
X564000D03*
G54D35*
X120519Y303866D03*
Y312866D03*
X218028Y174929D03*
Y165929D03*
X277742Y140773D03*
Y149773D03*
X307100Y219832D03*
Y228832D03*
X470923Y219398D03*
Y210398D03*
X284482Y262040D03*
Y271040D03*
X143651Y303866D03*
Y312866D03*
X131994Y312861D03*
Y321861D03*
X218028Y153207D03*
Y144207D03*
X151773Y192597D03*
Y183597D03*
X151372Y227573D03*
Y218573D03*
X176384Y237595D03*
Y228595D03*
Y207135D03*
Y216135D03*
X307100Y240767D03*
Y249767D03*
X151456Y154381D03*
Y163381D03*
G54D36*
X239307Y156650D03*
X248307D03*
X224345Y246806D03*
X215345D03*
X127731Y154196D03*
X136731D03*
X127288Y227617D03*
X136288D03*
X127731Y192484D03*
X136731D03*
X248307Y144241D03*
X239307D03*
X232281Y191265D03*
X223281D03*
X473764Y251322D03*
X482764D03*
X473764Y238051D03*
X482764D03*
X173367Y112218D03*
X164367D03*
G54D37*
X185500Y285000D03*
Y152500D03*
X489500Y285000D03*
Y152500D03*
G54D38*
X371870Y168750D03*
X371986Y268750D03*
G54D39*
X277432Y160559D03*
Y183059D03*
G54D40*
X357000Y228750D03*
G54D41*
Y218750D03*
Y208750D03*
X387048Y208800D03*
Y228800D03*
G54D42*
X140696Y284906D03*
Y249006D03*
X123196Y284906D03*
Y249006D03*
G54D43*
X201768Y238494D03*
Y233494D03*
Y228494D03*
Y223494D03*
X224368D03*
Y228494D03*
Y233494D03*
Y238494D03*
X232440Y180146D03*
Y175146D03*
Y170146D03*
Y165146D03*
X255040D03*
Y170146D03*
Y175146D03*
Y180146D03*
X153590Y112214D03*
Y122214D03*
X127590D03*
Y112214D03*
X492827Y225251D03*
Y220251D03*
Y215251D03*
Y210251D03*
X515427D03*
Y215251D03*
Y220251D03*
Y225251D03*
G54D44*
X294389Y210644D03*
Y219699D03*
Y228754D03*
G54D45*
X270373Y219699D03*
G54D46*
X235759Y253792D03*
X240759D03*
X245759D03*
X250759D03*
X255759D03*
X260759D03*
X265759D03*
X270759D03*
X275759D03*
Y291192D03*
X270759D03*
X265759D03*
X260759D03*
X255759D03*
X250759D03*
X245759D03*
X240759D03*
X235759D03*
G54D47*
X209214Y312866D03*
G54D48*
X219214D03*
X229214D03*
X239214D03*
X249214D03*
X259214D03*
G54D49*
X127731Y127491D03*
X140696Y119672D03*
X307105Y123276D03*
X315054Y127233D03*
X160862Y163418D03*
X231058Y156650D03*
X127731Y173992D03*
X167931Y178666D03*
X300539Y183004D03*
X176384Y198326D03*
X262300Y202852D03*
X307105Y208164D03*
X543910Y210251D03*
X160574Y218573D03*
X184628Y217390D03*
X215345Y223494D03*
X242024Y228769D03*
X255697Y219656D03*
X262300Y228769D03*
X315054Y228832D03*
X479111Y215251D03*
X484759Y220251D03*
Y229863D03*
X523992Y220251D03*
X533998Y225251D03*
X553906Y215251D03*
X140696Y238552D03*
X201768Y244636D03*
X232497Y233494D03*
X260759Y240744D03*
X270759Y233494D03*
X275738Y244636D03*
X284881Y240744D03*
X229214Y262058D03*
X255730Y262040D03*
X270965D03*
X294449Y257834D03*
X463299Y251322D03*
X255673Y271040D03*
X271080D03*
X160594Y308008D03*
X229214Y294251D03*
G54D54*
X302680Y148814D03*
Y160814D03*
X0Y0D02*
M02*
