*
*
G04 PADS 9.4.1 Build Number: 494907 generated Gerber (RS-274-X) file*
G04 PC Version=2.1*
*
%IN "bms2014.pcb"*%
*
%MOIN*%
*
%FSLAX35Y35*%
*
*
*
*
G04 PC Standard Apertures*
*
*
G04 Thermal Relief Aperture macro.*
%AMTER*
1,1,$1,0,0*
1,0,$1-$2,0,0*
21,0,$3,$4,0,0,45*
21,0,$3,$4,0,0,135*
%
*
*
G04 Annular Aperture macro.*
%AMANN*
1,1,$1,0,0*
1,0,$2,0,0*
%
*
*
G04 Odd Aperture macro.*
%AMODD*
1,1,$1,0,0*
1,0,$1-0.005,0,0*
%
*
*
G04 PC Custom Aperture Macros*
*
*
*
*
*
*
G04 PC Aperture Table*
*
%ADD010C,0.001*%
%ADD011C,0.01*%
*
*
*
*
G04 PC Circuitry*
G04 Layer Name bms2014.pcb - circuitry*
%LPD*%
*
*
G04 PC Custom Flashes*
G04 Layer Name bms2014.pcb - flashes*
%LPD*%
*
*
G04 PC Circuitry*
G04 Layer Name bms2014.pcb - circuitry*
%LPD*%
*
G54D10*
G01X540516Y261648D02*
X541816D01*
X529816Y261748D02*
X531216D01*
X540216D02*
X542216D01*
X529516Y261848D02*
X531616D01*
X535416D02*
X536416D01*
X540016D02*
X542416D01*
X529316Y261948D02*
X531916D01*
X535216D02*
X536716D01*
X539816D02*
X542716D01*
X529216Y262048D02*
X532116D01*
X535016D02*
X536816D01*
X539716D02*
X542916D01*
X529016Y262148D02*
X532316D01*
X534916D02*
X537016D01*
X539616D02*
X543016D01*
X528916Y262248D02*
X532416D01*
X534816D02*
X537216D01*
X539416D02*
X543216D01*
X528816Y262348D02*
X532716D01*
X534716D02*
X537316D01*
X539316D02*
X543316D01*
X528816Y262448D02*
X532916D01*
X534616D02*
X537516D01*
X539116D02*
X543416D01*
X528716Y262548D02*
X533216D01*
X534416D02*
X537816D01*
X538816D02*
X543516D01*
X528716Y262648D02*
X533616D01*
X534016D02*
X543616D01*
X528616Y262748D02*
X543716D01*
X528616Y262848D02*
X543816D01*
X528516Y262948D02*
X543916D01*
X528516Y263048D02*
X544016D01*
X528516Y263148D02*
X544116D01*
X528516Y263248D02*
X544116D01*
X528416Y263348D02*
X544216D01*
X528416Y263448D02*
X544316D01*
X528416Y263548D02*
X544316D01*
X528416Y263648D02*
X544416D01*
X528416Y263748D02*
X544416D01*
X528416Y263848D02*
X544516D01*
X528416Y263948D02*
X544516D01*
X528416Y264048D02*
X544516D01*
X528516Y264148D02*
X544616D01*
X528516Y264248D02*
X544616D01*
X528516Y264348D02*
X544616D01*
X528516Y264448D02*
X544616D01*
X528616Y264548D02*
X544716D01*
X528616Y264648D02*
X544716D01*
X528616Y264748D02*
X544716D01*
X528716Y264848D02*
X544716D01*
X528716Y264948D02*
X544716D01*
X528716Y265048D02*
X544816D01*
X528816Y265148D02*
X544816D01*
X528816Y265248D02*
X544816D01*
X528916Y265348D02*
X544816D01*
X528916Y265448D02*
X544816D01*
X529016Y265548D02*
X544816D01*
X529116Y265648D02*
X544816D01*
X529116Y265748D02*
X544816D01*
X529216Y265848D02*
X544716D01*
X529316Y265948D02*
X544716D01*
X529316Y266048D02*
X544716D01*
X529416Y266148D02*
X544716D01*
X529516Y266248D02*
X544716D01*
X529616Y266348D02*
X544616D01*
X529716Y266448D02*
X544616D01*
X529816Y266548D02*
X544516D01*
X529916Y266648D02*
X544516D01*
X530016Y266748D02*
X544516D01*
X530116Y266848D02*
X544416D01*
X530216Y266948D02*
X544416D01*
X530316Y267048D02*
X544316D01*
X530416Y267148D02*
X544316D01*
X530516Y267248D02*
X544216D01*
X530616Y267348D02*
X544116D01*
X530716Y267448D02*
X544116D01*
X530816Y267548D02*
X544016D01*
X531016Y267648D02*
X543916D01*
X531116Y267748D02*
X543916D01*
X531316Y267848D02*
X543816D01*
X531416Y267948D02*
X543716D01*
X531516Y268048D02*
X543716D01*
X531616Y268148D02*
X543616D01*
X531816Y268248D02*
X543516D01*
X531916Y268348D02*
X543516D01*
X532016Y268448D02*
X543416D01*
X532116Y268548D02*
X543416D01*
X532216Y268648D02*
X543316D01*
X532316Y268748D02*
X543316D01*
X532416Y268848D02*
X543216D01*
X532516Y268948D02*
X543216D01*
X532616Y269048D02*
X543116D01*
X532716Y269148D02*
X543116D01*
X532816Y269248D02*
X543116D01*
X532916Y269348D02*
X543016D01*
X533016Y269448D02*
X543016D01*
X533116Y269548D02*
X543016D01*
X546116D02*
X547016D01*
X529616Y269648D02*
X529716D01*
X533216D02*
X543016D01*
X545816D02*
X547416D01*
X528916Y269748D02*
X530316D01*
X533216D02*
X542916D01*
X545616D02*
X547716D01*
X528616Y269848D02*
X530616D01*
X533316D02*
X542916D01*
X545416D02*
X547916D01*
X528416Y269948D02*
X530816D01*
X533416D02*
X542916D01*
X545316D02*
X548116D01*
X528216Y270048D02*
X531016D01*
X533416D02*
X542916D01*
X545216D02*
X548316D01*
X528116Y270148D02*
X531116D01*
X533516D02*
X542916D01*
X545216D02*
X548516D01*
X528016Y270248D02*
X531316D01*
X533516D02*
X542916D01*
X545116D02*
X548716D01*
X527916Y270348D02*
X531416D01*
X533616D02*
X542916D01*
X545116D02*
X548816D01*
X527816Y270448D02*
X531516D01*
X533616D02*
X542916D01*
X545016D02*
X549016D01*
X527716Y270548D02*
X531616D01*
X533716D02*
X542916D01*
X545016D02*
X549116D01*
X527616Y270648D02*
X531716D01*
X533716D02*
X543016D01*
X545016D02*
X549216D01*
X527516Y270748D02*
X531816D01*
X533816D02*
X543016D01*
X544916D02*
X549416D01*
X527416Y270848D02*
X531816D01*
X533816D02*
X543016D01*
X544916D02*
X549516D01*
X527416Y270948D02*
X531916D01*
X533916D02*
X543016D01*
X544916D02*
X549616D01*
X527316Y271048D02*
X532016D01*
X533916D02*
X543016D01*
X544916D02*
X549716D01*
X527316Y271148D02*
X532116D01*
X533916D02*
X543116D01*
X544916D02*
X549816D01*
X527216Y271248D02*
X532116D01*
X533916D02*
X543116D01*
X544916D02*
X549916D01*
X527216Y271348D02*
X532216D01*
X534016D02*
X543116D01*
X544916D02*
X550016D01*
X527116Y271448D02*
X532216D01*
X534016D02*
X543116D01*
X544916D02*
X550116D01*
X527116Y271548D02*
X532316D01*
X534116D02*
X543116D01*
X544916D02*
X550216D01*
X527016Y271648D02*
X532316D01*
X534116D02*
X543216D01*
X544916D02*
X550316D01*
X527016Y271748D02*
X532416D01*
X534116D02*
X543216D01*
X544916D02*
X550416D01*
X527016Y271848D02*
X532416D01*
X534216D02*
X543216D01*
X545016D02*
X550516D01*
X526916Y271948D02*
X532416D01*
X534216D02*
X543216D01*
X545016D02*
X550616D01*
X526916Y272048D02*
X532516D01*
X534316D02*
X543216D01*
X545016D02*
X550616D01*
X526916Y272148D02*
X532516D01*
X534416D02*
X543216D01*
X545016D02*
X550716D01*
X526916Y272248D02*
X532516D01*
X534416D02*
X543116D01*
X545116D02*
X550816D01*
X526816Y272348D02*
X532516D01*
X534516D02*
X543116D01*
X545116D02*
X550916D01*
X526816Y272448D02*
X532616D01*
X534616D02*
X543116D01*
X545116D02*
X550916D01*
X526816Y272548D02*
X532616D01*
X534716D02*
X543016D01*
X545216D02*
X551016D01*
X526816Y272648D02*
X532616D01*
X534816D02*
X543016D01*
X545216D02*
X551116D01*
X526816Y272748D02*
X532616D01*
X534916D02*
X543016D01*
X545316D02*
X551116D01*
X526816Y272848D02*
X532716D01*
X535016D02*
X538716D01*
X539316D02*
X542916D01*
X545316D02*
X551216D01*
X526816Y272948D02*
X532716D01*
X535116D02*
X538416D01*
X539616D02*
X542916D01*
X545316D02*
X551216D01*
X526816Y273048D02*
X532716D01*
X535216D02*
X538216D01*
X539816D02*
X542816D01*
X545416D02*
X551316D01*
X526816Y273148D02*
X532716D01*
X535416D02*
X538116D01*
X540116D02*
X542716D01*
X545516D02*
X551316D01*
X526816Y273248D02*
X532716D01*
X535516D02*
X538016D01*
X540216D02*
X542616D01*
X545516D02*
X551416D01*
X526816Y273348D02*
X532716D01*
X535716D02*
X537816D01*
X540416D02*
X542516D01*
X545616D02*
X551416D01*
X526816Y273448D02*
X532716D01*
X535916D02*
X537716D01*
X540716D02*
X542216D01*
X545616D02*
X551516D01*
X526816Y273548D02*
X532716D01*
X536216D02*
X537516D01*
X541016D02*
X542116D01*
X545716D02*
X551516D01*
X526816Y273648D02*
X532716D01*
X536516D02*
X537016D01*
X545716D02*
X551516D01*
X526916Y273748D02*
X532716D01*
X545816D02*
X551616D01*
X526916Y273848D02*
X532716D01*
X545916D02*
X551616D01*
X526916Y273948D02*
X532616D01*
X545916D02*
X551616D01*
X526916Y274048D02*
X532616D01*
X546016D02*
X551716D01*
X526916Y274148D02*
X532616D01*
X546116D02*
X551716D01*
X526916Y274248D02*
X532616D01*
X546116D02*
X551716D01*
X527016Y274348D02*
X532616D01*
X546216D02*
X551816D01*
X527016Y274448D02*
X532616D01*
X546316D02*
X551816D01*
X527016Y274548D02*
X532516D01*
X546416D02*
X551816D01*
X527116Y274648D02*
X532516D01*
X546516D02*
X551816D01*
X527116Y274748D02*
X532516D01*
X546616D02*
X551816D01*
X527216Y274848D02*
X532516D01*
X546716D02*
X551816D01*
X527216Y274948D02*
X532416D01*
X546816D02*
X551816D01*
X527216Y275048D02*
X532416D01*
X546916D02*
X551816D01*
X527316Y275148D02*
X532316D01*
X547016D02*
X551816D01*
X527316Y275248D02*
X532316D01*
X547116D02*
X551816D01*
X527416Y275348D02*
X532216D01*
X547216D02*
X551816D01*
X527516Y275448D02*
X532216D01*
X547316D02*
X551816D01*
X527516Y275548D02*
X532116D01*
X547416D02*
X551816D01*
X527616Y275648D02*
X532016D01*
X547616D02*
X551816D01*
X527716Y275748D02*
X532016D01*
X547716D02*
X551716D01*
X527816Y275848D02*
X531916D01*
X547816D02*
X551716D01*
X527916Y275948D02*
X531816D01*
X548016D02*
X551616D01*
X528016Y276048D02*
X531716D01*
X548216D02*
X551616D01*
X528116Y276148D02*
X531616D01*
X548316D02*
X551516D01*
X528216Y276248D02*
X531516D01*
X548516D02*
X551416D01*
X528316Y276348D02*
X531416D01*
X548716D02*
X551316D01*
X528516Y276448D02*
X531216D01*
X548916D02*
X551216D01*
X528616Y276548D02*
X531116D01*
X549216D02*
X551016D01*
X528816Y276648D02*
X530916D01*
X549616D02*
X550816D01*
X529116Y276748D02*
X530716D01*
X543616D02*
X544116D01*
X529616Y276848D02*
X529716D01*
X529816D02*
X530116D01*
X535716D02*
X536916D01*
X543216D02*
X544616D01*
X535416Y276948D02*
X537216D01*
X542916D02*
X544916D01*
X535316Y277048D02*
X537416D01*
X542816D02*
X545116D01*
X535116Y277148D02*
X537616D01*
X542716D02*
X545316D01*
X535016Y277248D02*
X537816D01*
X542616D02*
X545416D01*
X534916Y277348D02*
X538016D01*
X542516D02*
X545616D01*
X534916Y277448D02*
X538116D01*
X542416D02*
X545716D01*
X534816Y277548D02*
X538216D01*
X542416D02*
X545816D01*
X534716Y277648D02*
X538316D01*
X542316D02*
X545916D01*
X549616D02*
X550516D01*
X550816D02*
X551116D01*
X530616Y277748D02*
X531016D01*
X534716D02*
X538416D01*
X542316D02*
X546016D01*
X549616D02*
X551116D01*
X529616Y277848D02*
X531016D01*
X534616D02*
X538516D01*
X542216D02*
X546116D01*
X549616D02*
X551216D01*
X529616Y277948D02*
X531116D01*
X534616D02*
X538616D01*
X542216D02*
X546216D01*
X549616D02*
X551216D01*
X529616Y278048D02*
X531116D01*
X534616D02*
X538716D01*
X542116D02*
X546316D01*
X549716D02*
X551216D01*
X529616Y278148D02*
X531216D01*
X534516D02*
X538816D01*
X542116D02*
X546416D01*
X549716D02*
X551216D01*
X529716Y278248D02*
X531216D01*
X534516D02*
X538916D01*
X542116D02*
X546516D01*
X549716D02*
X551316D01*
X529716Y278348D02*
X531216D01*
X534516D02*
X539016D01*
X542116D02*
X546516D01*
X549716D02*
X551316D01*
X529716Y278448D02*
X531316D01*
X534516D02*
X539016D01*
X542016D02*
X546616D01*
X549816D02*
X551316D01*
X529816Y278548D02*
X531316D01*
X534416D02*
X539116D01*
X542016D02*
X546716D01*
X549816D02*
X551316D01*
X529816Y278648D02*
X531316D01*
X534416D02*
X539216D01*
X542016D02*
X546816D01*
X549816D02*
X551316D01*
X529816Y278748D02*
X531416D01*
X534416D02*
X539216D01*
X542016D02*
X546816D01*
X549816D02*
X551416D01*
X529916Y278848D02*
X531416D01*
X534416D02*
X539316D01*
X542016D02*
X546916D01*
X549916D02*
X551416D01*
X529916Y278948D02*
X531416D01*
X534416D02*
X539416D01*
X542016D02*
X547016D01*
X549916D02*
X551416D01*
X530016Y279048D02*
X531416D01*
X534416D02*
X539416D01*
X542016D02*
X547016D01*
X549916D02*
X551416D01*
X530016Y279148D02*
X531516D01*
X534416D02*
X539516D01*
X542016D02*
X547116D01*
X550016D02*
X551416D01*
X530116Y279248D02*
X531516D01*
X534416D02*
X539516D01*
X542016D02*
X547116D01*
X550016D02*
X551416D01*
X530116Y279348D02*
X531516D01*
X534416D02*
X539616D01*
X542016D02*
X547216D01*
X550016D02*
X551416D01*
X530216Y279448D02*
X531516D01*
X534416D02*
X539616D01*
X542016D02*
X547216D01*
X550116D02*
X551416D01*
X530216Y279548D02*
X531616D01*
X534416D02*
X539716D01*
X542016D02*
X547316D01*
X550116D02*
X551416D01*
X530316Y279648D02*
X531616D01*
X534416D02*
X539716D01*
X542016D02*
X547316D01*
X550216D02*
X551416D01*
X530316Y279748D02*
X531616D01*
X534416D02*
X539816D01*
X542016D02*
X547416D01*
X550216D02*
X551416D01*
X530416Y279848D02*
X531616D01*
X534416D02*
X539816D01*
X542016D02*
X547416D01*
X550216D02*
X551416D01*
X530416Y279948D02*
X531616D01*
X534416D02*
X539916D01*
X542016D02*
X547516D01*
X550316D02*
X551416D01*
X530516Y280048D02*
X531616D01*
X534416D02*
X539916D01*
X542016D02*
X547516D01*
X550316D02*
X551416D01*
X530516Y280148D02*
X531616D01*
X534516D02*
X540016D01*
X542016D02*
X547616D01*
X550416D02*
X551416D01*
X530616Y280248D02*
X531616D01*
X534516D02*
X540016D01*
X542116D02*
X547616D01*
X550416D02*
X551416D01*
X530616Y280348D02*
X531616D01*
X534516D02*
X540016D01*
X542116D02*
X547616D01*
X550516D02*
X551416D01*
X530716Y280448D02*
X531716D01*
X534516D02*
X540116D01*
X542116D02*
X547616D01*
X550516D02*
X551416D01*
X530816Y280548D02*
X531716D01*
X534516D02*
X540116D01*
X542116D02*
X547716D01*
X550616D02*
X551416D01*
X530816Y280648D02*
X531716D01*
X534616D02*
X540116D01*
X542216D02*
X547716D01*
X550716D02*
X551416D01*
X530916Y280748D02*
X531716D01*
X534616D02*
X540216D01*
X542216D02*
X547716D01*
X550716D02*
X551316D01*
X531016Y280848D02*
X531716D01*
X534616D02*
X540216D01*
X542216D02*
X547816D01*
X550816D02*
X551316D01*
X531116Y280948D02*
X531716D01*
X534616D02*
X540216D01*
X542216D02*
X547816D01*
X550816D02*
X551316D01*
X531116Y281048D02*
X531716D01*
X534716D02*
X540316D01*
X542316D02*
X547816D01*
X550916D02*
X551316D01*
X531216Y281148D02*
X531716D01*
X534716D02*
X540316D01*
X542316D02*
X547816D01*
X550916D02*
X551316D01*
X531316Y281248D02*
X531616D01*
X534716D02*
X540316D01*
X542416D02*
X547916D01*
X551016D02*
X551316D01*
X531416Y281348D02*
X531616D01*
X534816D02*
X540316D01*
X542416D02*
X547916D01*
X551116D02*
X551216D01*
X531516Y281448D02*
X531616D01*
X534816D02*
X540316D01*
X542416D02*
X547916D01*
X534916Y281548D02*
X540316D01*
X542516D02*
X547916D01*
X534916Y281648D02*
X540316D01*
X542516D02*
X547916D01*
X535016Y281748D02*
X540316D01*
X542616D02*
X547916D01*
X535016Y281848D02*
X540316D01*
X542616D02*
X547916D01*
X535016Y281948D02*
X540316D01*
X542716D02*
X547916D01*
X535116Y282048D02*
X540316D01*
X542716D02*
X547916D01*
X535216Y282148D02*
X540316D01*
X542816D02*
X547916D01*
X535216Y282248D02*
X540316D01*
X542816D02*
X547916D01*
X535316Y282348D02*
X540316D01*
X542916D02*
X547916D01*
X535416Y282448D02*
X540316D01*
X543016D02*
X547916D01*
X535416Y282548D02*
X540316D01*
X543016D02*
X547916D01*
X535516Y282648D02*
X540316D01*
X543116D02*
X547916D01*
X535516Y282748D02*
X540316D01*
X543216D02*
X547816D01*
X535616Y282848D02*
X540316D01*
X543316D02*
X547816D01*
X535716Y282948D02*
X540316D01*
X543416D02*
X547816D01*
X535816Y283048D02*
X540216D01*
X543416D02*
X547816D01*
X535916Y283148D02*
X540216D01*
X543516D02*
X547716D01*
X536016Y283248D02*
X540216D01*
X543616D02*
X547716D01*
X536116Y283348D02*
X540116D01*
X543716D02*
X547716D01*
X536116Y283448D02*
X540116D01*
X543816D02*
X547616D01*
X536216Y283548D02*
X540116D01*
X543916D02*
X547616D01*
X536316Y283648D02*
X540016D01*
X544016D02*
X547516D01*
X536416Y283748D02*
X540016D01*
X544116D02*
X547516D01*
X536616Y283848D02*
X539916D01*
X544216D02*
X547416D01*
X536716Y283948D02*
X539816D01*
X544316D02*
X547416D01*
X536816Y284048D02*
X539816D01*
X544516D02*
X547316D01*
X536916Y284148D02*
X539716D01*
X544616D02*
X547216D01*
X537116Y284248D02*
X539616D01*
X544716D02*
X547116D01*
X537216Y284348D02*
X539516D01*
X544916D02*
X547116D01*
X537416Y284448D02*
X539416D01*
X545116D02*
X546916D01*
X537516Y284548D02*
X539316D01*
X545216D02*
X546816D01*
X537716Y284648D02*
X539216D01*
X545516D02*
X546716D01*
X538016Y284748D02*
X539016D01*
X545816D02*
X546416D01*
X538416Y284848D02*
X538616D01*
X539316Y285548D02*
X539416D01*
X545616D02*
X545816D01*
X546716D02*
X547016D01*
X538016Y285648D02*
X539516D01*
X545616D02*
X547116D01*
X538016Y285748D02*
X539516D01*
X545616D02*
X547116D01*
X538016Y285848D02*
X539616D01*
X545616D02*
X547216D01*
X538016Y285948D02*
X539616D01*
X545716D02*
X547216D01*
X538116Y286048D02*
X539616D01*
X545716D02*
X547216D01*
X538116Y286148D02*
X539616D01*
X545716D02*
X547216D01*
X538116Y286248D02*
X539716D01*
X545716D02*
X547216D01*
X538216Y286348D02*
X539716D01*
X545816D02*
X547316D01*
X538216Y286448D02*
X539716D01*
X545816D02*
X547316D01*
X538216Y286548D02*
X539716D01*
X545916D02*
X547316D01*
X538316Y286648D02*
X539716D01*
X545916D02*
X547316D01*
X538316Y286748D02*
X539816D01*
X545916D02*
X547416D01*
X538416Y286848D02*
X539816D01*
X546016D02*
X547416D01*
X538416Y286948D02*
X539816D01*
X546016D02*
X547416D01*
X538516Y287048D02*
X539816D01*
X546116D02*
X547416D01*
X538516Y287148D02*
X539816D01*
X546116D02*
X547416D01*
X538516Y287248D02*
X539816D01*
X546216D02*
X547416D01*
X538616Y287348D02*
X539816D01*
X546216D02*
X547416D01*
X538616Y287448D02*
X539816D01*
X546316D02*
X547416D01*
X538716Y287548D02*
X539816D01*
X546316D02*
X547416D01*
X538716Y287648D02*
X539816D01*
X546416D02*
X547416D01*
X538816Y287748D02*
X539816D01*
X546416D02*
X547416D01*
X538816Y287848D02*
X539816D01*
X546516D02*
X547416D01*
X538916Y287948D02*
X539816D01*
X546516D02*
X547416D01*
X539016Y288048D02*
X539816D01*
X546616D02*
X547416D01*
X539016Y288148D02*
X539816D01*
X546716D02*
X547416D01*
X539116Y288248D02*
X539816D01*
X546716D02*
X547416D01*
X539216Y288348D02*
X539816D01*
X546816D02*
X547416D01*
X539216Y288448D02*
X539816D01*
X546916D02*
X547416D01*
X539316Y288548D02*
X539816D01*
X546916D02*
X547416D01*
X539416Y288648D02*
X539816D01*
X547016D02*
X547416D01*
X539416Y288748D02*
X539816D01*
X547116D02*
X547316D01*
X539516Y288848D02*
X539816D01*
X547116D02*
X547316D01*
X539616Y288948D02*
X539716D01*
X100000Y337500D02*
X100003D01*
X575000D02*
X575003D01*
X100000Y100000D02*
X100003D01*
X100000Y337500D02*
X100003D01*
G54D11*
X513049Y159313D02*
Y152750D01*
Y159313D02*
X515094D01*
X515776Y159000*
X516003Y158688*
X516231Y158063*
Y157438*
X516003Y156813*
X515776Y156500*
X515094Y156188*
X513049D02*
X515094D01*
X515776Y155875*
X516003Y155563*
X516231Y154938*
Y154000*
X516003Y153375*
X515776Y153063*
X515094Y152750*
X513049*
X518276Y155250D02*
X521003D01*
Y155875*
X520776Y156500*
X520549Y156813*
X520094Y157125*
X519412*
X518958Y156813*
X518503Y156188*
X518276Y155250*
Y154625*
X518503Y153688*
X518958Y153063*
X519412Y152750*
X520094*
X520549Y153063*
X521003Y153688*
X523049Y157125D02*
Y152750D01*
Y155875D02*
X523731Y156813D01*
X524185Y157125*
X524867*
X525321Y156813*
X525549Y155875*
Y152750*
X532821Y159313D02*
Y152750D01*
Y159313D02*
X534867D01*
X535549Y159000*
X535776Y158688*
X536003Y158063*
Y157438*
X535776Y156813*
X535549Y156500*
X534867Y156188*
X532821*
X534412D02*
X536003Y152750D01*
X538049Y159313D02*
X538276Y159000D01*
X538503Y159313*
X538276Y159625*
X538049Y159313*
X538276Y157125D02*
Y152750D01*
X543276Y156188D02*
X542821Y156813D01*
X542367Y157125*
X541685*
X541231Y156813*
X540776Y156188*
X540549Y155250*
Y154625*
X540776Y153688*
X541231Y153063*
X541685Y152750*
X542367*
X542821Y153063*
X543276Y153688*
X545321Y159313D02*
Y152750D01*
Y155875D02*
X546003Y156813D01*
X546458Y157125*
X547140*
X547594Y156813*
X547821Y155875*
Y152750*
X552594Y157125D02*
Y152750D01*
Y156188D02*
X552140Y156813D01*
X551685Y157125*
X551003*
X550549Y156813*
X550094Y156188*
X549867Y155250*
Y154625*
X550094Y153688*
X550549Y153063*
X551003Y152750*
X551685*
X552140Y153063*
X552594Y153688*
X554640Y157125D02*
Y152750D01*
Y155250D02*
X554867Y156188D01*
X555321Y156813*
X555776Y157125*
X556458*
X561231Y159313D02*
Y152750D01*
Y156188D02*
X560776Y156813D01*
X560321Y157125*
X559640*
X559185Y156813*
X558731Y156188*
X558503Y155250*
Y154625*
X558731Y153688*
X559185Y153063*
X559640Y152750*
X560321*
X560776Y153063*
X561231Y153688*
X565776Y156188D02*
X565549Y156813D01*
X564867Y157125*
X564185*
X563503Y156813*
X563276Y156188*
X563503Y155563*
X563958Y155250*
X565094Y154938*
X565549Y154625*
X565776Y154000*
Y153688*
X565549Y153063*
X564867Y152750*
X564185*
X563503Y153063*
X563276Y153688*
X181500Y285000D02*
X189500D01*
X185500Y281000D02*
Y289000D01*
X181500Y152500D02*
X189500D01*
X185500Y148500D02*
Y156500D01*
X485500Y285000D02*
X493500D01*
X489500Y281000D02*
Y289000D01*
X485500Y152500D02*
X493500D01*
X489500Y148500D02*
Y156500D01*
X367870Y164750D02*
X375870Y172750D01*
X367870D02*
X375870Y164750D01*
X367986Y264750D02*
X375986Y272750D01*
X367986D02*
X375986Y264750D01*
X205214Y308866D02*
X213214D01*
Y316866*
X205214*
Y308866*
X209214Y312866D02*
Y316866D01*
X215214Y308866D02*
X223214D01*
Y316866*
X215214*
Y308866*
X219214Y312866D02*
Y316866D01*
X225214Y308866D02*
X233214D01*
Y316866*
X225214*
Y308866*
X229214Y312866D02*
Y316866D01*
X235214Y308866D02*
X243214D01*
Y316866*
X235214*
Y308866*
X239214Y312866D02*
Y316866D01*
X245214Y308866D02*
X253214D01*
Y316866*
X245214*
Y308866*
X249214Y312866D02*
Y316866D01*
X255214Y308866D02*
X263214D01*
Y316866*
X255214*
Y308866*
X259214Y312866D02*
Y316866D01*
X510000Y313500D02*
X518000D01*
Y321500*
X510000*
Y313500*
X514000Y317500D02*
Y321500D01*
X520000Y313500D02*
X528000D01*
Y321500*
X520000*
Y313500*
X524000Y317500D02*
Y321500D01*
X530000Y313500D02*
X538000D01*
Y321500*
X530000*
Y313500*
X534000Y317500D02*
Y321500D01*
X540000Y313500D02*
X548000D01*
Y321500*
X540000*
Y313500*
X544000Y317500D02*
Y321500D01*
X550000Y313500D02*
X558000D01*
Y321500*
X550000*
Y313500*
X554000Y317500D02*
Y321500D01*
X560000Y313500D02*
X568000D01*
Y321500*
X560000*
Y313500*
X564000Y317500D02*
Y321500D01*
X510000Y118500D02*
X518000D01*
Y126500*
X510000*
Y118500*
X514000Y122500D02*
Y126500D01*
X520000Y118500D02*
X528000D01*
Y126500*
X520000*
Y118500*
X524000Y122500D02*
Y126500D01*
X530000Y118500D02*
X538000D01*
Y126500*
X530000*
Y118500*
X534000Y122500D02*
Y126500D01*
X540000Y118500D02*
X548000D01*
Y126500*
X540000*
Y118500*
X544000Y122500D02*
Y126500D01*
X550000Y118500D02*
X558000D01*
Y126500*
X550000*
Y118500*
X554000Y122500D02*
Y126500D01*
X560000Y118500D02*
X568000D01*
Y126500*
X560000*
Y118500*
X564000Y122500D02*
Y126500D01*
X357000Y224750D02*
X361000Y228750D01*
X357000Y232750*
X353000Y228750*
X357000Y224750*
Y228750D02*
Y232750D01*
Y214750D02*
X361000Y218750D01*
X357000Y222750*
X353000Y218750*
X357000Y214750*
Y218750D02*
Y222750D01*
Y204750D02*
X361000Y208750D01*
X357000Y212750*
X353000Y208750*
X357000Y204750*
Y208750D02*
Y212750D01*
X387048Y204800D02*
X391048Y208800D01*
X387048Y212800*
X383048Y208800*
X387048Y204800*
Y208800D02*
Y212800D01*
Y224800D02*
X391048Y228800D01*
X387048Y232800*
X383048Y228800*
X387048Y224800*
Y228800D02*
Y232800D01*
X123731Y123491D02*
X131731D01*
X123731Y131491*
X131731*
X123731Y123491*
X136696Y115672D02*
X144696D01*
X136696Y123672*
X144696*
X136696Y115672*
X303105Y119276D02*
X311105D01*
X303105Y127276*
X311105*
X303105Y119276*
X311054Y123233D02*
X319054D01*
X311054Y131233*
X319054*
X311054Y123233*
X156862Y159418D02*
X164862D01*
X156862Y167418*
X164862*
X156862Y159418*
X227058Y152650D02*
X235058D01*
X227058Y160650*
X235058*
X227058Y152650*
X123731Y169992D02*
X131731D01*
X123731Y177992*
X131731*
X123731Y169992*
X163931Y174666D02*
X171931D01*
X163931Y182666*
X171931*
X163931Y174666*
X296539Y179004D02*
X304539D01*
X296539Y187004*
X304539*
X296539Y179004*
X172384Y194326D02*
X180384D01*
X172384Y202326*
X180384*
X172384Y194326*
X258300Y198852D02*
X266300D01*
X258300Y206852*
X266300*
X258300Y198852*
X303105Y204164D02*
X311105D01*
X303105Y212164*
X311105*
X303105Y204164*
X539910Y206251D02*
X547910D01*
X539910Y214251*
X547910*
X539910Y206251*
X156574Y214573D02*
X164574D01*
X156574Y222573*
X164574*
X156574Y214573*
X180628Y213390D02*
X188628D01*
X180628Y221390*
X188628*
X180628Y213390*
X211345Y219494D02*
X219345D01*
X211345Y227494*
X219345*
X211345Y219494*
X238024Y224769D02*
X246024D01*
X238024Y232769*
X246024*
X238024Y224769*
X251697Y215656D02*
X259697D01*
X251697Y223656*
X259697*
X251697Y215656*
X258300Y224769D02*
X266300D01*
X258300Y232769*
X266300*
X258300Y224769*
X311054Y224832D02*
X319054D01*
X311054Y232832*
X319054*
X311054Y224832*
X475111Y211251D02*
X483111D01*
X475111Y219251*
X483111*
X475111Y211251*
X480759Y216251D02*
X488759D01*
X480759Y224251*
X488759*
X480759Y216251*
Y225863D02*
X488759D01*
X480759Y233863*
X488759*
X480759Y225863*
X519992Y216251D02*
X527992D01*
X519992Y224251*
X527992*
X519992Y216251*
X529998Y221251D02*
X537998D01*
X529998Y229251*
X537998*
X529998Y221251*
X549906Y211251D02*
X557906D01*
X549906Y219251*
X557906*
X549906Y211251*
X136696Y234552D02*
X144696D01*
X136696Y242552*
X144696*
X136696Y234552*
X197768Y240636D02*
X205768D01*
X197768Y248636*
X205768*
X197768Y240636*
X228497Y229494D02*
X236497D01*
X228497Y237494*
X236497*
X228497Y229494*
X256759Y236744D02*
X264759D01*
X256759Y244744*
X264759*
X256759Y236744*
X266759Y229494D02*
X274759D01*
X266759Y237494*
X274759*
X266759Y229494*
X271738Y240636D02*
X279738D01*
X271738Y248636*
X279738*
X271738Y240636*
X280881Y236744D02*
X288881D01*
X280881Y244744*
X288881*
X280881Y236744*
X225214Y258058D02*
X233214D01*
X225214Y266058*
X233214*
X225214Y258058*
X251730Y258040D02*
X259730D01*
X251730Y266040*
X259730*
X251730Y258040*
X266965D02*
X274965D01*
X266965Y266040*
X274965*
X266965Y258040*
X290449Y253834D02*
X298449D01*
X290449Y261834*
X298449*
X290449Y253834*
X459299Y247322D02*
X467299D01*
X459299Y255322*
X467299*
X459299Y247322*
X251673Y267040D02*
X259673D01*
X251673Y275040*
X259673*
X251673Y267040*
X267080D02*
X275080D01*
X267080Y275040*
X275080*
X267080Y267040*
X156594Y304008D02*
X164594D01*
X156594Y312008*
X164594*
X156594Y304008*
X225214Y290251D02*
X233214D01*
X225214Y298251*
X233214*
X225214Y290251*
X100000Y337500D02*
X575000D01*
Y100000*
X100000*
Y337500*
Y372470D02*
X309500D01*
X100000D02*
X110000Y374970D01*
Y369970*
X100000Y372470*
X575000D02*
X365500D01*
X575000D02*
X565000Y369970D01*
Y374970*
X575000Y372470*
X100000Y342500D02*
Y377470D01*
X575000Y342500D02*
Y377470D01*
X314773Y375283D02*
X312500Y370908D01*
X315909*
X314773Y375283D02*
Y368720D01*
X321136Y375283D02*
X318864Y368720D01*
X317955Y375283D02*
X321136D01*
X326136D02*
X323864D01*
X323636Y372470*
X323864Y372783*
X324545Y373095*
X325227*
X325909Y372783*
X326364Y372158*
X326591Y371220*
X326364Y370595*
X326136Y369658*
X325682Y369033*
X325000Y368720*
X324318*
X323636Y369033*
X323409Y369345*
X323182Y369970*
X330000Y375283D02*
X329318Y374970D01*
X328864Y374033*
X328636Y372470*
Y371533*
X328864Y369970*
X329318Y369033*
X330000Y368720*
X330455*
X331136Y369033*
X331591Y369970*
X331818Y371533*
Y372470*
X331591Y374033*
X331136Y374970*
X330455Y375283*
X330000*
X334091Y369345D02*
X333864Y369033D01*
X334091Y368720*
X334318Y369033*
X334091Y369345*
X337727Y375283D02*
X337045Y374970D01*
X336591Y374033*
X336364Y372470*
Y371533*
X336591Y369970*
X337045Y369033*
X337727Y368720*
X338182*
X338864Y369033*
X339318Y369970*
X339545Y371533*
Y372470*
X339318Y374033*
X338864Y374970*
X338182Y375283*
X337727*
X342955D02*
X342273Y374970D01*
X341818Y374033*
X341591Y372470*
Y371533*
X341818Y369970*
X342273Y369033*
X342955Y368720*
X343409*
X344091Y369033*
X344545Y369970*
X344773Y371533*
Y372470*
X344545Y374033*
X344091Y374970*
X343409Y375283*
X342955*
X348182D02*
X347500Y374970D01*
X347045Y374033*
X346818Y372470*
Y371533*
X347045Y369970*
X347500Y369033*
X348182Y368720*
X348636*
X349318Y369033*
X349773Y369970*
X350000Y371533*
Y372470*
X349773Y374033*
X349318Y374970*
X348636Y375283*
X348182*
X352045Y373095D02*
Y368720D01*
Y371845D02*
X352727Y372783D01*
X353182Y373095*
X353864*
X354318Y372783*
X354545Y371845*
Y368720*
Y371845D02*
X355227Y372783D01*
X355682Y373095*
X356364*
X356818Y372783*
X357045Y371845*
Y368720*
X359091Y375283D02*
X359318Y374970D01*
X359545Y375283*
X359318Y375595*
X359091Y375283*
X359318Y373095D02*
Y368720D01*
X361591Y375283D02*
Y368720D01*
X61588Y100000D02*
Y212000D01*
Y100000D02*
X59088Y110000D01*
X64088*
X61588Y100000*
Y337500D02*
Y225500D01*
Y337500D02*
X64088Y327500D01*
X59088*
X61588Y337500*
X95000Y100000D02*
X56588D01*
X95000Y337500D02*
X56588D01*
X36929Y220000D02*
Y220313D01*
X36929D02*
X37157Y220938D01*
X37157D02*
X37384Y221250D01*
X37838Y221563*
X37838D02*
X38748D01*
X38748D02*
X39202Y221250D01*
X39429Y220938*
X39429D02*
X39657Y220313D01*
X39657D02*
Y219688D01*
X39657D02*
X39429Y219063D01*
X39429D02*
X38975Y218125D01*
X36702Y215000*
X39884*
X42384Y221563D02*
X44884D01*
X44884D02*
X43520Y219063D01*
X43520D02*
X44202D01*
X44202D02*
X44657Y218750D01*
X44884Y218438*
X44884D02*
X45111Y217500D01*
Y216875*
X44884Y215938*
X44884D02*
X44429Y215313D01*
X44429D02*
X43748Y215000D01*
X43066*
X42384Y215313*
X42384D02*
X42157Y215625D01*
X41929Y216250*
X50338Y221563D02*
X48066Y215000D01*
X47157Y221563D02*
X50338D01*
X55338D02*
X53066D01*
X53066D02*
X52838Y218750D01*
X53066Y219063*
X53066D02*
X53748Y219375D01*
X54429*
X55111Y219063*
X55111D02*
X55566Y218438D01*
X55566D02*
X55793Y217500D01*
X55566Y216875*
X55338Y215938*
X55338D02*
X54884Y215313D01*
X54884D02*
X54202Y215000D01*
X53520*
X52838Y215313*
X52838D02*
X52611Y215625D01*
X52384Y216250*
X58066Y215625D02*
X57838Y215313D01*
X57838D02*
X58066Y215000D01*
X58293Y215313*
X58293D02*
X58066Y215625D01*
X61702Y221563D02*
X61020Y221250D01*
X60566Y220313*
X60566D02*
X60338Y218750D01*
Y217813*
X60338D02*
X60566Y216250D01*
X61020Y215313*
X61020D02*
X61702Y215000D01*
X62157*
X62838Y215313*
X62838D02*
X63293Y216250D01*
X63520Y217813*
X63520D02*
Y218750D01*
X63293Y220313*
X63293D02*
X62838Y221250D01*
X62157Y221563*
X62157D02*
X61702D01*
X66929D02*
X66248Y221250D01*
X65793Y220313*
X65793D02*
X65566Y218750D01*
Y217813*
X65566D02*
X65793Y216250D01*
X66248Y215313*
X66248D02*
X66929Y215000D01*
X67384*
X68066Y215313*
X68066D02*
X68520Y216250D01*
X68748Y217813*
X68748D02*
Y218750D01*
X68520Y220313*
X68520D02*
X68066Y221250D01*
X67384Y221563*
X67384D02*
X66929D01*
X72157D02*
X71475Y221250D01*
X71020Y220313*
X71020D02*
X70793Y218750D01*
Y217813*
X70793D02*
X71020Y216250D01*
X71475Y215313*
X71475D02*
X72157Y215000D01*
X72611*
X73293Y215313*
X73293D02*
X73748Y216250D01*
X73975Y217813*
X73975D02*
Y218750D01*
X73748Y220313*
X73748D02*
X73293Y221250D01*
X72611Y221563*
X72611D02*
X72157D01*
X76020Y219375D02*
Y215000D01*
Y218125D02*
X76702Y219063D01*
X76702D02*
X77157Y219375D01*
X77838*
X78293Y219063*
X78293D02*
X78520Y218125D01*
Y215000*
Y218125D02*
X79202Y219063D01*
X79202D02*
X79657Y219375D01*
X80338*
X80793Y219063*
X80793D02*
X81020Y218125D01*
Y215000*
X83066Y221563D02*
X83293Y221250D01*
X83520Y221563*
X83520D02*
X83293Y221875D01*
X83066Y221563*
X83293Y219375D02*
Y215000D01*
X85566Y221563D02*
Y215000D01*
X300000Y544000D02*
X558000D01*
X300000Y520000D02*
X558000D01*
X300000Y496000D02*
X558000D01*
X300000Y472000D02*
X558000D01*
X300000Y448000D02*
X558000D01*
X300000Y424000D02*
X558000D01*
X300000Y400000D02*
X558000D01*
X300000Y544000D02*
Y400000D01*
X384000Y544000D02*
Y400000D01*
X420000Y544000D02*
Y400000D01*
X456000Y544000D02*
Y400000D01*
X510000Y544000D02*
Y400000D01*
X558000Y544000D02*
Y400000D01*
X335500Y532750D02*
X334955Y533500D01*
X334136Y533875*
X333045*
X332227Y533500*
X331682Y532750*
Y532000*
X331955Y531250*
X332227Y530875*
X332773Y530500*
X334409Y529750*
X334955Y529375*
X335227Y529000*
X335500Y528250*
Y527125*
X334955Y526375*
X334136Y526000*
X333045*
X332227Y526375*
X331682Y527125*
X337955Y533875D02*
Y526000D01*
X344227Y533875D02*
X340409Y526000D01*
Y533875D02*
X344227D01*
X340409Y526000D02*
X344227D01*
X346682Y533875D02*
Y526000D01*
Y533875D02*
X350227D01*
X346682Y530125D02*
X348864D01*
X346682Y526000D02*
X350227D01*
X393864Y533875D02*
X393318Y533500D01*
X392773Y532750*
X392500Y532000*
X392227Y530875*
Y529000*
X392500Y527875*
X392773Y527125*
X393318Y526375*
X393864Y526000*
X394955*
X395500Y526375*
X396045Y527125*
X396318Y527875*
X396591Y529000*
Y530875*
X396318Y532000*
X396045Y532750*
X395500Y533500*
X394955Y533875*
X393864*
X394682Y527500D02*
X396318Y525250D01*
X400955Y533875D02*
Y526000D01*
X399045Y533875D02*
X402864D01*
X405318D02*
X407500Y530125D01*
Y526000*
X409682Y533875D02*
X407500Y530125D01*
X432045Y532750D02*
X431500Y533500D01*
X430682Y533875*
X429591*
X428773Y533500*
X428227Y532750*
Y532000*
X428500Y531250*
X428773Y530875*
X429318Y530500*
X430955Y529750*
X431500Y529375*
X431773Y529000*
X432045Y528250*
Y527125*
X431500Y526375*
X430682Y526000*
X429591*
X428773Y526375*
X428227Y527125*
X434500Y533875D02*
X436682Y530125D01*
Y526000*
X438864Y533875D02*
X436682Y530125D01*
X441318Y533875D02*
Y526000D01*
Y533875D02*
X443500Y526000D01*
X445682Y533875D02*
X443500Y526000D01*
X445682Y533875D02*
Y526000D01*
X467500Y533875D02*
Y526000D01*
Y533875D02*
X469955D01*
X470773Y533500*
X471045Y533125*
X471318Y532375*
Y531250*
X471045Y530500*
X470773Y530125*
X469955Y529750*
X467500*
X473773Y533875D02*
Y526000D01*
X477045*
X481682Y533875D02*
X479500Y526000D01*
X481682Y533875D02*
X483864Y526000D01*
X480318Y528625D02*
X483045D01*
X488227Y533875D02*
Y526000D01*
X486318Y533875D02*
X490136D01*
X492591D02*
Y526000D01*
Y533875D02*
X496136D01*
X492591Y530125D02*
X494773D01*
X492591Y526000D02*
X496136D01*
X498591Y533875D02*
Y526000D01*
Y533875D02*
X500500D01*
X501318Y533500*
X501864Y532750*
X502136Y532000*
X502409Y530875*
Y529000*
X502136Y527875*
X501864Y527125*
X501318Y526375*
X500500Y526000*
X498591*
X526682Y533875D02*
Y526000D01*
X524773Y533875D02*
X528591D01*
X532682D02*
X532136Y533500D01*
X531591Y532750*
X531318Y532000*
X531045Y530875*
Y529000*
X531318Y527875*
X531591Y527125*
X532136Y526375*
X532682Y526000*
X533773*
X534318Y526375*
X534864Y527125*
X535136Y527875*
X535409Y529000*
Y530875*
X535136Y532000*
X534864Y532750*
X534318Y533500*
X533773Y533875*
X532682*
X537864D02*
Y526000D01*
X541136*
X306000Y508375D02*
X306545Y508750D01*
X307364Y509875*
Y502000*
X313364Y509875D02*
X310636D01*
X310364Y506500*
X310636Y506875*
X311455Y507250*
X312273*
X313091Y506875*
X313636Y506125*
X313909Y505000*
X313636Y504250*
X313364Y503125*
X312818Y502375*
X312000Y502000*
X311182*
X310364Y502375*
X310091Y502750*
X309818Y503500*
X320182Y509875D02*
X317455Y502000D01*
X316364Y509875D02*
X320182D01*
X322909Y502750D02*
X322636Y502375D01*
X322909Y502000*
X323182Y502375*
X322909Y502750*
X328364Y509875D02*
X325636Y504625D01*
X329727*
X328364Y509875D02*
Y502000D01*
X333545Y509875D02*
X332727Y509500D01*
X332455Y508750*
Y508000*
X332727Y507250*
X333273Y506875*
X334364Y506500*
X335182Y506125*
X335727Y505375*
X336000Y504625*
Y503500*
X335727Y502750*
X335455Y502375*
X334636Y502000*
X333545*
X332727Y502375*
X332455Y502750*
X332182Y503500*
Y504625*
X332455Y505375*
X333000Y506125*
X333818Y506500*
X334909Y506875*
X335455Y507250*
X335727Y508000*
Y508750*
X335455Y509500*
X334636Y509875*
X333545*
X401636D02*
X398909Y504625D01*
X403000*
X401636Y509875D02*
Y502000D01*
X432000Y508000D02*
X444000D01*
X438000Y502000D02*
Y514000D01*
X464636Y509875D02*
X466818Y506125D01*
Y502000*
X469000Y509875D02*
X466818Y506125D01*
X471455Y509875D02*
Y502000D01*
Y509875D02*
X475000D01*
X471455Y506125D02*
X473636D01*
X471455Y502000D02*
X475000D01*
X481273Y508750D02*
X480727Y509500D01*
X479909Y509875*
X478818*
X478000Y509500*
X477455Y508750*
Y508000*
X477727Y507250*
X478000Y506875*
X478545Y506500*
X480182Y505750*
X480727Y505375*
X481000Y505000*
X481273Y504250*
Y503125*
X480727Y502375*
X479909Y502000*
X478818*
X478000Y502375*
X477455Y503125*
X517818Y508750D02*
Y502000D01*
X515364Y505375D02*
X520273D01*
X527636Y511375D02*
X522727Y499375D01*
X530091Y505375D02*
X535000D01*
X539091Y509875D02*
X538273Y509500D01*
X537727Y508375*
X537455Y506500*
Y505375*
X537727Y503500*
X538273Y502375*
X539091Y502000*
X539636*
X540455Y502375*
X541000Y503500*
X541273Y505375*
Y506500*
X541000Y508375*
X540455Y509500*
X539636Y509875*
X539091*
X544000Y502750D02*
X543727Y502375D01*
X544000Y502000*
X544273Y502375*
X544000Y502750*
X548364Y509875D02*
X547545Y509500D01*
X547000Y508375*
X546727Y506500*
Y505375*
X547000Y503500*
X547545Y502375*
X548364Y502000*
X548909*
X549727Y502375*
X550273Y503500*
X550545Y505375*
Y506500*
X550273Y508375*
X549727Y509500*
X548909Y509875*
X548364*
X306000Y484375D02*
X306545Y484750D01*
X307364Y485875*
Y478000*
X311455Y485875D02*
X310636Y485500D01*
X310091Y484375*
X309818Y482500*
Y481375*
X310091Y479500*
X310636Y478375*
X311455Y478000*
X312000*
X312818Y478375*
X313364Y479500*
X313636Y481375*
Y482500*
X313364Y484375*
X312818Y485500*
X312000Y485875*
X311455*
X317727D02*
X316909Y485500D01*
X316364Y484375*
X316091Y482500*
Y481375*
X316364Y479500*
X316909Y478375*
X317727Y478000*
X318273*
X319091Y478375*
X319636Y479500*
X319909Y481375*
Y482500*
X319636Y484375*
X319091Y485500*
X318273Y485875*
X317727*
X399318Y484000D02*
Y484375D01*
X399591Y485125*
X399864Y485500*
X400409Y485875*
X401500*
X402045Y485500*
X402318Y485125*
X402591Y484375*
Y483625*
X402318Y482875*
X401773Y481750*
X399045Y478000*
X402864*
X432000D02*
X444000Y490000D01*
X432000D02*
X444000Y478000D01*
X464636Y485875D02*
X466818Y482125D01*
Y478000*
X469000Y485875D02*
X466818Y482125D01*
X471455Y485875D02*
Y478000D01*
Y485875D02*
X475000D01*
X471455Y482125D02*
X473636D01*
X471455Y478000D02*
X475000D01*
X481273Y484750D02*
X480727Y485500D01*
X479909Y485875*
X478818*
X478000Y485500*
X477455Y484750*
Y484000*
X477727Y483250*
X478000Y482875*
X478545Y482500*
X480182Y481750*
X480727Y481375*
X481000Y481000*
X481273Y480250*
Y479125*
X480727Y478375*
X479909Y478000*
X478818*
X478000Y478375*
X477455Y479125*
X517818Y484750D02*
Y478000D01*
X515364Y481375D02*
X520273D01*
X527636Y487375D02*
X522727Y475375D01*
X530091Y481375D02*
X535000D01*
X539091Y485875D02*
X538273Y485500D01*
X537727Y484375*
X537455Y482500*
Y481375*
X537727Y479500*
X538273Y478375*
X539091Y478000*
X539636*
X540455Y478375*
X541000Y479500*
X541273Y481375*
Y482500*
X541000Y484375*
X540455Y485500*
X539636Y485875*
X539091*
X544000Y478750D02*
X543727Y478375D01*
X544000Y478000*
X544273Y478375*
X544000Y478750*
X548364Y485875D02*
X547545Y485500D01*
X547000Y484375*
X546727Y482500*
Y481375*
X547000Y479500*
X547545Y478375*
X548364Y478000*
X548909*
X549727Y478375*
X550273Y479500*
X550545Y481375*
Y482500*
X550273Y484375*
X549727Y485500*
X548909Y485875*
X548364*
X306545Y461875D02*
X309545D01*
X307909Y458875*
X308727*
X309273Y458500*
X309545Y458125*
X309818Y457000*
Y456250*
X309545Y455125*
X309000Y454375*
X308182Y454000*
X307364*
X306545Y454375*
X306273Y454750*
X306000Y455500*
X315818Y461875D02*
X313091D01*
X312818Y458500*
X313091Y458875*
X313909Y459250*
X314727*
X315545Y458875*
X316091Y458125*
X316364Y457000*
X316091Y456250*
X315818Y455125*
X315273Y454375*
X314455Y454000*
X313636*
X312818Y454375*
X312545Y454750*
X312273Y455500*
X397136Y460375D02*
X397682Y460750D01*
X398500Y461875*
Y454000*
X402318Y461875D02*
X401500Y461500D01*
X401227Y460750*
Y460000*
X401500Y459250*
X402045Y458875*
X403136Y458500*
X403955Y458125*
X404500Y457375*
X404773Y456625*
Y455500*
X404500Y454750*
X404227Y454375*
X403409Y454000*
X402318*
X401500Y454375*
X401227Y454750*
X400955Y455500*
Y456625*
X401227Y457375*
X401773Y458125*
X402591Y458500*
X403682Y458875*
X404227Y459250*
X404500Y460000*
Y460750*
X404227Y461500*
X403409Y461875*
X402318*
X432000Y454000D02*
X444000D01*
Y466000*
X432000*
Y454000*
X438000Y460000D02*
Y466000D01*
X464636Y461875D02*
X466818Y458125D01*
Y454000*
X469000Y461875D02*
X466818Y458125D01*
X471455Y461875D02*
Y454000D01*
Y461875D02*
X475000D01*
X471455Y458125D02*
X473636D01*
X471455Y454000D02*
X475000D01*
X481273Y460750D02*
X480727Y461500D01*
X479909Y461875*
X478818*
X478000Y461500*
X477455Y460750*
Y460000*
X477727Y459250*
X478000Y458875*
X478545Y458500*
X480182Y457750*
X480727Y457375*
X481000Y457000*
X481273Y456250*
Y455125*
X480727Y454375*
X479909Y454000*
X478818*
X478000Y454375*
X477455Y455125*
X517818Y460750D02*
Y454000D01*
X515364Y457375D02*
X520273D01*
X527636Y463375D02*
X522727Y451375D01*
X530091Y457375D02*
X535000D01*
X539091Y461875D02*
X538273Y461500D01*
X537727Y460375*
X537455Y458500*
Y457375*
X537727Y455500*
X538273Y454375*
X539091Y454000*
X539636*
X540455Y454375*
X541000Y455500*
X541273Y457375*
Y458500*
X541000Y460375*
X540455Y461500*
X539636Y461875*
X539091*
X544000Y454750D02*
X543727Y454375D01*
X544000Y454000*
X544273Y454375*
X544000Y454750*
X548364Y461875D02*
X547545Y461500D01*
X547000Y460375*
X546727Y458500*
Y457375*
X547000Y455500*
X547545Y454375*
X548364Y454000*
X548909*
X549727Y454375*
X550273Y455500*
X550545Y457375*
Y458500*
X550273Y460375*
X549727Y461500*
X548909Y461875*
X548364*
X308727Y437875D02*
X306000Y432625D01*
X310091*
X308727Y437875D02*
Y430000D01*
X312545Y436375D02*
X313091Y436750D01*
X313909Y437875*
Y430000*
X402455Y437875D02*
X399727D01*
X399455Y434500*
X399727Y434875*
X400545Y435250*
X401364*
X402182Y434875*
X402727Y434125*
X403000Y433000*
X402727Y432250*
X402455Y431125*
X401909Y430375*
X401091Y430000*
X400273*
X399455Y430375*
X399182Y430750*
X398909Y431500*
X438000Y430000D02*
X444000Y436000D01*
X438000Y442000*
X432000Y436000*
X438000Y430000*
Y436000D02*
Y442000D01*
X464636Y437875D02*
X466818Y434125D01*
Y430000*
X469000Y437875D02*
X466818Y434125D01*
X471455Y437875D02*
Y430000D01*
Y437875D02*
X475000D01*
X471455Y434125D02*
X473636D01*
X471455Y430000D02*
X475000D01*
X481273Y436750D02*
X480727Y437500D01*
X479909Y437875*
X478818*
X478000Y437500*
X477455Y436750*
Y436000*
X477727Y435250*
X478000Y434875*
X478545Y434500*
X480182Y433750*
X480727Y433375*
X481000Y433000*
X481273Y432250*
Y431125*
X480727Y430375*
X479909Y430000*
X478818*
X478000Y430375*
X477455Y431125*
X517818Y436750D02*
Y430000D01*
X515364Y433375D02*
X520273D01*
X527636Y439375D02*
X522727Y427375D01*
X530091Y433375D02*
X535000D01*
X539091Y437875D02*
X538273Y437500D01*
X537727Y436375*
X537455Y434500*
Y433375*
X537727Y431500*
X538273Y430375*
X539091Y430000*
X539636*
X540455Y430375*
X541000Y431500*
X541273Y433375*
Y434500*
X541000Y436375*
X540455Y437500*
X539636Y437875*
X539091*
X544000Y430750D02*
X543727Y430375D01*
X544000Y430000*
X544273Y430375*
X544000Y430750*
X548364Y437875D02*
X547545Y437500D01*
X547000Y436375*
X546727Y434500*
Y433375*
X547000Y431500*
X547545Y430375*
X548364Y430000*
X548909*
X549727Y430375*
X550273Y431500*
X550545Y433375*
Y434500*
X550273Y436375*
X549727Y437500*
X548909Y437875*
X548364*
X306273Y412000D02*
Y412375D01*
X306545Y413125*
X306818Y413500*
X307364Y413875*
X308455*
X309000Y413500*
X309273Y413125*
X309545Y412375*
Y411625*
X309273Y410875*
X308727Y409750*
X306000Y406000*
X309818*
X313909Y413875D02*
X313091Y413500D01*
X312545Y412375*
X312273Y410500*
Y409375*
X312545Y407500*
X313091Y406375*
X313909Y406000*
X314455*
X315273Y406375*
X315818Y407500*
X316091Y409375*
Y410500*
X315818Y412375*
X315273Y413500*
X314455Y413875*
X313909*
X398500D02*
X395773Y408625D01*
X399864*
X398500Y413875D02*
Y406000D01*
X402591Y412000D02*
Y412375D01*
X402864Y413125*
X403136Y413500*
X403682Y413875*
X404773*
X405318Y413500*
X405591Y413125*
X405864Y412375*
Y411625*
X405591Y410875*
X405045Y409750*
X402318Y406000*
X406136*
X432000D02*
X444000D01*
X432000Y418000*
X444000*
X432000Y406000*
X464636Y413875D02*
X466818Y410125D01*
Y406000*
X469000Y413875D02*
X466818Y410125D01*
X471455Y413875D02*
Y406000D01*
Y413875D02*
X475000D01*
X471455Y410125D02*
X473636D01*
X471455Y406000D02*
X475000D01*
X481273Y412750D02*
X480727Y413500D01*
X479909Y413875*
X478818*
X478000Y413500*
X477455Y412750*
Y412000*
X477727Y411250*
X478000Y410875*
X478545Y410500*
X480182Y409750*
X480727Y409375*
X481000Y409000*
X481273Y408250*
Y407125*
X480727Y406375*
X479909Y406000*
X478818*
X478000Y406375*
X477455Y407125*
X517818Y412750D02*
Y406000D01*
X515364Y409375D02*
X520273D01*
X527636Y415375D02*
X522727Y403375D01*
X530091Y409375D02*
X535000D01*
X539091Y413875D02*
X538273Y413500D01*
X537727Y412375*
X537455Y410500*
Y409375*
X537727Y407500*
X538273Y406375*
X539091Y406000*
X539636*
X540455Y406375*
X541000Y407500*
X541273Y409375*
Y410500*
X541000Y412375*
X540455Y413500*
X539636Y413875*
X539091*
X544000Y406750D02*
X543727Y406375D01*
X544000Y406000*
X544273Y406375*
X544000Y406750*
X548364Y413875D02*
X547545Y413500D01*
X547000Y412375*
X546727Y410500*
Y409375*
X547000Y407500*
X547545Y406375*
X548364Y406000*
X548909*
X549727Y406375*
X550273Y407500*
X550545Y409375*
Y410500*
X550273Y412375*
X549727Y413500*
X548909Y413875*
X548364*
X0Y0D02*
M02*
