*
*
G04 PADS 9.4.1 Build Number: 494907 generated Gerber (RS-274-X) file*
G04 PC Version=2.1*
*
%IN "bms2014.pcb"*%
*
%MOIN*%
*
%FSLAX35Y35*%
*
*
*
*
G04 PC Standard Apertures*
*
*
G04 Thermal Relief Aperture macro.*
%AMTER*
1,1,$1,0,0*
1,0,$1-$2,0,0*
21,0,$3,$4,0,0,45*
21,0,$3,$4,0,0,135*
%
*
*
G04 Annular Aperture macro.*
%AMANN*
1,1,$1,0,0*
1,0,$2,0,0*
%
*
*
G04 Odd Aperture macro.*
%AMODD*
1,1,$1,0,0*
1,0,$1-0.005,0,0*
%
*
*
G04 PC Custom Aperture Macros*
*
*
*
*
*
*
G04 PC Aperture Table*
*
%ADD010C,0.001*%
%ADD011C,0.01*%
%ADD013C,0.007*%
%ADD016C,0.005*%
*
*
*
*
G04 PC Circuitry*
G04 Layer Name bms2014.pcb - circuitry*
%LPD*%
*
*
G04 PC Custom Flashes*
G04 Layer Name bms2014.pcb - flashes*
%LPD*%
*
*
G04 PC Circuitry*
G04 Layer Name bms2014.pcb - circuitry*
%LPD*%
*
G54D10*
G54D11*
G01X537386Y213340D02*
X529386D01*
Y222340*
X537386*
X540386Y213340D02*
X548386D01*
Y222340*
X540386*
X190804Y211526D02*
X198804D01*
Y202526*
X190804*
X187804Y211526D02*
X179804D01*
Y202526*
X187804*
X540648Y203316D02*
X541273Y203088D01*
X541898Y202634*
X542210Y202179*
Y201270*
X541898Y200816*
X541273Y200361*
X540648Y200134*
X539710Y199907*
X538148*
X537210Y200134*
X536585Y200361*
X535960Y200816*
X535648Y201270*
Y202179*
X535960Y202634*
X536585Y203088*
X537210Y203316*
X542210Y206498D02*
X541898Y205816D01*
X541273Y205588*
X540648*
X540023Y205816*
X539710Y206270*
X539398Y207179*
X539085Y207861*
X538460Y208316*
X537835Y208543*
X536898*
X536273Y208316*
X535960Y208088*
X535648Y207407*
Y206498*
X535960Y205816*
X536273Y205588*
X536898Y205361*
X537835*
X538460Y205588*
X539085Y206043*
X539398Y206725*
X539710Y207634*
X540023Y208088*
X540648Y208316*
X541273*
X541898Y208088*
X542210Y207407*
Y206498*
X190678Y195574D02*
X191303Y195347D01*
X191928Y194892*
X192240Y194438*
Y193529*
X191928Y193074*
X191303Y192620*
X190678Y192392*
X189740Y192165*
X188178*
X187240Y192392*
X186615Y192620*
X185990Y193074*
X185678Y193529*
Y194438*
X185990Y194892*
X186615Y195347*
X187240Y195574*
X190053Y200574D02*
X189115Y200347D01*
X188490Y199892*
X188178Y199211*
Y198983*
X188490Y198302*
X188490D02*
X189115Y197847D01*
X190053Y197620*
X190365*
X191303Y197847*
X191928Y198302*
X191928D02*
X192240Y198983D01*
Y199211*
X191928Y199892*
X191303Y200347*
X190053Y200574*
X188490*
X186928Y200347*
X185990Y199892*
X185678Y199211*
Y198756*
X185990Y198074*
X186615Y197847*
G54D13*
X187000Y171594D02*
Y183406D01*
X183000*
Y171594*
X187000*
X175000Y168642D02*
Y171500D01*
X176000*
Y168642*
X175000*
X176000D02*
Y171500D01*
X174000*
Y168642*
X176000*
X187000Y254094D02*
Y265906D01*
X183000*
Y254094*
X187000*
X175000Y251142D02*
Y254000D01*
X176000*
Y251142*
X175000*
X176000D02*
Y254000D01*
X174000*
Y251142*
X176000*
G54D16*
X171392Y169876D02*
X169283D01*
X168861Y169990*
X168580Y170217*
X168439Y170558*
Y170785*
X168580Y171126*
X168861Y171353*
X169283Y171467*
X171392*
Y173967D02*
Y172831D01*
X170126Y172717*
X170267Y172831*
X170408Y173171*
Y173512*
X170267Y173853*
X169986Y174081*
X169564Y174194*
X169283Y174081*
X168861Y173967*
X168580Y173740*
X168439Y173399*
Y173058*
X168580Y172717*
X168720Y172603*
X169001Y172490*
X171392Y176126D02*
X168439Y175217D01*
X171392Y176126D02*
X168439Y177035D01*
X169423Y175558D02*
Y176694D01*
X171392Y252376D02*
X169283D01*
X168861Y252490*
X168580Y252717*
X168439Y253058*
Y253285*
X168580Y253626*
X168861Y253853*
X169283Y253967*
X171392*
Y256467D02*
Y255331D01*
X170126Y255217*
X170267Y255331*
X170408Y255671*
Y256012*
X170267Y256353*
X169986Y256581*
X169564Y256694*
X169283Y256581*
X168861Y256467*
X168580Y256240*
X168439Y255899*
Y255558*
X168580Y255217*
X168720Y255103*
X169001Y254990*
X171392Y257717D02*
X168439D01*
X171392D02*
Y258740D01*
X171251Y259081*
X171111Y259194*
X170830Y259308*
X170548*
X170267Y259194*
X170126Y259081*
X169986Y258740*
Y257717D02*
Y258740D01*
X169845Y259081*
X169705Y259194*
X169423Y259308*
X169001*
X168720Y259194*
X168580Y259081*
X168439Y258740*
Y257717*
X0Y0D02*
M02*
